<svg width="171" height="108" viewBox="0 0 171 108" fill="none" xmlns="http://www.w3.org/2000/svg">
<rect width="171" height="108" rx="13" fill="url(#paint0_linear_40_5647)"/>
<path d="M79.9251 32.582L52.8359 49.4498H87.0267L114.443 32.582H79.9251Z" fill="black"/>
<path d="M69.2611 32.5107L42.1719 49.3785H49.6942L77.1102 32.5107H69.2611Z" fill="black"/>
<path d="M58.5931 32.582L31.5039 49.4498H39.0262L66.4423 32.582H58.5931Z" fill="black"/>
<path d="M90.9844 49.4242L117.937 32.705L118.243 32.5154V26L140 41.865L118.243 57V49.4242H90.9844Z" fill="black"/>
<path d="M61.5673 81V63.24H69.0553C69.6313 63.24 70.2153 63.312 70.8073 63.456C71.4153 63.584 71.9673 63.856 72.4633 64.272C72.9753 64.672 73.3833 65.28 73.6873 66.096C74.0073 66.912 74.1673 67.992 74.1673 69.336C74.1673 70.68 74.0073 71.768 73.6873 72.6C73.3833 73.432 72.9833 74.064 72.4873 74.496C71.9913 74.928 71.4553 75.216 70.8793 75.36C70.3033 75.504 69.7433 75.576 69.1993 75.576C68.9113 75.576 68.5753 75.568 68.1913 75.552C67.8073 75.52 67.4153 75.48 67.0153 75.432C66.6313 75.384 66.2713 75.344 65.9353 75.312C65.5993 75.264 65.3273 75.224 65.1193 75.192V81H61.5673ZM65.1193 72.384H68.6473C69.0633 72.384 69.4153 72.288 69.7033 72.096C70.0073 71.888 70.2313 71.568 70.3753 71.136C70.5193 70.688 70.5913 70.096 70.5913 69.36C70.5913 68.64 70.5113 68.072 70.3513 67.656C70.2073 67.224 69.9913 66.912 69.7033 66.72C69.4313 66.528 69.1033 66.432 68.7193 66.432H65.1193V72.384ZM80.6735 81C79.7615 81 78.9855 80.864 78.3455 80.592C77.7215 80.304 77.2495 79.856 76.9295 79.248C76.6255 78.624 76.4735 77.808 76.4735 76.8V63.24H80.0255V76.224C80.0255 76.608 80.0895 76.92 80.2175 77.16C80.3615 77.4 80.5535 77.568 80.7935 77.664C81.0335 77.744 81.3055 77.784 81.6095 77.784H87.2255V81H80.6735ZM88.1893 81L93.7573 63.24H98.2453L103.813 81H100.117L98.9893 77.28H92.9413L91.8373 81H88.1893ZM93.7812 74.088H98.1493L95.9653 66.288L93.7812 74.088ZM108.658 81V75.624L103.306 63.24H107.002L110.506 72L113.986 63.24H117.538L112.21 75.624V81H108.658Z" fill="black"/>
<defs>
<linearGradient id="paint0_linear_40_5647" x1="85.5" y1="17.9771" x2="85.5" y2="108" gradientUnits="userSpaceOnUse">
<stop stop-color="#4DF0B4"/>
<stop offset="1" stop-color="#25976C"/>
</linearGradient>
</defs>
</svg>
