<svg width="29" height="30" viewBox="0 0 29 30" fill="none" xmlns="http://www.w3.org/2000/svg">
<path d="M14.2371 3.44489C15.1071 3.45437 15.9734 3.55511 16.8232 3.74474C17.004 3.78509 17.1677 3.88092 17.2913 4.01882C17.415 4.15673 17.4925 4.32982 17.513 4.51392L17.7145 6.3237C17.7429 6.57885 17.8309 6.82376 17.9712 7.03873C18.1116 7.25369 18.3004 7.43271 18.5226 7.56138C18.7448 7.69004 18.994 7.76476 19.2503 7.77952C19.5067 7.79428 19.7629 7.74867 19.9983 7.64637L21.6588 6.91748C21.8274 6.84323 22.0148 6.82319 22.1953 6.86013C22.3758 6.89707 22.5403 6.98918 22.6662 7.1237C23.8655 8.40499 24.7586 9.94161 25.2783 11.6179C25.3328 11.7941 25.3312 11.9828 25.2736 12.158C25.2161 12.3332 25.1055 12.4862 24.9571 12.5957L23.4851 13.6813C23.2781 13.8334 23.1098 14.032 22.9938 14.2612C22.8778 14.4903 22.8173 14.7436 22.8173 15.0004C22.8173 15.2573 22.8778 15.5105 22.9938 15.7397C23.1098 15.9689 23.2781 16.1675 23.4851 16.3196L24.9583 17.404C25.1071 17.5135 25.2181 17.6665 25.2759 17.842C25.3336 18.0174 25.3353 18.2065 25.2807 18.383C24.7608 20.0592 23.8677 21.5958 22.6685 22.8772C22.543 23.0114 22.379 23.1034 22.199 23.1406C22.019 23.1777 21.8319 23.1582 21.6635 23.0846L19.9959 22.3533C19.7608 22.2502 19.5047 22.2039 19.2483 22.2182C18.9919 22.2325 18.7425 22.3069 18.5203 22.4354C18.298 22.564 18.1091 22.7431 17.9689 22.9582C17.8287 23.1733 17.7412 23.4184 17.7133 23.6736L17.513 25.4822C17.4928 25.6643 17.4168 25.8357 17.2955 25.973C17.1741 26.1103 17.0133 26.2067 16.8351 26.249C15.1184 26.6575 13.3298 26.6575 11.6131 26.249C11.4349 26.2067 11.2741 26.1103 11.1527 25.973C11.0314 25.8357 10.9554 25.6643 10.9352 25.4822L10.7361 23.676C10.7071 23.4214 10.6187 23.1772 10.4781 22.9629C10.3375 22.7487 10.1486 22.5704 9.92659 22.4425C9.70457 22.3145 9.45562 22.2404 9.19977 22.2262C8.94391 22.2119 8.68828 22.2579 8.45343 22.3604L6.78706 23.0905C6.6185 23.1644 6.43118 23.1841 6.25095 23.1469C6.07072 23.1098 5.90646 23.0176 5.78084 22.8831C4.58109 21.6003 3.68796 20.062 3.16869 18.3841C3.11405 18.2077 3.11573 18.0186 3.1735 17.8432C3.23128 17.6677 3.34227 17.5146 3.49106 17.4052L4.96425 16.3196C5.17147 16.1676 5.33999 15.9691 5.45616 15.7399C5.57232 15.5107 5.63285 15.2574 5.63285 15.0004C5.63285 14.7435 5.57232 14.4902 5.45616 14.261C5.33999 14.0318 5.17147 13.8332 4.96425 13.6813L3.49106 12.5981C3.34248 12.4885 3.23172 12.3353 3.17417 12.1599C3.11661 11.9844 3.11511 11.7954 3.16987 11.6191C3.68961 9.94281 4.58272 8.4062 5.78202 7.12488C5.90787 6.99036 6.07241 6.89826 6.25288 6.86132C6.43335 6.82437 6.62084 6.84441 6.78943 6.91866L8.44869 7.64755C8.68456 7.7498 8.94113 7.7953 9.19778 7.7804C9.45443 7.76549 9.70401 7.6906 9.92646 7.56174C10.1489 7.43288 10.338 7.25364 10.4787 7.03842C10.6193 6.82319 10.7074 6.578 10.7361 6.32251L10.9376 4.51392C10.9579 4.32945 11.0355 4.15598 11.1594 4.01782C11.2833 3.87966 11.4474 3.78376 11.6285 3.74355C12.4783 3.55511 13.3471 3.45555 14.2371 3.44489ZM14.2229 11.4449C13.2799 11.4449 12.3755 11.8195 11.7088 12.4863C11.042 13.1531 10.6674 14.0574 10.6674 15.0004C10.6674 15.9434 11.042 16.8478 11.7088 17.5146C12.3755 18.1814 13.2799 18.556 14.2229 18.556C15.1659 18.556 16.0703 18.1814 16.7371 17.5146C17.4039 16.8478 17.7785 15.9434 17.7785 15.0004C17.7785 14.0574 17.4039 13.1531 16.7371 12.4863C16.0703 11.8195 15.1659 11.4449 14.2229 11.4449Z" fill="white"/>
</svg>
