<svg width="123" height="122" viewBox="0 0 123 122" fill="none" xmlns="http://www.w3.org/2000/svg">
<circle cx="60.5" cy="59.5" r="54.5" fill="#2F4151"/>
<g filter="url(#filter0_di_18_1575)">
<path d="M119 60C119 92.0325 93.0325 118 61 118C28.9675 118 3 92.0325 3 60C3 27.9675 28.9675 2 61 2C93.0325 2 119 27.9675 119 60ZM7.54695 60C7.54695 89.5213 31.4787 113.453 61 113.453C90.5213 113.453 114.453 89.5213 114.453 60C114.453 30.4787 90.5213 6.54695 61 6.54695C31.4787 6.54695 7.54695 30.4787 7.54695 60Z" fill="url(#paint0_linear_18_1575)"/>
</g>
<defs>
<filter id="filter0_di_18_1575" x="0.928822" y="0.520587" width="121.326" height="121.326" filterUnits="userSpaceOnUse" color-interpolation-filters="sRGB">
<feFlood flood-opacity="0" result="BackgroundImageFix"/>
<feColorMatrix in="SourceAlpha" type="matrix" values="0 0 0 0 0 0 0 0 0 0 0 0 0 0 0 0 0 0 127 0" result="hardAlpha"/>
<feOffset dx="0.591765" dy="1.18353"/>
<feGaussianBlur stdDeviation="1.33147"/>
<feComposite in2="hardAlpha" operator="out"/>
<feColorMatrix type="matrix" values="0 0 0 0 0.0991374 0 0 0 0 0.0991374 0 0 0 0 0.0991374 0 0 0 0.75 0"/>
<feBlend mode="normal" in2="BackgroundImageFix" result="effect1_dropShadow_18_1575"/>
<feBlend mode="normal" in="SourceGraphic" in2="effect1_dropShadow_18_1575" result="shape"/>
<feColorMatrix in="SourceAlpha" type="matrix" values="0 0 0 0 0 0 0 0 0 0 0 0 0 0 0 0 0 0 127 0" result="hardAlpha"/>
<feMorphology radius="0.591765" operator="erode" in="SourceAlpha" result="effect2_innerShadow_18_1575"/>
<feOffset/>
<feComposite in2="hardAlpha" operator="arithmetic" k2="-1" k3="1"/>
<feColorMatrix type="matrix" values="0 0 0 0 0 0 0 0 0 0 0 0 0 0 0 0 0 0 0.25 0"/>
<feBlend mode="normal" in2="shape" result="effect2_innerShadow_18_1575"/>
</filter>
<linearGradient id="paint0_linear_18_1575" x1="61" y1="2" x2="70.9024" y2="116.302" gradientUnits="userSpaceOnUse">
<stop stop-color="#8B8D9B"/>
<stop offset="0.473233" stop-color="#666772"/>
<stop offset="1" stop-color="#8B8D9B"/>
</linearGradient>
</defs>
</svg>
