<svg width="1069" height="288" viewBox="0 0 1069 288" fill="none" xmlns="http://www.w3.org/2000/svg">
<path d="M982.544 121.721C982.544 154.85 902.19 205.26 773.706 205.26C773.706 205.26 618.85 205.26 528.268 205.26C437.686 205.26 282.434 205.26 282.434 205.26C155.141 205.26 73.9922 154.85 73.9922 121.721C73.9922 88.5931 156.335 38.188 282.434 38.188C282.434 38.188 437.686 38.1883 528.268 38.1883C618.85 38.1883 774.102 38.1906 774.102 38.1886C900.201 38.1886 982.544 88.5931 982.544 121.721Z" fill="#8C8181"/>
<rect x="73.9922" y="120.133" width="908.552" height="19.8895" fill="#8C8181"/>
<path fill-rule="evenodd" clip-rule="evenodd" d="M287.211 288C211.077 287.952 138.083 274.253 84.2406 249.901C30.5124 225.601 0.237577 192.676 0.00525332 158.321H0V130.476H6.47812C18.0564 106.219 44.8432 83.7627 84.2406 65.944C138.083 41.5918 211.077 27.8926 287.211 27.8453V27.8452H287.606H780.07H780.47V27.8453C856.603 27.8932 929.594 41.5924 983.435 65.944C1022.83 83.7627 1049.62 106.219 1061.2 130.476H1067.67V157.223C1067.67 157.456 1067.67 157.689 1067.67 157.922C1067.67 192.421 1037.37 225.507 983.435 249.901C929.594 274.252 856.603 287.952 780.47 288H287.211V288ZM287.606 249.812V249.809C233.724 249.809 182.049 240.128 143.949 222.896C106.056 205.758 84.6777 182.547 84.4458 158.321H983.23C982.998 182.547 961.62 205.758 923.727 222.896C885.627 240.128 833.952 249.809 780.07 249.809V249.812H287.606ZM287.606 66.0359V66.033H780.07V66.0359C833.952 66.0359 885.627 75.7168 923.727 92.9488C947.138 103.537 964.246 116.444 973.957 130.476H93.7188C103.43 116.444 120.538 103.537 143.949 92.9488C182.049 75.7168 233.724 66.0359 287.606 66.0359Z" fill="url(#paint0_linear_25_69)"/>
<path d="M982.542 139.224C982.542 172.353 903.173 222.763 776.264 222.763C776.264 222.763 623.306 222.763 533.833 222.763C444.361 222.763 291.012 222.763 291.012 222.763C165.28 222.763 85.125 172.353 85.125 139.224C85.125 106.096 166.458 55.6909 291.012 55.6909C291.012 55.6909 444.361 55.6912 533.833 55.6912C623.306 55.6912 776.654 55.6935 776.654 55.6915C901.209 55.6915 982.542 106.096 982.542 139.224Z" fill="url(#paint1_linear_25_69)"/>
<path d="M287.606 260.154C211.329 260.154 138.176 246.45 84.2406 222.056C30.3047 197.662 0.00390413 164.576 0.00390625 130.077C0.00390837 95.5786 30.3047 62.493 84.2406 38.0987C138.176 13.7045 211.329 -4.11392e-07 287.606 0V38.1907C233.724 38.1907 182.049 47.8716 143.949 65.1036C105.848 82.3357 84.4439 105.707 84.4439 130.077C84.4439 154.447 105.848 177.819 143.949 195.051C182.049 212.283 233.724 221.964 287.606 221.964V260.154Z" fill="#D9D9D9"/>
<path d="M780.07 260.154C856.347 260.154 929.499 246.45 983.435 222.056C1037.37 197.662 1067.67 164.576 1067.67 130.077C1067.67 95.5786 1037.37 62.493 983.435 38.0987C929.499 13.7045 856.347 -4.11392e-07 780.07 0V38.1907C833.952 38.1907 885.627 47.8716 923.727 65.1036C961.827 82.3357 983.232 105.707 983.232 130.077C983.232 154.447 961.827 177.819 923.727 195.051C885.627 212.283 833.952 221.964 780.07 221.964V260.154Z" fill="#D9D9D9"/>
<g style="mix-blend-mode:soft-light" opacity="0.4">
<path d="M372 145.134L375.816 124.918H382.118L389.662 140.408L397.161 124.918H403.418L407.279 145.134H400.933L398.093 130.245L399.114 130.3L392.679 145.134H386.511L379.988 130.3L381.097 130.272L378.346 145.134H372Z" fill="white"/>
<path d="M419.184 145.271C418.474 145.271 417.661 145.225 416.744 145.134C415.826 145.061 414.939 144.879 414.081 144.588C413.253 144.296 412.557 143.859 411.995 143.276C411.463 142.675 411.197 141.856 411.197 140.818V129.535C411.197 128.642 411.418 127.896 411.862 127.295C412.306 126.694 412.898 126.22 413.637 125.874C414.377 125.528 415.19 125.282 416.078 125.136C416.965 124.991 417.838 124.918 418.696 124.918C420.915 124.918 422.867 124.936 424.554 124.972C426.27 125.009 427.808 125.054 429.169 125.109C430.53 125.145 431.772 125.2 432.896 125.273V128.661H420.649C419.732 128.661 419.021 128.797 418.519 129.07C418.016 129.344 417.764 129.762 417.764 130.327V133.25L430.766 133.469V136.665L417.764 136.884V139.67C417.764 140.144 417.883 140.517 418.119 140.79C418.385 141.045 418.726 141.228 419.14 141.337C419.584 141.428 420.042 141.473 420.515 141.473H432.896V144.861C431.595 144.952 430.145 145.025 428.548 145.08C426.98 145.134 425.382 145.18 423.755 145.216C422.157 145.253 420.634 145.271 419.184 145.271Z" fill="white"/>
<path d="M437.897 145.134V124.918H443.177L456.934 138.25V124.918H463.502V145.134H458.221L444.509 131.802V145.134H437.897Z" fill="white"/>
<path d="M475.798 145.134V128.551H466.79V124.918H491.419V128.551H482.366V145.134H475.798Z" fill="white"/>
<path d="M490.669 145.134L500.964 124.918H509.263L519.558 145.134H512.724L510.638 140.9H499.456L497.414 145.134H490.669ZM501.009 137.266H509.085L505.047 128.387L501.009 137.266Z" fill="white"/>
<path d="M530.899 145.134C529.213 145.134 527.778 144.979 526.595 144.67C525.441 144.342 524.568 143.832 523.976 143.14C523.414 142.43 523.133 141.501 523.133 140.353V124.918H529.701V139.698C529.701 140.135 529.819 140.49 530.056 140.763C530.322 141.036 530.677 141.228 531.121 141.337C531.565 141.428 532.068 141.473 532.63 141.473H543.014V145.134H530.899Z" fill="white"/>
<path d="M558.322 145.134V124.918H572.167C573.232 124.918 574.312 125 575.407 125.164C576.531 125.309 577.552 125.619 578.469 126.093C579.416 126.548 580.17 127.24 580.732 128.169C581.324 129.098 581.62 130.327 581.62 131.857C581.62 133.387 581.324 134.625 580.732 135.572C580.17 136.519 579.43 137.239 578.513 137.731C577.596 138.222 576.605 138.55 575.54 138.714C574.475 138.878 573.44 138.96 572.434 138.96C571.901 138.96 571.28 138.951 570.57 138.933C569.86 138.896 569.135 138.851 568.396 138.796C567.686 138.741 567.02 138.696 566.399 138.659C565.777 138.605 565.274 138.559 564.89 138.523V145.134H558.322ZM564.89 135.327H571.413C572.182 135.327 572.833 135.217 573.366 134.999C573.928 134.762 574.342 134.398 574.608 133.906C574.874 133.396 575.008 132.722 575.008 131.884C575.008 131.065 574.86 130.418 574.564 129.945C574.298 129.453 573.898 129.098 573.366 128.879C572.863 128.661 572.256 128.551 571.546 128.551H564.89V135.327Z" fill="white"/>
<path d="M598.575 145.298C596.327 145.298 594.36 145.171 592.673 144.916C590.987 144.642 589.567 144.151 588.413 143.44C587.289 142.712 586.446 141.674 585.884 140.326C585.322 138.978 585.041 137.221 585.041 135.053C585.041 132.886 585.322 131.128 585.884 129.781C586.476 128.415 587.333 127.367 588.458 126.639C589.582 125.91 590.987 125.41 592.673 125.136C594.36 124.863 596.327 124.727 598.575 124.727C600.824 124.727 602.791 124.863 604.477 125.136C606.164 125.41 607.569 125.91 608.693 126.639C609.817 127.367 610.66 128.415 611.223 129.781C611.785 131.128 612.066 132.886 612.066 135.053C612.066 137.221 611.785 138.978 611.223 140.326C610.66 141.674 609.817 142.712 608.693 143.44C607.569 144.151 606.164 144.642 604.477 144.916C602.791 145.171 600.824 145.298 598.575 145.298ZM598.575 141.665C599.907 141.665 601.016 141.574 601.904 141.391C602.791 141.209 603.486 140.891 603.989 140.435C604.522 139.962 604.906 139.297 605.143 138.441C605.38 137.567 605.498 136.438 605.498 135.053C605.498 133.596 605.38 132.431 605.143 131.556C604.906 130.682 604.522 130.017 603.989 129.562C603.486 129.089 602.791 128.77 601.904 128.606C601.016 128.442 599.907 128.36 598.575 128.36C597.303 128.36 596.223 128.442 595.336 128.606C594.448 128.77 593.724 129.089 593.161 129.562C592.629 130.017 592.23 130.682 591.963 131.556C591.727 132.431 591.608 133.596 591.608 135.053C591.608 136.438 591.712 137.567 591.919 138.441C592.156 139.297 592.54 139.962 593.073 140.435C593.605 140.891 594.315 141.209 595.203 141.391C596.12 141.574 597.244 141.665 598.575 141.665Z" fill="white"/>
<path d="M616.912 145.134V124.918H623.48V133.278H627.829L634.574 124.918H641.585L633.065 135.081L641.852 145.134H634.84L627.829 136.938H623.48V145.134H616.912Z" fill="white"/>
<path d="M652.635 145.271C651.925 145.271 651.112 145.225 650.194 145.134C649.277 145.061 648.39 144.879 647.532 144.588C646.703 144.296 646.008 143.859 645.446 143.276C644.914 142.675 644.647 141.856 644.647 140.818V129.535C644.647 128.642 644.869 127.896 645.313 127.295C645.757 126.694 646.349 126.22 647.088 125.874C647.828 125.528 648.641 125.282 649.529 125.136C650.416 124.991 651.289 124.918 652.147 124.918C654.366 124.918 656.318 124.936 658.005 124.972C659.72 125.009 661.259 125.054 662.62 125.109C663.981 125.145 665.223 125.2 666.347 125.273V128.661H654.1C653.182 128.661 652.472 128.797 651.969 129.07C651.467 129.344 651.215 129.762 651.215 130.327V133.25L664.217 133.469V136.665L651.215 136.884V139.67C651.215 140.144 651.333 140.517 651.57 140.79C651.836 141.045 652.177 141.228 652.591 141.337C653.034 141.428 653.493 141.473 653.966 141.473H666.347V144.861C665.046 144.952 663.596 145.025 661.998 145.08C660.43 145.134 658.833 145.18 657.206 145.216C655.608 145.253 654.085 145.271 652.635 145.271Z" fill="white"/>
<path d="M671.126 145.134V124.918H684.705C686.006 124.918 687.219 125.018 688.344 125.218C689.468 125.4 690.459 125.728 691.317 126.202C692.175 126.675 692.84 127.331 693.314 128.169C693.817 129.007 694.068 130.081 694.068 131.393C694.068 132.321 693.92 133.114 693.624 133.769C693.328 134.425 692.929 134.962 692.426 135.381C691.953 135.8 691.406 136.137 690.784 136.392C690.163 136.647 689.527 136.856 688.876 137.02L695 145.134H688.299L683.018 137.649C682.663 137.649 682.249 137.649 681.776 137.649C681.332 137.63 680.874 137.621 680.4 137.621C679.927 137.621 679.454 137.621 678.98 137.621C678.507 137.621 678.078 137.612 677.693 137.594V145.134H671.126ZM677.693 134.398H683.551C684.143 134.398 684.675 134.352 685.148 134.261C685.622 134.17 686.036 134.015 686.391 133.797C686.746 133.56 687.012 133.25 687.19 132.868C687.397 132.485 687.5 131.994 687.5 131.393C687.5 130.828 687.397 130.363 687.19 129.999C687.012 129.617 686.746 129.325 686.391 129.125C686.036 128.906 685.622 128.761 685.148 128.688C684.675 128.597 684.143 128.551 683.551 128.551H677.693V134.398Z" fill="white"/>
<path d="M447.467 166.651V157.378H449.889L456.199 163.493V157.378H459.212V166.651H456.79L450.5 160.536V166.651H447.467Z" fill="white"/>
<path d="M467.519 166.727C466.488 166.727 465.585 166.668 464.812 166.551C464.038 166.426 463.387 166.2 462.858 165.874C462.342 165.54 461.955 165.064 461.697 164.446C461.44 163.828 461.311 163.021 461.311 162.027C461.311 161.033 461.44 160.227 461.697 159.609C461.969 158.982 462.362 158.502 462.878 158.167C463.394 157.833 464.038 157.604 464.812 157.478C465.585 157.353 466.488 157.29 467.519 157.29C468.551 157.29 469.453 157.353 470.226 157.478C471 157.604 471.645 157.833 472.16 158.167C472.676 158.502 473.063 158.982 473.321 159.609C473.578 160.227 473.707 161.033 473.707 162.027C473.707 163.021 473.578 163.828 473.321 164.446C473.063 165.064 472.676 165.54 472.16 165.874C471.645 166.2 471 166.426 470.226 166.551C469.453 166.668 468.551 166.727 467.519 166.727ZM467.519 165.06C468.13 165.06 468.639 165.018 469.046 164.935C469.453 164.851 469.772 164.705 470.003 164.496C470.247 164.279 470.423 163.974 470.532 163.581C470.64 163.18 470.695 162.662 470.695 162.027C470.695 161.359 470.64 160.824 470.532 160.423C470.423 160.022 470.247 159.717 470.003 159.508C469.772 159.291 469.453 159.145 469.046 159.07C468.639 158.995 468.13 158.957 467.519 158.957C466.936 158.957 466.44 158.995 466.033 159.07C465.626 159.145 465.294 159.291 465.036 159.508C464.792 159.717 464.608 160.022 464.486 160.423C464.378 160.824 464.323 161.359 464.323 162.027C464.323 162.662 464.371 163.18 464.466 163.581C464.574 163.974 464.751 164.279 464.995 164.496C465.239 164.705 465.565 164.851 465.972 164.935C466.393 165.018 466.909 165.06 467.519 165.06Z" fill="white"/>
<path d="M484.741 166.651C483.967 166.651 483.309 166.58 482.766 166.438C482.237 166.288 481.837 166.054 481.565 165.737C481.307 165.411 481.178 164.985 481.178 164.458V157.378H484.191V164.158C484.191 164.358 484.245 164.521 484.354 164.646C484.476 164.772 484.639 164.859 484.842 164.909C485.046 164.951 485.277 164.972 485.535 164.972H490.298V166.651H484.741Z" fill="white"/>
<path d="M492.072 166.651V157.378H495.085V166.651H492.072Z" fill="white"/>
<path d="M497.29 166.651L499.041 157.378H501.932L505.392 164.483L508.832 157.378H511.702L513.473 166.651H510.562L509.26 159.822L509.728 159.847L506.776 166.651H503.947L500.954 159.847L501.463 159.834L500.201 166.651H497.29Z" fill="white"/>
<path d="M515.668 166.651V157.378H518.68V166.651H515.668Z" fill="white"/>
<path d="M524.449 166.651V159.045H520.316V157.378H531.614V159.045H527.461V166.651H524.449Z" fill="white"/>
<path d="M538.488 166.651V157.378H541.501V161.238H547.18V157.378H550.213V166.651H547.18V162.904H541.501V166.651H538.488Z" fill="white"/>
<path d="M558.623 166.727C557.591 166.727 556.689 166.668 555.915 166.551C555.142 166.426 554.49 166.2 553.961 165.874C553.446 165.54 553.059 165.064 552.801 164.446C552.543 163.828 552.414 163.021 552.414 162.027C552.414 161.033 552.543 160.227 552.801 159.609C553.072 158.982 553.466 158.502 553.982 158.167C554.497 157.833 555.142 157.604 555.915 157.478C556.689 157.353 557.591 157.29 558.623 157.29C559.654 157.29 560.556 157.353 561.33 157.478C562.103 157.604 562.748 157.833 563.264 158.167C563.779 158.502 564.166 158.982 564.424 159.609C564.682 160.227 564.811 161.033 564.811 162.027C564.811 163.021 564.682 163.828 564.424 164.446C564.166 165.064 563.779 165.54 563.264 165.874C562.748 166.2 562.103 166.426 561.33 166.551C560.556 166.668 559.654 166.727 558.623 166.727ZM558.623 165.06C559.233 165.06 559.742 165.018 560.149 164.935C560.556 164.851 560.875 164.705 561.106 164.496C561.35 164.279 561.527 163.974 561.635 163.581C561.744 163.18 561.798 162.662 561.798 162.027C561.798 161.359 561.744 160.824 561.635 160.423C561.527 160.022 561.35 159.717 561.106 159.508C560.875 159.291 560.556 159.145 560.149 159.07C559.742 158.995 559.233 158.957 558.623 158.957C558.039 158.957 557.544 158.995 557.137 159.07C556.73 159.145 556.397 159.291 556.139 159.508C555.895 159.717 555.712 160.022 555.59 160.423C555.481 160.824 555.427 161.359 555.427 162.027C555.427 162.662 555.474 163.18 555.569 163.581C555.678 163.974 555.854 164.279 556.099 164.496C556.343 164.705 556.669 164.851 557.076 164.935C557.496 165.018 558.012 165.06 558.623 165.06Z" fill="white"/>
<path d="M570.596 166.651C569.823 166.651 569.165 166.58 568.622 166.438C568.092 166.288 567.692 166.054 567.421 165.737C567.163 165.411 567.034 164.985 567.034 164.458V157.378H570.047V164.158C570.047 164.358 570.101 164.521 570.209 164.646C570.332 164.772 570.494 164.859 570.698 164.909C570.902 164.951 571.132 164.972 571.39 164.972H576.153V166.651H570.596Z" fill="white"/>
<path d="M577.927 166.651V157.378H584.299C585.317 157.378 586.165 157.491 586.843 157.716C587.522 157.934 588.058 158.251 588.451 158.669C588.858 159.078 589.143 159.567 589.306 160.135C589.469 160.703 589.55 161.33 589.55 162.015C589.55 163.059 589.354 163.924 588.96 164.609C588.58 165.294 588.003 165.808 587.23 166.15C586.456 166.484 585.479 166.651 584.299 166.651H577.927ZM580.94 164.985H583.993C584.618 164.985 585.113 164.876 585.479 164.659C585.846 164.433 586.11 164.099 586.273 163.656C586.45 163.214 586.538 162.666 586.538 162.015C586.538 161.413 586.484 160.92 586.375 160.536C586.266 160.143 586.104 159.838 585.886 159.621C585.683 159.404 585.418 159.254 585.093 159.17C584.78 159.086 584.414 159.045 583.993 159.045H580.94V164.985Z" fill="white"/>
<path d="M595.427 166.714C595.101 166.714 594.728 166.693 594.307 166.651C593.887 166.618 593.48 166.534 593.086 166.401C592.706 166.267 592.387 166.067 592.129 165.799C591.885 165.524 591.763 165.148 591.763 164.671V159.496C591.763 159.086 591.865 158.744 592.068 158.468C592.272 158.193 592.543 157.975 592.882 157.817C593.222 157.658 593.595 157.545 594.002 157.478C594.409 157.411 594.809 157.378 595.203 157.378C596.221 157.378 597.116 157.386 597.89 157.403C598.677 157.42 599.383 157.441 600.007 157.466C600.631 157.482 601.201 157.507 601.717 157.541V159.095H596.099C595.678 159.095 595.352 159.157 595.122 159.283C594.891 159.408 594.776 159.6 594.776 159.859V161.2L600.74 161.3V162.767L594.776 162.867V164.145C594.776 164.362 594.83 164.534 594.938 164.659C595.061 164.776 595.217 164.859 595.407 164.909C595.61 164.951 595.82 164.972 596.038 164.972H601.717V166.526C601.12 166.568 600.455 166.601 599.722 166.626C599.003 166.651 598.27 166.672 597.524 166.689C596.791 166.706 596.092 166.714 595.427 166.714Z" fill="white"/>
<path d="M603.502 166.651L605.252 157.378H608.143L611.603 164.483L615.043 157.378H617.913L619.684 166.651H616.773L615.471 159.822L615.939 159.847L612.987 166.651H610.158L607.166 159.847L607.674 159.834L606.412 166.651H603.502Z" fill="white"/>
</g>
<path fill-rule="evenodd" clip-rule="evenodd" d="M287.332 260.154C211.196 260.108 138.201 246.408 84.3578 222.056C30.4219 197.662 0.121092 164.576 0.121094 130.077C0.121096 95.5786 30.4219 62.493 84.3578 38.0987C138.201 13.7462 211.196 0.0468739 287.332 0.000120068V0H287.723H780.591V38.1878H287.723V38.1907C233.841 38.1907 182.166 47.8716 144.066 65.1036C105.966 82.3357 84.5611 105.707 84.5611 130.077C84.5611 154.447 105.966 177.819 144.066 195.051C182.166 212.283 233.841 221.964 287.723 221.964V221.967H780.591V260.155H287.332V260.154ZM780.722 260.154C856.999 260.154 930.152 246.45 984.088 222.056C1038.02 197.662 1068.32 164.576 1068.32 130.077C1068.32 95.5786 1038.02 62.493 984.088 38.0987C930.152 13.7045 856.999 -4.11394e-07 780.722 0V38.1907C834.604 38.1907 886.279 47.8716 924.379 65.1036C962.48 82.3357 983.884 105.707 983.884 130.077C983.884 154.447 962.48 177.819 924.379 195.051C886.279 212.283 834.604 221.964 780.722 221.964V260.154Z" fill="url(#paint2_linear_25_69)"/>
<path d="M780.899 260.154C838.829 260.154 895.408 252.242 943.228 237.454C991.048 222.666 1027.88 201.691 1048.9 177.276L1000.06 168.675C982.869 188.64 952.75 205.792 913.645 217.886C874.54 229.979 828.271 236.449 780.899 236.449V260.154Z" fill="url(#paint3_linear_25_69)"/>
<path d="M287.9 260.154C229.97 260.154 173.391 252.242 125.571 237.454C77.7507 222.666 40.9191 201.691 19.8991 177.276L68.7401 168.675C85.9294 188.64 116.049 205.792 155.154 217.886C194.259 229.979 240.527 236.449 287.9 236.449V260.154Z" fill="url(#paint4_linear_25_69)"/>
<path d="M1029.97 65.0386C1009.12 48.7044 980.663 34.6165 946.576 23.7513C912.488 12.8861 873.584 5.5037 832.56 2.11572L826.649 16.757C862.979 19.7573 897.432 26.295 927.619 35.917C957.806 45.539 983.006 58.015 1001.47 72.4802L1029.97 65.0386Z" fill="url(#paint5_linear_25_69)"/>
<path d="M38.8292 65.0386C59.6802 48.7044 88.1357 34.6165 122.223 23.7513C156.311 12.8861 195.215 5.5037 236.238 2.11572L242.15 16.757C205.82 19.7573 171.367 26.295 141.18 35.917C110.993 45.539 85.7929 58.015 67.3276 72.4802L38.8292 65.0386Z" fill="url(#paint6_linear_25_69)"/>
<path d="M1058.7 96.4107C1050.24 82.1353 1036.47 68.6162 1017.97 56.4338L968.545 71.7869C983.188 81.4295 994.091 92.1302 1000.79 103.429L1058.7 96.4107Z" fill="url(#paint7_linear_25_69)"/>
<path d="M10.0977 96.4107C18.555 82.1353 32.3293 68.6162 50.8291 56.4338L100.253 71.7869C85.6103 81.4295 74.7077 92.1302 68.0135 103.429L10.0977 96.4107Z" fill="url(#paint8_linear_25_69)"/>
<path d="M1056.79 129.197C1056.87 124.883 1056.46 120.543 1055.57 116.193L997.263 115.331C997.966 118.774 998.287 122.21 998.223 125.624L1056.79 129.197Z" fill="url(#paint9_linear_25_69)"/>
<path d="M1055.88 138.343C1056.24 136.34 1056.5 134.328 1056.65 132.307L998.111 128.086C997.994 129.685 997.792 131.278 997.506 132.863L1055.88 138.343Z" fill="url(#paint10_linear_25_69)"/>
<path d="M1053.44 147.542C1054.13 145.576 1054.72 143.597 1055.2 141.606L996.963 135.446C996.585 137.022 996.123 138.588 995.576 140.145L1053.44 147.542Z" fill="url(#paint11_linear_25_69)"/>
<path d="M12.0111 129.197C11.9309 124.883 12.3359 120.543 13.2246 116.193L71.536 115.331C70.8326 118.774 70.512 122.21 70.5755 125.624L12.0111 129.197Z" fill="url(#paint12_linear_25_69)"/>
<path d="M12.917 138.343C12.5555 136.34 12.3009 134.328 12.1534 132.307L70.6881 128.086C70.8049 129.685 71.0064 131.278 71.2926 132.863L12.917 138.343Z" fill="url(#paint13_linear_25_69)"/>
<path d="M15.3555 147.542C14.6651 145.576 14.0808 143.597 13.6029 141.606L71.8355 135.446C72.2137 137.022 72.6762 138.588 73.2227 140.145L15.3555 147.542Z" fill="url(#paint14_linear_25_69)"/>
<path d="M526.449 110.62L526.455 109.746L542.058 109.642V110.62H526.449Z" fill="#5CBCBD"/>
<path d="M542.078 112.372L542.105 111.395L526.5 111.146L526.472 112.124L542.078 112.372Z" fill="#5CBCBD"/>
<path d="M525.996 113.818V112.724L542.286 112.84L542.42 113.818L525.996 113.818Z" fill="#5CBCBD"/>
<path fill-rule="evenodd" clip-rule="evenodd" d="M554.604 96.6981C554.632 96.6022 554.642 96.4453 554.632 96.2379C554.644 96.0602 554.634 95.8668 554.599 95.6573L554.529 95.4326C554.131 93.2904 552.563 89.1574 548.899 86.8118C548.713 86.6652 548.519 86.5163 548.318 86.3646C543.825 83.4855 537.958 85.2167 538.584 89.8763C538.641 90.9335 539.02 91.9917 539.702 92.8453C539.795 93.0023 539.894 93.1614 540 93.3223C539.738 93.2553 539.483 93.1917 539.234 93.1316C537.383 92.6018 535.837 92.3615 534.222 92.3864C532.608 92.3615 531.062 92.6018 529.211 93.1315C528.962 93.1916 528.707 93.2552 528.446 93.3223C528.551 93.1613 528.65 93.0023 528.743 92.8452C529.425 91.9916 529.804 90.9335 529.861 89.8763C530.488 85.2167 524.621 83.4855 520.127 86.3646C519.926 86.5162 519.732 86.6652 519.547 86.8117C515.882 89.1573 514.315 93.2905 513.916 95.4327L513.846 95.6573C513.812 95.8667 513.802 96.0602 513.813 96.2379C513.803 96.4453 513.813 96.6022 513.841 96.6981C514.477 98.8832 517.28 99.2557 519.22 97.1902L521.422 95.1367C520.809 92.2389 521.213 90.7522 522.945 88.7645C522.606 90.0149 522.386 91.0516 522.305 91.9233C522.178 92.8459 522.245 93.5775 522.53 94.1803C522.878 95.0518 523.585 95.6657 524.716 96.1884L524.427 97.055L522.504 96.5232C520.227 99.6994 519.922 101.541 520.502 104.894C514.39 106.981 515.628 113.638 524.716 113.638V110.959C519.658 111.343 519.541 107.946 522.284 106.663C522.294 106.671 522.304 106.678 522.313 106.686C524.993 108.773 527.015 109.522 529.651 108.944C530.97 108.706 532.454 108.193 534.223 107.437C535.991 108.193 537.475 108.706 538.794 108.943C541.43 109.522 543.452 108.773 546.132 106.686C546.142 106.678 546.151 106.671 546.161 106.663C548.905 107.946 548.787 111.343 543.729 110.959V113.638C552.817 113.638 554.055 106.981 547.944 104.894C548.523 101.541 548.219 99.6994 545.942 96.5232L544.019 97.055L543.729 96.1884C544.86 95.6657 545.567 95.0518 545.915 94.1804C546.2 93.5775 546.267 92.846 546.141 91.9233C546.06 91.0516 545.84 90.015 545.5 88.7646C547.233 90.7523 547.636 92.2389 547.023 95.1367L549.225 97.1902C551.165 99.2557 553.968 98.8832 554.604 96.6981ZM524.909 101.814L525.014 101.836C525.158 101.867 525.249 101.972 525.231 102.083C525.08 103.007 525.138 103.553 525.301 104.606L526.189 104.131C525.866 101.726 525.966 100.448 526.96 99.3773C527.262 99.0512 527.88 99.0329 528.275 99.298C529.104 99.8539 529.583 100.259 530.503 101.245C531.92 102.763 532.068 103.736 531.911 105.568C531.679 108.259 527.962 108.424 525.983 106.898C525.265 106.374 524.798 105.094 524.705 104.674C524.51 103.792 524.515 103.209 524.522 102.466C524.523 102.328 524.524 102.184 524.524 102.032C524.524 101.882 524.716 101.773 524.909 101.814ZM537.919 101.245C538.694 100.383 539.249 99.9549 540.16 99.3874C540.588 99.1208 541.235 99.1759 541.531 99.5288C542.72 100.945 542.545 102.046 542.133 104.131L543.072 104.674C543.502 104.059 543.366 102.815 543.242 102.058C543.225 101.959 543.301 101.865 543.425 101.829C543.598 101.779 543.788 101.863 543.811 102C544.014 103.224 543.921 103.864 543.764 104.674C543.213 107.507 539.477 108.926 537.432 107.587C536.849 107.204 536.552 106.478 536.521 105.568C536.465 103.871 536.695 102.924 537.919 101.245Z" fill="#5CBCBD"/>
<defs>
<linearGradient id="paint0_linear_25_69" x1="0" y1="157.923" x2="1067.67" y2="157.923" gradientUnits="userSpaceOnUse">
<stop stop-color="#0C2A47"/>
<stop offset="1" stop-color="#07332D"/>
</linearGradient>
<linearGradient id="paint1_linear_25_69" x1="119.253" y1="207.141" x2="914.444" y2="87.5038" gradientUnits="userSpaceOnUse">
<stop stop-color="#42867B"/>
<stop offset="1" stop-color="#4BBDC7"/>
</linearGradient>
<linearGradient id="paint2_linear_25_69" x1="157.047" y1="-4.06304e-06" x2="968.576" y2="274.479" gradientUnits="userSpaceOnUse">
<stop stop-color="#63B8FD"/>
<stop offset="1" stop-color="#43F7AF"/>
</linearGradient>
<linearGradient id="paint3_linear_25_69" x1="10.0977" y1="131.135" x2="1058.7" y2="131.135" gradientUnits="userSpaceOnUse">
<stop stop-color="#AAD5F8"/>
<stop offset="1" stop-color="#B8FFE3"/>
</linearGradient>
<linearGradient id="paint4_linear_25_69" x1="10.0977" y1="131.135" x2="1058.7" y2="131.135" gradientUnits="userSpaceOnUse">
<stop stop-color="#AAD5F8"/>
<stop offset="1" stop-color="#B8FFE3"/>
</linearGradient>
<linearGradient id="paint5_linear_25_69" x1="10.0977" y1="131.135" x2="1058.7" y2="131.135" gradientUnits="userSpaceOnUse">
<stop stop-color="#AAD5F8"/>
<stop offset="1" stop-color="#B8FFE3"/>
</linearGradient>
<linearGradient id="paint6_linear_25_69" x1="10.0977" y1="131.135" x2="1058.7" y2="131.135" gradientUnits="userSpaceOnUse">
<stop stop-color="#AAD5F8"/>
<stop offset="1" stop-color="#B8FFE3"/>
</linearGradient>
<linearGradient id="paint7_linear_25_69" x1="10.0977" y1="131.135" x2="1058.7" y2="131.135" gradientUnits="userSpaceOnUse">
<stop stop-color="#AAD5F8"/>
<stop offset="1" stop-color="#B8FFE3"/>
</linearGradient>
<linearGradient id="paint8_linear_25_69" x1="10.0977" y1="131.135" x2="1058.7" y2="131.135" gradientUnits="userSpaceOnUse">
<stop stop-color="#AAD5F8"/>
<stop offset="1" stop-color="#B8FFE3"/>
</linearGradient>
<linearGradient id="paint9_linear_25_69" x1="10.0977" y1="131.135" x2="1058.7" y2="131.135" gradientUnits="userSpaceOnUse">
<stop stop-color="#AAD5F8"/>
<stop offset="1" stop-color="#B8FFE3"/>
</linearGradient>
<linearGradient id="paint10_linear_25_69" x1="10.0977" y1="131.135" x2="1058.7" y2="131.135" gradientUnits="userSpaceOnUse">
<stop stop-color="#AAD5F8"/>
<stop offset="1" stop-color="#B8FFE3"/>
</linearGradient>
<linearGradient id="paint11_linear_25_69" x1="10.0977" y1="131.135" x2="1058.7" y2="131.135" gradientUnits="userSpaceOnUse">
<stop stop-color="#AAD5F8"/>
<stop offset="1" stop-color="#B8FFE3"/>
</linearGradient>
<linearGradient id="paint12_linear_25_69" x1="10.0977" y1="131.135" x2="1058.7" y2="131.135" gradientUnits="userSpaceOnUse">
<stop stop-color="#AAD5F8"/>
<stop offset="1" stop-color="#B8FFE3"/>
</linearGradient>
<linearGradient id="paint13_linear_25_69" x1="10.0977" y1="131.135" x2="1058.7" y2="131.135" gradientUnits="userSpaceOnUse">
<stop stop-color="#AAD5F8"/>
<stop offset="1" stop-color="#B8FFE3"/>
</linearGradient>
<linearGradient id="paint14_linear_25_69" x1="10.0977" y1="131.135" x2="1058.7" y2="131.135" gradientUnits="userSpaceOnUse">
<stop stop-color="#AAD5F8"/>
<stop offset="1" stop-color="#B8FFE3"/>
</linearGradient>
</defs>
</svg>
