<svg width="348" height="462" viewBox="0 0 348 462" fill="none" xmlns="http://www.w3.org/2000/svg">
<g filter="url(#filter0_d_26_560)">
<rect x="34" y="29" width="280" height="394" rx="20" fill="#F2F2F2"/>
<rect x="34.5" y="29.5" width="279" height="393" rx="19.5" stroke="#D2D2D2"/>
</g>
<path d="M101.246 107.539V68.125H112.926V107.539C112.926 111.341 112.092 114.609 110.426 117.344C108.759 120.052 106.48 122.135 103.59 123.594C100.725 125.052 97.4961 125.781 93.9023 125.781C90.1784 125.781 86.8841 125.156 84.0195 123.906C81.1549 122.656 78.9023 120.742 77.2617 118.164C75.6211 115.56 74.8008 112.266 74.8008 108.281H86.5586C86.5586 110.365 86.8451 112.018 87.418 113.242C88.0169 114.466 88.8633 115.339 89.957 115.859C91.0508 116.38 92.3659 116.641 93.9023 116.641C95.3867 116.641 96.6758 116.289 97.7695 115.586C98.8633 114.883 99.7096 113.854 100.309 112.5C100.934 111.146 101.246 109.492 101.246 107.539Z" fill="#050505"/>
<path d="M236.012 346.711V228.469H271.051V346.711C271.051 358.117 268.551 367.922 263.551 376.125C258.551 384.25 251.715 390.5 243.043 394.875C234.449 399.25 224.762 401.437 213.98 401.437C202.809 401.437 192.926 399.562 184.332 395.812C175.738 392.062 168.98 386.32 164.059 378.586C159.137 370.773 156.676 360.891 156.676 348.937H191.949C191.949 355.187 192.809 360.148 194.527 363.82C196.324 367.492 198.863 370.109 202.145 371.672C205.426 373.234 209.371 374.016 213.98 374.016C218.434 374.016 222.301 372.961 225.582 370.852C228.863 368.742 231.402 365.656 233.199 361.594C235.074 357.531 236.012 352.57 236.012 346.711Z" fill="#050505"/>
<path fill-rule="evenodd" clip-rule="evenodd" d="M110.755 176.289C109.056 176.289 107.437 176.659 105.961 177.329C107.347 175.139 108.161 172.487 108.161 169.627C108.161 162.122 102.571 156.038 95.6757 156.038C88.7806 156.038 83.191 162.122 83.191 169.627C83.191 172.35 83.9297 174.884 85.1967 177.01C83.937 176.545 82.5881 176.289 81.1839 176.289C74.2886 176.289 68.6992 182.373 68.6992 189.878C68.6992 197.383 74.2886 203.467 81.1839 203.467C82.7411 203.467 84.2306 203.154 85.6053 202.587C85.6051 202.59 91.4156 200.883 95.2351 193.315V197.872C95.2351 197.872 93.2768 212.234 79.4703 213.806H77.2669V216.044H114.868V213.806H112.665C98.8582 212.234 96.8996 197.872 96.8996 197.872V193.622C97.611 195.327 101.544 203.665 110.384 203.458C110.508 203.461 110.631 203.467 110.755 203.467C117.65 203.467 123.24 197.383 123.24 189.878C123.24 182.373 117.65 176.289 110.755 176.289Z" fill="#1A1919"/>
<defs>
<filter id="filter0_d_26_560" x="0" y="0" width="348" height="462" filterUnits="userSpaceOnUse" color-interpolation-filters="sRGB">
<feFlood flood-opacity="0" result="BackgroundImageFix"/>
<feColorMatrix in="SourceAlpha" type="matrix" values="0 0 0 0 0 0 0 0 0 0 0 0 0 0 0 0 0 0 127 0" result="hardAlpha"/>
<feOffset dy="5"/>
<feGaussianBlur stdDeviation="17"/>
<feColorMatrix type="matrix" values="0 0 0 0 0 0 0 0 0 0 0 0 0 0 0 0 0 0 0.1 0"/>
<feBlend mode="normal" in2="BackgroundImageFix" result="effect1_dropShadow_26_560"/>
<feBlend mode="normal" in="SourceGraphic" in2="effect1_dropShadow_26_560" result="shape"/>
</filter>
</defs>
</svg>
