<svg width="348" height="462" viewBox="0 0 348 462" fill="none" xmlns="http://www.w3.org/2000/svg">
<g filter="url(#filter0_d_26_609)">
<rect x="34" y="29" width="280" height="394" rx="20" fill="#F2F2F2"/>
<rect x="34.5" y="29.5" width="279" height="393" rx="19.5" stroke="#D2D2D2"/>
</g>
<path d="M103.902 116.563L119.293 128.75L111.91 135.156L96.7539 122.969L103.902 116.563ZM119.684 95.2346V97.9299C119.684 102.253 119.098 106.133 117.926 109.571C116.78 113.008 115.126 115.938 112.965 118.36C110.803 120.755 108.251 122.591 105.309 123.867C102.366 125.143 99.0977 125.781 95.5039 125.781C91.9362 125.781 88.668 125.143 85.6992 123.867C82.7305 122.591 80.1654 120.755 78.0039 118.36C75.8424 115.938 74.1628 113.008 72.9648 109.571C71.793 106.133 71.207 102.253 71.207 97.9299V95.2346C71.207 90.8857 71.793 87.0055 72.9648 83.594C74.1628 80.1565 75.8294 77.2268 77.9648 74.8049C80.1003 72.3831 82.6523 70.5341 85.6211 69.2581C88.5898 67.982 91.8581 67.344 95.4258 67.344C99.0195 67.344 102.288 67.982 105.23 69.2581C108.199 70.5341 110.764 72.3831 112.926 74.8049C115.087 77.2268 116.754 80.1565 117.926 83.594C119.098 87.0055 119.684 90.8857 119.684 95.2346ZM107.848 97.9299V95.1565C107.848 92.1357 107.561 89.4794 106.988 87.1877C106.441 84.8961 105.634 82.969 104.566 81.4065C103.525 79.844 102.236 78.6721 100.699 77.8909C99.1628 77.0836 97.4049 76.6799 95.4258 76.6799C93.4466 76.6799 91.6888 77.0836 90.1523 77.8909C88.6159 78.6721 87.3268 79.844 86.2852 81.4065C85.2435 82.969 84.4492 84.8961 83.9023 87.1877C83.3555 89.4794 83.082 92.1357 83.082 95.1565V97.9299C83.082 100.925 83.3555 103.581 83.9023 105.899C84.4492 108.19 85.2435 110.13 86.2852 111.719C87.3529 113.281 88.6549 114.466 90.1914 115.274C91.7539 116.081 93.5247 116.485 95.5039 116.485C97.4831 116.485 99.2279 116.081 100.738 115.274C102.275 114.466 103.564 113.281 104.605 111.719C105.673 110.13 106.48 108.19 107.027 105.899C107.574 103.581 107.848 100.925 107.848 97.9299Z" fill="#F24822"/>
<path d="M240.816 365.188L284 398.762L261.852 417.981L219.371 384.407L240.816 365.188ZM288.16 301.204V309.29C288.16 322.258 286.402 333.899 282.887 344.211C279.449 354.524 274.488 363.313 268.004 370.579C261.52 377.766 253.863 383.274 245.035 387.102C236.207 390.93 226.402 392.844 215.621 392.844C204.918 392.844 195.113 390.93 186.207 387.102C177.301 383.274 169.605 377.766 163.121 370.579C156.637 363.313 151.598 354.524 148.004 344.211C144.488 333.899 142.73 322.258 142.73 309.29V301.204C142.73 288.157 144.488 276.516 148.004 266.282C151.598 255.969 156.598 247.18 163.004 239.915C169.41 232.649 177.066 227.102 185.973 223.274C194.879 219.446 204.684 217.532 215.387 217.532C226.168 217.532 235.973 219.446 244.801 223.274C253.707 227.102 261.402 232.649 267.887 239.915C274.371 247.18 279.371 255.969 282.887 266.282C286.402 276.516 288.16 288.157 288.16 301.204ZM252.652 309.29V300.969C252.652 291.907 251.793 283.938 250.074 277.063C248.434 270.188 246.012 264.407 242.809 259.719C239.684 255.032 235.816 251.516 231.207 249.172C226.598 246.75 221.324 245.54 215.387 245.54C209.449 245.54 204.176 246.75 199.566 249.172C194.957 251.516 191.09 255.032 187.965 259.719C184.84 264.407 182.457 270.188 180.816 277.063C179.176 283.938 178.355 291.907 178.355 300.969V309.29C178.355 318.274 179.176 326.243 180.816 333.196C182.457 340.071 184.84 345.891 187.965 350.657C191.168 355.344 195.074 358.899 199.684 361.321C204.371 363.743 209.684 364.954 215.621 364.954C221.559 364.954 226.793 363.743 231.324 361.321C235.934 358.899 239.801 355.344 242.926 350.657C246.129 345.891 248.551 340.071 250.191 333.196C251.832 326.243 252.652 318.274 252.652 309.29Z" fill="#F24822"/>
<path fill-rule="evenodd" clip-rule="evenodd" d="M67.2305 185.628L96.5042 215.831L125.778 185.628L96.5042 155.425L67.2305 185.628Z" fill="#F24822"/>
<defs>
<filter id="filter0_d_26_609" x="0" y="0" width="348" height="462" filterUnits="userSpaceOnUse" color-interpolation-filters="sRGB">
<feFlood flood-opacity="0" result="BackgroundImageFix"/>
<feColorMatrix in="SourceAlpha" type="matrix" values="0 0 0 0 0 0 0 0 0 0 0 0 0 0 0 0 0 0 127 0" result="hardAlpha"/>
<feOffset dy="5"/>
<feGaussianBlur stdDeviation="17"/>
<feColorMatrix type="matrix" values="0 0 0 0 0 0 0 0 0 0 0 0 0 0 0 0 0 0 0.1 0"/>
<feBlend mode="normal" in2="BackgroundImageFix" result="effect1_dropShadow_26_609"/>
<feBlend mode="normal" in="SourceGraphic" in2="effect1_dropShadow_26_609" result="shape"/>
</filter>
</defs>
</svg>
