<svg width="348" height="462" viewBox="0 0 348 462" fill="none" xmlns="http://www.w3.org/2000/svg">
<g filter="url(#filter0_d_26_672)">
<rect x="34" y="29" width="280" height="394" rx="20" fill="#F2F2F2"/>
<rect x="34.5" y="29.5" width="279" height="393" rx="19.5" stroke="#D2D2D2"/>
</g>
<path d="M115.348 116.211V125H76.4414V117.5L94.8398 97.7734C96.6888 95.7161 98.1471 93.9062 99.2148 92.3437C100.283 90.7552 101.051 89.3359 101.52 88.0859C102.014 86.8099 102.262 85.599 102.262 84.4531C102.262 82.7344 101.975 81.263 101.402 80.0391C100.829 78.7891 99.9831 77.8255 98.8633 77.1484C97.7695 76.4714 96.4154 76.1328 94.8008 76.1328C93.082 76.1328 91.5977 76.5495 90.3477 77.3828C89.1237 78.2161 88.1862 79.375 87.5352 80.8594C86.9102 82.3437 86.5977 84.0234 86.5977 85.8984H75.3086C75.3086 82.513 76.1159 79.4141 77.7305 76.6016C79.3451 73.763 81.6237 71.5104 84.5664 69.8437C87.5091 68.151 90.9987 67.3047 95.0352 67.3047C99.0195 67.3047 102.379 67.9557 105.113 69.2578C107.874 70.5339 109.957 72.3828 111.363 74.8047C112.796 77.2005 113.512 80.0651 113.512 83.3984C113.512 85.2734 113.212 87.1094 112.613 88.9062C112.014 90.6771 111.155 92.4479 110.035 94.2187C108.941 95.9635 107.613 97.7344 106.051 99.5312C104.488 101.328 102.757 103.19 100.855 105.117L90.9727 116.211H115.348Z" fill="#050505"/>
<path d="M275.387 374.328V400.695H158.668V378.195L213.863 319.016C219.41 312.844 223.785 307.414 226.988 302.727C230.191 297.961 232.496 293.703 233.902 289.953C235.387 286.125 236.129 282.492 236.129 279.055C236.129 273.898 235.27 269.484 233.551 265.812C231.832 262.062 229.293 259.172 225.934 257.141C222.652 255.109 218.59 254.094 213.746 254.094C208.59 254.094 204.137 255.344 200.387 257.844C196.715 260.344 193.902 263.82 191.949 268.273C190.074 272.727 189.137 277.766 189.137 283.391H155.27C155.27 273.234 157.691 263.937 162.535 255.5C167.379 246.984 174.215 240.227 183.043 235.227C191.871 230.148 202.34 227.609 214.449 227.609C226.402 227.609 236.48 229.562 244.684 233.469C252.965 237.297 259.215 242.844 263.434 250.109C267.73 257.297 269.879 265.891 269.879 275.891C269.879 281.516 268.98 287.023 267.184 292.414C265.387 297.727 262.809 303.039 259.449 308.352C256.168 313.586 252.184 318.898 247.496 324.289C242.809 329.68 237.613 335.266 231.91 341.047L202.262 374.328H275.387Z" fill="#050505"/>
<path fill-rule="evenodd" clip-rule="evenodd" d="M110.755 176.289C109.056 176.289 107.437 176.659 105.961 177.329C107.347 175.139 108.161 172.487 108.161 169.627C108.161 162.122 102.571 156.038 95.6757 156.038C88.7806 156.038 83.191 162.122 83.191 169.627C83.191 172.35 83.9297 174.884 85.1967 177.01C83.937 176.545 82.5881 176.289 81.1839 176.289C74.2886 176.289 68.6992 182.373 68.6992 189.878C68.6992 197.383 74.2886 203.467 81.1839 203.467C82.7411 203.467 84.2306 203.154 85.6053 202.587C85.6051 202.59 91.4156 200.883 95.2351 193.315V197.872C95.2351 197.872 93.2768 212.234 79.4703 213.806H77.2669V216.044H114.868V213.806H112.665C98.8582 212.234 96.8996 197.872 96.8996 197.872V193.622C97.611 195.327 101.544 203.665 110.384 203.458C110.508 203.461 110.631 203.467 110.755 203.467C117.65 203.467 123.24 197.383 123.24 189.878C123.24 182.373 117.65 176.289 110.755 176.289Z" fill="#1A1919"/>
<defs>
<filter id="filter0_d_26_672" x="0" y="0" width="348" height="462" filterUnits="userSpaceOnUse" color-interpolation-filters="sRGB">
<feFlood flood-opacity="0" result="BackgroundImageFix"/>
<feColorMatrix in="SourceAlpha" type="matrix" values="0 0 0 0 0 0 0 0 0 0 0 0 0 0 0 0 0 0 127 0" result="hardAlpha"/>
<feOffset dy="5"/>
<feGaussianBlur stdDeviation="17"/>
<feColorMatrix type="matrix" values="0 0 0 0 0 0 0 0 0 0 0 0 0 0 0 0 0 0 0.1 0"/>
<feBlend mode="normal" in2="BackgroundImageFix" result="effect1_dropShadow_26_672"/>
<feBlend mode="normal" in="SourceGraphic" in2="effect1_dropShadow_26_672" result="shape"/>
</filter>
</defs>
</svg>
