<svg width="348" height="462" viewBox="0 0 348 462" fill="none" xmlns="http://www.w3.org/2000/svg">
<g filter="url(#filter0_d_26_749)">
<rect x="34" y="29" width="280" height="394" rx="20" fill="#F2F2F2"/>
<rect x="34.5" y="29.5" width="279" height="393" rx="19.5" stroke="#D2D2D2"/>
</g>
<path d="M115.344 116.211V125H76.4375V117.5L94.8359 97.7734C96.6849 95.7161 98.1432 93.9062 99.2109 92.3438C100.279 90.7552 101.047 89.3359 101.516 88.0859C102.01 86.8099 102.258 85.599 102.258 84.4531C102.258 82.7344 101.971 81.263 101.398 80.0391C100.826 78.7891 99.9792 77.8255 98.8594 77.1484C97.7656 76.4714 96.4115 76.1328 94.7969 76.1328C93.0781 76.1328 91.5938 76.5495 90.3438 77.3828C89.1198 78.2161 88.1823 79.375 87.5312 80.8594C86.9062 82.3438 86.5938 84.0234 86.5938 85.8984H75.3047C75.3047 82.513 76.112 79.4141 77.7266 76.6016C79.3411 73.763 81.6198 71.5104 84.5625 69.8438C87.5052 68.151 90.9948 67.3047 95.0312 67.3047C99.0156 67.3047 102.375 67.9557 105.109 69.2578C107.87 70.5339 109.953 72.3828 111.359 74.8047C112.792 77.2005 113.508 80.0651 113.508 83.3984C113.508 85.2734 113.208 87.1094 112.609 88.9062C112.01 90.6771 111.151 92.4479 110.031 94.2188C108.938 95.9635 107.609 97.7344 106.047 99.5312C104.484 101.328 102.753 103.19 100.852 105.117L90.9688 116.211H115.344Z" fill="black"/>
<path d="M275.383 374.328V400.695H158.664V378.195L213.859 319.016C219.406 312.844 223.781 307.414 226.984 302.727C230.188 297.961 232.492 293.703 233.898 289.953C235.383 286.125 236.125 282.492 236.125 279.055C236.125 273.898 235.266 269.484 233.547 265.812C231.828 262.062 229.289 259.172 225.93 257.141C222.648 255.109 218.586 254.094 213.742 254.094C208.586 254.094 204.133 255.344 200.383 257.844C196.711 260.344 193.898 263.82 191.945 268.273C190.07 272.727 189.133 277.766 189.133 283.391H155.266C155.266 273.234 157.687 263.938 162.531 255.5C167.375 246.984 174.211 240.227 183.039 235.227C191.867 230.148 202.336 227.609 214.445 227.609C226.398 227.609 236.477 229.562 244.68 233.469C252.961 237.297 259.211 242.844 263.43 250.109C267.727 257.297 269.875 265.891 269.875 275.891C269.875 281.516 268.977 287.023 267.18 292.414C265.383 297.727 262.805 303.039 259.445 308.352C256.164 313.586 252.18 318.898 247.492 324.289C242.805 329.68 237.609 335.266 231.906 341.047L202.258 374.328H275.383Z" fill="black"/>
<path fill-rule="evenodd" clip-rule="evenodd" d="M109.244 200.984C119.533 201.117 125.862 193.546 122.381 185.577C118.899 177.608 115.428 175.815 109.963 170.037C104.495 164.259 96.5448 154.265 96.5823 151.907C96.6226 154.265 88.9994 164.259 83.5316 170.037C78.0665 175.815 74.5984 177.608 71.1143 185.577C67.6328 193.546 73.9649 201.117 84.2509 200.984C91.3132 200.893 94.4913 196.233 95.7878 193.32L95.7878 197.133C95.7878 197.133 93.533 210.886 77.6209 212.392L75.0843 212.392L75.0843 214.535L118.413 214.535L118.413 212.392L115.874 212.392C99.9645 210.886 97.707 197.133 97.707 197.133L97.707 193.821C99.2344 196.737 102.574 200.898 109.244 200.984Z" fill="#1A1919"/>
<defs>
<filter id="filter0_d_26_749" x="0" y="0" width="348" height="462" filterUnits="userSpaceOnUse" color-interpolation-filters="sRGB">
<feFlood flood-opacity="0" result="BackgroundImageFix"/>
<feColorMatrix in="SourceAlpha" type="matrix" values="0 0 0 0 0 0 0 0 0 0 0 0 0 0 0 0 0 0 127 0" result="hardAlpha"/>
<feOffset dy="5"/>
<feGaussianBlur stdDeviation="17"/>
<feColorMatrix type="matrix" values="0 0 0 0 0 0 0 0 0 0 0 0 0 0 0 0 0 0 0.1 0"/>
<feBlend mode="normal" in2="BackgroundImageFix" result="effect1_dropShadow_26_749"/>
<feBlend mode="normal" in="SourceGraphic" in2="effect1_dropShadow_26_749" result="shape"/>
</filter>
</defs>
</svg>
