<svg width="348" height="462" viewBox="0 0 348 462" fill="none" xmlns="http://www.w3.org/2000/svg">
<g filter="url(#filter0_d_26_826)">
<rect x="34" y="29" width="280" height="394" rx="20" fill="#F2F2F2"/>
<rect x="34.5" y="29.5" width="279" height="393" rx="19.5" stroke="#D2D2D2"/>
</g>
<path d="M87.9648 91.6797H93.9805C95.9076 91.6797 97.4961 91.3542 98.7461 90.7031C99.9961 90.026 100.921 89.0885 101.52 87.8906C102.145 86.6667 102.457 85.2474 102.457 83.6328C102.457 82.1745 102.171 80.8854 101.598 79.7656C101.051 78.6198 100.204 77.7344 99.0586 77.1094C97.9128 76.4583 96.4674 76.1328 94.7227 76.1328C93.3424 76.1328 92.0664 76.4062 90.8945 76.9531C89.7227 77.5 88.7852 78.2682 88.082 79.2578C87.3789 80.2474 87.0273 81.4453 87.0273 82.8516H75.7383C75.7383 79.7266 76.5716 77.0052 78.2383 74.6875C79.931 72.3698 82.1966 70.5599 85.0352 69.2578C87.8737 67.9557 90.9987 67.3047 94.4102 67.3047C98.2643 67.3047 101.637 67.9297 104.527 69.1797C107.418 70.4036 109.671 72.2135 111.285 74.6094C112.9 77.0052 113.707 79.974 113.707 83.5156C113.707 85.3125 113.29 87.0573 112.457 88.75C111.624 90.4167 110.426 91.9271 108.863 93.2812C107.327 94.6094 105.452 95.6771 103.238 96.4844C101.025 97.2656 98.5378 97.6562 95.7773 97.6562H87.9648V91.6797ZM87.9648 100.234V94.4141H95.7773C98.8763 94.4141 101.598 94.7656 103.941 95.4687C106.285 96.1719 108.251 97.1875 109.84 98.5156C111.428 99.8177 112.626 101.367 113.434 103.164C114.241 104.935 114.645 106.901 114.645 109.062C114.645 111.719 114.137 114.089 113.121 116.172C112.105 118.229 110.673 119.974 108.824 121.406C107.001 122.839 104.866 123.932 102.418 124.687C99.9701 125.417 97.3008 125.781 94.4102 125.781C92.0143 125.781 89.6576 125.456 87.3398 124.805C85.0482 124.128 82.9648 123.125 81.0898 121.797C79.2409 120.443 77.7565 118.75 76.6367 116.719C75.543 114.661 74.9961 112.227 74.9961 109.414H86.2852C86.2852 110.872 86.6497 112.174 87.3789 113.32C88.1081 114.466 89.1107 115.365 90.3867 116.016C91.6888 116.667 93.1341 116.992 94.7227 116.992C96.5195 116.992 98.056 116.667 99.332 116.016C100.634 115.339 101.624 114.401 102.301 113.203C103.004 111.979 103.355 110.56 103.355 108.945C103.355 106.862 102.978 105.195 102.223 103.945C101.467 102.669 100.387 101.732 98.9805 101.133C97.5742 100.534 95.9076 100.234 93.9805 100.234H87.9648Z" fill="#050505"/>
<path d="M194.254 299.953H212.301C218.082 299.953 222.848 298.977 226.598 297.023C230.348 294.992 233.121 292.18 234.918 288.586C236.793 284.914 237.73 280.656 237.73 275.812C237.73 271.437 236.871 267.57 235.152 264.211C233.512 260.773 230.973 258.117 227.535 256.242C224.098 254.289 219.762 253.312 214.527 253.312C210.387 253.312 206.559 254.133 203.043 255.773C199.527 257.414 196.715 259.719 194.605 262.687C192.496 265.656 191.441 269.25 191.441 273.469H157.574C157.574 264.094 160.074 255.93 165.074 248.977C170.152 242.023 176.949 236.594 185.465 232.687C193.98 228.781 203.355 226.828 213.59 226.828C225.152 226.828 235.27 228.703 243.941 232.453C252.613 236.125 259.371 241.555 264.215 248.742C269.059 255.93 271.48 264.836 271.48 275.461C271.48 280.852 270.23 286.086 267.73 291.164C265.23 296.164 261.637 300.695 256.949 304.758C252.34 308.742 246.715 311.945 240.074 314.367C233.434 316.711 225.973 317.883 217.691 317.883H194.254V299.953ZM194.254 325.617V308.156H217.691C226.988 308.156 235.152 309.211 242.184 311.32C249.215 313.43 255.113 316.477 259.879 320.461C264.645 324.367 268.238 329.016 270.66 334.406C273.082 339.719 274.293 345.617 274.293 352.102C274.293 360.07 272.77 367.18 269.723 373.43C266.676 379.602 262.379 384.836 256.832 389.133C251.363 393.43 244.957 396.711 237.613 398.977C230.27 401.164 222.262 402.258 213.59 402.258C206.402 402.258 199.332 401.281 192.379 399.328C185.504 397.297 179.254 394.289 173.629 390.305C168.082 386.242 163.629 381.164 160.27 375.07C156.988 368.898 155.348 361.594 155.348 353.156H189.215C189.215 357.531 190.309 361.437 192.496 364.875C194.684 368.312 197.691 371.008 201.52 372.961C205.426 374.914 209.762 375.891 214.527 375.891C219.918 375.891 224.527 374.914 228.355 372.961C232.262 370.93 235.23 368.117 237.262 364.523C239.371 360.852 240.426 356.594 240.426 351.75C240.426 345.5 239.293 340.5 237.027 336.75C234.762 332.922 231.52 330.109 227.301 328.312C223.082 326.516 218.082 325.617 212.301 325.617H194.254Z" fill="#050505"/>
<path fill-rule="evenodd" clip-rule="evenodd" d="M110.755 176.289C109.056 176.289 107.437 176.659 105.961 177.329C107.347 175.139 108.161 172.487 108.161 169.627C108.161 162.122 102.571 156.038 95.6757 156.038C88.7806 156.038 83.191 162.122 83.191 169.627C83.191 172.35 83.9297 174.884 85.1967 177.01C83.937 176.545 82.5881 176.289 81.1839 176.289C74.2886 176.289 68.6992 182.373 68.6992 189.878C68.6992 197.383 74.2886 203.467 81.1839 203.467C82.7411 203.467 84.2306 203.154 85.6053 202.587C85.6051 202.59 91.4156 200.883 95.2351 193.315V197.872C95.2351 197.872 93.2768 212.234 79.4703 213.806H77.2669V216.044H114.868V213.806H112.665C98.8582 212.234 96.8996 197.872 96.8996 197.872V193.622C97.611 195.327 101.544 203.665 110.384 203.458C110.508 203.461 110.631 203.467 110.755 203.467C117.65 203.467 123.24 197.383 123.24 189.878C123.24 182.373 117.65 176.289 110.755 176.289Z" fill="#1A1919"/>
<defs>
<filter id="filter0_d_26_826" x="0" y="0" width="348" height="462" filterUnits="userSpaceOnUse" color-interpolation-filters="sRGB">
<feFlood flood-opacity="0" result="BackgroundImageFix"/>
<feColorMatrix in="SourceAlpha" type="matrix" values="0 0 0 0 0 0 0 0 0 0 0 0 0 0 0 0 0 0 127 0" result="hardAlpha"/>
<feOffset dy="5"/>
<feGaussianBlur stdDeviation="17"/>
<feColorMatrix type="matrix" values="0 0 0 0 0 0 0 0 0 0 0 0 0 0 0 0 0 0 0.1 0"/>
<feBlend mode="normal" in2="BackgroundImageFix" result="effect1_dropShadow_26_826"/>
<feBlend mode="normal" in="SourceGraphic" in2="effect1_dropShadow_26_826" result="shape"/>
</filter>
</defs>
</svg>
