<svg width="348" height="462" viewBox="0 0 348 462" fill="none" xmlns="http://www.w3.org/2000/svg">
<g filter="url(#filter0_d_26_476)">
<rect x="34" y="29" width="280" height="394" rx="20" fill="#F2F2F2"/>
<rect x="34.5" y="29.5" width="279" height="393" rx="19.5" stroke="#D2D2D2"/>
</g>
<path d="M87.9648 91.6799H93.9805C95.9076 91.6799 97.4961 91.3544 98.7461 90.7034C99.9961 90.0263 100.921 89.0888 101.52 87.8909C102.145 86.6669 102.457 85.2476 102.457 83.6331C102.457 82.1747 102.171 80.8857 101.598 79.7659C101.051 78.62 100.204 77.7346 99.0586 77.1096C97.9128 76.4586 96.4674 76.1331 94.7227 76.1331C93.3424 76.1331 92.0664 76.4065 90.8945 76.9534C89.7227 77.5002 88.7852 78.2685 88.082 79.2581C87.3789 80.2476 87.0273 81.4456 87.0273 82.8518H75.7383C75.7383 79.7268 76.5716 77.0055 78.2383 74.6877C79.931 72.37 82.1966 70.5601 85.0352 69.2581C87.8737 67.956 90.9987 67.3049 94.4102 67.3049C98.2643 67.3049 101.637 67.9299 104.527 69.1799C107.418 70.4039 109.671 72.2138 111.285 74.6096C112.9 77.0055 113.707 79.9742 113.707 83.5159C113.707 85.3127 113.29 87.0575 112.457 88.7502C111.624 90.4169 110.426 91.9273 108.863 93.2815C107.327 94.6096 105.452 95.6773 103.238 96.4846C101.025 97.2659 98.5378 97.6565 95.7773 97.6565H87.9648V91.6799ZM87.9648 100.235V94.4143H95.7773C98.8763 94.4143 101.598 94.7659 103.941 95.469C106.285 96.1721 108.251 97.1877 109.84 98.5159C111.428 99.818 112.626 101.367 113.434 103.164C114.241 104.935 114.645 106.901 114.645 109.063C114.645 111.719 114.137 114.089 113.121 116.172C112.105 118.229 110.673 119.974 108.824 121.406C107.001 122.839 104.866 123.933 102.418 124.688C99.9701 125.417 97.3008 125.781 94.4102 125.781C92.0143 125.781 89.6576 125.456 87.3398 124.805C85.0482 124.128 82.9648 123.125 81.0898 121.797C79.2409 120.443 77.7565 118.75 76.6367 116.719C75.543 114.662 74.9961 112.227 74.9961 109.414H86.2852C86.2852 110.873 86.6497 112.175 87.3789 113.321C88.1081 114.466 89.1107 115.365 90.3867 116.016C91.6888 116.667 93.1341 116.992 94.7227 116.992C96.5195 116.992 98.056 116.667 99.332 116.016C100.634 115.339 101.624 114.401 102.301 113.203C103.004 111.979 103.355 110.56 103.355 108.946C103.355 106.862 102.978 105.196 102.223 103.946C101.467 102.67 100.387 101.732 98.9805 101.133C97.5742 100.534 95.9076 100.235 93.9805 100.235H87.9648Z" fill="#F24822"/>
<path d="M194.254 299.954H212.301C218.082 299.954 222.848 298.977 226.598 297.024C230.348 294.993 233.121 292.18 234.918 288.586C236.793 284.915 237.73 280.657 237.73 275.813C237.73 271.438 236.871 267.571 235.152 264.211C233.512 260.774 230.973 258.118 227.535 256.243C224.098 254.29 219.762 253.313 214.527 253.313C210.387 253.313 206.559 254.133 203.043 255.774C199.527 257.415 196.715 259.719 194.605 262.688C192.496 265.657 191.441 269.25 191.441 273.469H157.574C157.574 264.094 160.074 255.93 165.074 248.977C170.152 242.024 176.949 236.594 185.465 232.688C193.98 228.782 203.355 226.829 213.59 226.829C225.152 226.829 235.27 228.704 243.941 232.454C252.613 236.125 259.371 241.555 264.215 248.743C269.059 255.93 271.48 264.836 271.48 275.461C271.48 280.852 270.23 286.086 267.73 291.165C265.23 296.165 261.637 300.696 256.949 304.758C252.34 308.743 246.715 311.946 240.074 314.368C233.434 316.711 225.973 317.883 217.691 317.883H194.254V299.954ZM194.254 325.618V308.157H217.691C226.988 308.157 235.152 309.211 242.184 311.321C249.215 313.43 255.113 316.477 259.879 320.461C264.645 324.368 268.238 329.016 270.66 334.407C273.082 339.719 274.293 345.618 274.293 352.102C274.293 360.071 272.77 367.18 269.723 373.43C266.676 379.602 262.379 384.836 256.832 389.133C251.363 393.43 244.957 396.711 237.613 398.977C230.27 401.165 222.262 402.258 213.59 402.258C206.402 402.258 199.332 401.282 192.379 399.329C185.504 397.297 179.254 394.29 173.629 390.305C168.082 386.243 163.629 381.165 160.27 375.071C156.988 368.899 155.348 361.594 155.348 353.157H189.215C189.215 357.532 190.309 361.438 192.496 364.875C194.684 368.313 197.691 371.008 201.52 372.961C205.426 374.915 209.762 375.891 214.527 375.891C219.918 375.891 224.527 374.915 228.355 372.961C232.262 370.93 235.23 368.118 237.262 364.524C239.371 360.852 240.426 356.594 240.426 351.75C240.426 345.5 239.293 340.5 237.027 336.75C234.762 332.922 231.52 330.11 227.301 328.313C223.082 326.516 218.082 325.618 212.301 325.618H194.254Z" fill="#F24822"/>
<path fill-rule="evenodd" clip-rule="evenodd" d="M67.2305 185.628L96.5042 215.831L125.778 185.628L96.5042 155.425L67.2305 185.628Z" fill="#F24822"/>
<defs>
<filter id="filter0_d_26_476" x="0" y="0" width="348" height="462" filterUnits="userSpaceOnUse" color-interpolation-filters="sRGB">
<feFlood flood-opacity="0" result="BackgroundImageFix"/>
<feColorMatrix in="SourceAlpha" type="matrix" values="0 0 0 0 0 0 0 0 0 0 0 0 0 0 0 0 0 0 127 0" result="hardAlpha"/>
<feOffset dy="5"/>
<feGaussianBlur stdDeviation="17"/>
<feColorMatrix type="matrix" values="0 0 0 0 0 0 0 0 0 0 0 0 0 0 0 0 0 0 0.1 0"/>
<feBlend mode="normal" in2="BackgroundImageFix" result="effect1_dropShadow_26_476"/>
<feBlend mode="normal" in="SourceGraphic" in2="effect1_dropShadow_26_476" result="shape"/>
</filter>
</defs>
</svg>
