<svg width="351" height="464" viewBox="0 0 351 464" fill="none" xmlns="http://www.w3.org/2000/svg">
<g filter="url(#filter0_d_26_728)">
<rect x="36.125" y="29" width="280" height="394" rx="20" transform="rotate(0.308765 36.125 29)" fill="#F2F2F2"/>
<rect x="36.6223" y="29.5027" width="279" height="393" rx="19.5" transform="rotate(0.308765 36.6223 29.5027)" stroke="#D2D2D2"/>
</g>
<path d="M89.748 91.9697L95.7636 92.0021C97.6906 92.0125 99.2809 91.6955 100.534 91.0512C101.788 90.3809 102.718 89.4484 103.323 88.2537C103.955 87.0332 104.275 85.6156 104.283 84.001C104.291 82.5427 104.012 81.2521 103.445 80.1293C102.904 78.9805 102.063 78.0905 100.92 77.4594C99.7778 76.8022 98.3343 76.4689 96.5895 76.4595C95.2093 76.452 93.9319 76.7186 92.757 77.2591C91.5822 77.7997 90.6406 78.5629 89.9322 79.5486C89.2237 80.5344 88.8657 81.7304 88.8581 83.1366L77.5692 83.0758C77.5861 79.9509 78.4341 77.234 80.1132 74.9253C81.8184 72.6168 84.0937 70.8191 86.9392 69.5324C89.7847 68.2456 92.9132 67.6114 96.3246 67.6298C100.179 67.6506 103.548 68.2937 106.432 69.5593C109.316 70.7988 111.558 72.6208 113.16 75.0253C114.762 77.4298 115.553 80.4029 115.534 83.9445C115.524 85.7413 115.098 87.4838 114.256 89.172C113.413 90.8342 112.207 92.3381 110.638 93.6839C109.094 95.0037 107.213 96.0613 104.995 96.8566C102.778 97.6259 100.289 98.0031 97.5282 97.9883L89.7158 97.9462L89.748 91.9697ZM89.7019 100.524L89.7333 94.704L97.5457 94.7461C100.645 94.7628 103.364 95.1291 105.704 95.8448C108.044 96.5605 110.005 97.5868 111.586 98.9234C113.167 100.234 114.357 101.79 115.155 103.591C115.952 105.366 116.345 107.335 116.334 109.496C116.319 112.152 115.799 114.519 114.772 116.597C113.745 118.649 112.304 120.386 110.447 121.808C108.616 123.231 106.475 124.313 104.023 125.055C101.571 125.771 98.9001 126.121 96.0095 126.105C93.6137 126.093 91.2587 125.754 88.9445 125.091C86.6566 124.401 84.5787 123.388 82.7108 122.049C80.8692 120.685 79.394 118.985 78.2851 116.947C77.2025 114.884 76.6688 112.446 76.6839 109.634L87.9728 109.695C87.9649 111.153 88.3225 112.457 89.0455 113.607C89.7685 114.757 90.7662 115.66 92.0387 116.318C93.3373 116.976 94.7808 117.31 96.3693 117.318C98.1662 117.328 99.7044 117.011 100.984 116.367C102.29 115.696 103.284 114.764 103.968 113.57C104.677 112.35 105.037 110.933 105.045 109.318C105.057 107.235 104.688 105.566 103.94 104.312C103.191 103.032 102.116 102.089 100.713 101.482C99.3096 100.876 97.6445 100.567 95.7175 100.557L89.7019 100.524Z" fill="#F24822"/>
<path d="M196.228 300.174L214.275 300.271C220.056 300.302 224.827 299.351 228.588 297.418C232.348 295.407 235.137 292.61 236.953 289.026C238.848 285.364 239.808 281.111 239.835 276.268C239.858 271.893 239.02 268.021 237.319 264.652C235.697 261.206 233.172 258.536 229.745 256.643C226.318 254.671 221.987 253.671 216.753 253.643C212.612 253.621 208.78 254.42 205.256 256.042C201.731 257.664 198.906 259.953 196.781 262.911C194.656 265.868 193.581 269.456 193.559 273.675L159.692 273.492C159.743 264.117 162.287 255.967 167.324 249.041C172.439 242.115 179.265 236.722 187.802 232.862C196.339 229.001 205.724 227.099 215.958 227.154C227.521 227.216 237.627 229.146 246.279 232.942C254.931 236.661 261.659 242.127 266.464 249.341C271.269 256.554 273.643 265.473 273.586 276.098C273.557 281.489 272.279 286.716 269.751 291.781C267.224 296.767 263.606 301.279 258.897 305.316C254.266 309.276 248.624 312.448 241.97 314.835C235.317 317.142 227.85 318.274 219.569 318.229L196.132 318.103L196.228 300.174ZM196.09 325.837L196.184 308.377L219.621 308.503C228.918 308.553 237.076 309.652 244.096 311.799C251.116 313.946 256.998 317.025 261.742 321.035C266.487 324.967 270.055 329.635 272.448 335.038C274.841 340.364 276.02 346.268 275.985 352.753C275.942 360.721 274.381 367.822 271.3 374.056C268.22 380.211 263.895 385.422 258.325 389.689C252.833 393.957 246.409 397.203 239.054 399.429C231.698 401.577 223.685 402.628 215.013 402.581C207.825 402.542 200.76 401.528 193.818 399.537C186.954 397.469 180.72 394.427 175.117 390.413C169.592 386.321 165.166 381.218 161.84 375.107C158.592 368.917 156.991 361.604 157.036 353.166L190.903 353.349C190.879 357.724 191.952 361.636 194.121 365.085C196.29 368.534 199.283 371.246 203.101 373.22C206.996 375.194 211.327 376.194 216.092 376.219C221.483 376.248 226.098 375.297 229.936 373.364C233.853 371.354 236.837 368.558 238.888 364.975C241.017 361.314 242.094 357.062 242.121 352.219C242.154 345.969 241.048 340.963 238.803 337.201C236.558 333.36 233.331 330.53 229.122 328.711C224.913 326.891 219.918 325.966 214.137 325.935L196.09 325.837Z" fill="#F24822"/>
<path fill-rule="evenodd" clip-rule="evenodd" d="M109.758 160.401C99.0673 160.507 96.8766 172.666 96.8766 172.666C96.8766 172.666 94.4754 160.483 83.7867 160.261C73.0977 160.039 66.4688 169.377 70.0338 179.264C73.5986 189.151 77.1916 191.391 82.8335 198.575C88.4752 205.76 96.6725 218.18 96.6156 221.099C96.5904 218.179 104.579 205.847 110.298 198.723C116.017 191.6 119.634 189.399 123.305 179.551C126.976 169.703 120.449 160.294 109.758 160.401Z" fill="#F24822"/>
<defs>
<filter id="filter0_d_26_728" x="0.109375" y="0.107422" width="349.902" height="463.288" filterUnits="userSpaceOnUse" color-interpolation-filters="sRGB">
<feFlood flood-opacity="0" result="BackgroundImageFix"/>
<feColorMatrix in="SourceAlpha" type="matrix" values="0 0 0 0 0 0 0 0 0 0 0 0 0 0 0 0 0 0 127 0" result="hardAlpha"/>
<feOffset dy="5"/>
<feGaussianBlur stdDeviation="17"/>
<feColorMatrix type="matrix" values="0 0 0 0 0 0 0 0 0 0 0 0 0 0 0 0 0 0 0.1 0"/>
<feBlend mode="normal" in2="BackgroundImageFix" result="effect1_dropShadow_26_728"/>
<feBlend mode="normal" in="SourceGraphic" in2="effect1_dropShadow_26_728" result="shape"/>
</filter>
</defs>
</svg>
