<svg width="348" height="462" viewBox="0 0 348 462" fill="none" xmlns="http://www.w3.org/2000/svg">
<g filter="url(#filter0_d_26_665)">
<rect x="34" y="29" width="280" height="394" rx="20" fill="#F2F2F2"/>
<rect x="34.5" y="29.5" width="279" height="393" rx="19.5" stroke="#D2D2D2"/>
</g>
<path d="M87.0273 99.1016L78.043 96.9531L81.2852 68.125H113.238V77.2266H90.543L89.1367 89.8437C89.8919 89.401 91.0378 88.9323 92.5742 88.4375C94.1107 87.9167 95.8294 87.6562 97.7305 87.6562C100.491 87.6562 102.939 88.0859 105.074 88.9453C107.21 89.8047 109.02 91.0547 110.504 92.6953C112.014 94.3359 113.16 96.3411 113.941 98.7109C114.723 101.081 115.113 103.763 115.113 106.758C115.113 109.284 114.723 111.693 113.941 113.984C113.16 116.25 111.975 118.281 110.387 120.078C108.798 121.849 106.806 123.242 104.41 124.258C102.014 125.273 99.1758 125.781 95.8945 125.781C93.4466 125.781 91.0768 125.417 88.7852 124.687C86.5195 123.958 84.4753 122.878 82.6523 121.445C80.8555 120.013 79.4102 118.281 78.3164 116.25C77.2487 114.193 76.6888 111.849 76.6367 109.219H87.8086C87.9648 110.833 88.3815 112.227 89.0586 113.398C89.7617 114.544 90.6862 115.43 91.832 116.055C92.9779 116.68 94.319 116.992 95.8555 116.992C97.2878 116.992 98.5117 116.719 99.5273 116.172C100.543 115.625 101.363 114.87 101.988 113.906C102.613 112.917 103.069 111.771 103.355 110.469C103.668 109.141 103.824 107.708 103.824 106.172C103.824 104.635 103.642 103.242 103.277 101.992C102.913 100.742 102.353 99.6615 101.598 98.75C100.842 97.8385 99.8789 97.1354 98.707 96.6406C97.5612 96.1458 96.2201 95.8984 94.6836 95.8984C92.6003 95.8984 90.9857 96.224 89.8398 96.875C88.7201 97.526 87.7826 98.2682 87.0273 99.1016Z" fill="#050505"/>
<path d="M189.332 321.398L162.379 314.953L172.105 228.469H267.965V255.773H199.879L195.66 293.625C197.926 292.297 201.363 290.891 205.973 289.406C210.582 287.844 215.738 287.062 221.441 287.062C229.723 287.062 237.066 288.352 243.473 290.93C249.879 293.508 255.309 297.258 259.762 302.18C264.293 307.102 267.73 313.117 270.074 320.227C272.418 327.336 273.59 335.383 273.59 344.367C273.59 351.945 272.418 359.172 270.074 366.047C267.73 372.844 264.176 378.937 259.41 384.328C254.645 389.641 248.668 393.82 241.48 396.867C234.293 399.914 225.777 401.437 215.934 401.437C208.59 401.437 201.48 400.344 194.605 398.156C187.809 395.969 181.676 392.727 176.207 388.43C170.816 384.133 166.48 378.937 163.199 372.844C159.996 366.672 158.316 359.641 158.16 351.75H191.676C192.145 356.594 193.395 360.773 195.426 364.289C197.535 367.727 200.309 370.383 203.746 372.258C207.184 374.133 211.207 375.07 215.816 375.07C220.113 375.07 223.785 374.25 226.832 372.609C229.879 370.969 232.34 368.703 234.215 365.812C236.09 362.844 237.457 359.406 238.316 355.5C239.254 351.516 239.723 347.219 239.723 342.609C239.723 338 239.176 333.82 238.082 330.07C236.988 326.32 235.309 323.078 233.043 320.344C230.777 317.609 227.887 315.5 224.371 314.016C220.934 312.531 216.91 311.789 212.301 311.789C206.051 311.789 201.207 312.766 197.77 314.719C194.41 316.672 191.598 318.898 189.332 321.398Z" fill="#050505"/>
<path fill-rule="evenodd" clip-rule="evenodd" d="M110.755 176.289C109.056 176.289 107.437 176.659 105.961 177.329C107.347 175.139 108.161 172.487 108.161 169.627C108.161 162.122 102.571 156.038 95.6757 156.038C88.7806 156.038 83.191 162.122 83.191 169.627C83.191 172.35 83.9297 174.884 85.1967 177.01C83.937 176.545 82.5881 176.289 81.1839 176.289C74.2886 176.289 68.6992 182.373 68.6992 189.878C68.6992 197.383 74.2886 203.467 81.1839 203.467C82.7411 203.467 84.2306 203.154 85.6053 202.587C85.6051 202.59 91.4156 200.883 95.2351 193.315V197.872C95.2351 197.872 93.2768 212.234 79.4703 213.806H77.2669V216.044H114.868V213.806H112.665C98.8582 212.234 96.8996 197.872 96.8996 197.872V193.622C97.611 195.327 101.544 203.665 110.384 203.458C110.508 203.461 110.631 203.467 110.755 203.467C117.65 203.467 123.24 197.383 123.24 189.878C123.24 182.373 117.65 176.289 110.755 176.289Z" fill="#1A1919"/>
<defs>
<filter id="filter0_d_26_665" x="0" y="0" width="348" height="462" filterUnits="userSpaceOnUse" color-interpolation-filters="sRGB">
<feFlood flood-opacity="0" result="BackgroundImageFix"/>
<feColorMatrix in="SourceAlpha" type="matrix" values="0 0 0 0 0 0 0 0 0 0 0 0 0 0 0 0 0 0 127 0" result="hardAlpha"/>
<feOffset dy="5"/>
<feGaussianBlur stdDeviation="17"/>
<feColorMatrix type="matrix" values="0 0 0 0 0 0 0 0 0 0 0 0 0 0 0 0 0 0 0.1 0"/>
<feBlend mode="normal" in2="BackgroundImageFix" result="effect1_dropShadow_26_665"/>
<feBlend mode="normal" in="SourceGraphic" in2="effect1_dropShadow_26_665" result="shape"/>
</filter>
</defs>
</svg>
