<svg width="348" height="462" viewBox="0 0 348 462" fill="none" xmlns="http://www.w3.org/2000/svg">
<g filter="url(#filter0_d_26_651)">
<rect x="34" y="29" width="280" height="394" rx="20" fill="#F2F2F2"/>
<rect x="34.5" y="29.5" width="279" height="393" rx="19.5" stroke="#D2D2D2"/>
</g>
<path d="M87.0273 99.1018L78.043 96.9534L81.2852 68.1252H113.238V77.2268H90.543L89.1367 89.844C89.8919 89.4013 91.0378 88.9325 92.5742 88.4377C94.1107 87.9169 95.8294 87.6565 97.7305 87.6565C100.491 87.6565 102.939 88.0862 105.074 88.9456C107.21 89.8049 109.02 91.0549 110.504 92.6956C112.014 94.3362 113.16 96.3414 113.941 98.7112C114.723 101.081 115.113 103.763 115.113 106.758C115.113 109.284 114.723 111.693 113.941 113.985C113.16 116.25 111.975 118.281 110.387 120.078C108.798 121.849 106.806 123.242 104.41 124.258C102.014 125.274 99.1758 125.781 95.8945 125.781C93.4466 125.781 91.0768 125.417 88.7852 124.688C86.5195 123.959 84.4753 122.878 82.6523 121.446C80.8555 120.013 79.4102 118.281 78.3164 116.25C77.2487 114.193 76.6888 111.849 76.6367 109.219H87.8086C87.9648 110.834 88.3815 112.227 89.0586 113.399C89.7617 114.545 90.6862 115.43 91.832 116.055C92.9779 116.68 94.319 116.992 95.8555 116.992C97.2878 116.992 98.5117 116.719 99.5273 116.172C100.543 115.625 101.363 114.87 101.988 113.906C102.613 112.917 103.069 111.771 103.355 110.469C103.668 109.141 103.824 107.709 103.824 106.172C103.824 104.636 103.642 103.242 103.277 101.992C102.913 100.742 102.353 99.6617 101.598 98.7502C100.842 97.8388 99.8789 97.1357 98.707 96.6409C97.5612 96.1461 96.2201 95.8987 94.6836 95.8987C92.6003 95.8987 90.9857 96.2242 89.8398 96.8752C88.7201 97.5263 87.7826 98.2685 87.0273 99.1018Z" fill="#F24822"/>
<path d="M189.332 321.399L162.379 314.954L172.105 228.469H267.965V255.774H199.879L195.66 293.625C197.926 292.297 201.363 290.891 205.973 289.407C210.582 287.844 215.738 287.063 221.441 287.063C229.723 287.063 237.066 288.352 243.473 290.93C249.879 293.508 255.309 297.258 259.762 302.18C264.293 307.102 267.73 313.118 270.074 320.227C272.418 327.336 273.59 335.383 273.59 344.368C273.59 351.946 272.418 359.172 270.074 366.047C267.73 372.844 264.176 378.938 259.41 384.329C254.645 389.641 248.668 393.821 241.48 396.868C234.293 399.915 225.777 401.438 215.934 401.438C208.59 401.438 201.48 400.344 194.605 398.157C187.809 395.969 181.676 392.727 176.207 388.43C170.816 384.133 166.48 378.938 163.199 372.844C159.996 366.672 158.316 359.641 158.16 351.75H191.676C192.145 356.594 193.395 360.774 195.426 364.29C197.535 367.727 200.309 370.383 203.746 372.258C207.184 374.133 211.207 375.071 215.816 375.071C220.113 375.071 223.785 374.25 226.832 372.61C229.879 370.969 232.34 368.704 234.215 365.813C236.09 362.844 237.457 359.407 238.316 355.5C239.254 351.516 239.723 347.219 239.723 342.61C239.723 338 239.176 333.821 238.082 330.071C236.988 326.321 235.309 323.079 233.043 320.344C230.777 317.61 227.887 315.5 224.371 314.016C220.934 312.532 216.91 311.79 212.301 311.79C206.051 311.79 201.207 312.766 197.77 314.719C194.41 316.672 191.598 318.899 189.332 321.399Z" fill="#F24822"/>
<path fill-rule="evenodd" clip-rule="evenodd" d="M67.2305 185.628L96.5042 215.831L125.778 185.628L96.5042 155.425L67.2305 185.628Z" fill="#F24822"/>
<defs>
<filter id="filter0_d_26_651" x="0" y="0" width="348" height="462" filterUnits="userSpaceOnUse" color-interpolation-filters="sRGB">
<feFlood flood-opacity="0" result="BackgroundImageFix"/>
<feColorMatrix in="SourceAlpha" type="matrix" values="0 0 0 0 0 0 0 0 0 0 0 0 0 0 0 0 0 0 127 0" result="hardAlpha"/>
<feOffset dy="5"/>
<feGaussianBlur stdDeviation="17"/>
<feColorMatrix type="matrix" values="0 0 0 0 0 0 0 0 0 0 0 0 0 0 0 0 0 0 0.1 0"/>
<feBlend mode="normal" in2="BackgroundImageFix" result="effect1_dropShadow_26_651"/>
<feBlend mode="normal" in="SourceGraphic" in2="effect1_dropShadow_26_651" result="shape"/>
</filter>
</defs>
</svg>
