<svg width="351" height="464" viewBox="0 0 351 464" fill="none" xmlns="http://www.w3.org/2000/svg">
<g filter="url(#filter0_d_26_616)">
<rect x="36.125" y="29" width="280" height="394" rx="20" transform="rotate(0.308765 36.125 29)" fill="#F2F2F2"/>
<rect x="36.6223" y="29.5027" width="279" height="393" rx="19.5" transform="rotate(0.308765 36.6223 29.5027)" stroke="#D2D2D2"/>
</g>
<path d="M107.38 67.9234L109.021 67.9323L108.972 76.9165L108.308 76.9129C105.339 76.8969 102.694 77.3254 100.371 78.1983C98.0489 79.0712 96.076 80.3236 94.4526 81.9555C92.8554 83.5615 91.6209 85.508 90.7492 87.795C89.9035 90.0822 89.4731 92.645 89.4578 95.4835L89.4068 104.936C89.3959 106.968 89.5815 108.766 89.9637 110.33C90.3721 111.869 90.9511 113.161 91.7006 114.207C92.4764 115.227 93.3837 116 94.4226 116.526C95.4615 117.027 96.6321 117.28 97.9341 117.287C99.1581 117.294 100.266 117.039 101.259 116.524C102.277 116.009 103.14 115.284 103.848 114.35C104.583 113.391 105.136 112.274 105.507 111C105.905 109.7 106.108 108.282 106.116 106.745C106.124 105.209 105.937 103.789 105.553 102.484C105.196 101.18 104.655 100.058 103.931 99.1162C103.207 98.1488 102.325 97.4018 101.286 96.8754C100.248 96.3489 99.0771 96.0822 97.775 96.0752C96.0042 96.0657 94.4395 96.4739 93.0808 97.2999C91.7484 98.1 90.7011 99.1361 89.939 100.408C89.177 101.68 88.7661 103.019 88.7064 104.425L85.3198 102.219C85.4088 100.214 85.8357 98.3156 86.6006 96.5228C87.3915 94.7302 88.4677 93.1474 89.8293 91.7745C91.2171 90.3757 92.8766 89.2909 94.8079 88.52C96.7393 87.7231 98.9159 87.3312 101.338 87.3443C103.994 87.3586 106.322 87.8789 108.322 88.9054C110.347 89.9319 112.033 91.3342 113.377 93.1124C114.722 94.8905 115.726 96.9402 116.391 99.2615C117.056 101.583 117.381 104.059 117.367 106.689C117.352 109.449 116.882 112.012 115.958 114.377C115.06 116.742 113.76 118.805 112.057 120.567C110.381 122.328 108.368 123.698 106.019 124.675C103.67 125.652 101.038 126.132 98.1209 126.117C95.1001 126.1 92.3557 125.539 89.8877 124.432C87.4459 123.299 85.3449 121.725 83.5849 119.71C81.8249 117.695 80.4706 115.305 79.522 112.54C78.5993 109.774 78.1469 106.751 78.1646 103.47L78.1881 99.0947C78.2128 94.5114 78.8995 90.3223 80.2481 86.5275C81.6229 82.7067 83.5808 79.4099 86.1218 76.6371C88.6629 73.8383 91.7215 71.6802 95.2974 70.163C98.8734 68.6458 102.901 67.8993 107.38 67.9234Z" fill="#F24822"/>
<path d="M246.609 227.731L251.53 227.757L251.385 254.71L249.393 254.699C240.487 254.651 232.55 255.937 225.583 258.555C218.616 261.174 212.697 264.931 207.827 269.827C203.035 274.645 199.332 280.485 196.716 287.346C194.179 294.207 192.888 301.895 192.842 310.411L192.689 338.77C192.656 344.864 193.213 350.257 194.36 354.951C195.585 359.567 197.322 363.444 199.571 366.581C201.898 369.64 204.62 371.96 207.736 373.539C210.853 375.04 214.365 375.801 218.271 375.822C221.943 375.842 225.267 375.079 228.245 373.532C231.3 371.986 233.89 369.813 236.014 367.012C238.217 364.133 239.876 360.782 240.99 356.96C242.183 353.06 242.792 348.806 242.817 344.196C242.842 339.587 242.279 335.326 241.128 331.414C240.055 327.502 238.433 324.133 236.261 321.309C234.089 318.407 231.444 316.166 228.328 314.587C225.211 313.007 221.7 312.207 217.794 312.186C212.481 312.157 207.787 313.382 203.711 315.86C199.714 318.261 196.572 321.369 194.286 325.185C192 329 190.767 333.017 190.588 337.235L180.428 330.618C180.695 324.603 181.976 318.907 184.27 313.529C186.643 308.151 189.872 303.403 193.957 299.284C198.12 295.088 203.099 291.833 208.892 289.521C214.687 287.13 221.216 285.954 228.482 285.993C236.451 286.036 243.434 287.597 249.434 290.677C255.511 293.756 260.566 297.963 264.6 303.298C268.634 308.632 271.648 314.781 273.642 321.745C275.635 328.709 276.611 336.136 276.568 344.027C276.524 352.308 275.115 359.996 272.342 367.09C269.648 374.185 265.747 380.375 260.641 385.66C255.612 390.946 249.574 395.054 242.527 397.985C235.48 400.915 227.581 402.357 218.832 402.31C209.769 402.261 201.536 400.576 194.132 397.255C186.806 393.856 180.504 389.135 175.224 383.09C169.944 377.046 165.881 369.876 163.035 361.579C160.267 353.283 158.909 344.213 158.962 334.369L159.033 321.245C159.107 307.495 161.167 294.927 165.213 283.543C169.337 272.081 175.211 262.19 182.834 253.872C190.458 245.475 199.633 239.001 210.361 234.45C221.089 229.898 233.171 227.658 246.609 227.731Z" fill="#F24822"/>
<path fill-rule="evenodd" clip-rule="evenodd" d="M109.758 160.401C99.0673 160.507 96.8766 172.666 96.8766 172.666C96.8766 172.666 94.4754 160.483 83.7867 160.261C73.0977 160.039 66.4688 169.377 70.0338 179.264C73.5986 189.151 77.1916 191.391 82.8335 198.575C88.4752 205.76 96.6725 218.18 96.6156 221.099C96.5904 218.179 104.579 205.847 110.298 198.723C116.017 191.6 119.634 189.399 123.305 179.551C126.976 169.703 120.449 160.294 109.758 160.401Z" fill="#F24822"/>
<defs>
<filter id="filter0_d_26_616" x="0.109375" y="0.107422" width="349.902" height="463.288" filterUnits="userSpaceOnUse" color-interpolation-filters="sRGB">
<feFlood flood-opacity="0" result="BackgroundImageFix"/>
<feColorMatrix in="SourceAlpha" type="matrix" values="0 0 0 0 0 0 0 0 0 0 0 0 0 0 0 0 0 0 127 0" result="hardAlpha"/>
<feOffset dy="5"/>
<feGaussianBlur stdDeviation="17"/>
<feColorMatrix type="matrix" values="0 0 0 0 0 0 0 0 0 0 0 0 0 0 0 0 0 0 0.1 0"/>
<feBlend mode="normal" in2="BackgroundImageFix" result="effect1_dropShadow_26_616"/>
<feBlend mode="normal" in="SourceGraphic" in2="effect1_dropShadow_26_616" result="shape"/>
</filter>
</defs>
</svg>
