<svg width="348" height="462" viewBox="0 0 348 462" fill="none" xmlns="http://www.w3.org/2000/svg">
<g filter="url(#filter0_d_26_644)">
<rect x="34" y="29" width="280" height="394" rx="20" fill="#F2F2F2"/>
<rect x="34.5" y="29.5" width="279" height="393" rx="19.5" stroke="#D2D2D2"/>
</g>
<path d="M105.461 67.5391H107.102V76.5234H106.438C103.469 76.5234 100.826 76.9661 98.5078 77.8516C96.1901 78.737 94.224 80 92.6094 81.6406C91.0208 83.2552 89.7969 85.2083 88.9375 87.5C88.1042 89.7917 87.6875 92.3568 87.6875 95.1953V104.648C87.6875 106.68 87.8828 108.477 88.2734 110.039C88.6901 111.576 89.276 112.865 90.0312 113.906C90.8125 114.922 91.724 115.69 92.7656 116.211C93.8073 116.706 94.9792 116.953 96.2812 116.953C97.5052 116.953 98.612 116.693 99.6016 116.172C100.617 115.651 101.477 114.922 102.18 113.984C102.909 113.021 103.456 111.901 103.82 110.625C104.211 109.323 104.406 107.904 104.406 106.367C104.406 104.831 104.211 103.411 103.82 102.109C103.456 100.807 102.909 99.6875 102.18 98.75C101.451 97.7865 100.565 97.0443 99.5234 96.5234C98.4818 96.0026 97.3099 95.7422 96.0078 95.7422C94.237 95.7422 92.6745 96.1589 91.3203 96.9922C89.9922 97.7995 88.9505 98.8411 88.1953 100.117C87.4401 101.393 87.0365 102.734 86.9844 104.141L83.5859 101.953C83.6641 99.9479 84.0807 98.0469 84.8359 96.25C85.6172 94.4531 86.6849 92.8646 88.0391 91.4844C89.4193 90.0781 91.0729 88.9844 93 88.2031C94.9271 87.3958 97.1016 86.9922 99.5234 86.9922C102.18 86.9922 104.51 87.5 106.516 88.5156C108.547 89.5312 110.24 90.9245 111.594 92.6953C112.948 94.4661 113.964 96.5104 114.641 98.8281C115.318 101.146 115.656 103.62 115.656 106.25C115.656 109.01 115.201 111.576 114.289 113.945C113.404 116.315 112.115 118.385 110.422 120.156C108.755 121.927 106.75 123.307 104.406 124.297C102.062 125.286 99.4323 125.781 96.5156 125.781C93.4948 125.781 90.7474 125.234 88.2734 124.141C85.8255 123.021 83.7161 121.458 81.9453 119.453C80.1745 117.448 78.8073 115.065 77.8438 112.305C76.9062 109.544 76.4375 106.523 76.4375 103.242V98.8672C76.4375 94.2839 77.1016 90.0911 78.4297 86.2891C79.7839 82.4609 81.724 79.1536 84.25 76.3672C86.776 73.5547 89.8229 71.3802 93.3906 69.8438C96.9583 68.3073 100.982 67.5391 105.461 67.5391Z" fill="black"/>
<path d="M244.289 227.297H249.211V254.25H247.219C238.312 254.25 230.383 255.578 223.43 258.234C216.477 260.891 210.578 264.68 205.734 269.602C200.969 274.445 197.297 280.305 194.719 287.18C192.219 294.055 190.969 301.75 190.969 310.266V338.625C190.969 344.719 191.555 350.109 192.727 354.797C193.977 359.406 195.734 363.273 198 366.398C200.344 369.445 203.078 371.75 206.203 373.312C209.328 374.797 212.844 375.539 216.75 375.539C220.422 375.539 223.742 374.758 226.711 373.195C229.758 371.633 232.336 369.445 234.445 366.633C236.633 363.742 238.273 360.383 239.367 356.555C240.539 352.648 241.125 348.391 241.125 343.781C241.125 339.172 240.539 334.914 239.367 331.008C238.273 327.102 236.633 323.742 234.445 320.93C232.258 318.039 229.602 315.812 226.477 314.25C223.352 312.688 219.836 311.906 215.93 311.906C210.617 311.906 205.93 313.156 201.867 315.656C197.883 318.078 194.758 321.203 192.492 325.031C190.227 328.859 189.016 332.883 188.859 337.102L178.664 330.539C178.898 324.523 180.148 318.82 182.414 313.43C184.758 308.039 187.961 303.273 192.023 299.133C196.164 294.914 201.125 291.633 206.906 289.289C212.688 286.867 219.211 285.656 226.477 285.656C234.445 285.656 241.438 287.18 247.453 290.227C253.547 293.273 258.625 297.453 262.688 302.766C266.75 308.078 269.797 314.211 271.828 321.164C273.859 328.117 274.875 335.539 274.875 343.43C274.875 351.711 273.508 359.406 270.773 366.516C268.117 373.625 264.25 379.836 259.172 385.148C254.172 390.461 248.156 394.602 241.125 397.57C234.094 400.539 226.203 402.023 217.453 402.023C208.391 402.023 200.148 400.383 192.727 397.102C185.383 393.742 179.055 389.055 173.742 383.039C168.43 377.023 164.328 369.875 161.438 361.594C158.625 353.312 157.219 344.25 157.219 334.406V321.281C157.219 307.531 159.211 294.953 163.195 283.547C167.258 272.062 173.078 262.141 180.656 253.781C188.234 245.344 197.375 238.82 208.078 234.211C218.781 229.602 230.852 227.297 244.289 227.297Z" fill="black"/>
<path fill-rule="evenodd" clip-rule="evenodd" d="M109.244 200.984C119.533 201.117 125.862 193.546 122.381 185.577C118.899 177.608 115.428 175.815 109.963 170.037C104.495 164.259 96.5448 154.265 96.5823 151.907C96.6226 154.265 88.9994 164.259 83.5316 170.037C78.0665 175.815 74.5984 177.608 71.1143 185.577C67.6328 193.546 73.9649 201.117 84.2509 200.984C91.3132 200.893 94.4913 196.233 95.7878 193.32L95.7878 197.133C95.7878 197.133 93.533 210.886 77.6209 212.392L75.0843 212.392L75.0843 214.535L118.413 214.535L118.413 212.392L115.874 212.392C99.9645 210.886 97.707 197.133 97.707 197.133L97.707 193.821C99.2344 196.737 102.574 200.898 109.244 200.984Z" fill="#1A1919"/>
<defs>
<filter id="filter0_d_26_644" x="0" y="0" width="348" height="462" filterUnits="userSpaceOnUse" color-interpolation-filters="sRGB">
<feFlood flood-opacity="0" result="BackgroundImageFix"/>
<feColorMatrix in="SourceAlpha" type="matrix" values="0 0 0 0 0 0 0 0 0 0 0 0 0 0 0 0 0 0 127 0" result="hardAlpha"/>
<feOffset dy="5"/>
<feGaussianBlur stdDeviation="17"/>
<feColorMatrix type="matrix" values="0 0 0 0 0 0 0 0 0 0 0 0 0 0 0 0 0 0 0.1 0"/>
<feBlend mode="normal" in2="BackgroundImageFix" result="effect1_dropShadow_26_644"/>
<feBlend mode="normal" in="SourceGraphic" in2="effect1_dropShadow_26_644" result="shape"/>
</filter>
</defs>
</svg>
