<svg width="348" height="462" viewBox="0 0 348 462" fill="none" xmlns="http://www.w3.org/2000/svg">
<g filter="url(#filter0_d_26_658)">
<rect x="34" y="29" width="280" height="394" rx="20" fill="#F2F2F2"/>
<rect x="34.5" y="29.5" width="279" height="393" rx="19.5" stroke="#D2D2D2"/>
</g>
<path d="M114.762 109.414C114.762 112.982 113.928 115.99 112.262 118.438C110.595 120.86 108.303 122.696 105.387 123.946C102.496 125.17 99.2148 125.781 95.543 125.781C91.8711 125.781 88.5768 125.17 85.6602 123.946C82.7435 122.696 80.4388 120.86 78.7461 118.438C77.0534 115.99 76.207 112.982 76.207 109.414C76.207 107.018 76.6888 104.857 77.6523 102.93C78.6159 100.977 79.957 99.3101 81.6758 97.9299C83.4206 96.5237 85.4648 95.456 87.8086 94.7268C90.1523 93.9716 92.7044 93.594 95.4648 93.594C99.1628 93.594 102.47 94.245 105.387 95.5471C108.303 96.8492 110.595 98.6851 112.262 101.055C113.928 103.425 114.762 106.211 114.762 109.414ZM103.434 108.672C103.434 106.927 103.095 105.43 102.418 104.18C101.767 102.904 100.842 101.927 99.6445 101.25C98.4466 100.573 97.0534 100.235 95.4648 100.235C93.8763 100.235 92.4831 100.573 91.2852 101.25C90.0872 101.927 89.1497 102.904 88.4727 104.18C87.8216 105.43 87.4961 106.927 87.4961 108.672C87.4961 110.391 87.8216 111.875 88.4727 113.125C89.1497 114.375 90.0872 115.339 91.2852 116.016C92.5091 116.667 93.9284 116.992 95.543 116.992C97.1576 116.992 98.5508 116.667 99.7227 116.016C100.921 115.339 101.832 114.375 102.457 113.125C103.108 111.875 103.434 110.391 103.434 108.672ZM113.551 83.2034C113.551 86.094 112.783 88.6591 111.246 90.8987C109.71 93.1122 107.574 94.844 104.84 96.094C102.132 97.344 99.0325 97.969 95.543 97.969C92.0273 97.969 88.9023 97.344 86.168 96.094C83.4336 94.844 81.2982 93.1122 79.7617 90.8987C78.2253 88.6591 77.457 86.094 77.457 83.2034C77.457 79.7659 78.2253 76.8752 79.7617 74.5315C81.3242 72.1617 83.4596 70.3648 86.168 69.1409C88.9023 67.9169 92.0013 67.3049 95.4648 67.3049C98.9805 67.3049 102.092 67.9169 104.801 69.1409C107.535 70.3648 109.671 72.1617 111.207 74.5315C112.77 76.8752 113.551 79.7659 113.551 83.2034ZM102.301 83.7112C102.301 82.1747 102.027 80.8466 101.48 79.7268C100.934 78.581 100.152 77.6956 99.1367 77.0706C98.1471 76.4456 96.9232 76.1331 95.4648 76.1331C94.0586 76.1331 92.8477 76.4325 91.832 77.0315C90.8424 77.6305 90.0742 78.5028 89.5273 79.6487C89.0065 80.7685 88.7461 82.1226 88.7461 83.7112C88.7461 85.2476 89.0065 86.6018 89.5273 87.7737C90.0742 88.9195 90.8555 89.818 91.8711 90.469C92.8867 91.12 94.1107 91.4456 95.543 91.4456C96.9753 91.4456 98.1862 91.12 99.1758 90.469C100.191 89.818 100.96 88.9195 101.48 87.7737C102.027 86.6018 102.301 85.2476 102.301 83.7112Z" fill="#F24822"/>
<path d="M273.316 353.157C273.316 363.86 270.816 372.883 265.816 380.227C260.816 387.493 253.941 393 245.191 396.75C236.52 400.422 226.676 402.258 215.66 402.258C204.645 402.258 194.762 400.422 186.012 396.75C177.262 393 170.348 387.493 165.27 380.227C160.191 372.883 157.652 363.86 157.652 353.157C157.652 345.969 159.098 339.485 161.988 333.704C164.879 327.844 168.902 322.844 174.059 318.704C179.293 314.485 185.426 311.282 192.457 309.094C199.488 306.829 207.145 305.696 215.426 305.696C226.52 305.696 236.441 307.649 245.191 311.555C253.941 315.461 260.816 320.969 265.816 328.079C270.816 335.188 273.316 343.547 273.316 353.157ZM239.332 350.93C239.332 345.696 238.316 341.204 236.285 337.454C234.332 333.625 231.559 330.696 227.965 328.665C224.371 326.633 220.191 325.618 215.426 325.618C210.66 325.618 206.48 326.633 202.887 328.665C199.293 330.696 196.48 333.625 194.449 337.454C192.496 341.204 191.52 345.696 191.52 350.93C191.52 356.086 192.496 360.54 194.449 364.29C196.48 368.04 199.293 370.93 202.887 372.961C206.559 374.915 210.816 375.891 215.66 375.891C220.504 375.891 224.684 374.915 228.199 372.961C231.793 370.93 234.527 368.04 236.402 364.29C238.355 360.54 239.332 356.086 239.332 350.93ZM269.684 274.524C269.684 283.196 267.379 290.891 262.77 297.61C258.16 304.25 251.754 309.446 243.551 313.196C235.426 316.946 226.129 318.821 215.66 318.821C205.113 318.821 195.738 316.946 187.535 313.196C179.332 309.446 172.926 304.25 168.316 297.61C163.707 290.891 161.402 283.196 161.402 274.524C161.402 264.211 163.707 255.54 168.316 248.508C173.004 241.399 179.41 236.008 187.535 232.336C195.738 228.665 205.035 226.829 215.426 226.829C225.973 226.829 235.309 228.665 243.434 232.336C251.637 236.008 258.043 241.399 262.652 248.508C267.34 255.54 269.684 264.211 269.684 274.524ZM235.934 276.047C235.934 271.438 235.113 267.454 233.473 264.094C231.832 260.657 229.488 258 226.441 256.125C223.473 254.25 219.801 253.313 215.426 253.313C211.207 253.313 207.574 254.211 204.527 256.008C201.559 257.805 199.254 260.422 197.613 263.86C196.051 267.219 195.27 271.282 195.27 276.047C195.27 280.657 196.051 284.719 197.613 288.235C199.254 291.672 201.598 294.368 204.645 296.321C207.691 298.274 211.363 299.25 215.66 299.25C219.957 299.25 223.59 298.274 226.559 296.321C229.605 294.368 231.91 291.672 233.473 288.235C235.113 284.719 235.934 280.657 235.934 276.047Z" fill="#F24822"/>
<path fill-rule="evenodd" clip-rule="evenodd" d="M67.2305 185.628L96.5042 215.831L125.778 185.628L96.5042 155.425L67.2305 185.628Z" fill="#F24822"/>
<defs>
<filter id="filter0_d_26_658" x="0" y="0" width="348" height="462" filterUnits="userSpaceOnUse" color-interpolation-filters="sRGB">
<feFlood flood-opacity="0" result="BackgroundImageFix"/>
<feColorMatrix in="SourceAlpha" type="matrix" values="0 0 0 0 0 0 0 0 0 0 0 0 0 0 0 0 0 0 127 0" result="hardAlpha"/>
<feOffset dy="5"/>
<feGaussianBlur stdDeviation="17"/>
<feColorMatrix type="matrix" values="0 0 0 0 0 0 0 0 0 0 0 0 0 0 0 0 0 0 0.1 0"/>
<feBlend mode="normal" in2="BackgroundImageFix" result="effect1_dropShadow_26_658"/>
<feBlend mode="normal" in="SourceGraphic" in2="effect1_dropShadow_26_658" result="shape"/>
</filter>
</defs>
</svg>
