<svg width="348" height="462" viewBox="0 0 348 462" fill="none" xmlns="http://www.w3.org/2000/svg">
<g filter="url(#filter0_d_26_721)">
<rect x="34" y="29" width="280" height="394" rx="20" fill="#F2F2F2"/>
<rect x="34.5" y="29.5" width="279" height="393" rx="19.5" stroke="#D2D2D2"/>
</g>
<path d="M84.4102 116.445H85.1523C88.2773 116.445 90.9596 116.068 93.1992 115.312C95.4648 114.531 97.3268 113.411 98.7852 111.953C100.243 110.495 101.324 108.711 102.027 106.602C102.73 104.466 103.082 102.044 103.082 99.3359V88.5547C103.082 86.4974 102.874 84.6875 102.457 83.125C102.066 81.5625 101.493 80.2734 100.738 79.2578C100.009 78.2161 99.1497 77.4349 98.1602 76.9141C97.1966 76.3932 96.1289 76.1328 94.957 76.1328C93.707 76.1328 92.6003 76.4453 91.6367 77.0703C90.6732 77.6693 89.8529 78.4896 89.1758 79.5312C88.5247 80.5729 88.0169 81.7708 87.6523 83.125C87.3138 84.4531 87.1445 85.8464 87.1445 87.3047C87.1445 88.763 87.3138 90.1562 87.6523 91.4844C87.9909 92.7865 88.4987 93.9453 89.1758 94.9609C89.8529 95.9505 90.6992 96.7448 91.7148 97.3437C92.7305 97.9167 93.9284 98.2031 95.3086 98.2031C96.6367 98.2031 97.8216 97.9557 98.8633 97.4609C99.931 96.9401 100.829 96.263 101.559 95.4297C102.314 94.5964 102.887 93.6719 103.277 92.6562C103.694 91.6406 103.902 90.612 103.902 89.5703L107.613 91.6016C107.613 93.4245 107.223 95.2214 106.441 96.9922C105.66 98.763 104.566 100.378 103.16 101.836C101.78 103.268 100.178 104.414 98.3555 105.273C96.5326 106.133 94.5794 106.562 92.4961 106.562C89.8398 106.562 87.4831 106.081 85.4258 105.117C83.3685 104.128 81.6237 102.773 80.1914 101.055C78.7852 99.3099 77.7174 97.2786 76.9883 94.9609C76.2591 92.6432 75.8945 90.1302 75.8945 87.4219C75.8945 84.6615 76.3372 82.0703 77.2227 79.6484C78.1341 77.2266 79.4232 75.0911 81.0898 73.2422C82.7826 71.3932 84.8008 69.9479 87.1445 68.9062C89.5143 67.8385 92.1445 67.3047 95.0352 67.3047C97.9258 67.3047 100.556 67.8646 102.926 68.9844C105.296 70.1042 107.327 71.6927 109.02 73.75C110.712 75.7812 112.014 78.2161 112.926 81.0547C113.863 83.8932 114.332 87.0443 114.332 90.5078V94.4141C114.332 98.112 113.928 101.549 113.121 104.727C112.34 107.904 111.155 110.781 109.566 113.359C108.004 115.911 106.051 118.099 103.707 119.922C101.389 121.745 98.694 123.138 95.6211 124.102C92.5482 125.065 89.1107 125.547 85.3086 125.547H84.4102V116.445Z" fill="#050505"/>
<path d="M183.004 374.484H185.23C194.605 374.484 202.652 373.352 209.371 371.086C216.168 368.742 221.754 365.383 226.129 361.008C230.504 356.633 233.746 351.281 235.855 344.953C237.965 338.547 239.02 331.281 239.02 323.156V290.812C239.02 284.641 238.395 279.211 237.145 274.523C235.973 269.836 234.254 265.969 231.988 262.922C229.801 259.797 227.223 257.453 224.254 255.891C221.363 254.328 218.16 253.547 214.645 253.547C210.895 253.547 207.574 254.484 204.684 256.359C201.793 258.156 199.332 260.617 197.301 263.742C195.348 266.867 193.824 270.461 192.73 274.523C191.715 278.508 191.207 282.687 191.207 287.062C191.207 291.437 191.715 295.617 192.73 299.602C193.746 303.508 195.27 306.984 197.301 310.031C199.332 313 201.871 315.383 204.918 317.18C207.965 318.898 211.559 319.758 215.699 319.758C219.684 319.758 223.238 319.016 226.363 317.531C229.566 315.969 232.262 313.937 234.449 311.437C236.715 308.937 238.434 306.164 239.605 303.117C240.855 300.07 241.48 296.984 241.48 293.859L252.613 299.953C252.613 305.422 251.441 310.812 249.098 316.125C246.754 321.437 243.473 326.281 239.254 330.656C235.113 334.953 230.309 338.391 224.84 340.969C219.371 343.547 213.512 344.836 207.262 344.836C199.293 344.836 192.223 343.391 186.051 340.5C179.879 337.531 174.645 333.469 170.348 328.312C166.129 323.078 162.926 316.984 160.738 310.031C158.551 303.078 157.457 295.539 157.457 287.414C157.457 279.133 158.785 271.359 161.441 264.094C164.176 256.828 168.043 250.422 173.043 244.875C178.121 239.328 184.176 234.992 191.207 231.867C198.316 228.664 206.207 227.062 214.879 227.062C223.551 227.062 231.441 228.742 238.551 232.102C245.66 235.461 251.754 240.227 256.832 246.398C261.91 252.492 265.816 259.797 268.551 268.312C271.363 276.828 272.77 286.281 272.77 296.672V308.391C272.77 319.484 271.559 329.797 269.137 339.328C266.793 348.859 263.238 357.492 258.473 365.227C253.785 372.883 247.926 379.445 240.895 384.914C233.941 390.383 225.855 394.562 216.637 397.453C207.418 400.344 197.105 401.789 185.699 401.789H183.004V374.484Z" fill="#050505"/>
<path fill-rule="evenodd" clip-rule="evenodd" d="M110.755 176.289C109.056 176.289 107.437 176.659 105.961 177.329C107.347 175.139 108.161 172.487 108.161 169.627C108.161 162.122 102.571 156.038 95.6757 156.038C88.7806 156.038 83.191 162.122 83.191 169.627C83.191 172.35 83.9297 174.884 85.1967 177.01C83.937 176.545 82.5881 176.289 81.1839 176.289C74.2886 176.289 68.6992 182.373 68.6992 189.878C68.6992 197.383 74.2886 203.467 81.1839 203.467C82.7411 203.467 84.2306 203.154 85.6053 202.587C85.6051 202.59 91.4156 200.883 95.2351 193.315V197.872C95.2351 197.872 93.2768 212.234 79.4703 213.806H77.2669V216.044H114.868V213.806H112.665C98.8582 212.234 96.8996 197.872 96.8996 197.872V193.622C97.611 195.327 101.544 203.665 110.384 203.458C110.508 203.461 110.631 203.467 110.755 203.467C117.65 203.467 123.24 197.383 123.24 189.878C123.24 182.373 117.65 176.289 110.755 176.289Z" fill="#1A1919"/>
<defs>
<filter id="filter0_d_26_721" x="0" y="0" width="348" height="462" filterUnits="userSpaceOnUse" color-interpolation-filters="sRGB">
<feFlood flood-opacity="0" result="BackgroundImageFix"/>
<feColorMatrix in="SourceAlpha" type="matrix" values="0 0 0 0 0 0 0 0 0 0 0 0 0 0 0 0 0 0 127 0" result="hardAlpha"/>
<feOffset dy="5"/>
<feGaussianBlur stdDeviation="17"/>
<feColorMatrix type="matrix" values="0 0 0 0 0 0 0 0 0 0 0 0 0 0 0 0 0 0 0.1 0"/>
<feBlend mode="normal" in2="BackgroundImageFix" result="effect1_dropShadow_26_721"/>
<feBlend mode="normal" in="SourceGraphic" in2="effect1_dropShadow_26_721" result="shape"/>
</filter>
</defs>
</svg>
