<svg width="348" height="462" viewBox="0 0 348 462" fill="none" xmlns="http://www.w3.org/2000/svg">
<g filter="url(#filter0_d_26_588)">
<rect x="34" y="29" width="280" height="394" rx="20" fill="#F2F2F2"/>
<rect x="34.5" y="29.5" width="279" height="393" rx="19.5" stroke="#D2D2D2"/>
</g>
<path d="M84.4062 116.445H85.1484C88.2734 116.445 90.9557 116.068 93.1953 115.312C95.4609 114.531 97.3229 113.411 98.7812 111.953C100.24 110.495 101.32 108.711 102.023 106.602C102.727 104.466 103.078 102.044 103.078 99.3359V88.5547C103.078 86.4974 102.87 84.6875 102.453 83.125C102.062 81.5625 101.49 80.2734 100.734 79.2578C100.005 78.2161 99.1458 77.4349 98.1562 76.9141C97.1927 76.3932 96.125 76.1328 94.9531 76.1328C93.7031 76.1328 92.5964 76.4453 91.6328 77.0703C90.6693 77.6693 89.849 78.4896 89.1719 79.5312C88.5208 80.5729 88.013 81.7708 87.6484 83.125C87.3099 84.4531 87.1406 85.8464 87.1406 87.3047C87.1406 88.763 87.3099 90.1562 87.6484 91.4844C87.987 92.7865 88.4948 93.9453 89.1719 94.9609C89.849 95.9505 90.6953 96.7448 91.7109 97.3438C92.7266 97.9167 93.9245 98.2031 95.3047 98.2031C96.6328 98.2031 97.8177 97.9557 98.8594 97.4609C99.9271 96.9401 100.826 96.263 101.555 95.4297C102.31 94.5964 102.883 93.6719 103.273 92.6562C103.69 91.6406 103.898 90.612 103.898 89.5703L107.609 91.6016C107.609 93.4245 107.219 95.2214 106.438 96.9922C105.656 98.763 104.562 100.378 103.156 101.836C101.776 103.268 100.174 104.414 98.3516 105.273C96.5286 106.133 94.5755 106.562 92.4922 106.562C89.8359 106.562 87.4792 106.081 85.4219 105.117C83.3646 104.128 81.6198 102.773 80.1875 101.055C78.7812 99.3099 77.7135 97.2786 76.9844 94.9609C76.2552 92.6432 75.8906 90.1302 75.8906 87.4219C75.8906 84.6615 76.3333 82.0703 77.2188 79.6484C78.1302 77.2266 79.4193 75.0911 81.0859 73.2422C82.7786 71.3932 84.7969 69.9479 87.1406 68.9062C89.5104 67.8385 92.1406 67.3047 95.0312 67.3047C97.9219 67.3047 100.552 67.8646 102.922 68.9844C105.292 70.1042 107.323 71.6927 109.016 73.75C110.708 75.7812 112.01 78.2161 112.922 81.0547C113.859 83.8932 114.328 87.0443 114.328 90.5078V94.4141C114.328 98.112 113.924 101.549 113.117 104.727C112.336 107.904 111.151 110.781 109.562 113.359C108 115.911 106.047 118.099 103.703 119.922C101.385 121.745 98.6901 123.138 95.6172 124.102C92.5443 125.065 89.1068 125.547 85.3047 125.547H84.4062V116.445Z" fill="black"/>
<path d="M183 374.484H185.227C194.602 374.484 202.648 373.352 209.367 371.086C216.164 368.742 221.75 365.383 226.125 361.008C230.5 356.633 233.742 351.281 235.852 344.953C237.961 338.547 239.016 331.281 239.016 323.156V290.812C239.016 284.641 238.391 279.211 237.141 274.523C235.969 269.836 234.25 265.969 231.984 262.922C229.797 259.797 227.219 257.453 224.25 255.891C221.359 254.328 218.156 253.547 214.641 253.547C210.891 253.547 207.57 254.484 204.68 256.359C201.789 258.156 199.328 260.617 197.297 263.742C195.344 266.867 193.82 270.461 192.727 274.523C191.711 278.508 191.203 282.687 191.203 287.062C191.203 291.438 191.711 295.617 192.727 299.602C193.742 303.508 195.266 306.984 197.297 310.031C199.328 313 201.867 315.383 204.914 317.18C207.961 318.898 211.555 319.758 215.695 319.758C219.68 319.758 223.234 319.016 226.359 317.531C229.563 315.969 232.258 313.937 234.445 311.438C236.711 308.938 238.43 306.164 239.602 303.117C240.852 300.07 241.477 296.984 241.477 293.859L252.609 299.953C252.609 305.422 251.438 310.812 249.094 316.125C246.75 321.438 243.469 326.281 239.25 330.656C235.109 334.953 230.305 338.391 224.836 340.969C219.367 343.547 213.508 344.836 207.258 344.836C199.289 344.836 192.219 343.391 186.047 340.5C179.875 337.531 174.641 333.469 170.344 328.312C166.125 323.078 162.922 316.984 160.734 310.031C158.547 303.078 157.453 295.539 157.453 287.414C157.453 279.133 158.781 271.359 161.438 264.094C164.172 256.828 168.039 250.422 173.039 244.875C178.117 239.328 184.172 234.992 191.203 231.867C198.313 228.664 206.203 227.062 214.875 227.062C223.547 227.062 231.437 228.742 238.547 232.102C245.656 235.461 251.75 240.227 256.828 246.398C261.906 252.492 265.813 259.797 268.547 268.312C271.359 276.828 272.766 286.281 272.766 296.672V308.391C272.766 319.484 271.555 329.797 269.133 339.328C266.789 348.859 263.234 357.492 258.469 365.227C253.781 372.883 247.922 379.445 240.891 384.914C233.938 390.383 225.852 394.562 216.633 397.453C207.414 400.344 197.102 401.789 185.695 401.789H183V374.484Z" fill="black"/>
<path fill-rule="evenodd" clip-rule="evenodd" d="M109.244 200.984C119.533 201.117 125.862 193.546 122.381 185.577C118.899 177.608 115.428 175.815 109.963 170.037C104.495 164.259 96.5448 154.265 96.5823 151.907C96.6226 154.265 88.9994 164.259 83.5316 170.037C78.0665 175.815 74.5984 177.608 71.1143 185.577C67.6328 193.546 73.9649 201.117 84.2509 200.984C91.3132 200.893 94.4913 196.233 95.7878 193.32L95.7878 197.133C95.7878 197.133 93.533 210.886 77.6209 212.392L75.0843 212.392L75.0843 214.535L118.413 214.535L118.413 212.392L115.874 212.392C99.9645 210.886 97.707 197.133 97.707 197.133L97.707 193.821C99.2344 196.737 102.574 200.898 109.244 200.984Z" fill="#1A1919"/>
<defs>
<filter id="filter0_d_26_588" x="0" y="0" width="348" height="462" filterUnits="userSpaceOnUse" color-interpolation-filters="sRGB">
<feFlood flood-opacity="0" result="BackgroundImageFix"/>
<feColorMatrix in="SourceAlpha" type="matrix" values="0 0 0 0 0 0 0 0 0 0 0 0 0 0 0 0 0 0 127 0" result="hardAlpha"/>
<feOffset dy="5"/>
<feGaussianBlur stdDeviation="17"/>
<feColorMatrix type="matrix" values="0 0 0 0 0 0 0 0 0 0 0 0 0 0 0 0 0 0 0.1 0"/>
<feBlend mode="normal" in2="BackgroundImageFix" result="effect1_dropShadow_26_588"/>
<feBlend mode="normal" in="SourceGraphic" in2="effect1_dropShadow_26_588" result="shape"/>
</filter>
</defs>
</svg>
