<svg width="348" height="462" viewBox="0 0 348 462" fill="none" xmlns="http://www.w3.org/2000/svg">
<g filter="url(#filter0_d_26_602)">
<rect x="34" y="29" width="280" height="394" rx="20" fill="#F2F2F2"/>
<rect x="34.5" y="29.5" width="279" height="393" rx="19.5" stroke="#D2D2D2"/>
</g>
<path d="M96.832 77.8516L81.3633 125H68.9023L90.0352 68.125H97.9648L96.832 77.8516ZM109.684 125L94.1758 77.8516L92.9258 68.125H100.934L122.184 125H109.684ZM108.98 103.828V113.008H78.9414V103.828H108.98Z" fill="#050505"/>
<path d="M219.41 258.43L173.004 399.875H135.621L199.02 229.25H222.809L219.41 258.43ZM257.965 399.875L211.441 258.43L207.691 229.25H231.715L295.465 399.875H257.965ZM255.855 336.359V363.898H165.738V336.359H255.855Z" fill="#050505"/>
<path fill-rule="evenodd" clip-rule="evenodd" d="M110.755 176.289C109.056 176.289 107.437 176.659 105.961 177.329C107.347 175.139 108.161 172.487 108.161 169.627C108.161 162.122 102.571 156.038 95.6757 156.038C88.7806 156.038 83.191 162.122 83.191 169.627C83.191 172.35 83.9297 174.884 85.1967 177.01C83.937 176.545 82.5881 176.289 81.1839 176.289C74.2886 176.289 68.6992 182.373 68.6992 189.878C68.6992 197.383 74.2886 203.467 81.1839 203.467C82.7411 203.467 84.2306 203.154 85.6053 202.587C85.6051 202.59 91.4156 200.883 95.2351 193.315V197.872C95.2351 197.872 93.2768 212.234 79.4703 213.806H77.2669V216.044H114.868V213.806H112.665C98.8582 212.234 96.8996 197.872 96.8996 197.872V193.622C97.611 195.327 101.544 203.665 110.384 203.458C110.508 203.461 110.631 203.467 110.755 203.467C117.65 203.467 123.24 197.383 123.24 189.878C123.24 182.373 117.65 176.289 110.755 176.289Z" fill="#1A1919"/>
<defs>
<filter id="filter0_d_26_602" x="0" y="0" width="348" height="462" filterUnits="userSpaceOnUse" color-interpolation-filters="sRGB">
<feFlood flood-opacity="0" result="BackgroundImageFix"/>
<feColorMatrix in="SourceAlpha" type="matrix" values="0 0 0 0 0 0 0 0 0 0 0 0 0 0 0 0 0 0 127 0" result="hardAlpha"/>
<feOffset dy="5"/>
<feGaussianBlur stdDeviation="17"/>
<feColorMatrix type="matrix" values="0 0 0 0 0 0 0 0 0 0 0 0 0 0 0 0 0 0 0.1 0"/>
<feBlend mode="normal" in2="BackgroundImageFix" result="effect1_dropShadow_26_602"/>
<feBlend mode="normal" in="SourceGraphic" in2="effect1_dropShadow_26_602" result="shape"/>
</filter>
</defs>
</svg>
