<svg width="348" height="462" viewBox="0 0 348 462" fill="none" xmlns="http://www.w3.org/2000/svg">
<g filter="url(#filter0_d_26_840)">
<rect x="34" y="29" width="280" height="394" rx="20" fill="#F2F2F2"/>
<rect x="34.5" y="29.5" width="279" height="393" rx="19.5" stroke="#D2D2D2"/>
</g>
<path d="M96.8281 77.8516L81.3594 125H68.8984L90.0312 68.125H97.9609L96.8281 77.8516ZM109.68 125L94.1719 77.8516L92.9219 68.125H100.93L122.18 125H109.68ZM108.977 103.828V113.008H78.9375V103.828H108.977Z" fill="#F24822"/>
<path d="M219.406 258.43L173 399.875H135.617L199.016 229.25H222.805L219.406 258.43ZM257.961 399.875L211.438 258.43L207.688 229.25H231.711L295.461 399.875H257.961ZM255.852 336.359V363.898H165.734V336.359H255.852Z" fill="#F24822"/>
<path fill-rule="evenodd" clip-rule="evenodd" d="M67.2305 185.628L96.5042 215.831L125.778 185.628L96.5042 155.425L67.2305 185.628Z" fill="#F24822"/>
<defs>
<filter id="filter0_d_26_840" x="0" y="0" width="348" height="462" filterUnits="userSpaceOnUse" color-interpolation-filters="sRGB">
<feFlood flood-opacity="0" result="BackgroundImageFix"/>
<feColorMatrix in="SourceAlpha" type="matrix" values="0 0 0 0 0 0 0 0 0 0 0 0 0 0 0 0 0 0 127 0" result="hardAlpha"/>
<feOffset dy="5"/>
<feGaussianBlur stdDeviation="17"/>
<feColorMatrix type="matrix" values="0 0 0 0 0 0 0 0 0 0 0 0 0 0 0 0 0 0 0.1 0"/>
<feBlend mode="normal" in2="BackgroundImageFix" result="effect1_dropShadow_26_840"/>
<feBlend mode="normal" in="SourceGraphic" in2="effect1_dropShadow_26_840" result="shape"/>
</filter>
</defs>
</svg>
