<svg width="348" height="462" viewBox="0 0 348 462" fill="none" xmlns="http://www.w3.org/2000/svg">
<g filter="url(#filter0_d_26_805)">
<rect x="34" y="29" width="280" height="394" rx="20" fill="#F2F2F2"/>
<rect x="34.5" y="29.5" width="279" height="393" rx="19.5" stroke="#D2D2D2"/>
</g>
<path d="M96.8281 77.8516L81.3594 125H68.8984L90.0312 68.125H97.9609L96.8281 77.8516ZM109.68 125L94.1719 77.8516L92.9219 68.125H100.93L122.18 125H109.68ZM108.977 103.828V113.008H78.9375V103.828H108.977Z" fill="black"/>
<path d="M219.406 258.43L173 399.875H135.617L199.016 229.25H222.805L219.406 258.43ZM257.961 399.875L211.438 258.43L207.688 229.25H231.711L295.461 399.875H257.961ZM255.852 336.359V363.898H165.734V336.359H255.852Z" fill="black"/>
<path fill-rule="evenodd" clip-rule="evenodd" d="M109.244 200.984C119.533 201.117 125.862 193.546 122.381 185.577C118.899 177.608 115.428 175.815 109.963 170.037C104.495 164.259 96.5448 154.265 96.5823 151.907C96.6226 154.265 88.9994 164.259 83.5316 170.037C78.0665 175.815 74.5984 177.608 71.1143 185.577C67.6328 193.546 73.9649 201.117 84.2509 200.984C91.3132 200.893 94.4913 196.233 95.7878 193.32L95.7878 197.133C95.7878 197.133 93.533 210.886 77.6209 212.392L75.0843 212.392L75.0843 214.535L118.413 214.535L118.413 212.392L115.874 212.392C99.9645 210.886 97.707 197.133 97.707 197.133L97.707 193.821C99.2344 196.737 102.574 200.898 109.244 200.984Z" fill="#1A1919"/>
<defs>
<filter id="filter0_d_26_805" x="0" y="0" width="348" height="462" filterUnits="userSpaceOnUse" color-interpolation-filters="sRGB">
<feFlood flood-opacity="0" result="BackgroundImageFix"/>
<feColorMatrix in="SourceAlpha" type="matrix" values="0 0 0 0 0 0 0 0 0 0 0 0 0 0 0 0 0 0 127 0" result="hardAlpha"/>
<feOffset dy="5"/>
<feGaussianBlur stdDeviation="17"/>
<feColorMatrix type="matrix" values="0 0 0 0 0 0 0 0 0 0 0 0 0 0 0 0 0 0 0.1 0"/>
<feBlend mode="normal" in2="BackgroundImageFix" result="effect1_dropShadow_26_805"/>
<feBlend mode="normal" in="SourceGraphic" in2="effect1_dropShadow_26_805" result="shape"/>
</filter>
</defs>
</svg>
