<svg width="351" height="464" viewBox="0 0 351 464" fill="none" xmlns="http://www.w3.org/2000/svg">
<g filter="url(#filter0_d_26_798)">
<rect x="36.125" y="29" width="280" height="394" rx="20" transform="rotate(0.308765 36.125 29)" fill="#F2F2F2"/>
<rect x="36.6223" y="29.5027" width="279" height="393" rx="19.5" transform="rotate(0.308765 36.6223 29.5027)" stroke="#D2D2D2"/>
</g>
<path d="M116.998 116.648L116.951 125.437L78.0451 125.227L78.0855 117.727L96.59 98.1003C98.45 96.053 99.9181 94.251 100.994 92.6943C102.07 91.1115 102.846 89.6964 103.322 88.449C103.823 87.1756 104.077 85.966 104.084 84.8202C104.093 83.1015 103.814 81.6286 103.248 80.4016C102.682 79.1485 101.841 78.1804 100.725 77.4973C99.6344 76.8143 98.2821 76.4685 96.6675 76.4598C94.9488 76.4505 93.4622 76.8592 92.2077 77.6858C90.9793 78.5125 90.0356 79.6663 89.3765 81.1471C88.7436 82.6281 88.422 84.3061 88.4119 86.1811L77.123 86.1202C77.1413 82.7349 77.9652 79.6403 79.5949 76.8366C81.2248 74.0068 83.5156 71.7665 86.4672 70.1157C89.419 68.4389 92.9131 67.6113 96.9495 67.6331C100.934 67.6545 104.29 68.3237 107.017 69.6405C109.77 70.9314 111.844 72.7915 113.237 75.221C114.656 77.6245 115.357 80.4929 115.339 83.8262C115.329 85.7011 115.02 87.5354 114.411 89.329C113.802 91.0966 112.934 92.8628 111.804 94.6276C110.701 96.3664 109.363 98.1301 107.791 99.9185C106.219 101.707 104.477 103.56 102.566 105.476L92.6235 116.517L116.998 116.648Z" fill="#F24822"/>
<path fill-rule="evenodd" clip-rule="evenodd" d="M109.758 160.401C99.0673 160.507 96.8766 172.666 96.8766 172.666C96.8766 172.666 94.4754 160.483 83.7867 160.261C73.0977 160.039 66.4688 169.377 70.0338 179.264C73.5986 189.151 77.1916 191.391 82.8335 198.575C88.4752 205.76 96.6725 218.18 96.6156 221.099C96.5904 218.179 104.579 205.847 110.298 198.723C116.017 191.6 119.634 189.399 123.305 179.551C126.976 169.703 120.449 160.294 109.758 160.401Z" fill="#F24822"/>
<defs>
<filter id="filter0_d_26_798" x="0.109375" y="0.107422" width="349.902" height="463.288" filterUnits="userSpaceOnUse" color-interpolation-filters="sRGB">
<feFlood flood-opacity="0" result="BackgroundImageFix"/>
<feColorMatrix in="SourceAlpha" type="matrix" values="0 0 0 0 0 0 0 0 0 0 0 0 0 0 0 0 0 0 127 0" result="hardAlpha"/>
<feOffset dy="5"/>
<feGaussianBlur stdDeviation="17"/>
<feColorMatrix type="matrix" values="0 0 0 0 0 0 0 0 0 0 0 0 0 0 0 0 0 0 0.1 0"/>
<feBlend mode="normal" in2="BackgroundImageFix" result="effect1_dropShadow_26_798"/>
<feBlend mode="normal" in="SourceGraphic" in2="effect1_dropShadow_26_798" result="shape"/>
</filter>
</defs>
</svg>
