<svg width="84" height="32" viewBox="0 0 84 32" fill="none" xmlns="http://www.w3.org/2000/svg">
<path d="M29.0025 0.8125V4.19242H32.18V30.6464H35.6127V0.8125H29.0025Z" fill="#C8CCD4"/>
<path d="M60.0633 20.2561C60.0633 13.1207 56.0376 8.86475 49.8507 8.86475C43.6633 8.86475 39.5957 12.9123 39.5957 20.047C39.5957 27.1818 43.6209 31.0628 49.8507 31.0628C54.7656 31.0628 58.4528 28.2669 59.4703 24.3866H55.6562C54.808 26.1811 53.0712 27.7665 49.8507 27.7665C45.6977 27.7665 43.5795 25.1797 43.1551 21.4659H60.0633V20.2561ZM43.1976 18.2533C43.7058 14.665 45.9099 12.1193 49.8507 12.1193C53.7911 12.1193 55.8679 14.6232 56.3766 18.2533H43.1976Z" fill="#C8CCD4"/>
<path d="M73.58 8.86475C67.3502 8.86475 63.3249 12.9123 63.3249 20.047C63.3249 27.1818 67.3502 31.0628 73.58 31.0628C79.8093 31.0628 83.7926 27.3073 83.7926 20.047C83.7926 12.7868 79.7669 8.86475 73.58 8.86475ZM73.58 27.8502C69.1304 27.8502 66.7146 24.4284 66.7146 20.0059C66.7146 15.5835 69.1304 12.0363 73.58 12.0363C78.0296 12.0363 80.4024 15.4998 80.4024 20.0059C80.4024 24.5121 78.072 27.8502 73.58 27.8502Z" fill="#C8CCD4"/>
<path d="M18.6631 0.8125H11.6707L5.60183 18.2543H9.29765L14.2136 4.0252H15.9935L20.9088 18.2543H9.29765L8.15394 21.467H22.0107L25.1885 30.6464H29.0025L18.6631 0.8125Z" fill="#C8CCD4"/>
<path d="M1.28904 30.6468H4.97565L8.15394 21.467L4.48376 21.4674L1.28904 30.6468Z" fill="#C8CCD4"/>
<path d="M1.93851 18.2554L0.820312 21.4681H4.48356L5.60176 18.2554H1.93851Z" fill="#C8CCD4"/>
</svg>
