<svg width="230" height="39" viewBox="0 0 230 39" fill="none" xmlns="http://www.w3.org/2000/svg">
<path d="M53.4857 30.7618L55.5497 13.0018H58.9577L63.0377 26.6098L67.0937 13.0018H70.4777L72.5657 30.7618H69.1337L67.5977 17.6818L68.1497 17.7298L64.6697 30.7618H61.3337L57.8057 17.7298L58.4057 17.7058L56.9177 30.7618H53.4857ZM79.0044 30.8818C78.6204 30.8818 78.1804 30.8418 77.6844 30.7618C77.1884 30.6978 76.7084 30.5378 76.2444 30.2818C75.7964 30.0258 75.4204 29.6418 75.1164 29.1298C74.8284 28.6018 74.6844 27.8818 74.6844 26.9698V17.0578C74.6844 16.2738 74.8044 15.6178 75.0444 15.0898C75.2844 14.5618 75.6044 14.1458 76.0044 13.8418C76.4044 13.5378 76.8444 13.3218 77.3244 13.1938C77.8044 13.0658 78.2764 13.0018 78.7404 13.0018C79.9404 13.0018 80.9964 13.0178 81.9084 13.0498C82.8364 13.0818 83.6684 13.1218 84.4044 13.1698C85.1404 13.2018 85.8124 13.2498 86.4204 13.3138V16.2898H79.7964C79.3004 16.2898 78.9164 16.4098 78.6444 16.6498C78.3724 16.8898 78.2364 17.2578 78.2364 17.7538V20.3218L85.2684 20.5138V23.3218L78.2364 23.5138V25.9618C78.2364 26.3778 78.3004 26.7058 78.4284 26.9458C78.5724 27.1698 78.7564 27.3298 78.9804 27.4258C79.2204 27.5058 79.4684 27.5458 79.7244 27.5458H86.4204V30.5218C85.7164 30.6018 84.9324 30.6658 84.0684 30.7138C83.2204 30.7618 82.3564 30.8018 81.4764 30.8338C80.6124 30.8658 79.7884 30.8818 79.0044 30.8818ZM89.1248 30.7618V13.0018H91.9808L99.4208 24.7138V13.0018H102.973V30.7618H100.117L92.7008 19.0498V30.7618H89.1248ZM109.623 30.7618V16.1938H104.751V13.0018H118.071V16.1938H113.175V30.7618H109.623ZM117.666 30.7618L123.234 13.0018H127.722L133.29 30.7618H129.594L128.466 27.0418H122.418L121.314 30.7618H117.666ZM123.258 23.8498H127.626L125.442 16.0498L123.258 23.8498ZM139.424 30.7618C138.512 30.7618 137.736 30.6258 137.096 30.3538C136.472 30.0658 136 29.6178 135.68 29.0098C135.376 28.3858 135.224 27.5698 135.224 26.5618V13.0018H138.776V25.9858C138.776 26.3698 138.84 26.6818 138.968 26.9218C139.112 27.1618 139.304 27.3298 139.544 27.4258C139.784 27.5058 140.056 27.5458 140.36 27.5458H145.976V30.7618H139.424ZM154.255 30.7618V13.0018H161.743C162.319 13.0018 162.903 13.0738 163.495 13.2178C164.103 13.3458 164.655 13.6178 165.151 14.0338C165.663 14.4338 166.071 15.0418 166.375 15.8578C166.695 16.6738 166.855 17.7538 166.855 19.0978C166.855 20.4418 166.695 21.5298 166.375 22.3618C166.071 23.1938 165.671 23.8258 165.175 24.2578C164.679 24.6898 164.143 24.9778 163.567 25.1218C162.991 25.2658 162.431 25.3378 161.887 25.3378C161.599 25.3378 161.263 25.3298 160.879 25.3138C160.495 25.2818 160.103 25.2418 159.703 25.1938C159.319 25.1458 158.959 25.1058 158.623 25.0738C158.287 25.0258 158.015 24.9858 157.807 24.9538V30.7618H154.255ZM157.807 22.1458H161.335C161.751 22.1458 162.103 22.0498 162.391 21.8578C162.695 21.6498 162.919 21.3298 163.063 20.8978C163.207 20.4498 163.279 19.8578 163.279 19.1218C163.279 18.4018 163.199 17.8338 163.039 17.4178C162.895 16.9858 162.679 16.6738 162.391 16.4818C162.119 16.2898 161.791 16.1938 161.407 16.1938H157.807V22.1458ZM176.025 30.9058C174.809 30.9058 173.745 30.7938 172.833 30.5698C171.921 30.3298 171.153 29.8978 170.529 29.2738C169.921 28.6338 169.465 27.7218 169.161 26.5378C168.857 25.3538 168.705 23.8098 168.705 21.9058C168.705 20.0018 168.857 18.4578 169.161 17.2738C169.481 16.0738 169.945 15.1538 170.553 14.5138C171.161 13.8738 171.921 13.4338 172.833 13.1938C173.745 12.9538 174.809 12.8338 176.025 12.8338C177.241 12.8338 178.305 12.9538 179.217 13.1938C180.129 13.4338 180.889 13.8738 181.497 14.5138C182.105 15.1538 182.561 16.0738 182.865 17.2738C183.169 18.4578 183.321 20.0018 183.321 21.9058C183.321 23.8098 183.169 25.3538 182.865 26.5378C182.561 27.7218 182.105 28.6338 181.497 29.2738C180.889 29.8978 180.129 30.3298 179.217 30.5698C178.305 30.7938 177.241 30.9058 176.025 30.9058ZM176.025 27.7138C176.745 27.7138 177.345 27.6338 177.825 27.4738C178.305 27.3138 178.681 27.0338 178.953 26.6338C179.241 26.2178 179.449 25.6338 179.577 24.8818C179.705 24.1138 179.769 23.1218 179.769 21.9058C179.769 20.6258 179.705 19.6018 179.577 18.8338C179.449 18.0658 179.241 17.4818 178.953 17.0818C178.681 16.6658 178.305 16.3858 177.825 16.2418C177.345 16.0978 176.745 16.0258 176.025 16.0258C175.337 16.0258 174.753 16.0978 174.273 16.2418C173.793 16.3858 173.401 16.6658 173.097 17.0818C172.809 17.4818 172.593 18.0658 172.449 18.8338C172.321 19.6018 172.257 20.6258 172.257 21.9058C172.257 23.1218 172.313 24.1138 172.425 24.8818C172.553 25.6338 172.761 26.2178 173.049 26.6338C173.337 27.0338 173.721 27.3138 174.201 27.4738C174.697 27.6338 175.305 27.7138 176.025 27.7138ZM185.942 30.7618V13.0018H189.494V20.3458H191.846L195.494 13.0018H199.286L194.678 21.9298L199.43 30.7618H195.638L191.846 23.5618H189.494V30.7618H185.942ZM205.262 30.8818C204.878 30.8818 204.438 30.8418 203.942 30.7618C203.446 30.6978 202.966 30.5378 202.502 30.2818C202.054 30.0258 201.678 29.6418 201.374 29.1298C201.086 28.6018 200.942 27.8818 200.942 26.9698V17.0578C200.942 16.2738 201.062 15.6178 201.302 15.0898C201.542 14.5618 201.862 14.1458 202.262 13.8418C202.662 13.5378 203.102 13.3218 203.582 13.1938C204.062 13.0658 204.534 13.0018 204.998 13.0018C206.198 13.0018 207.254 13.0178 208.166 13.0498C209.094 13.0818 209.926 13.1218 210.662 13.1698C211.398 13.2018 212.07 13.2498 212.678 13.3138V16.2898H206.054C205.558 16.2898 205.174 16.4098 204.902 16.6498C204.63 16.8898 204.494 17.2578 204.494 17.7538V20.3218L211.526 20.5138V23.3218L204.494 23.5138V25.9618C204.494 26.3778 204.558 26.7058 204.686 26.9458C204.83 27.1698 205.014 27.3298 205.238 27.4258C205.478 27.5058 205.726 27.5458 205.982 27.5458H212.678V30.5218C211.974 30.6018 211.19 30.6658 210.326 30.7138C209.478 30.7618 208.614 30.8018 207.734 30.8338C206.87 30.8658 206.046 30.8818 205.262 30.8818ZM215.263 30.7618V13.0018H222.607C223.311 13.0018 223.967 13.0898 224.575 13.2658C225.183 13.4258 225.719 13.7138 226.183 14.1298C226.647 14.5458 227.007 15.1218 227.263 15.8578C227.535 16.5938 227.671 17.5378 227.671 18.6898C227.671 19.5058 227.591 20.2018 227.431 20.7778C227.271 21.3538 227.055 21.8258 226.783 22.1938C226.527 22.5618 226.231 22.8578 225.895 23.0818C225.559 23.3058 225.215 23.4898 224.863 23.6338L228.175 30.7618H224.551L221.695 24.1858C221.503 24.1858 221.279 24.1858 221.023 24.1858C220.783 24.1698 220.535 24.1618 220.279 24.1618C220.023 24.1618 219.767 24.1618 219.511 24.1618C219.255 24.1618 219.023 24.1538 218.815 24.1378V30.7618H215.263ZM218.815 21.3298H221.983C222.303 21.3298 222.591 21.2898 222.847 21.2098C223.103 21.1298 223.327 20.9938 223.519 20.8018C223.711 20.5938 223.855 20.3218 223.951 19.9858C224.063 19.6498 224.119 19.2178 224.119 18.6898C224.119 18.1938 224.063 17.7858 223.951 17.4658C223.855 17.1298 223.711 16.8738 223.519 16.6978C223.327 16.5058 223.103 16.3778 222.847 16.3138C222.591 16.2338 222.303 16.1938 221.983 16.1938H218.815V21.3298Z" fill="white"/>
<path d="M12.6406 34.3199L12.646 33.1511L28.2494 33.0123V34.3199H12.6406Z" fill="#4EF0B3"/>
<path d="M28.269 36.6638L28.2969 35.3565L12.6916 35.0243L12.6638 36.3316L28.269 36.6638Z" fill="#4EF0B3"/>
<path d="M12.1874 38.5978L12.1874 37.1344L28.477 37.2902L28.6117 38.5978L12.1874 38.5978Z" fill="#4EF0B3"/>
<path fill-rule="evenodd" clip-rule="evenodd" d="M40.8234 15.0844C40.8338 15.3617 40.8238 15.5715 40.7958 15.6998C40.1594 18.6225 37.3566 19.1206 35.4162 16.358L33.2145 13.6115C33.8278 9.73566 33.4241 7.74723 31.6914 5.08867C32.0311 6.7611 32.2509 8.14763 32.332 9.31355C32.4583 10.5476 32.3916 11.5261 32.1064 12.3323C31.7584 13.4979 31.0512 14.319 29.9204 15.0181L30.2101 16.1772L32.1331 15.4659C34.4101 19.7141 34.7145 22.1775 34.1351 26.6612C40.2464 29.4534 39.0083 38.357 29.9204 38.357V34.7745C34.9786 35.288 35.0962 30.7446 32.3523 29.028C32.3427 29.0383 32.3332 29.0484 32.3237 29.0583C29.6435 31.85 27.6213 32.8524 24.9857 32.0781C23.6661 31.7606 22.1822 31.074 20.4141 30.0635C18.6459 31.0741 17.1618 31.7607 15.8422 32.0782C13.2067 32.8523 11.1845 31.8499 8.50447 29.0583C8.49496 29.0484 8.48543 29.0383 8.47588 29.028C5.73193 30.7446 5.84957 35.288 10.9078 34.7745V38.357C1.81983 38.357 0.581764 29.4535 6.69307 26.6612C6.11366 22.1775 6.41802 19.7141 8.69505 15.466L10.618 16.1772L10.9078 15.0181C9.77686 14.319 9.06965 13.4978 8.72169 12.3323C8.43651 11.526 8.36988 10.5475 8.49612 9.3135C8.57719 8.1476 8.79703 6.76107 9.13671 5.08866C7.40401 7.74722 7.00037 9.73565 7.61366 13.6115L5.41189 16.358C3.47149 19.1206 0.668724 18.6225 0.032299 15.6998C0.0043707 15.5715 -0.00568598 15.3617 0.00471292 15.0843C-0.00707742 14.8466 0.00304614 14.5879 0.0374313 14.3078C0.0611137 14.2067 0.0845005 14.1066 0.107634 14.0073C0.506048 11.1421 2.07382 5.61398 5.73791 2.47678C5.9239 2.28078 6.11733 2.08153 6.3186 1.8787C10.812 -1.97211 16.6789 0.343426 16.0528 6.57568C15.9955 7.98962 15.6166 9.4049 14.9345 10.5466C14.8414 10.7567 14.7423 10.9694 14.6371 11.1847C14.8988 11.095 15.1538 11.0099 15.4027 10.9295C17.2536 10.221 18.7994 9.89962 20.4139 9.93295C22.0285 9.89956 23.5746 10.221 25.4257 10.9296C25.6745 11.01 25.9294 11.095 26.1911 11.1847C26.0858 10.9694 25.9867 10.7567 25.8937 10.5466C25.2115 9.40494 24.8326 7.98963 24.7753 6.57568C24.1492 0.343418 30.0161 -1.97211 34.5095 1.8787C34.7108 2.08155 34.9043 2.28082 35.0903 2.47684C38.7543 5.61403 40.3221 11.142 40.7205 14.0072C40.7436 14.1065 40.767 14.2067 40.7907 14.3078C40.8251 14.5879 40.8352 14.8466 40.8234 15.0844Z" fill="#4EF0B3"/>
<path d="M11.2057 22.5722L11.1 22.542C10.9072 22.487 10.7156 22.633 10.7156 22.8335C10.7155 24.1316 10.6653 24.9687 10.8967 26.3674C10.9896 26.929 11.456 28.6413 12.1743 29.3425C14.1533 31.3839 17.8703 31.1632 18.102 27.5633C18.2597 25.1132 18.111 23.8117 16.6942 21.7809C15.7744 20.4624 15.2951 19.9208 14.4666 19.1772C14.0715 18.8227 13.4537 18.8471 13.151 19.2832C12.157 20.7154 12.0578 22.4251 12.3801 25.6409L11.4923 26.2767C11.329 24.8678 11.271 24.1383 11.4224 22.9018C11.4406 22.7536 11.3494 22.6132 11.2057 22.5722Z" fill="black"/>
<path d="M26.3516 19.2968C25.44 20.0559 24.8856 20.6289 24.1105 21.7809C22.886 24.0267 22.6561 25.2942 22.7129 27.5633C22.7433 28.7806 23.0403 29.7522 23.6234 30.2631C25.6686 32.0551 29.4045 30.1573 29.955 26.3674C30.1124 25.2843 30.2058 24.4286 30.0027 22.7917C29.9799 22.6076 29.7896 22.4955 29.6164 22.5621C29.4921 22.61 29.4169 22.7363 29.4331 22.8685C29.5572 23.8809 29.6936 25.5446 29.2634 26.3674L28.3245 25.6409C28.7365 22.8523 28.9116 21.3807 27.7226 19.4859C27.4265 19.0139 26.7798 18.9402 26.3516 19.2968Z" fill="black"/>
</svg>
