<svg width="269" height="46" viewBox="0 0 269 46" fill="none" xmlns="http://www.w3.org/2000/svg">
<path d="M62.7267 35.9301L65.1474 15.1015H69.1442L73.9291 31.0607L78.6859 15.1015H82.6546L85.1034 35.9301H81.0784L79.277 20.5901L79.9244 20.6464L75.8431 35.9301H71.9307L67.7931 20.6464L68.4968 20.6183L66.7517 35.9301H62.7267ZM92.6546 36.0708C92.2042 36.0708 91.6882 36.0239 91.1065 35.9301C90.5248 35.855 89.9619 35.6674 89.4177 35.3671C88.8923 35.0669 88.4513 34.6165 88.0948 34.0161C87.7571 33.3969 87.5882 32.5525 87.5882 31.4829V19.8583C87.5882 18.9388 87.7289 18.1695 88.0104 17.5503C88.2919 16.931 88.6671 16.4432 89.1363 16.0866C89.6054 15.7301 90.1214 15.4768 90.6843 15.3267C91.2473 15.1766 91.8008 15.1015 92.345 15.1015C93.7523 15.1015 94.9908 15.1203 96.0603 15.1578C97.1487 15.1953 98.1244 15.2422 98.9876 15.2985C99.8508 15.3361 100.639 15.3923 101.352 15.4674V18.9576H93.5834C93.0017 18.9576 92.5514 19.0983 92.2324 19.3798C91.9134 19.6613 91.7539 20.0928 91.7539 20.6745V23.6862L100.001 23.9114V27.2046L91.7539 27.4298V30.3007C91.7539 30.7886 91.829 31.1733 91.9791 31.4547C92.1479 31.7174 92.3637 31.9051 92.6264 32.0177C92.9079 32.1115 93.1988 32.1584 93.499 32.1584H101.352V35.6486C100.526 35.7424 99.6068 35.8175 98.5935 35.8738C97.599 35.9301 96.5857 35.977 95.5537 36.0145C94.5404 36.052 93.574 36.0708 92.6546 36.0708ZM104.523 35.9301V15.1015H107.873L116.598 28.8371V15.1015H120.764V35.9301H117.415L108.717 22.1945V35.9301H104.523ZM128.564 35.9301V18.845H122.85V15.1015H138.471V18.845H132.729V35.9301H128.564ZM137.996 35.9301L144.526 15.1015H149.789L156.319 35.9301H151.985L150.662 31.5673H143.569L142.274 35.9301H137.996ZM144.554 27.8238H149.677L147.115 18.6761L144.554 27.8238ZM163.513 35.9301C162.443 35.9301 161.533 35.7706 160.783 35.4516C160.051 35.1138 159.497 34.5884 159.122 33.8753C158.765 33.1435 158.587 32.1865 158.587 31.0044V15.1015H162.753V30.3289C162.753 30.7792 162.828 31.1451 162.978 31.4266C163.147 31.708 163.372 31.9051 163.654 32.0177C163.935 32.1115 164.254 32.1584 164.611 32.1584H171.197V35.9301H163.513ZM180.907 35.9301V15.1015H189.688C190.364 15.1015 191.049 15.1859 191.743 15.3548C192.456 15.5049 193.103 15.8239 193.685 16.3118C194.286 16.7809 194.764 17.494 195.121 18.451C195.496 19.4079 195.684 20.6745 195.684 22.2508C195.684 23.827 195.496 25.103 195.121 26.0787C194.764 27.0545 194.295 27.7957 193.713 28.3023C193.132 28.8089 192.503 29.1467 191.827 29.3156C191.152 29.4845 190.495 29.5689 189.857 29.5689C189.519 29.5689 189.125 29.5595 188.675 29.5408C188.225 29.5032 187.765 29.4563 187.296 29.4C186.846 29.3437 186.423 29.2968 186.029 29.2593C185.635 29.203 185.316 29.1561 185.072 29.1186V35.9301H180.907ZM185.072 25.8254H189.21C189.698 25.8254 190.111 25.7128 190.448 25.4876C190.805 25.2437 191.068 24.8684 191.236 24.3618C191.405 23.8364 191.49 23.1421 191.49 22.2789C191.49 21.4345 191.396 20.7684 191.208 20.2805C191.039 19.7739 190.786 19.4079 190.448 19.1828C190.129 18.9576 189.745 18.845 189.294 18.845H185.072V25.8254ZM206.438 36.0989C205.012 36.0989 203.764 35.9676 202.695 35.7049C201.625 35.4234 200.724 34.9168 199.993 34.185C199.28 33.4344 198.745 32.3648 198.388 30.9762C198.032 29.5877 197.854 27.7769 197.854 25.5439C197.854 23.311 198.032 21.5002 198.388 20.1116C198.764 18.7043 199.308 17.6253 200.021 16.8747C200.734 16.1242 201.625 15.6081 202.695 15.3267C203.764 15.0452 205.012 14.9045 206.438 14.9045C207.864 14.9045 209.112 15.0452 210.182 15.3267C211.251 15.6081 212.143 16.1242 212.856 16.8747C213.569 17.6253 214.104 18.7043 214.46 20.1116C214.817 21.5002 214.995 23.311 214.995 25.5439C214.995 27.7769 214.817 29.5877 214.46 30.9762C214.104 32.3648 213.569 33.4344 212.856 34.185C212.143 34.9168 211.251 35.4234 210.182 35.7049C209.112 35.9676 207.864 36.0989 206.438 36.0989ZM206.438 32.3554C207.283 32.3554 207.986 32.2616 208.549 32.074C209.112 31.8863 209.553 31.5579 209.872 31.0888C210.21 30.6009 210.454 29.916 210.604 29.0341C210.754 28.1334 210.829 26.97 210.829 25.5439C210.829 24.0428 210.754 22.8418 210.604 21.9411C210.454 21.0405 210.21 20.3555 209.872 19.8864C209.553 19.3986 209.112 19.0702 208.549 18.9013C207.986 18.7324 207.283 18.648 206.438 18.648C205.631 18.648 204.946 18.7324 204.384 18.9013C203.821 19.0702 203.361 19.3986 203.004 19.8864C202.667 20.3555 202.413 21.0405 202.244 21.9411C202.094 22.8418 202.019 24.0428 202.019 25.5439C202.019 26.97 202.085 28.1334 202.216 29.0341C202.366 29.916 202.61 30.6009 202.948 31.0888C203.286 31.5579 203.736 31.8863 204.299 32.074C204.881 32.2616 205.594 32.3554 206.438 32.3554ZM218.069 35.9301V15.1015H222.235V23.7144H224.993L229.271 15.1015H233.719L228.314 25.5721L233.887 35.9301H229.44L224.993 27.486H222.235V35.9301H218.069ZM240.727 36.0708C240.277 36.0708 239.761 36.0239 239.179 35.9301C238.597 35.855 238.034 35.6674 237.49 35.3671C236.965 35.0669 236.524 34.6165 236.167 34.0161C235.83 33.3969 235.661 32.5525 235.661 31.4829V19.8583C235.661 18.9388 235.801 18.1695 236.083 17.5503C236.364 16.931 236.74 16.4432 237.209 16.0866C237.678 15.7301 238.194 15.4768 238.757 15.3267C239.32 15.1766 239.873 15.1015 240.417 15.1015C241.825 15.1015 243.063 15.1203 244.133 15.1578C245.221 15.1953 246.197 15.2422 247.06 15.2985C247.923 15.3361 248.711 15.3923 249.424 15.4674V18.9576H241.656C241.074 18.9576 240.624 19.0983 240.305 19.3798C239.986 19.6613 239.826 20.0928 239.826 20.6745V23.6862L248.073 23.9114V27.2046L239.826 27.4298V30.3007C239.826 30.7886 239.901 31.1733 240.052 31.4547C240.22 31.7174 240.436 31.9051 240.699 32.0177C240.98 32.1115 241.271 32.1584 241.571 32.1584H249.424V35.6486C248.599 35.7424 247.679 35.8175 246.666 35.8738C245.672 35.9301 244.658 35.977 243.626 36.0145C242.613 36.052 241.647 36.0708 240.727 36.0708ZM252.455 35.9301V15.1015H261.068C261.894 15.1015 262.663 15.2047 263.376 15.4111C264.089 15.5988 264.718 15.9365 265.262 16.4244C265.806 16.9123 266.228 17.5878 266.529 18.451C266.848 19.3141 267.007 20.4212 267.007 21.7723C267.007 22.7293 266.913 23.5455 266.726 24.221C266.538 24.8965 266.285 25.4501 265.966 25.8817C265.665 26.3133 265.318 26.6604 264.924 26.9231C264.53 27.1858 264.127 27.4016 263.714 27.5705L267.598 35.9301H263.348L259.999 28.2179C259.773 28.2179 259.511 28.2179 259.21 28.2179C258.929 28.1991 258.638 28.1897 258.338 28.1897C258.038 28.1897 257.737 28.1897 257.437 28.1897C257.137 28.1897 256.865 28.1803 256.621 28.1616V35.9301H252.455ZM256.621 24.8684H260.336C260.712 24.8684 261.049 24.8215 261.35 24.7277C261.65 24.6338 261.913 24.4743 262.138 24.2492C262.363 24.0052 262.532 23.6862 262.644 23.2922C262.776 22.8981 262.841 22.3915 262.841 21.7723C262.841 21.1906 262.776 20.7121 262.644 20.3368C262.532 19.9427 262.363 19.6425 262.138 19.4361C261.913 19.2109 261.65 19.0608 261.35 18.9857C261.049 18.8919 260.712 18.845 260.336 18.845H256.621V24.8684Z" fill="#42516B"/>
<path d="M14.8242 40.2497L14.8305 38.879L33.1299 38.7162V40.2497H14.8242Z" fill="#42516B"/>
<path d="M33.1549 42.9986L33.1875 41.4655L14.886 41.0758L14.8534 42.609L33.1549 42.9986Z" fill="#42516B"/>
<path d="M14.2929 45.2668L14.2929 43.5506L33.3969 43.7333L33.5549 45.2668L14.2929 45.2668Z" fill="#42516B"/>
<path fill-rule="evenodd" clip-rule="evenodd" d="M0.126229 16.4274C0.0990992 16.5439 0.0716723 16.6614 0.0438987 16.7799C0.00357547 17.1083 -0.00829846 17.4117 0.00552411 17.6905C-0.00667754 18.0158 0.00511562 18.262 0.0378723 18.4124C0.78426 21.8401 4.07129 22.4242 6.34694 19.1844L8.92913 15.9633C8.20988 11.4178 8.68326 9.0858 10.7153 5.9679C10.317 7.9292 10.0592 9.55526 9.96408 10.9226C9.81599 12.37 9.89416 13.5177 10.2287 14.4633C10.6368 15.8301 11.4662 16.7931 12.7924 17.613L12.4526 18.9723L10.1974 18.1381C7.52692 23.1203 7.16998 26.0093 7.84949 31.2677C0.68228 34.5424 2.13426 44.9843 12.7924 44.9843V40.7828C6.86027 41.385 6.72229 36.0566 9.94031 34.0434C9.95151 34.0555 9.96269 34.0674 9.97385 34.079C13.1172 37.3531 15.4888 38.5287 18.5799 37.6205C20.1274 37.2481 21.8677 36.4429 23.9412 35.2578C26.015 36.4431 27.7556 37.2484 29.3033 37.6207C32.394 38.5284 34.7655 37.3528 37.9085 34.079C37.9197 34.0674 37.9308 34.0555 37.942 34.0434C41.1601 36.0566 41.0221 41.3851 35.09 40.7828V44.9843C45.7481 44.9843 47.2001 34.5424 40.0329 31.2678C40.7124 26.0093 40.3554 23.1203 37.685 18.1382L35.4298 18.9723L35.09 17.613C36.4163 16.793 37.2456 15.83 37.6537 14.4631C37.9882 13.5174 38.0664 12.3698 37.9183 10.9225C37.8232 9.55517 37.5654 7.92913 37.167 5.96785C39.1991 9.08576 39.6725 11.4178 38.9532 15.9633L41.5354 19.1844C43.8111 22.4242 47.0981 21.84 47.8445 18.4124C47.8773 18.2619 47.889 18.0158 47.8768 17.6905C47.8907 17.4117 47.8788 17.1083 47.8385 16.7799C47.8107 16.6614 47.7833 16.544 47.7562 16.4276C47.2889 13.0673 45.4502 6.58388 41.153 2.90461C40.9349 2.67478 40.708 2.44115 40.472 2.20332C35.2023 -2.31286 28.3216 0.40281 29.056 7.71198C29.1232 9.37013 29.5676 11.0298 30.3675 12.3687C30.4766 12.6151 30.5928 12.8646 30.7163 13.1172C30.4093 13.0119 30.1102 12.9121 29.8181 12.8178C27.6477 11.987 25.8349 11.6101 23.9417 11.6492C22.0479 11.61 20.2346 11.9869 18.0635 12.8181C17.7717 12.9123 17.4728 13.012 17.166 13.1172C17.2895 12.8647 17.4057 12.6153 17.5148 12.3689C18.3148 11.03 18.7592 9.37015 18.8264 7.71192C19.5608 0.40278 12.6801 -2.31288 7.41032 2.2033C7.17424 2.44121 6.94734 2.67493 6.72917 2.90483C2.4321 6.58409 0.59348 13.0672 0.126229 16.4274Z" fill="#42516B"/>
<path d="M13.1428 26.4721L13.0187 26.4367C12.7927 26.3722 12.568 26.5434 12.568 26.7785C12.5678 28.3009 12.5089 29.2827 12.7803 30.9231C12.8893 31.5817 13.4363 33.5899 14.2788 34.4122C16.5997 36.8063 20.9588 36.5475 21.2305 32.3255C21.4155 29.4522 21.2412 27.9258 19.5796 25.5441C18.5008 23.9978 17.9387 23.3626 16.967 22.4906C16.5037 22.0748 15.7792 22.1034 15.4242 22.6149C14.2584 24.2945 14.1421 26.2996 14.5201 30.071L13.4788 30.8167C13.2873 29.1643 13.2193 28.3088 13.3969 26.8587C13.4182 26.6849 13.3112 26.5202 13.1428 26.4721Z" fill="#27374A"/>
<path d="M30.9056 22.6307C29.8365 23.521 29.1862 24.1931 28.2772 25.5441C26.8412 28.1779 26.5715 29.6645 26.6381 32.3255C26.6739 33.7532 27.0221 34.8926 27.706 35.4919C30.1045 37.5935 34.4859 35.3677 35.1316 30.9231C35.3161 29.6529 35.4257 28.6493 35.1875 26.7296C35.1607 26.5136 34.9375 26.3821 34.7344 26.4603C34.5886 26.5164 34.5004 26.6645 34.5194 26.8196C34.665 28.0069 34.8249 29.9581 34.3204 30.9231L33.2193 30.071C33.7025 26.8006 33.9079 25.0748 32.5134 22.8526C32.1661 22.2991 31.4078 22.2126 30.9056 22.6307Z" fill="#27374A"/>
</svg>
