<svg width="42" height="26" viewBox="0 0 42 26" fill="none" xmlns="http://www.w3.org/2000/svg">
<path d="M0.984375 11.1586L0.98497 11.2063C1.00389 12.3802 1.33914 13.4987 1.93988 14.5422C2.17702 14.9541 2.45553 15.3543 2.77228 15.7416C2.86031 15.8492 2.95128 15.9559 3.04514 16.0615C3.34289 16.3965 3.66968 16.7212 4.02337 17.0349C4.36418 17.3371 4.72997 17.629 5.11882 17.9098C5.48001 18.1706 5.8611 18.4219 6.26054 18.6631C6.59692 18.8662 6.94631 19.0621 7.30781 19.2504C7.70684 19.4583 8.12061 19.657 8.5479 19.8461C8.94512 20.0218 9.35402 20.1892 9.7736 20.3478C10.1768 20.5002 10.5899 20.6446 11.012 20.7806C11.2093 20.8441 11.4086 20.9059 11.6097 20.9657C12.4324 21.2105 13.2864 21.4239 14.1656 21.6036C14.9559 21.7652 15.7667 21.8995 16.5933 22.0048C17.3918 22.1066 18.2051 22.1813 19.0292 22.2275L19.1696 22.235C19.8714 22.2715 20.5808 22.2873 21.2954 22.2813C22.1213 22.2816 22.9443 22.2514 23.7594 22.1923C24.5994 22.1314 25.4311 22.0398 26.2491 21.9191C27.0709 21.7979 27.8789 21.6473 28.6675 21.469C29.1046 21.3702 29.5357 21.2629 29.96 21.1473C30.3963 21.0285 30.8253 20.901 31.246 20.7651C31.3581 20.7289 31.4695 20.6921 31.5804 20.6548C32.2393 20.4326 32.8769 20.1896 33.489 19.9271C33.819 19.7855 34.1416 19.6383 34.4561 19.4856C34.8479 19.2954 35.2272 19.0966 35.5929 18.8897C36.1118 18.5961 36.6033 18.286 37.0639 17.9605C37.2262 17.8458 37.3847 17.7292 37.5391 17.6107C37.9471 17.2978 38.3272 16.9719 38.6767 16.6338C38.9674 16.3526 39.2369 16.0629 39.4837 15.7653C39.797 15.3874 40.0735 14.9967 40.3099 14.5941C40.939 13.5233 41.2845 12.3689 41.2845 11.1497L41.2845 15.2186C41.2845 16.328 40.9382 16.9869 40.3099 17.9968C40.0733 18.3772 39.7968 18.7488 39.4837 19.1103C39.2368 19.3953 38.9673 19.6741 38.6767 19.9459C38.327 20.273 37.9468 20.5901 37.5391 20.8961C37.3846 21.0121 37.2262 21.1265 37.0639 21.2392C36.6029 21.5594 36.1114 21.8662 35.5929 22.1582C35.2269 22.3643 34.8476 22.563 34.4561 22.7539C34.1414 22.9073 33.8188 23.0557 33.489 23.1987C32.8761 23.4645 32.2384 23.7119 31.5804 23.9391C31.5357 23.9546 31.491 23.9699 31.4462 23.9851C30.9611 24.1499 30.4651 24.3039 29.96 24.4463C29.5353 24.566 29.1041 24.6775 28.6675 24.7805C27.8772 24.967 27.0691 25.1254 26.2491 25.2536C25.429 25.3817 24.5971 25.4796 23.7594 25.5448C22.9417 25.6085 22.1185 25.6411 21.2954 25.6405C20.5332 25.6405 19.7767 25.6156 19.0292 25.5671C18.2051 25.5136 17.3918 25.4316 16.5933 25.3229C15.7667 25.2103 14.9559 25.0691 14.1656 24.9014C13.2863 24.7149 12.4322 24.4955 11.6097 24.2462C11.4086 24.1852 11.2093 24.1224 11.012 24.0579C10.5898 23.9199 10.1768 23.7738 9.7736 23.6202C9.35394 23.4604 8.94504 23.2922 8.5479 23.1164C8.12049 22.9271 7.70671 22.7289 7.30781 22.5222C6.94618 22.3349 6.59678 22.1407 6.26054 21.94C5.86085 21.7015 5.47975 21.5085 5.11882 21.2524C4.72956 20.9762 4.36375 20.6355 4.02337 20.3407C3.669 20.0338 3.34219 19.7173 3.04514 19.3922C2.95119 19.2894 2.86021 19.1857 2.77228 19.0812C2.45368 18.7025 2.1751 18.313 1.93989 17.9143C1.35748 16.9269 1.04094 16.3375 1.04094 15.6989L0.98497 11.2063C0.984714 11.1904 0.984515 11.1745 0.984375 11.1586Z" fill="#521AA7"/>
<ellipse cx="21.1345" cy="11.1534" rx="20.1501" ry="11.1287" fill="#8235F6"/>
<path d="M15.3359 16.4024V5.9043H22.2272C23.3618 5.9043 24.2932 6.04088 25.0215 6.31405C25.7499 6.5778 26.3242 6.94987 26.7444 7.43027C27.1646 7.91067 27.4587 8.47114 27.6268 9.11167C27.7949 9.74279 27.8789 10.4257 27.8789 11.1604C27.8789 12.3944 27.6688 13.3976 27.2486 14.17C26.8424 14.933 26.2191 15.4982 25.3787 15.8655C24.5523 16.2235 23.5018 16.4024 22.2272 16.4024H15.3359ZM19.4119 13.9439H21.807C22.3253 13.9439 22.7245 13.8497 23.0046 13.6613C23.2987 13.473 23.5018 13.1762 23.6139 12.7712C23.7399 12.3567 23.803 11.8198 23.803 11.1604C23.803 10.5387 23.7539 10.0442 23.6559 9.67685C23.5719 9.30007 23.4388 9.01748 23.2567 8.82909C23.0886 8.64069 22.8785 8.51824 22.6264 8.46172C22.3883 8.39578 22.1152 8.36281 21.807 8.36281H19.4119V13.9439Z" fill="white"/>
</svg>
