<svg width="145" height="32" viewBox="0 0 145 32" fill="none" xmlns="http://www.w3.org/2000/svg">
<path fill-rule="evenodd" clip-rule="evenodd" d="M30.5033 2.03591C27.5573 -0.910159 22.1879 -0.558238 16.5934 2.45817C15.758 2.90782 15.8206 4.75435 16.6113 5.23737C20.9563 7.92511 24.6146 11.589 27.2959 15.9379C27.7767 16.7293 29.6446 16.7564 30.0811 15.9459C29.9784 15.7548 29.8726 15.5641 29.7639 15.3737C29.8721 15.5641 29.9778 15.7548 30.0811 15.9459C33.0975 10.3513 33.4494 4.98197 30.5033 2.03591ZM24.2773 8.26198C22.6772 6.65343 20.9241 5.20472 19.0428 3.9364C21.2087 2.9348 23.2719 2.39782 25.0195 2.39782C26.582 2.39782 27.8932 2.82628 28.8021 3.73516C30.7306 5.66363 30.5013 9.39608 28.603 13.4966C27.333 11.6166 25.8844 9.86353 24.2773 8.26198Z" fill="#C8CCD4"/>
<path fill-rule="evenodd" clip-rule="evenodd" d="M31.8019 19.9805C31.3558 18.5846 30.7787 17.2339 30.0785 15.9465C29.6361 15.124 27.7725 15.1488 27.2933 15.9385C25.9645 18.1116 24.3799 20.1175 22.5735 21.9132C20.7814 23.7207 18.7789 25.3066 16.609 26.6371C15.818 27.1201 15.7824 28.9818 16.591 29.4161C19.569 31.0228 22.4831 31.8735 25.0029 31.8735C27.215 31.8735 29.1233 31.218 30.5008 29.8403C32.6567 27.6846 33.1171 24.1836 31.8019 19.9805ZM28.7995 28.1391C26.8711 30.0675 23.1406 29.8363 19.0403 27.938C20.9215 26.6697 22.6746 25.221 24.2747 23.6125C25.8826 22.014 27.3319 20.2636 28.6025 18.3858C30.4988 22.4843 30.728 26.2126 28.7995 28.1391Z" fill="#C8CCD4"/>
<path fill-rule="evenodd" clip-rule="evenodd" d="M16.5949 2.45807C15.3073 1.75697 13.9559 1.17989 12.5589 0.734635C8.35808 -0.580324 4.85685 -0.120088 2.70116 2.0356C1.32365 3.41331 0.667969 5.3218 0.667969 7.53405C0.667969 10.0539 1.5187 12.9697 3.12342 15.948C3.55988 16.7565 5.4216 16.72 5.90462 15.928C8.59287 11.5792 12.2598 7.91841 16.6131 5.23747C17.3991 4.75985 17.4155 2.89872 16.5952 2.45827L16.5949 2.45807ZM4.60345 13.4965C2.70495 9.39597 2.47394 5.66353 4.40241 3.73506C5.89263 2.24484 8.53514 1.99344 11.8411 3.03122C12.6328 3.28161 13.4079 3.58184 14.1617 3.9301C10.4005 6.48726 7.15738 9.73319 4.60345 13.4965Z" fill="#C8CCD4"/>
<path fill-rule="evenodd" clip-rule="evenodd" d="M16.6111 26.6365C14.4339 25.3077 12.4245 23.7219 10.6263 21.913C8.81725 20.1148 7.23123 18.1055 5.9024 15.9283C5.42318 15.143 3.56166 15.128 3.1212 15.9483C2.42164 17.2351 1.84526 18.5851 1.39977 19.9803C0.0826117 24.1834 0.545045 27.6844 2.69874 29.8401C4.05027 31.1896 5.92858 31.8753 8.1768 31.8753C9.66559 31.8528 11.1424 31.6046 12.5567 31.1393C13.9533 30.6931 15.3046 30.1161 16.5927 29.4159C17.2422 29.0681 17.3961 27.1159 16.6107 26.6367L16.6111 26.6365ZM11.8389 28.8447C8.53292 29.8801 5.89061 29.6289 4.40039 28.1387C2.91017 26.6486 2.65877 24.0059 3.69455 20.7C3.94467 19.9088 4.24491 19.1344 4.59344 18.3814C5.86602 20.2605 7.31729 22.0122 8.92701 23.6121C10.5261 25.2228 12.2786 26.6735 14.1597 27.9436C13.4062 28.2933 12.6311 28.5942 11.8391 28.8445L11.8389 28.8447Z" fill="#C8CCD4"/>
<path fill-rule="evenodd" clip-rule="evenodd" d="M11.2344 15.7927L16.6017 7.3584L21.9691 15.7927L16.6017 18.8599L11.2344 15.7927Z" fill="#C8CCD4"/>
<path fill-rule="evenodd" clip-rule="evenodd" d="M11.2344 17.2336L16.6017 20.3006L21.9691 17.2336L16.6017 24.5179L11.2344 17.2336Z" fill="#C8CCD4"/>
<path fill-rule="evenodd" clip-rule="evenodd" d="M19.0429 3.93579C18.2093 4.3248 17.3977 4.75918 16.6116 5.23696C15.8206 4.75391 15.0021 4.31751 14.1602 3.93C14.9461 3.39877 15.7582 2.90741 16.5934 2.45776C17.414 2.89821 18.2305 3.39089 19.0429 3.93579Z" fill="#C8CCD4"/>
<path fill-rule="evenodd" clip-rule="evenodd" d="M30.0821 15.9463C29.6304 16.7832 29.1378 17.5972 28.606 18.3856C28.2147 17.5465 27.7777 16.7295 27.2969 15.9383C27.7761 15.1487 28.2124 14.3337 28.6038 13.4971C29.1469 14.3074 29.6396 15.1238 30.0821 15.9463Z" fill="#C8CCD4"/>
<path fill-rule="evenodd" clip-rule="evenodd" d="M19.0429 27.9372C18.874 28.0519 18.7052 28.1624 18.5361 28.2709C17.9041 28.6782 17.2561 29.0599 16.5936 29.4152C15.7851 28.9809 14.9739 28.4902 14.1602 27.9432C15.0021 27.5557 15.8206 27.1193 16.6116 26.6362C17.3968 27.1155 18.2085 27.5498 19.0429 27.9372Z" fill="#C8CCD4"/>
<path fill-rule="evenodd" clip-rule="evenodd" d="M5.90229 15.9274C5.41929 16.7194 4.98219 17.5386 4.59313 18.3808C4.06343 17.594 3.57218 16.7819 3.12109 15.9476C3.57356 15.1064 4.06751 14.2882 4.60112 13.4961C4.98851 14.3304 5.42306 15.1422 5.90229 15.9274Z" fill="#C8CCD4"/>
<path d="M141.336 22.6425V23.9746C141.104 24.1111 140.839 24.182 140.57 24.1796C140.036 24.1923 139.514 24.0248 139.087 23.704C138.661 23.3832 138.355 22.928 138.219 22.4118C137.502 23.1855 136.571 23.7274 135.544 23.9681C134.517 24.2087 133.442 24.1371 132.456 23.7625C131.47 23.3878 130.619 22.7272 130.011 21.8653C129.403 21.0034 129.067 19.9796 129.045 18.9252C129.023 17.8708 129.316 16.8339 129.888 15.9474C130.459 15.061 131.282 14.3654 132.251 13.95C133.221 13.5346 134.292 13.4182 135.328 13.6159C136.364 13.8135 137.317 14.3161 138.066 15.0593V13.7271H139.65V21.3103C139.65 22.2582 140.136 22.6425 140.697 22.6425H141.336ZM138.066 18.8509C138.064 18.1135 137.843 17.3933 137.432 16.7812C137.021 16.1691 136.438 15.6926 135.756 15.4118C135.074 15.1311 134.324 15.0587 133.602 15.2037C132.879 15.3488 132.215 15.7049 131.694 16.227C131.174 16.7491 130.819 17.4138 130.676 18.1371C130.533 18.8604 130.608 19.6099 130.89 20.2909C131.173 20.9719 131.651 21.5539 132.264 21.9633C132.877 22.3728 133.598 22.5913 134.336 22.5913C134.826 22.5907 135.312 22.4934 135.765 22.305C136.218 22.1167 136.629 21.841 136.975 21.4937C137.322 21.1463 137.596 20.7342 137.783 20.2807C137.97 19.8273 138.066 19.3414 138.066 18.8509ZM143.333 8.52605H144.998V24.1802H143.333V8.52605ZM126.691 18.7819C126.695 19.8414 126.387 20.8786 125.805 21.7643C125.224 22.65 124.394 23.345 123.421 23.7626C122.452 24.1729 121.382 24.2836 120.349 24.0804C119.316 23.8773 118.368 23.3697 117.627 22.6229V23.9726H116.039V8.19312H117.627V14.9408C118.368 14.194 119.316 13.6863 120.349 13.4832C121.382 13.2801 122.452 13.3908 123.421 13.8011C124.395 14.2187 125.224 14.9137 125.805 15.7994C126.387 16.6851 126.695 17.7224 126.691 18.7819ZM125.103 18.7819C125.093 18.0447 124.865 17.3269 124.449 16.7187C124.032 16.1105 123.444 15.6392 122.76 15.364C122.076 15.0887 121.326 15.0218 120.604 15.1718C119.883 15.3217 119.221 15.6817 118.703 16.2066C118.186 16.7314 117.834 17.3976 117.694 18.1215C117.554 18.8453 117.631 19.5945 117.916 20.2747C118.2 20.9549 118.679 21.5358 119.293 21.9444C119.907 22.3529 120.627 22.5709 121.365 22.5709C121.857 22.572 122.345 22.4747 122.8 22.2847C123.254 22.0948 123.666 21.816 124.012 21.4648C124.715 20.7494 125.107 19.7852 125.103 18.7819ZM102.392 18.8513C102.393 17.6199 102.821 16.4271 103.604 15.4759C104.386 14.5248 105.473 13.8742 106.681 13.635C107.889 13.3957 109.143 13.5826 110.228 14.1639C111.314 14.7451 112.164 15.6847 112.635 16.8226C113.105 17.9605 113.167 19.2264 112.809 20.4046C112.451 21.5828 111.695 22.6004 110.671 23.2842C109.647 23.9679 108.418 24.2755 107.192 24.1545C105.967 24.0336 104.821 23.4915 103.951 22.6207C103.456 22.1256 103.064 21.5378 102.796 20.8911C102.529 20.2443 102.391 19.5512 102.392 18.8513ZM111.456 18.8513C111.455 18.112 111.236 17.3895 110.825 16.7751C110.414 16.1606 109.83 15.6819 109.147 15.3993C108.463 15.1167 107.712 15.043 106.987 15.1876C106.262 15.3321 105.596 15.6883 105.073 16.2112C104.551 16.7341 104.195 17.4002 104.051 18.1253C103.907 18.8503 103.981 19.6019 104.264 20.2848C104.547 20.9677 105.026 21.5514 105.641 21.9621C106.256 22.3727 106.978 22.5919 107.718 22.5919C108.209 22.5917 108.695 22.4949 109.149 22.3068C109.602 22.1187 110.014 21.8432 110.361 21.4958C110.709 21.1485 110.984 20.7361 111.172 20.2824C111.359 19.8286 111.456 19.3423 111.456 18.8513ZM94.4033 15.6684V16.1322C94.4301 20.151 91.5326 23.5653 87.6357 24.1067C83.7388 24.6481 80.0543 22.1487 79.0301 18.2685C78.0059 14.3884 79.9606 10.3342 83.5953 8.79983C85.3586 8.06171 87.3327 8.00219 89.1373 8.63273C90.9418 9.26327 92.4493 10.5393 93.3692 12.2149L91.9821 13.0139C91.2854 11.7305 90.1519 10.7392 88.7872 10.2197C87.4224 9.7002 85.9167 9.68687 84.543 10.1821C83.1636 10.6996 82.0084 11.6826 81.2769 12.9613C80.5453 14.24 80.2835 15.7341 80.5365 17.1854C80.7542 18.6389 81.4856 19.9662 82.598 20.9267C83.7104 21.8872 85.1301 22.4173 86.5998 22.4209C88.0695 22.4244 89.4918 21.9012 90.6088 20.9461C91.7258 19.991 92.4636 18.6672 92.6883 17.2148H86.6099V15.6684H94.4033ZM97.7319 8.52605H99.3962V24.1802H97.7319V8.52605ZM76.0963 8.52605V24.1802H72.7419V17.8664H66.4945V24.1802H63.1147V8.52605H66.4945V14.8139H72.7419V8.52585L76.0963 8.52605ZM61.7834 11.5786H57.9616V24.1802H54.6462V11.5786H50.7991V8.52605H61.7834V11.5786ZM43.8884 11.5527V14.84H48.9484V17.8664H43.8884V21.1538H49.8005V24.1802H40.4805V8.52605H49.8005V11.5525L43.8884 11.5527Z" fill="#C8CCD4"/>
</svg>
