<svg width="1069" height="288" viewBox="0 0 1069 288" fill="none" xmlns="http://www.w3.org/2000/svg">
<path d="M982.544 121.721C982.544 154.85 902.19 205.26 773.706 205.26C773.706 205.26 618.85 205.26 528.268 205.26C437.686 205.26 282.434 205.26 282.434 205.26C155.141 205.26 73.9922 154.85 73.9922 121.721C73.9922 88.5931 156.335 38.188 282.434 38.188C282.434 38.188 437.686 38.1883 528.268 38.1883C618.85 38.1883 774.102 38.1906 774.102 38.1886C900.201 38.1886 982.544 88.5931 982.544 121.721Z" fill="#8C8181"/>
<rect x="73.9922" y="120.133" width="908.552" height="19.8895" fill="#8C8181"/>
<path fill-rule="evenodd" clip-rule="evenodd" d="M287.211 288C211.077 287.952 138.083 274.253 84.2406 249.901C30.5124 225.601 0.237577 192.676 0.00525332 158.321H0V130.476H6.47812C18.0564 106.219 44.8432 83.7627 84.2406 65.944C138.083 41.5918 211.077 27.8926 287.211 27.8453V27.8452H287.606H780.07H780.47V27.8453C856.603 27.8932 929.594 41.5924 983.435 65.944C1022.83 83.7627 1049.62 106.219 1061.2 130.476H1067.67V157.223C1067.67 157.456 1067.67 157.689 1067.67 157.922C1067.67 192.421 1037.37 225.507 983.435 249.901C929.594 274.252 856.603 287.952 780.47 288H287.211V288ZM287.606 249.812V249.809C233.724 249.809 182.049 240.128 143.949 222.896C106.056 205.758 84.6777 182.547 84.4458 158.321H983.23C982.998 182.547 961.62 205.758 923.727 222.896C885.627 240.128 833.952 249.809 780.07 249.809V249.812H287.606ZM287.606 66.0359V66.033H780.07V66.0359C833.952 66.0359 885.627 75.7168 923.727 92.9488C947.138 103.537 964.246 116.444 973.957 130.476H93.7188C103.43 116.444 120.538 103.537 143.949 92.9488C182.049 75.7168 233.724 66.0359 287.606 66.0359Z" fill="url(#paint0_linear_25_69)"/>
<path d="M982.542 139.224C982.542 172.353 903.173 222.763 776.264 222.763C776.264 222.763 623.306 222.763 533.833 222.763C444.361 222.763 291.012 222.763 291.012 222.763C165.28 222.763 85.125 172.353 85.125 139.224C85.125 106.096 166.458 55.6909 291.012 55.6909C291.012 55.6909 444.361 55.6912 533.833 55.6912C623.306 55.6912 776.654 55.6935 776.654 55.6915C901.209 55.6915 982.542 106.096 982.542 139.224Z" fill="url(#paint1_linear_25_69)"/>
<path d="M287.606 260.154C211.329 260.154 138.176 246.45 84.2406 222.056C30.3047 197.662 0.00390413 164.576 0.00390625 130.077C0.00390837 95.5786 30.3047 62.493 84.2406 38.0987C138.176 13.7045 211.329 -4.11392e-07 287.606 0V38.1907C233.724 38.1907 182.049 47.8716 143.949 65.1036C105.848 82.3357 84.4439 105.707 84.4439 130.077C84.4439 154.447 105.848 177.819 143.949 195.051C182.049 212.283 233.724 221.964 287.606 221.964V260.154Z" fill="#D9D9D9"/>
<path d="M780.07 260.154C856.347 260.154 929.499 246.45 983.435 222.056C1037.37 197.662 1067.67 164.576 1067.67 130.077C1067.67 95.5786 1037.37 62.493 983.435 38.0987C929.499 13.7045 856.347 -4.11392e-07 780.07 0V38.1907C833.952 38.1907 885.627 47.8716 923.727 65.1036C961.827 82.3357 983.232 105.707 983.232 130.077C983.232 154.447 961.827 177.819 923.727 195.051C885.627 212.283 833.952 221.964 780.07 221.964V260.154Z" fill="#D9D9D9"/>
<g style="mix-blend-mode:soft-light" opacity="0.4">
<path d="M372 143.134L375.816 122.918H382.118L389.662 138.408L397.161 122.918H403.418L407.279 143.134H400.933L398.093 128.245L399.114 128.3L392.679 143.134H386.511L379.988 128.3L381.097 128.272L378.346 143.134H372Z" fill="white"/>
<path d="M419.184 143.271C418.474 143.271 417.661 143.225 416.744 143.134C415.826 143.061 414.939 142.879 414.081 142.588C413.253 142.296 412.557 141.859 411.995 141.276C411.463 140.675 411.197 139.856 411.197 138.818V127.535C411.197 126.642 411.418 125.896 411.862 125.295C412.306 124.694 412.898 124.22 413.637 123.874C414.377 123.528 415.19 123.282 416.078 123.136C416.965 122.991 417.838 122.918 418.696 122.918C420.915 122.918 422.867 122.936 424.554 122.972C426.27 123.009 427.808 123.054 429.169 123.109C430.53 123.145 431.772 123.2 432.896 123.273V126.661H420.649C419.732 126.661 419.021 126.797 418.519 127.07C418.016 127.344 417.764 127.762 417.764 128.327V131.25L430.766 131.469V134.665L417.764 134.884V137.67C417.764 138.144 417.883 138.517 418.119 138.79C418.385 139.045 418.726 139.228 419.14 139.337C419.584 139.428 420.042 139.473 420.515 139.473H432.896V142.861C431.595 142.952 430.145 143.025 428.548 143.08C426.98 143.134 425.382 143.18 423.755 143.216C422.157 143.253 420.634 143.271 419.184 143.271Z" fill="white"/>
<path d="M437.897 143.134V122.918H443.177L456.934 136.25V122.918H463.502V143.134H458.221L444.509 129.802V143.134H437.897Z" fill="white"/>
<path d="M475.798 143.134V126.551H466.79V122.918H491.419V126.551H482.366V143.134H475.798Z" fill="white"/>
<path d="M490.669 143.134L500.964 122.918H509.263L519.558 143.134H512.724L510.638 138.9H499.456L497.414 143.134H490.669ZM501.009 135.266H509.085L505.047 126.387L501.009 135.266Z" fill="white"/>
<path d="M530.899 143.134C529.213 143.134 527.778 142.979 526.595 142.67C525.441 142.342 524.568 141.832 523.976 141.14C523.414 140.43 523.133 139.501 523.133 138.353V122.918H529.701V137.698C529.701 138.135 529.819 138.49 530.056 138.763C530.322 139.036 530.677 139.228 531.121 139.337C531.565 139.428 532.068 139.473 532.63 139.473H543.014V143.134H530.899Z" fill="white"/>
<path d="M558.322 143.134V122.918H572.167C573.232 122.918 574.312 123 575.407 123.164C576.531 123.309 577.552 123.619 578.469 124.093C579.416 124.548 580.17 125.24 580.732 126.169C581.324 127.098 581.62 128.327 581.62 129.857C581.62 131.387 581.324 132.625 580.732 133.572C580.17 134.519 579.43 135.239 578.513 135.731C577.596 136.222 576.605 136.55 575.54 136.714C574.475 136.878 573.44 136.96 572.434 136.96C571.901 136.96 571.28 136.951 570.57 136.933C569.86 136.896 569.135 136.851 568.396 136.796C567.686 136.741 567.02 136.696 566.399 136.659C565.777 136.605 565.274 136.559 564.89 136.523V143.134H558.322ZM564.89 133.327H571.413C572.182 133.327 572.833 133.217 573.366 132.999C573.928 132.762 574.342 132.398 574.608 131.906C574.874 131.396 575.008 130.722 575.008 129.884C575.008 129.065 574.86 128.418 574.564 127.945C574.298 127.453 573.898 127.098 573.366 126.879C572.863 126.661 572.256 126.551 571.546 126.551H564.89V133.327Z" fill="white"/>
<path d="M598.575 143.298C596.327 143.298 594.36 143.171 592.673 142.916C590.987 142.642 589.567 142.151 588.413 141.44C587.289 140.712 586.446 139.674 585.884 138.326C585.322 136.978 585.041 135.221 585.041 133.053C585.041 130.886 585.322 129.128 585.884 127.781C586.476 126.415 587.333 125.367 588.458 124.639C589.582 123.91 590.987 123.41 592.673 123.136C594.36 122.863 596.327 122.727 598.575 122.727C600.824 122.727 602.791 122.863 604.477 123.136C606.164 123.41 607.569 123.91 608.693 124.639C609.817 125.367 610.66 126.415 611.223 127.781C611.785 129.128 612.066 130.886 612.066 133.053C612.066 135.221 611.785 136.978 611.223 138.326C610.66 139.674 609.817 140.712 608.693 141.44C607.569 142.151 606.164 142.642 604.477 142.916C602.791 143.171 600.824 143.298 598.575 143.298ZM598.575 139.665C599.907 139.665 601.016 139.574 601.904 139.391C602.791 139.209 603.486 138.891 603.989 138.435C604.522 137.962 604.906 137.297 605.143 136.441C605.38 135.567 605.498 134.438 605.498 133.053C605.498 131.596 605.38 130.431 605.143 129.556C604.906 128.682 604.522 128.017 603.989 127.562C603.486 127.089 602.791 126.77 601.904 126.606C601.016 126.442 599.907 126.36 598.575 126.36C597.303 126.36 596.223 126.442 595.336 126.606C594.448 126.77 593.724 127.089 593.161 127.562C592.629 128.017 592.23 128.682 591.963 129.556C591.727 130.431 591.608 131.596 591.608 133.053C591.608 134.438 591.712 135.567 591.919 136.441C592.156 137.297 592.54 137.962 593.073 138.435C593.605 138.891 594.315 139.209 595.203 139.391C596.12 139.574 597.244 139.665 598.575 139.665Z" fill="white"/>
<path d="M616.912 143.134V122.918H623.48V131.278H627.829L634.574 122.918H641.585L633.065 133.081L641.852 143.134H634.84L627.829 134.938H623.48V143.134H616.912Z" fill="white"/>
<path d="M652.635 143.271C651.925 143.271 651.112 143.225 650.194 143.134C649.277 143.061 648.39 142.879 647.532 142.588C646.703 142.296 646.008 141.859 645.446 141.276C644.914 140.675 644.647 139.856 644.647 138.818V127.535C644.647 126.642 644.869 125.896 645.313 125.295C645.757 124.694 646.348 124.22 647.088 123.874C647.828 123.528 648.641 123.282 649.529 123.136C650.416 122.991 651.289 122.918 652.147 122.918C654.366 122.918 656.318 122.936 658.005 122.972C659.72 123.009 661.259 123.054 662.62 123.109C663.981 123.145 665.223 123.2 666.347 123.273V126.661H654.1C653.182 126.661 652.472 126.797 651.969 127.07C651.467 127.344 651.215 127.762 651.215 128.327V131.25L664.217 131.469V134.665L651.215 134.884V137.67C651.215 138.144 651.333 138.517 651.57 138.79C651.836 139.045 652.177 139.228 652.591 139.337C653.034 139.428 653.493 139.473 653.966 139.473H666.347V142.861C665.046 142.952 663.596 143.025 661.998 143.08C660.43 143.134 658.833 143.18 657.206 143.216C655.608 143.253 654.085 143.271 652.635 143.271Z" fill="white"/>
<path d="M671.126 143.134V122.918H684.705C686.006 122.918 687.219 123.018 688.344 123.218C689.468 123.4 690.459 123.728 691.317 124.202C692.175 124.675 692.84 125.331 693.314 126.169C693.817 127.007 694.068 128.081 694.068 129.393C694.068 130.321 693.92 131.114 693.624 131.769C693.328 132.425 692.929 132.962 692.426 133.381C691.953 133.8 691.406 134.137 690.784 134.392C690.163 134.647 689.527 134.856 688.876 135.02L695 143.134H688.299L683.018 135.649C682.663 135.649 682.249 135.649 681.776 135.649C681.332 135.63 680.874 135.621 680.4 135.621C679.927 135.621 679.454 135.621 678.98 135.621C678.507 135.621 678.078 135.612 677.693 135.594V143.134H671.126ZM677.693 132.398H683.551C684.143 132.398 684.675 132.352 685.149 132.261C685.622 132.17 686.036 132.015 686.391 131.797C686.746 131.56 687.012 131.25 687.19 130.868C687.397 130.485 687.5 129.994 687.5 129.393C687.5 128.828 687.397 128.363 687.19 127.999C687.012 127.617 686.746 127.325 686.391 127.125C686.036 126.906 685.622 126.761 685.149 126.688C684.675 126.597 684.143 126.551 683.551 126.551H677.693V132.398Z" fill="white"/>
<path d="M447.467 164.651V155.378H449.889L456.199 161.493V155.378H459.212V164.651H456.79L450.5 158.536V164.651H447.467Z" fill="white"/>
<path d="M467.519 164.727C466.488 164.727 465.585 164.668 464.812 164.551C464.038 164.426 463.387 164.2 462.858 163.874C462.342 163.54 461.955 163.064 461.697 162.446C461.44 161.828 461.311 161.021 461.311 160.027C461.311 159.033 461.44 158.227 461.697 157.609C461.969 156.982 462.362 156.502 462.878 156.167C463.394 155.833 464.038 155.604 464.812 155.478C465.585 155.353 466.488 155.29 467.519 155.29C468.551 155.29 469.453 155.353 470.226 155.478C471 155.604 471.645 155.833 472.16 156.167C472.676 156.502 473.063 156.982 473.321 157.609C473.578 158.227 473.707 159.033 473.707 160.027C473.707 161.021 473.578 161.828 473.321 162.446C473.063 163.064 472.676 163.54 472.16 163.874C471.645 164.2 471 164.426 470.226 164.551C469.453 164.668 468.551 164.727 467.519 164.727ZM467.519 163.06C468.13 163.06 468.639 163.018 469.046 162.935C469.453 162.851 469.772 162.705 470.003 162.496C470.247 162.279 470.423 161.974 470.532 161.581C470.64 161.18 470.695 160.662 470.695 160.027C470.695 159.359 470.64 158.824 470.532 158.423C470.423 158.022 470.247 157.717 470.003 157.508C469.772 157.291 469.453 157.145 469.046 157.07C468.639 156.995 468.13 156.957 467.519 156.957C466.936 156.957 466.44 156.995 466.033 157.07C465.626 157.145 465.294 157.291 465.036 157.508C464.792 157.717 464.608 158.022 464.486 158.423C464.378 158.824 464.323 159.359 464.323 160.027C464.323 160.662 464.371 161.18 464.466 161.581C464.574 161.974 464.751 162.279 464.995 162.496C465.239 162.705 465.565 162.851 465.972 162.935C466.393 163.018 466.909 163.06 467.519 163.06Z" fill="white"/>
<path d="M484.741 164.651C483.967 164.651 483.309 164.58 482.766 164.438C482.237 164.288 481.837 164.054 481.565 163.737C481.307 163.411 481.178 162.985 481.178 162.458V155.378H484.191V162.158C484.191 162.358 484.245 162.521 484.354 162.646C484.476 162.772 484.639 162.859 484.842 162.909C485.046 162.951 485.277 162.972 485.535 162.972H490.298V164.651H484.741Z" fill="white"/>
<path d="M492.072 164.651V155.378H495.085V164.651H492.072Z" fill="white"/>
<path d="M497.29 164.651L499.041 155.378H501.932L505.392 162.483L508.832 155.378H511.702L513.473 164.651H510.562L509.26 157.822L509.728 157.847L506.776 164.651H503.947L500.954 157.847L501.463 157.834L500.201 164.651H497.29Z" fill="white"/>
<path d="M515.668 164.651V155.378H518.68V164.651H515.668Z" fill="white"/>
<path d="M524.449 164.651V157.045H520.316V155.378H531.614V157.045H527.461V164.651H524.449Z" fill="white"/>
<path d="M538.488 164.651V155.378H541.501V159.238H547.18V155.378H550.213V164.651H547.18V160.904H541.501V164.651H538.488Z" fill="white"/>
<path d="M558.623 164.727C557.591 164.727 556.689 164.668 555.915 164.551C555.142 164.426 554.49 164.2 553.961 163.874C553.446 163.54 553.059 163.064 552.801 162.446C552.543 161.828 552.414 161.021 552.414 160.027C552.414 159.033 552.543 158.227 552.801 157.609C553.072 156.982 553.466 156.502 553.982 156.167C554.497 155.833 555.142 155.604 555.915 155.478C556.689 155.353 557.591 155.29 558.623 155.29C559.654 155.29 560.556 155.353 561.33 155.478C562.103 155.604 562.748 155.833 563.264 156.167C563.779 156.502 564.166 156.982 564.424 157.609C564.682 158.227 564.811 159.033 564.811 160.027C564.811 161.021 564.682 161.828 564.424 162.446C564.166 163.064 563.779 163.54 563.264 163.874C562.748 164.2 562.103 164.426 561.33 164.551C560.556 164.668 559.654 164.727 558.623 164.727ZM558.623 163.06C559.233 163.06 559.742 163.018 560.149 162.935C560.556 162.851 560.875 162.705 561.106 162.496C561.35 162.279 561.527 161.974 561.635 161.581C561.744 161.18 561.798 160.662 561.798 160.027C561.798 159.359 561.744 158.824 561.635 158.423C561.527 158.022 561.35 157.717 561.106 157.508C560.875 157.291 560.556 157.145 560.149 157.07C559.742 156.995 559.233 156.957 558.623 156.957C558.039 156.957 557.544 156.995 557.137 157.07C556.73 157.145 556.397 157.291 556.139 157.508C555.895 157.717 555.712 158.022 555.59 158.423C555.481 158.824 555.427 159.359 555.427 160.027C555.427 160.662 555.474 161.18 555.569 161.581C555.678 161.974 555.854 162.279 556.099 162.496C556.343 162.705 556.668 162.851 557.076 162.935C557.496 163.018 558.012 163.06 558.623 163.06Z" fill="white"/>
<path d="M570.596 164.651C569.823 164.651 569.165 164.58 568.622 164.438C568.092 164.288 567.692 164.054 567.421 163.737C567.163 163.411 567.034 162.985 567.034 162.458V155.378H570.047V162.158C570.047 162.358 570.101 162.521 570.209 162.646C570.332 162.772 570.494 162.859 570.698 162.909C570.902 162.951 571.132 162.972 571.39 162.972H576.153V164.651H570.596Z" fill="white"/>
<path d="M577.927 164.651V155.378H584.299C585.317 155.378 586.165 155.491 586.843 155.716C587.522 155.934 588.058 156.251 588.451 156.669C588.858 157.078 589.143 157.567 589.306 158.135C589.469 158.703 589.55 159.33 589.55 160.015C589.55 161.059 589.354 161.924 588.96 162.609C588.58 163.294 588.003 163.808 587.23 164.15C586.456 164.484 585.479 164.651 584.299 164.651H577.927ZM580.94 162.985H583.993C584.618 162.985 585.113 162.876 585.479 162.659C585.846 162.433 586.11 162.099 586.273 161.656C586.45 161.214 586.538 160.666 586.538 160.015C586.538 159.413 586.484 158.92 586.375 158.536C586.266 158.143 586.104 157.838 585.886 157.621C585.683 157.404 585.418 157.254 585.093 157.17C584.78 157.086 584.414 157.045 583.993 157.045H580.94V162.985Z" fill="white"/>
<path d="M595.427 164.714C595.101 164.714 594.728 164.693 594.307 164.651C593.887 164.618 593.48 164.534 593.086 164.401C592.706 164.267 592.387 164.067 592.129 163.799C591.885 163.524 591.763 163.148 591.763 162.671V157.496C591.763 157.086 591.865 156.744 592.068 156.468C592.272 156.193 592.543 155.975 592.882 155.817C593.222 155.658 593.595 155.545 594.002 155.478C594.409 155.411 594.809 155.378 595.203 155.378C596.221 155.378 597.116 155.386 597.89 155.403C598.677 155.42 599.383 155.441 600.007 155.466C600.631 155.482 601.201 155.507 601.717 155.541V157.095H596.099C595.678 157.095 595.352 157.157 595.122 157.283C594.891 157.408 594.776 157.6 594.776 157.859V159.2L600.74 159.3V160.767L594.776 160.867V162.145C594.776 162.362 594.83 162.534 594.938 162.659C595.061 162.776 595.217 162.859 595.407 162.909C595.61 162.951 595.82 162.972 596.038 162.972H601.717V164.526C601.12 164.568 600.455 164.601 599.722 164.626C599.003 164.651 598.27 164.672 597.524 164.689C596.791 164.706 596.092 164.714 595.427 164.714Z" fill="white"/>
<path d="M603.502 164.651L605.252 155.378H608.143L611.603 162.483L615.043 155.378H617.913L619.684 164.651H616.773L615.471 157.822L615.939 157.847L612.987 164.651H610.158L607.166 157.847L607.674 157.834L606.412 164.651H603.502Z" fill="white"/>
</g>
<path fill-rule="evenodd" clip-rule="evenodd" d="M287.332 260.154C211.196 260.108 138.201 246.408 84.3578 222.056C30.4219 197.662 0.121092 164.576 0.121094 130.077C0.121096 95.5786 30.4219 62.493 84.3578 38.0987C138.201 13.7462 211.196 0.0468739 287.332 0.000120068V0H287.723H780.591V38.1878H287.723V38.1907C233.841 38.1907 182.166 47.8716 144.066 65.1036C105.966 82.3357 84.5611 105.707 84.5611 130.077C84.5611 154.447 105.966 177.819 144.066 195.051C182.166 212.283 233.841 221.964 287.723 221.964V221.967H780.591V260.155H287.332V260.154ZM780.722 260.154C856.999 260.154 930.152 246.45 984.088 222.056C1038.02 197.662 1068.32 164.576 1068.32 130.077C1068.32 95.5786 1038.02 62.493 984.088 38.0987C930.152 13.7045 856.999 -4.11394e-07 780.722 0V38.1907C834.604 38.1907 886.279 47.8716 924.379 65.1036C962.48 82.3357 983.884 105.707 983.884 130.077C983.884 154.447 962.48 177.819 924.379 195.051C886.279 212.283 834.604 221.964 780.722 221.964V260.154Z" fill="url(#paint2_linear_25_69)"/>
<path d="M780.899 260.154C838.829 260.154 895.408 252.242 943.228 237.454C991.048 222.666 1027.88 201.691 1048.9 177.276L1000.06 168.675C982.869 188.64 952.75 205.792 913.645 217.886C874.54 229.979 828.271 236.449 780.899 236.449V260.154Z" fill="url(#paint3_linear_25_69)"/>
<path d="M287.9 260.154C229.97 260.154 173.391 252.242 125.571 237.454C77.7507 222.666 40.9191 201.691 19.8991 177.276L68.7401 168.675C85.9294 188.64 116.049 205.792 155.154 217.886C194.259 229.979 240.527 236.449 287.9 236.449V260.154Z" fill="url(#paint4_linear_25_69)"/>
<path d="M1029.97 65.0386C1009.12 48.7044 980.663 34.6165 946.576 23.7513C912.488 12.8861 873.584 5.5037 832.56 2.11572L826.649 16.757C862.979 19.7573 897.432 26.295 927.619 35.917C957.806 45.539 983.006 58.015 1001.47 72.4802L1029.97 65.0386Z" fill="url(#paint5_linear_25_69)"/>
<path d="M38.8292 65.0386C59.6802 48.7044 88.1357 34.6165 122.223 23.7513C156.311 12.8861 195.215 5.5037 236.238 2.11572L242.15 16.757C205.82 19.7573 171.367 26.295 141.18 35.917C110.993 45.539 85.7929 58.015 67.3276 72.4802L38.8292 65.0386Z" fill="url(#paint6_linear_25_69)"/>
<path d="M1058.7 96.4107C1050.24 82.1353 1036.47 68.6162 1017.97 56.4338L968.545 71.7869C983.188 81.4295 994.091 92.1302 1000.79 103.429L1058.7 96.4107Z" fill="url(#paint7_linear_25_69)"/>
<path d="M10.0977 96.4107C18.555 82.1353 32.3293 68.6162 50.8291 56.4338L100.253 71.7869C85.6103 81.4295 74.7077 92.1302 68.0135 103.429L10.0977 96.4107Z" fill="url(#paint8_linear_25_69)"/>
<path d="M1056.79 129.197C1056.87 124.883 1056.46 120.543 1055.57 116.193L997.263 115.331C997.966 118.774 998.287 122.21 998.223 125.624L1056.79 129.197Z" fill="url(#paint9_linear_25_69)"/>
<path d="M1055.88 138.343C1056.24 136.34 1056.5 134.328 1056.65 132.307L998.111 128.086C997.994 129.685 997.792 131.278 997.506 132.863L1055.88 138.343Z" fill="url(#paint10_linear_25_69)"/>
<path d="M1053.44 147.542C1054.13 145.576 1054.72 143.597 1055.2 141.606L996.963 135.446C996.585 137.022 996.123 138.588 995.576 140.145L1053.44 147.542Z" fill="url(#paint11_linear_25_69)"/>
<path d="M12.0111 129.197C11.9309 124.883 12.3359 120.543 13.2246 116.193L71.536 115.331C70.8326 118.774 70.512 122.21 70.5755 125.624L12.0111 129.197Z" fill="url(#paint12_linear_25_69)"/>
<path d="M12.917 138.343C12.5555 136.34 12.3009 134.328 12.1534 132.307L70.6881 128.086C70.8049 129.685 71.0064 131.278 71.2926 132.863L12.917 138.343Z" fill="url(#paint13_linear_25_69)"/>
<path d="M15.3555 147.542C14.6651 145.576 14.0808 143.597 13.6029 141.606L71.8355 135.446C72.2137 137.022 72.6762 138.588 73.2227 140.145L15.3555 147.542Z" fill="url(#paint14_linear_25_69)"/>
<defs>
<linearGradient id="paint0_linear_25_69" x1="0" y1="157.923" x2="1067.67" y2="157.923" gradientUnits="userSpaceOnUse">
<stop stop-color="#0C2A47"/>
<stop offset="1" stop-color="#07332D"/>
</linearGradient>
<linearGradient id="paint1_linear_25_69" x1="119.253" y1="207.141" x2="914.444" y2="87.5038" gradientUnits="userSpaceOnUse">
<stop stop-color="#42867B"/>
<stop offset="1" stop-color="#4BBDC7"/>
</linearGradient>
<linearGradient id="paint2_linear_25_69" x1="157.047" y1="-4.06304e-06" x2="968.576" y2="274.479" gradientUnits="userSpaceOnUse">
<stop stop-color="#63B8FD"/>
<stop offset="1" stop-color="#43F7AF"/>
</linearGradient>
<linearGradient id="paint3_linear_25_69" x1="10.0977" y1="131.135" x2="1058.7" y2="131.135" gradientUnits="userSpaceOnUse">
<stop stop-color="#AAD5F8"/>
<stop offset="1" stop-color="#B8FFE3"/>
</linearGradient>
<linearGradient id="paint4_linear_25_69" x1="10.0977" y1="131.135" x2="1058.7" y2="131.135" gradientUnits="userSpaceOnUse">
<stop stop-color="#AAD5F8"/>
<stop offset="1" stop-color="#B8FFE3"/>
</linearGradient>
<linearGradient id="paint5_linear_25_69" x1="10.0977" y1="131.135" x2="1058.7" y2="131.135" gradientUnits="userSpaceOnUse">
<stop stop-color="#AAD5F8"/>
<stop offset="1" stop-color="#B8FFE3"/>
</linearGradient>
<linearGradient id="paint6_linear_25_69" x1="10.0977" y1="131.135" x2="1058.7" y2="131.135" gradientUnits="userSpaceOnUse">
<stop stop-color="#AAD5F8"/>
<stop offset="1" stop-color="#B8FFE3"/>
</linearGradient>
<linearGradient id="paint7_linear_25_69" x1="10.0977" y1="131.135" x2="1058.7" y2="131.135" gradientUnits="userSpaceOnUse">
<stop stop-color="#AAD5F8"/>
<stop offset="1" stop-color="#B8FFE3"/>
</linearGradient>
<linearGradient id="paint8_linear_25_69" x1="10.0977" y1="131.135" x2="1058.7" y2="131.135" gradientUnits="userSpaceOnUse">
<stop stop-color="#AAD5F8"/>
<stop offset="1" stop-color="#B8FFE3"/>
</linearGradient>
<linearGradient id="paint9_linear_25_69" x1="10.0977" y1="131.135" x2="1058.7" y2="131.135" gradientUnits="userSpaceOnUse">
<stop stop-color="#AAD5F8"/>
<stop offset="1" stop-color="#B8FFE3"/>
</linearGradient>
<linearGradient id="paint10_linear_25_69" x1="10.0977" y1="131.135" x2="1058.7" y2="131.135" gradientUnits="userSpaceOnUse">
<stop stop-color="#AAD5F8"/>
<stop offset="1" stop-color="#B8FFE3"/>
</linearGradient>
<linearGradient id="paint11_linear_25_69" x1="10.0977" y1="131.135" x2="1058.7" y2="131.135" gradientUnits="userSpaceOnUse">
<stop stop-color="#AAD5F8"/>
<stop offset="1" stop-color="#B8FFE3"/>
</linearGradient>
<linearGradient id="paint12_linear_25_69" x1="10.0977" y1="131.135" x2="1058.7" y2="131.135" gradientUnits="userSpaceOnUse">
<stop stop-color="#AAD5F8"/>
<stop offset="1" stop-color="#B8FFE3"/>
</linearGradient>
<linearGradient id="paint13_linear_25_69" x1="10.0977" y1="131.135" x2="1058.7" y2="131.135" gradientUnits="userSpaceOnUse">
<stop stop-color="#AAD5F8"/>
<stop offset="1" stop-color="#B8FFE3"/>
</linearGradient>
<linearGradient id="paint14_linear_25_69" x1="10.0977" y1="131.135" x2="1058.7" y2="131.135" gradientUnits="userSpaceOnUse">
<stop stop-color="#AAD5F8"/>
<stop offset="1" stop-color="#B8FFE3"/>
</linearGradient>
</defs>
</svg>
