<svg width="166" height="32" viewBox="0 0 166 32" fill="none" xmlns="http://www.w3.org/2000/svg">
<path d="M0.00390625 5.76867C0.00390625 2.58713 2.58323 0.0078125 5.76476 0.0078125H26.1062C29.2877 0.0078125 31.8671 2.58713 31.8671 5.76867V26.1101C31.8671 29.2916 29.2877 31.871 26.1062 31.871H20.8998C20.1048 31.871 19.4611 31.2273 19.4611 30.4323V15.291C19.4611 13.7026 18.1723 12.4137 16.5839 12.4137H1.44253C0.647542 12.4137 0.00390625 11.7701 0.00390625 10.9751V5.76867Z" fill="#C8CCD4"/>
<path d="M12.4098 22.3426C12.4098 20.7542 11.121 19.4653 9.53258 19.4653H1.44253C0.647542 19.4653 0.00390625 20.109 0.00390625 20.904V26.1104C0.00390625 29.2919 2.58323 31.8712 5.76476 31.8712H10.9712C11.7662 31.8712 12.4098 31.2276 12.4098 30.4326V22.3426Z" fill="#C8CCD4"/>
<path fill-rule="evenodd" clip-rule="evenodd" d="M125.118 26.1776V6.01357L129.672 5.68481V13.4929H129.858C130.881 11.9313 132.523 11.1368 134.847 11.1368C139.247 11.1368 142.129 14.1778 142.129 18.7804C142.129 23.3831 139.247 26.4515 134.847 26.4515C132.523 26.4515 130.881 25.657 129.858 24.068H129.672V26.1776H125.118ZM133.577 14.4792C131.222 14.4792 129.672 16.1778 129.672 18.7804C129.672 21.4105 131.222 23.1091 133.577 23.1091C135.962 23.1091 137.481 21.4105 137.481 18.7804C137.481 16.1778 135.962 14.4792 133.577 14.4792Z" fill="#C8CCD4"/>
<path d="M143.516 6.01357V26.1776H148.071V5.68481L143.516 6.01357Z" fill="#C8CCD4"/>
<path fill-rule="evenodd" clip-rule="evenodd" d="M149.434 18.7804C149.434 23.4105 152.718 26.5063 157.676 26.5063C162.014 26.5063 164.895 24.6707 165.794 21.4105H161.146C160.65 22.6159 159.473 23.2735 157.769 23.2735C155.755 23.2735 154.484 22.1228 154.113 20.0955H165.825C166.631 14.7257 163.315 11.0545 157.676 11.0545C152.718 11.0545 149.434 14.1504 149.434 18.7804ZM157.769 14.2874C159.783 14.2874 161.053 15.3558 161.425 17.3558H154.113C154.515 15.3832 155.786 14.2874 157.769 14.2874Z" fill="#C8CCD4"/>
<path fill-rule="evenodd" clip-rule="evenodd" d="M107.948 21.794C107.948 24.5885 110.086 26.3967 113.37 26.3967C115.57 26.3967 117.646 25.52 118.483 24.2598H118.669V26.1775H123.224V16.3695C123.224 12.9997 120.652 11.0545 116.221 11.0545C111.914 11.0545 109.033 12.9449 108.692 16.0407H113.37C113.556 14.9175 114.61 14.2326 116.159 14.2326C117.708 14.2326 118.669 14.9175 118.669 16.0407C118.669 16.6435 118.266 16.9722 117.43 17.0818L112.999 17.5202C109.776 17.8489 107.948 19.4105 107.948 21.794ZM118.669 20.0133C118.669 21.7667 116.81 23.2735 114.858 23.2735C113.525 23.2735 112.689 22.6433 112.689 21.6297C112.689 20.7256 113.37 20.1502 114.579 20.0407L117.894 19.7119C118.204 19.6845 118.452 19.6297 118.669 19.4927V20.0133Z" fill="#C8CCD4"/>
<path d="M97.2333 26.1776L91.3151 11.3834H95.8699L100.022 22.4791H100.208L104.329 11.3834H108.667L102.749 26.1776H97.2333Z" fill="#C8CCD4"/>
<path fill-rule="evenodd" clip-rule="evenodd" d="M74.8394 18.7804C74.8394 23.3557 78.3098 26.5063 83.3603 26.5063C88.4109 26.5063 91.8812 23.3557 91.8812 18.7804C91.8812 14.2052 88.4109 11.0545 83.3603 11.0545C78.3098 11.0545 74.8394 14.2052 74.8394 18.7804ZM87.2954 18.7804C87.2954 21.5201 85.8082 23.1639 83.3603 23.1639C80.9125 23.1639 79.4252 21.5201 79.4252 18.7804C79.4252 16.0407 80.9125 14.3969 83.3603 14.3969C85.8082 14.3969 87.2954 16.0407 87.2954 18.7804Z" fill="#C8CCD4"/>
<path d="M63.8386 26.1775V11.3833H68.3934V13.1641H68.5793C69.137 11.7942 70.3455 11.0545 72.0806 11.0545H74.4045L74.7763 15.2188H71.4609C69.4779 15.2188 68.3934 15.9859 68.3934 17.4106V26.1775H63.8386Z" fill="#C8CCD4"/>
<path fill-rule="evenodd" clip-rule="evenodd" d="M45.1172 6.83544V26.1775H49.8889V19.8489H54.1958C59.2154 19.8489 62.4379 17.2736 62.4379 13.3011C62.4379 9.35593 59.2154 6.83544 54.1958 6.83544H45.1172ZM57.6662 13.3832C57.6662 15.0818 56.3028 16.1777 54.1958 16.1777H49.8889V10.5888H54.1958C56.3028 10.5888 57.6662 11.6847 57.6662 13.3832Z" fill="#C8CCD4"/>
</svg>
