<svg width="58" height="58" viewBox="0 0 58 58" fill="none" xmlns="http://www.w3.org/2000/svg">
<path d="M43 57H15C7.26802 57 1.00001 50.732 1.00002 43L1.00006 15C1.00007 7.268 7.2681 1 15.0001 1H43C50.732 1 57 7.26801 57 15V43C57 50.732 50.732 57 43 57Z" fill="url(#paint0_linear_25_79)" stroke="url(#paint1_linear_25_79)" stroke-width="2"/>
<g filter="url(#filter0_d_25_79)">
<path d="M29.0163 16C29.995 16.0107 30.9696 16.124 31.9256 16.3373C32.129 16.3827 32.3131 16.4905 32.4523 16.6457C32.5914 16.8008 32.6786 16.9956 32.7016 17.2027L32.9283 19.2387C32.9603 19.5257 33.0592 19.8012 33.2171 20.0431C33.375 20.2849 33.5875 20.4863 33.8375 20.6311C34.0874 20.7758 34.3678 20.8599 34.6562 20.8765C34.9445 20.8931 35.2327 20.8418 35.4976 20.7267L37.3656 19.9067C37.5553 19.8231 37.7662 19.8006 37.9692 19.8422C38.1723 19.8837 38.3574 19.9873 38.499 20.1387C39.8482 21.5801 40.853 23.3088 41.4376 25.1947C41.4989 25.3928 41.4971 25.6052 41.4323 25.8023C41.3676 25.9994 41.2432 26.1714 41.0763 26.2947L39.4203 27.516C39.1874 27.6871 38.9981 27.9105 38.8675 28.1683C38.737 28.4261 38.669 28.711 38.669 29C38.669 29.289 38.737 29.5739 38.8675 29.8317C38.9981 30.0895 39.1874 30.3129 39.4203 30.484L41.0776 31.704C41.245 31.8271 41.3699 31.9994 41.4349 32.1967C41.4999 32.3941 41.5018 32.6068 41.4403 32.8053C40.8554 34.6911 39.8507 36.4197 38.5016 37.8613C38.3604 38.0123 38.1758 38.1159 37.9734 38.1576C37.7709 38.1994 37.5604 38.1774 37.371 38.0947L35.495 37.272C35.2304 37.156 34.9423 37.1039 34.6539 37.12C34.3654 37.136 34.0849 37.2197 33.8348 37.3644C33.5848 37.509 33.3723 37.7105 33.2146 37.9525C33.0569 38.1945 32.9583 38.4702 32.927 38.7573L32.7016 40.792C32.6789 40.9969 32.5934 41.1897 32.4569 41.3441C32.3204 41.4985 32.1395 41.607 31.939 41.6547C30.0077 42.1141 27.9956 42.1141 26.0643 41.6547C25.8638 41.607 25.6829 41.4985 25.5463 41.3441C25.4098 41.1897 25.3243 40.9969 25.3016 40.792L25.0776 38.76C25.045 38.4736 24.9455 38.1988 24.7874 37.9578C24.6292 37.7168 24.4167 37.5162 24.1669 37.3723C23.9172 37.2283 23.6371 37.145 23.3493 37.129C23.0614 37.1129 22.7738 37.1647 22.5096 37.28L20.635 38.1013C20.4453 38.1844 20.2346 38.2066 20.0318 38.1648C19.8291 38.123 19.6443 38.0193 19.503 37.868C18.1532 36.4248 17.1485 34.6943 16.5643 32.8067C16.5028 32.6082 16.5047 32.3954 16.5697 32.1981C16.6347 32.0007 16.7596 31.8285 16.927 31.7053L18.5843 30.484C18.8174 30.3131 19.007 30.0897 19.1377 29.8319C19.2684 29.574 19.3365 29.2891 19.3365 29C19.3365 28.7109 19.2684 28.426 19.1377 28.1681C19.007 27.9103 18.8174 27.6869 18.5843 27.516L16.927 26.2973C16.7598 26.174 16.6352 26.0017 16.5704 25.8044C16.5057 25.607 16.504 25.3944 16.5656 25.196C17.1503 23.3102 18.1551 21.5815 19.5043 20.14C19.6459 19.9887 19.831 19.885 20.034 19.8435C20.237 19.8019 20.448 19.8245 20.6376 19.908L22.5043 20.728C22.7696 20.843 23.0583 20.8942 23.347 20.8774C23.6357 20.8607 23.9165 20.7764 24.1668 20.6315C24.417 20.4865 24.6298 20.2848 24.788 20.0427C24.9462 19.8006 25.0454 19.5247 25.0776 19.2373L25.3043 17.2027C25.3272 16.9951 25.4144 16.8 25.5538 16.6446C25.6932 16.4891 25.8778 16.3812 26.0816 16.336C27.0376 16.124 28.015 16.012 29.0163 16ZM29.0003 25C27.9394 25 26.922 25.4214 26.1719 26.1716C25.4217 26.9217 25.0003 27.9391 25.0003 29C25.0003 30.0609 25.4217 31.0783 26.1719 31.8284C26.922 32.5786 27.9394 33 29.0003 33C30.0612 33 31.0786 32.5786 31.8287 31.8284C32.5789 31.0783 33.0003 30.0609 33.0003 29C33.0003 27.9391 32.5789 26.9217 31.8287 26.1716C31.0786 25.4214 30.0612 25 29.0003 25Z" fill="white"/>
</g>
<defs>
<filter id="filter0_d_25_79" x="14.1195" y="13.6" width="31.7648" height="32.7995" filterUnits="userSpaceOnUse" color-interpolation-filters="sRGB">
<feFlood flood-opacity="0" result="BackgroundImageFix"/>
<feColorMatrix in="SourceAlpha" type="matrix" values="0 0 0 0 0 0 0 0 0 0 0 0 0 0 0 0 0 0 127 0" result="hardAlpha"/>
<feOffset dx="1" dy="1"/>
<feGaussianBlur stdDeviation="1.7"/>
<feComposite in2="hardAlpha" operator="out"/>
<feColorMatrix type="matrix" values="0 0 0 0 0.832666 0 0 0 0 0.555937 0 0 0 0 0.239676 0 0 0 1 0"/>
<feBlend mode="normal" in2="BackgroundImageFix" result="effect1_dropShadow_25_79"/>
<feBlend mode="normal" in="SourceGraphic" in2="effect1_dropShadow_25_79" result="shape"/>
</filter>
<linearGradient id="paint0_linear_25_79" x1="46.5" y1="56" x2="13" y2="2" gradientUnits="userSpaceOnUse">
<stop offset="0.19791" stop-color="#D09F64"/>
<stop offset="0.816595" stop-color="#FAEF91"/>
<stop offset="1" stop-color="#FBF6C7"/>
</linearGradient>
<linearGradient id="paint1_linear_25_79" x1="19.069" y1="56" x2="33.6098" y2="2.79024" gradientUnits="userSpaceOnUse">
<stop stop-color="#FAEF91"/>
<stop offset="0.623888" stop-color="#D09F64"/>
<stop offset="1" stop-color="#FBF6C7"/>
</linearGradient>
</defs>
</svg>
