<svg width="147" height="146" viewBox="0 0 147 146" fill="none" xmlns="http://www.w3.org/2000/svg">
<g filter="url(#filter0_di_35_3234)">
<path d="M143 72C143 110.66 111.66 142 73 142C34.3401 142 3 110.66 3 72C3 33.3401 34.3401 2 73 2C111.66 2 143 33.3401 143 72ZM8.4877 72C8.4877 107.629 37.3708 136.512 73 136.512C108.629 136.512 137.512 107.629 137.512 72C137.512 36.3708 108.629 7.4877 73 7.4877C37.3708 7.4877 8.4877 36.3708 8.4877 72Z" fill="url(#paint0_linear_35_3234)"/>
</g>
<defs>
<filter id="filter0_di_35_3234" x="0.928822" y="0.520587" width="145.326" height="145.326" filterUnits="userSpaceOnUse" color-interpolation-filters="sRGB">
<feFlood flood-opacity="0" result="BackgroundImageFix"/>
<feColorMatrix in="SourceAlpha" type="matrix" values="0 0 0 0 0 0 0 0 0 0 0 0 0 0 0 0 0 0 127 0" result="hardAlpha"/>
<feOffset dx="0.591765" dy="1.18353"/>
<feGaussianBlur stdDeviation="1.33147"/>
<feComposite in2="hardAlpha" operator="out"/>
<feColorMatrix type="matrix" values="0 0 0 0 0.0991374 0 0 0 0 0.0991374 0 0 0 0 0.0991374 0 0 0 0.75 0"/>
<feBlend mode="normal" in2="BackgroundImageFix" result="effect1_dropShadow_35_3234"/>
<feBlend mode="normal" in="SourceGraphic" in2="effect1_dropShadow_35_3234" result="shape"/>
<feColorMatrix in="SourceAlpha" type="matrix" values="0 0 0 0 0 0 0 0 0 0 0 0 0 0 0 0 0 0 127 0" result="hardAlpha"/>
<feMorphology radius="0.591765" operator="erode" in="SourceAlpha" result="effect2_innerShadow_35_3234"/>
<feOffset/>
<feComposite in2="hardAlpha" operator="arithmetic" k2="-1" k3="1"/>
<feColorMatrix type="matrix" values="0 0 0 0 0 0 0 0 0 0 0 0 0 0 0 0 0 0 0.25 0"/>
<feBlend mode="normal" in2="shape" result="effect2_innerShadow_35_3234"/>
</filter>
<linearGradient id="paint0_linear_35_3234" x1="47.253" y1="2" x2="84.9512" y2="139.951" gradientUnits="userSpaceOnUse">
<stop stop-color="#FAEF91"/>
<stop offset="0.623888" stop-color="#D09F64"/>
<stop offset="1" stop-color="#FBF6C7"/>
</linearGradient>
</defs>
</svg>
