<svg width="41" height="27" viewBox="0 0 41 27" fill="none" xmlns="http://www.w3.org/2000/svg">
<path d="M0.445312 11.943L0.445908 11.9908C0.464832 13.1646 0.800079 14.2831 1.40082 15.3266C1.63796 15.7385 1.91647 16.1387 2.23322 16.526C2.32124 16.6337 2.41222 16.7403 2.50608 16.8459C2.80383 17.1809 3.13062 17.5057 3.4843 17.8193C3.82512 18.1215 4.19091 18.4134 4.57976 18.6942C4.94095 18.9551 5.32203 19.2064 5.72148 19.4475C6.05785 19.6506 6.40725 19.8465 6.76875 20.0348C7.16778 20.2427 7.58155 20.4414 8.00884 20.6305C8.40606 20.8062 8.81495 20.9736 9.23454 21.1322C9.63775 21.2847 10.0508 21.429 10.4729 21.565C10.6702 21.6286 10.8695 21.6903 11.0707 21.7501C11.8933 21.9949 12.7473 22.2083 13.6265 22.388C14.4169 22.5496 15.2276 22.6839 16.0543 22.7892C16.8527 22.891 17.666 22.9657 18.4901 23.0119L18.6305 23.0195C19.3323 23.0559 20.0417 23.0717 20.7564 23.0657C21.5822 23.066 22.4052 23.0358 23.2203 22.9767C24.0604 22.9158 24.8921 22.8242 25.71 22.7035C26.5319 22.5823 27.3398 22.4317 28.1285 22.2534C28.5655 22.1546 28.9966 22.0473 29.4209 21.9317C29.8572 21.8129 30.2862 21.6854 30.707 21.5495C30.819 21.5133 30.9305 21.4766 31.0413 21.4392C31.7002 21.217 32.3378 20.9741 32.95 20.7115C33.2799 20.57 33.6025 20.4227 33.9171 20.27C34.3088 20.0798 34.6881 19.8811 35.0538 19.6741C35.5728 19.3805 36.0643 19.0704 36.5248 18.745C36.6871 18.6303 36.8456 18.5136 37.0001 18.3952C37.408 18.0823 37.7882 17.7563 38.1376 17.4182C38.4284 17.137 38.6979 16.8473 38.9446 16.5497C39.2579 16.1718 39.5344 15.7811 39.7709 15.3785C40.3999 14.3077 40.7455 13.1533 40.7455 11.9341L40.7455 16.003C40.7455 17.1124 40.3991 17.7713 39.7709 18.7813C39.5343 19.1617 39.2577 19.5333 38.9446 19.8948C38.6978 20.1798 38.4282 20.4585 38.1376 20.7303C37.7879 21.0574 37.4077 21.3746 37.0001 21.6805C36.8456 21.7965 36.6871 21.9109 36.5248 22.0236C36.0639 22.3438 35.5723 22.6506 35.0538 22.9426C34.6879 23.1487 34.3085 23.3474 33.9171 23.5383C33.6023 23.6917 33.2797 23.8401 32.95 23.9831C32.337 24.2489 31.6994 24.4963 31.0413 24.7236C30.9967 24.739 30.9519 24.7543 30.9071 24.7695C30.422 24.9344 29.926 25.0883 29.4209 25.2307C28.9962 25.3504 28.5651 25.462 28.1285 25.565C27.3381 25.7514 26.53 25.9099 25.71 26.038C24.8899 26.1662 24.058 26.264 23.2203 26.3292C22.4026 26.3929 21.5794 26.4255 20.7564 26.4249C19.9941 26.4249 19.2377 26.4 18.4901 26.3515C17.666 26.2981 16.8527 26.216 16.0543 26.1073C15.2276 25.9947 14.4168 25.8536 13.6265 25.6859C12.7472 25.4993 11.8932 25.2799 11.0707 25.0306C10.8695 24.9696 10.6702 24.9068 10.4729 24.8423C10.0508 24.7043 9.63769 24.5583 9.23454 24.4047C8.81488 24.2448 8.40598 24.0767 8.00884 23.9008C7.58143 23.7115 7.16765 23.5133 6.76875 23.3067C6.40712 23.1193 6.05772 22.9251 5.72148 22.7244C5.32179 22.4859 4.94069 22.2929 4.57976 22.0368C4.1905 21.7606 3.82469 21.42 3.48431 21.1251C3.12994 20.8182 2.80313 20.5017 2.50608 20.1766C2.41213 20.0738 2.32115 19.9701 2.23322 19.8656C1.91462 19.4869 1.63604 19.0974 1.40082 18.6987C0.818422 17.7114 0.501877 17.1219 0.501877 16.4833L0.445908 11.9908C0.445651 11.9748 0.445453 11.9589 0.445312 11.943Z" fill="#B87F39"/>
<ellipse cx="20.5954" cy="11.9378" rx="20.1501" ry="11.1287" fill="#F1B35D"/>
<ellipse cx="20.5972" cy="11.9378" rx="14.7182" ry="8.12876" fill="#F1B35D" stroke="#D9D9D9" stroke-width="0.226939"/>
<path d="M10.4756 21.5693L2.27344 16.5852V19.9067C4.19621 22.3395 7.50901 23.8238 10.3945 24.8169L10.4756 21.5693Z" fill="#D9D9D9"/>
<path d="M30.7227 21.5825L18.6172 23.0083V26.3481C23.8687 26.7293 28.2344 25.6578 30.8703 24.7856L30.7227 21.5825Z" fill="#D9D9D9"/>
<path d="M40.7422 12.0747L28.7031 15.0284L37.043 18.4028C37.151 21.4991 37.125 21.5903 37.125 21.5903C38.6875 20.3521 40.202 18.8552 40.6317 16.8766C40.8789 15.7382 40.7422 14.2389 40.7422 12.0747Z" fill="#D9D9D9"/>
<path d="M40.7461 11.8981C40.7461 18.0224 31.8946 22.9871 20.7918 22.9871C9.68891 22.9871 0.688265 18.0224 0.688265 11.8981C0.688265 5.77379 9.68891 0.809082 20.7918 0.809082C31.8946 0.809082 40.7461 5.77379 40.7461 11.8981Z" fill="#F1B35D"/>
<path d="M35.7202 11.8981C35.7202 16.4913 28.9697 20.2148 20.6426 20.2148C12.3154 20.2148 5.56494 16.4913 5.56494 11.8981C5.56494 7.30486 12.3154 3.58133 20.6426 3.58133C28.9697 3.58133 35.7202 7.30486 35.7202 11.8981Z" fill="#F1B35D"/>
<path d="M40.7461 11.8981C40.7461 14.2285 39.4688 16.4994 36.9958 18.3888L32.3221 16.5492C34.0941 15.1953 35.0479 13.5679 35.0479 11.8981H40.7461Z" fill="#D9D9D9"/>
<path d="M30.7321 21.5855C27.0733 22.7507 22.8202 23.2488 18.6172 23.0122L19.1796 19.8029C22.1913 19.9724 25.2233 19.6143 27.845 18.7794L30.7321 21.5855Z" fill="#D9D9D9"/>
<path d="M10.4805 21.5708C6.82166 20.4056 4.00341 18.7008 2.27344 16.5747L7.50013 15.1516C8.73975 16.675 10.818 17.9443 13.4397 18.7792L10.4805 21.5708Z" fill="#D9D9D9"/>
<path d="M0.539062 11.8981C0.539063 9.56768 1.87008 7.29651 4.3431 5.40708L8.96309 7.24691C7.19103 8.6008 6.23728 10.2282 6.23728 11.8981H0.539062Z" fill="#D9D9D9"/>
<path d="M10.591 2.29475C14.2498 1.12955 18.4812 0.629791 22.6842 0.866427L22.1055 3.99329C19.0939 3.82373 16.0619 4.18183 13.4401 5.01676L10.591 2.29475Z" fill="#D9D9D9"/>
<path d="M30.7215 2.26573C34.3803 3.43093 37.2903 5.23841 39.0203 7.36447L33.785 8.64445C32.5454 7.121 30.4672 5.85169 27.8454 5.01677L30.7215 2.26573Z" fill="#D9D9D9"/>
</svg>
