<svg width="41" height="27" viewBox="0 0 41 27" fill="none" xmlns="http://www.w3.org/2000/svg">
<path d="M0.109375 11.943L0.10997 11.9908C0.128894 13.1646 0.464142 14.2831 1.06488 15.3266C1.30202 15.7385 1.58053 16.1387 1.89728 16.526C1.98531 16.6337 2.07628 16.7403 2.17014 16.8459C2.46789 17.1809 2.79468 17.5057 3.14837 17.8193C3.48918 18.1215 3.85497 18.4134 4.24382 18.6942C4.60501 18.9551 4.9861 19.2064 5.38554 19.4475C5.72192 19.6506 6.07131 19.8465 6.43281 20.0348C6.83184 20.2427 7.24561 20.4414 7.6729 20.6305C8.07012 20.8062 8.47902 20.9736 8.8986 21.1322C9.30181 21.2847 9.7149 21.429 10.137 21.565C10.3343 21.6286 10.5336 21.6903 10.7347 21.7501C11.5574 21.9949 12.4114 22.2083 13.2906 22.388C14.0809 22.5496 14.8917 22.6839 15.7183 22.7892C16.5168 22.891 17.3301 22.9657 18.1542 23.0119L18.2946 23.0195C18.9964 23.0559 19.7058 23.0717 20.4204 23.0657C21.2463 23.066 22.0693 23.0358 22.8844 22.9767C23.7244 22.9158 24.5561 22.8242 25.3741 22.7035C26.1959 22.5823 27.0039 22.4317 27.7925 22.2534C28.2296 22.1546 28.6607 22.0473 29.085 21.9317C29.5213 21.8129 29.9503 21.6854 30.371 21.5495C30.4831 21.5133 30.5945 21.4766 30.7054 21.4392C31.3643 21.217 32.0019 20.9741 32.614 20.7115C32.944 20.57 33.2666 20.4227 33.5811 20.27C33.9729 20.0798 34.3522 19.8811 34.7179 19.6741C35.2368 19.3805 35.7283 19.0704 36.1889 18.745C36.3512 18.6303 36.5097 18.5136 36.6641 18.3952C37.0721 18.0823 37.4522 17.7563 37.8017 17.4182C38.0924 17.137 38.3619 16.8473 38.6087 16.5497C38.922 16.1718 39.1985 15.7811 39.4349 15.3785C40.064 14.3077 40.4095 13.1533 40.4095 11.9341L40.4095 16.003C40.4095 17.1124 40.0632 17.7713 39.4349 18.7813C39.1983 19.1617 38.9218 19.5333 38.6087 19.8948C38.3618 20.1798 38.0923 20.4585 37.8017 20.7303C37.452 21.0574 37.0718 21.3746 36.6641 21.6805C36.5096 21.7965 36.3512 21.9109 36.1889 22.0236C35.7279 22.3438 35.2364 22.6506 34.7179 22.9426C34.3519 23.1487 33.9726 23.3474 33.5811 23.5383C33.2664 23.6917 32.9438 23.8401 32.614 23.9831C32.0011 24.2489 31.3634 24.4963 30.7054 24.7236C30.6607 24.739 30.616 24.7543 30.5712 24.7695C30.0861 24.9344 29.5901 25.0883 29.085 25.2307C28.6603 25.3504 28.2291 25.462 27.7925 25.565C27.0022 25.7514 26.1941 25.9099 25.3741 26.038C24.554 26.1662 23.7221 26.264 22.8844 26.3292C22.0667 26.3929 21.2435 26.4255 20.4204 26.4249C19.6582 26.4249 18.9017 26.4 18.1542 26.3515C17.3301 26.2981 16.5168 26.216 15.7183 26.1073C14.8917 25.9947 14.0809 25.8536 13.2906 25.6859C12.4113 25.4993 11.5572 25.2799 10.7347 25.0306C10.5336 24.9696 10.3343 24.9068 10.137 24.8423C9.71484 24.7043 9.30176 24.5583 8.8986 24.4047C8.47894 24.2448 8.07004 24.0767 7.6729 23.9008C7.24549 23.7115 6.83171 23.5133 6.43281 23.3067C6.07118 23.1193 5.72178 22.9251 5.38554 22.7244C4.98585 22.4859 4.60475 22.2929 4.24382 22.0368C3.85456 21.7606 3.48875 21.42 3.14837 21.1251C2.794 20.8182 2.46719 20.5017 2.17014 20.1766C2.07619 20.0738 1.98521 19.9701 1.89728 19.8656C1.57868 19.4869 1.3001 19.0974 1.06489 18.6987C0.482484 17.7114 0.16594 17.1219 0.16594 16.4833L0.10997 11.9908C0.109714 11.9748 0.109515 11.9589 0.109375 11.943Z" fill="#2E5C81"/>
<ellipse cx="20.2595" cy="11.9378" rx="20.1501" ry="11.1287" fill="#68BBFF"/>
<ellipse cx="20.2612" cy="11.9378" rx="14.7182" ry="8.12876" fill="#68BBFF" stroke="#D9D9D9" stroke-width="0.226939"/>
<path d="M10.1397 21.5693L1.9375 16.5852V19.9067C3.86027 22.3395 7.17307 23.8238 10.0586 24.8169L10.1397 21.5693Z" fill="#D9D9D9"/>
<path d="M30.3867 21.5825L18.2812 23.0083V26.3481C23.5327 26.7293 27.8985 25.6578 30.5344 24.7856L30.3867 21.5825Z" fill="#D9D9D9"/>
<path d="M40.4062 12.0747L28.3672 15.0284L36.707 18.4028C36.815 21.4991 36.7891 21.5903 36.7891 21.5903C38.3516 20.3521 39.8661 18.8552 40.2957 16.8766C40.543 15.7382 40.4062 14.2389 40.4062 12.0747Z" fill="#D9D9D9"/>
<path d="M40.4102 11.8981C40.4102 18.0224 31.5587 22.9871 20.4558 22.9871C9.35298 22.9871 0.352328 18.0224 0.352328 11.8981C0.352328 5.77379 9.35298 0.809082 20.4558 0.809082C31.5587 0.809082 40.4102 5.77379 40.4102 11.8981Z" fill="#68BBFF"/>
<path d="M35.3843 11.8981C35.3843 16.4913 28.6338 20.2148 20.3066 20.2148C11.9795 20.2148 5.229 16.4913 5.229 11.8981C5.229 7.30486 11.9795 3.58133 20.3066 3.58133C28.6338 3.58133 35.3843 7.30486 35.3843 11.8981Z" fill="#68BBFF"/>
<path d="M40.4102 11.8981C40.4102 14.2285 39.1329 16.4994 36.6599 18.3888L31.9861 16.5492C33.7582 15.1953 34.7119 13.5679 34.7119 11.8981H40.4102Z" fill="#D9D9D9"/>
<path d="M30.3962 21.5855C26.7374 22.7507 22.4842 23.2488 18.2812 23.0122L18.8437 19.8029C21.8554 19.9724 24.8873 19.6143 27.5091 18.7794L30.3962 21.5855Z" fill="#D9D9D9"/>
<path d="M10.1445 21.5708C6.48572 20.4056 3.66747 18.7008 1.9375 16.5747L7.16419 15.1516C8.40381 16.675 10.482 17.9443 13.1038 18.7792L10.1445 21.5708Z" fill="#D9D9D9"/>
<path d="M0.203125 11.8981C0.203125 9.56768 1.53414 7.29651 4.00716 5.40708L8.62715 7.24691C6.85509 8.6008 5.90135 10.2282 5.90135 11.8981H0.203125Z" fill="#D9D9D9"/>
<path d="M10.2551 2.29475C13.9139 1.12955 18.1452 0.629791 22.3482 0.866427L21.7696 3.99329C18.7579 3.82373 15.7259 4.18183 13.1042 5.01676L10.2551 2.29475Z" fill="#D9D9D9"/>
<path d="M30.3856 2.26573C34.0444 3.43093 36.9544 5.23841 38.6844 7.36447L33.4491 8.64445C32.2095 7.121 30.1312 5.85169 27.5095 5.01677L30.3856 2.26573Z" fill="#D9D9D9"/>
</svg>
