<svg width="41" height="27" viewBox="0 0 41 27" fill="none" xmlns="http://www.w3.org/2000/svg">
<path d="M0.570312 11.943L0.570908 11.9908C0.589832 13.1646 0.925079 14.2831 1.52582 15.3266C1.76296 15.7385 2.04147 16.1387 2.35822 16.526C2.44624 16.6337 2.53722 16.7403 2.63108 16.8459C2.92883 17.1809 3.25562 17.5057 3.6093 17.8193C3.95012 18.1215 4.31591 18.4134 4.70476 18.6942C5.06595 18.9551 5.44703 19.2064 5.84648 19.4475C6.18285 19.6506 6.53225 19.8465 6.89375 20.0348C7.29278 20.2427 7.70655 20.4414 8.13384 20.6305C8.53106 20.8062 8.93995 20.9736 9.35954 21.1322C9.76275 21.2847 10.1758 21.429 10.5979 21.565C10.7952 21.6286 10.9945 21.6903 11.1957 21.7501C12.0183 21.9949 12.8723 22.2083 13.7515 22.388C14.5419 22.5496 15.3526 22.6839 16.1793 22.7892C16.9777 22.891 17.791 22.9657 18.6151 23.0119L18.7555 23.0195C19.4573 23.0559 20.1667 23.0717 20.8814 23.0657C21.7072 23.066 22.5302 23.0358 23.3453 22.9767C24.1854 22.9158 25.0171 22.8242 25.835 22.7035C26.6569 22.5823 27.4648 22.4317 28.2535 22.2534C28.6905 22.1546 29.1216 22.0473 29.5459 21.9317C29.9822 21.8129 30.4112 21.6854 30.832 21.5495C30.944 21.5133 31.0555 21.4766 31.1663 21.4392C31.8252 21.217 32.4628 20.9741 33.075 20.7115C33.4049 20.57 33.7275 20.4227 34.0421 20.27C34.4338 20.0798 34.8131 19.8811 35.1788 19.6741C35.6978 19.3805 36.1893 19.0704 36.6498 18.745C36.8121 18.6303 36.9706 18.5136 37.1251 18.3952C37.533 18.0823 37.9132 17.7563 38.2626 17.4182C38.5534 17.137 38.8229 16.8473 39.0696 16.5497C39.3829 16.1718 39.6594 15.7811 39.8959 15.3785C40.5249 14.3077 40.8705 13.1533 40.8705 11.9341L40.8705 16.003C40.8705 17.1124 40.5241 17.7713 39.8959 18.7813C39.6593 19.1617 39.3827 19.5333 39.0696 19.8948C38.8228 20.1798 38.5532 20.4585 38.2626 20.7303C37.9129 21.0574 37.5327 21.3746 37.1251 21.6805C36.9706 21.7965 36.8121 21.9109 36.6498 22.0236C36.1889 22.3438 35.6973 22.6506 35.1788 22.9426C34.8129 23.1487 34.4335 23.3474 34.0421 23.5383C33.7273 23.6917 33.4047 23.8401 33.075 23.9831C32.462 24.2489 31.8244 24.4963 31.1663 24.7236C31.1217 24.739 31.0769 24.7543 31.0321 24.7695C30.547 24.9344 30.051 25.0883 29.5459 25.2307C29.1212 25.3504 28.6901 25.462 28.2535 25.565C27.4631 25.7514 26.655 25.9099 25.835 26.038C25.0149 26.1662 24.183 26.264 23.3453 26.3292C22.5276 26.3929 21.7044 26.4255 20.8814 26.4249C20.1191 26.4249 19.3627 26.4 18.6151 26.3515C17.791 26.2981 16.9777 26.216 16.1793 26.1073C15.3526 25.9947 14.5418 25.8536 13.7515 25.6859C12.8722 25.4993 12.0182 25.2799 11.1957 25.0306C10.9945 24.9696 10.7952 24.9068 10.5979 24.8423C10.1758 24.7043 9.76269 24.5583 9.35954 24.4047C8.93988 24.2448 8.53098 24.0767 8.13384 23.9008C7.70643 23.7115 7.29265 23.5133 6.89375 23.3067C6.53212 23.1193 6.18272 22.9251 5.84648 22.7244C5.44679 22.4859 5.06569 22.2929 4.70476 22.0368C4.3155 21.7606 3.94969 21.42 3.60931 21.1251C3.25494 20.8182 2.92813 20.5017 2.63108 20.1766C2.53713 20.0738 2.44615 19.9701 2.35822 19.8656C2.03962 19.4869 1.76104 19.0974 1.52582 18.6987C0.943422 17.7114 0.626877 17.1219 0.626877 16.4833L0.570908 11.9908C0.570651 11.9748 0.570453 11.9589 0.570312 11.943Z" fill="#339C75"/>
<ellipse cx="20.7204" cy="11.9378" rx="20.1501" ry="11.1287" fill="#35C08D"/>
<ellipse cx="20.7222" cy="11.9378" rx="14.7182" ry="8.12876" fill="#35C08D" stroke="#D9D9D9" stroke-width="0.226939"/>
<path d="M10.6006 21.5693L2.39844 16.5852V19.9067C4.32121 22.3395 7.63401 23.8238 10.5195 24.8169L10.6006 21.5693Z" fill="#D9D9D9"/>
<path d="M30.8477 21.5825L18.7422 23.0083V26.3481C23.9937 26.7293 28.3594 25.6578 30.9953 24.7856L30.8477 21.5825Z" fill="#D9D9D9"/>
<path d="M40.8672 12.0747L28.8281 15.0284L37.168 18.4028C37.276 21.4991 37.25 21.5903 37.25 21.5903C38.8125 20.3521 40.327 18.8552 40.7567 16.8766C41.0039 15.7382 40.8672 14.2389 40.8672 12.0747Z" fill="#D9D9D9"/>
<path d="M40.8711 11.8981C40.8711 18.0224 32.0196 22.9871 20.9168 22.9871C9.81391 22.9871 0.813265 18.0224 0.813265 11.8981C0.813265 5.77379 9.81391 0.809082 20.9168 0.809082C32.0196 0.809082 40.8711 5.77379 40.8711 11.8981Z" fill="#35C08D"/>
<path d="M35.8452 11.8981C35.8452 16.4913 29.0947 20.2148 20.7676 20.2148C12.4404 20.2148 5.68994 16.4913 5.68994 11.8981C5.68994 7.30486 12.4404 3.58133 20.7676 3.58133C29.0947 3.58133 35.8452 7.30486 35.8452 11.8981Z" fill="#35C08D"/>
<path d="M40.8711 11.8981C40.8711 14.2285 39.5938 16.4994 37.1208 18.3888L32.4471 16.5492C34.2191 15.1953 35.1729 13.5679 35.1729 11.8981H40.8711Z" fill="#D9D9D9"/>
<path d="M30.8571 21.5855C27.1983 22.7507 22.9452 23.2488 18.7422 23.0122L19.3046 19.8029C22.3163 19.9724 25.3483 19.6143 27.97 18.7794L30.8571 21.5855Z" fill="#D9D9D9"/>
<path d="M10.6055 21.5708C6.94666 20.4056 4.12841 18.7008 2.39844 16.5747L7.62513 15.1516C8.86475 16.675 10.943 17.9443 13.5647 18.7792L10.6055 21.5708Z" fill="#D9D9D9"/>
<path d="M0.664062 11.8981C0.664063 9.56768 1.99508 7.29651 4.4681 5.40708L9.08809 7.24691C7.31603 8.6008 6.36228 10.2282 6.36228 11.8981H0.664062Z" fill="#D9D9D9"/>
<path d="M10.716 2.29475C14.3748 1.12955 18.6062 0.629791 22.8092 0.866427L22.2305 3.99329C19.2189 3.82373 16.1869 4.18183 13.5651 5.01676L10.716 2.29475Z" fill="#D9D9D9"/>
<path d="M30.8465 2.26573C34.5053 3.43093 37.4153 5.23841 39.1453 7.36447L33.91 8.64445C32.6704 7.121 30.5922 5.85169 27.9704 5.01677L30.8465 2.26573Z" fill="#D9D9D9"/>
</svg>
