<svg width="42" height="27" viewBox="0 0 42 27" fill="none" xmlns="http://www.w3.org/2000/svg">
<path d="M0.96875 11.943L0.969345 11.9908C0.988269 13.1646 1.32352 14.2831 1.92426 15.3266C2.1614 15.7385 2.43991 16.1387 2.75666 16.526C2.84468 16.6337 2.93566 16.7403 3.02952 16.8459C3.32726 17.1809 3.65405 17.5057 4.00774 17.8193C4.34856 18.1215 4.71435 18.4134 5.1032 18.6942C5.46439 18.9551 5.84547 19.2064 6.24492 19.4475C6.58129 19.6506 6.93069 19.8465 7.29219 20.0348C7.69121 20.2427 8.10499 20.4414 8.53228 20.6305C8.92949 20.8062 9.33839 20.9736 9.75797 21.1322C10.1612 21.2847 10.5743 21.429 10.9963 21.565C11.1937 21.6286 11.393 21.6903 11.5941 21.7501C12.4167 21.9949 13.2707 22.2083 14.1499 22.388C14.9403 22.5496 15.751 22.6839 16.5777 22.7892C17.3761 22.891 18.1894 22.9657 19.0136 23.0119L19.154 23.0195C19.8557 23.0559 20.5652 23.0717 21.2798 23.0657C22.1057 23.066 22.9286 23.0358 23.7438 22.9767C24.5838 22.9158 25.4155 22.8242 26.2335 22.7035C27.0553 22.5823 27.8633 22.4317 28.6519 22.2534C29.089 22.1546 29.5201 22.0473 29.9443 21.9317C30.3806 21.8129 30.8097 21.6854 31.2304 21.5495C31.3425 21.5133 31.4539 21.4766 31.5647 21.4392C32.2237 21.217 32.8612 20.9741 33.4734 20.7115C33.8034 20.57 34.1259 20.4227 34.4405 20.27C34.8322 20.0798 35.2116 19.8811 35.5773 19.6741C36.0962 19.3805 36.5877 19.0704 37.0483 18.745C37.2106 18.6303 37.369 18.5136 37.5235 18.3952C37.9315 18.0823 38.3116 17.7563 38.6611 17.4182C38.9518 17.137 39.2213 16.8473 39.468 16.5497C39.7813 16.1718 40.0579 15.7811 40.2943 15.3785C40.9234 14.3077 41.2689 13.1533 41.2689 11.9341L41.2689 16.003C41.2689 17.1124 40.9225 17.7713 40.2943 18.7813C40.0577 19.1617 39.7811 19.5333 39.468 19.8948C39.2212 20.1798 38.9516 20.4585 38.6611 20.7303C38.3114 21.0574 37.9312 21.3746 37.5235 21.6805C37.369 21.7965 37.2105 21.9109 37.0483 22.0236C36.5873 22.3438 36.0957 22.6506 35.5773 22.9426C35.2113 23.1487 34.832 23.3474 34.4405 23.5383C34.1257 23.6917 33.8031 23.8401 33.4734 23.9831C32.8605 24.2489 32.2228 24.4963 31.5647 24.7236C31.5201 24.739 31.4754 24.7543 31.4306 24.7695C30.9454 24.9344 30.4495 25.0883 29.9443 25.2307C29.5197 25.3504 29.0885 25.462 28.6519 25.565C27.8616 25.7514 27.0534 25.9099 26.2335 26.038C25.4134 26.1662 24.5815 26.264 23.7438 26.3292C22.9261 26.3929 22.1029 26.4255 21.2798 26.4249C20.5175 26.4249 19.7611 26.4 19.0136 26.3515C18.1895 26.2981 17.3762 26.216 16.5777 26.1073C15.751 25.9947 14.9403 25.8536 14.1499 25.6859C13.2706 25.4993 12.4166 25.2799 11.5941 25.0306C11.3929 24.9696 11.1937 24.9068 10.9963 24.8423C10.5742 24.7043 10.1611 24.5583 9.75797 24.4047C9.33831 24.2448 8.92941 24.0767 8.53228 23.9008C8.10487 23.7115 7.69109 23.5133 7.29219 23.3067C6.93056 23.1193 6.58116 22.9251 6.24492 22.7244C5.84523 22.4859 5.46413 22.2929 5.1032 22.0368C4.71394 21.7606 4.34813 21.42 4.00774 21.1251C3.65338 20.8182 3.32656 20.5017 3.02952 20.1766C2.93556 20.0738 2.84459 19.9701 2.75666 19.8656C2.43805 19.4869 2.15947 19.0974 1.92426 18.6987C1.34186 17.7114 1.02531 17.1219 1.02531 16.4833L0.969345 11.9908C0.969089 11.9748 0.96889 11.9589 0.96875 11.943Z" fill="#B2414A"/>
<ellipse cx="21.1189" cy="11.9378" rx="20.1501" ry="11.1287" fill="#F9606C"/>
<ellipse cx="21.1206" cy="11.9378" rx="14.7182" ry="8.12876" fill="#F9606C" stroke="#D9D9D9" stroke-width="0.226939"/>
<path d="M10.9991 21.5693L2.79688 16.5852V19.9067C4.71964 22.3395 8.03244 23.8238 10.918 24.8169L10.9991 21.5693Z" fill="#D9D9D9"/>
<path d="M31.2461 21.5825L19.1406 23.0083V26.3481C24.3921 26.7293 28.7579 25.6578 31.3937 24.7856L31.2461 21.5825Z" fill="#D9D9D9"/>
<path d="M41.2656 12.0747L29.2266 15.0284L37.5664 18.4028C37.6744 21.4991 37.6484 21.5903 37.6484 21.5903C39.2109 20.3521 40.7255 18.8552 41.1551 16.8766C41.4023 15.7382 41.2656 14.2389 41.2656 12.0747Z" fill="#D9D9D9"/>
<path d="M41.2695 11.8981C41.2695 18.0224 32.4181 22.9871 21.3152 22.9871C10.2124 22.9871 1.2117 18.0224 1.2117 11.8981C1.2117 5.77379 10.2124 0.809082 21.3152 0.809082C32.4181 0.809082 41.2695 5.77379 41.2695 11.8981Z" fill="#F9606C"/>
<path d="M36.2436 11.8981C36.2436 16.4913 29.4932 20.2148 21.166 20.2148C12.8389 20.2148 6.08838 16.4913 6.08838 11.8981C6.08838 7.30486 12.8389 3.58133 21.166 3.58133C29.4932 3.58133 36.2436 7.30486 36.2436 11.8981Z" fill="#F9606C"/>
<path d="M41.2695 11.8981C41.2695 14.2285 39.9923 16.4994 37.5192 18.3888L32.8455 16.5492C34.6176 15.1953 35.5713 13.5679 35.5713 11.8981H41.2695Z" fill="#D9D9D9"/>
<path d="M31.2555 21.5855C27.5967 22.7507 23.3436 23.2488 19.1406 23.0122L19.7031 19.8029C22.7147 19.9724 25.7467 19.6143 28.3685 18.7794L31.2555 21.5855Z" fill="#D9D9D9"/>
<path d="M11.0039 21.5708C7.3451 20.4056 4.52684 18.7008 2.79688 16.5747L8.02357 15.1516C9.26319 16.675 11.3414 17.9443 13.9632 18.7792L11.0039 21.5708Z" fill="#D9D9D9"/>
<path d="M1.0625 11.8981C1.0625 9.56768 2.39351 7.29651 4.86654 5.40708L9.48653 7.24691C7.71447 8.6008 6.76072 10.2282 6.76072 11.8981H1.0625Z" fill="#D9D9D9"/>
<path d="M11.1145 2.29475C14.7733 1.12955 19.0046 0.629791 23.2076 0.866427L22.629 3.99329C19.6173 3.82373 16.5853 4.18183 13.9636 5.01676L11.1145 2.29475Z" fill="#D9D9D9"/>
<path d="M31.245 2.26573C34.9038 3.43093 37.8138 5.23841 39.5437 7.36447L34.3085 8.64445C33.0688 7.121 30.9906 5.85169 28.3689 5.01677L31.245 2.26573Z" fill="#D9D9D9"/>
</svg>
