<svg width="29" height="30" viewBox="0 0 29 30" fill="none" xmlns="http://www.w3.org/2000/svg">
<path d="M17.4277 4.85775C17.6541 5.1256 17.7785 5.46457 17.7785 5.81538V24.1881C17.7786 24.4708 17.6978 24.7475 17.5457 24.9857C17.3936 25.2239 17.1765 25.4136 16.9201 25.5325C16.6637 25.6514 16.3786 25.6944 16.0985 25.6565C15.8184 25.6187 15.555 25.5015 15.3394 25.3188L9.45258 20.3339H5.03776C4.33052 20.3339 3.65224 20.0529 3.15214 19.5529C2.65205 19.0528 2.37109 18.3745 2.37109 17.6672V12.3339C2.37109 11.6267 2.65205 10.9484 3.15214 10.4483C3.65224 9.94819 4.33052 9.66723 5.03776 9.66723H9.45258L15.3406 4.68472C15.6405 4.43119 16.0288 4.30712 16.4202 4.33979C16.8116 4.37246 17.1739 4.55919 17.4277 4.85894V4.85775ZM20.2721 11.0183C20.4733 10.8959 20.7149 10.8584 20.9438 10.9139C21.1727 10.9695 21.3702 11.1136 21.4929 11.3146C22.1732 12.4287 22.5145 13.6755 22.5145 15.0361C22.5145 16.3979 22.1732 17.6447 21.4929 18.7588C21.4338 18.8618 21.3546 18.9519 21.2601 19.0238C21.1656 19.0957 21.0577 19.148 20.9427 19.1775C20.8276 19.207 20.7079 19.2131 20.5904 19.1956C20.473 19.178 20.3602 19.1371 20.2589 19.0752C20.1575 19.0134 20.0696 18.9319 20.0002 18.8355C19.9309 18.739 19.8816 18.6297 19.8552 18.5139C19.8288 18.3982 19.8259 18.2783 19.8466 18.1613C19.8673 18.0444 19.9113 17.9328 19.9758 17.8332C20.4831 17.0012 20.7367 16.0755 20.7367 15.0361C20.7367 13.9979 20.4831 13.0723 19.9758 12.2403C19.8534 12.0391 19.8159 11.7975 19.8714 11.5686C19.927 11.3397 20.0711 11.1411 20.2721 11.0183Z" fill="white"/>
</svg>
