<svg width="348" height="462" viewBox="0 0 348 462" fill="none" xmlns="http://www.w3.org/2000/svg">
<g filter="url(#filter0_d_26_581)">
<rect x="34" y="29" width="280" height="394" rx="20" fill="#F2F2F2"/>
<rect x="34.5" y="29.5" width="279" height="393" rx="19.5" stroke="#D2D2D2"/>
</g>
<path d="M80.8945 68.0078V125H69.6445V80.9766L56.1289 85.2734V76.4062L79.6836 68.0078H80.8945Z" fill="#050505"/>
<path d="M137.691 91.5625V101.406C137.691 105.677 137.236 109.362 136.324 112.461C135.413 115.534 134.098 118.06 132.379 120.039C130.686 121.992 128.668 123.437 126.324 124.375C123.98 125.312 121.376 125.781 118.512 125.781C116.22 125.781 114.085 125.495 112.105 124.922C110.126 124.323 108.342 123.398 106.754 122.148C105.191 120.898 103.837 119.323 102.691 117.422C101.572 115.495 100.712 113.203 100.113 110.547C99.5143 107.891 99.2148 104.844 99.2148 101.406V91.5625C99.2148 87.2917 99.6706 83.6328 100.582 80.5859C101.52 77.513 102.835 75 104.527 73.0469C106.246 71.0937 108.277 69.6615 110.621 68.75C112.965 67.8125 115.569 67.3438 118.434 67.3438C120.725 67.3438 122.848 67.6432 124.801 68.2422C126.78 68.8151 128.564 69.7135 130.152 70.9375C131.741 72.1615 133.095 73.737 134.215 75.6641C135.335 77.5651 136.194 79.8437 136.793 82.5C137.392 85.1302 137.691 88.151 137.691 91.5625ZM126.402 102.891V90.0391C126.402 87.9818 126.285 86.1849 126.051 84.6484C125.842 83.112 125.517 81.8099 125.074 80.7422C124.632 79.6484 124.085 78.763 123.434 78.0859C122.783 77.4089 122.04 76.9141 121.207 76.6016C120.374 76.2891 119.449 76.1328 118.434 76.1328C117.158 76.1328 116.025 76.3802 115.035 76.875C114.072 77.3698 113.251 78.1641 112.574 79.2578C111.897 80.3255 111.376 81.7578 111.012 83.5547C110.673 85.3255 110.504 87.487 110.504 90.0391V102.891C110.504 104.948 110.608 106.758 110.816 108.32C111.051 109.883 111.389 111.224 111.832 112.344C112.301 113.437 112.848 114.336 113.473 115.039C114.124 115.716 114.866 116.211 115.699 116.523C116.559 116.836 117.496 116.992 118.512 116.992C119.762 116.992 120.868 116.745 121.832 116.25C122.822 115.729 123.655 114.922 124.332 113.828C125.035 112.708 125.556 111.25 125.895 109.453C126.233 107.656 126.402 105.469 126.402 102.891Z" fill="#050505"/>
<path d="M126.863 228.898V399.875H93.1133V267.805L52.5664 280.695V254.094L123.23 228.898H126.863Z" fill="#050505"/>
<path d="M297.254 299.562V329.094C297.254 341.906 295.887 352.961 293.152 362.258C290.418 371.477 286.473 379.055 281.316 384.992C276.238 390.852 270.184 395.187 263.152 398C256.121 400.812 248.309 402.219 239.715 402.219C232.84 402.219 226.434 401.359 220.496 399.641C214.559 397.844 209.207 395.07 204.441 391.32C199.754 387.57 195.691 382.844 192.254 377.141C188.895 371.359 186.316 364.484 184.52 356.516C182.723 348.547 181.824 339.406 181.824 329.094V299.562C181.824 286.75 183.191 275.773 185.926 266.633C188.738 257.414 192.684 249.875 197.762 244.016C202.918 238.156 209.012 233.859 216.043 231.125C223.074 228.312 230.887 226.906 239.48 226.906C246.355 226.906 252.723 227.805 258.582 229.602C264.52 231.32 269.871 234.016 274.637 237.687C279.402 241.359 283.465 246.086 286.824 251.867C290.184 257.57 292.762 264.406 294.559 272.375C296.355 280.266 297.254 289.328 297.254 299.562ZM263.387 333.547V294.992C263.387 288.82 263.035 283.43 262.332 278.82C261.707 274.211 260.73 270.305 259.402 267.102C258.074 263.82 256.434 261.164 254.48 259.133C252.527 257.102 250.301 255.617 247.801 254.68C245.301 253.742 242.527 253.273 239.48 253.273C235.652 253.273 232.254 254.016 229.285 255.5C226.395 256.984 223.934 259.367 221.902 262.648C219.871 265.852 218.309 270.148 217.215 275.539C216.199 280.852 215.691 287.336 215.691 294.992V333.547C215.691 339.719 216.004 345.148 216.629 349.836C217.332 354.523 218.348 358.547 219.676 361.906C221.082 365.187 222.723 367.883 224.598 369.992C226.551 372.023 228.777 373.508 231.277 374.445C233.855 375.383 236.668 375.852 239.715 375.852C243.465 375.852 246.785 375.109 249.676 373.625C252.645 372.062 255.145 369.641 257.176 366.359C259.285 363 260.848 358.625 261.863 353.234C262.879 347.844 263.387 341.281 263.387 333.547Z" fill="#050505"/>
<path fill-rule="evenodd" clip-rule="evenodd" d="M110.755 176.289C109.056 176.289 107.437 176.659 105.961 177.329C107.347 175.139 108.161 172.487 108.161 169.627C108.161 162.122 102.571 156.038 95.6757 156.038C88.7806 156.038 83.191 162.122 83.191 169.627C83.191 172.35 83.9297 174.884 85.1967 177.01C83.937 176.545 82.5881 176.289 81.1839 176.289C74.2886 176.289 68.6992 182.373 68.6992 189.878C68.6992 197.383 74.2886 203.467 81.1839 203.467C82.7411 203.467 84.2306 203.154 85.6053 202.587C85.6051 202.59 91.4156 200.883 95.2351 193.315V197.872C95.2351 197.872 93.2768 212.234 79.4703 213.806H77.2669V216.044H114.868V213.806H112.665C98.8582 212.234 96.8996 197.872 96.8996 197.872V193.622C97.611 195.327 101.544 203.665 110.384 203.458C110.508 203.461 110.631 203.467 110.755 203.467C117.65 203.467 123.24 197.383 123.24 189.878C123.24 182.373 117.65 176.289 110.755 176.289Z" fill="#1A1919"/>
<defs>
<filter id="filter0_d_26_581" x="0" y="0" width="348" height="462" filterUnits="userSpaceOnUse" color-interpolation-filters="sRGB">
<feFlood flood-opacity="0" result="BackgroundImageFix"/>
<feColorMatrix in="SourceAlpha" type="matrix" values="0 0 0 0 0 0 0 0 0 0 0 0 0 0 0 0 0 0 127 0" result="hardAlpha"/>
<feOffset dy="5"/>
<feGaussianBlur stdDeviation="17"/>
<feColorMatrix type="matrix" values="0 0 0 0 0 0 0 0 0 0 0 0 0 0 0 0 0 0 0.1 0"/>
<feBlend mode="normal" in2="BackgroundImageFix" result="effect1_dropShadow_26_581"/>
<feBlend mode="normal" in="SourceGraphic" in2="effect1_dropShadow_26_581" result="shape"/>
</filter>
</defs>
</svg>
