<svg width="348" height="462" viewBox="0 0 348 462" fill="none" xmlns="http://www.w3.org/2000/svg">
<g filter="url(#filter0_d_26_756)">
<rect x="34" y="29" width="280" height="394" rx="20" fill="#F2F2F2"/>
<rect x="34.5" y="29.5" width="279" height="393" rx="19.5" stroke="#D2D2D2"/>
</g>
<path d="M80.8945 68.0081V125H69.6445V80.9768L56.1289 85.2737V76.4065L79.6836 68.0081H80.8945Z" fill="#F24822"/>
<path d="M137.691 91.5627V101.406C137.691 105.677 137.236 109.362 136.324 112.461C135.413 115.534 134.098 118.06 132.379 120.039C130.686 121.992 128.668 123.438 126.324 124.375C123.98 125.313 121.376 125.781 118.512 125.781C116.22 125.781 114.085 125.495 112.105 124.922C110.126 124.323 108.342 123.399 106.754 122.149C105.191 120.899 103.837 119.323 102.691 117.422C101.572 115.495 100.712 113.203 100.113 110.547C99.5143 107.891 99.2148 104.844 99.2148 101.406V91.5627C99.2148 87.2919 99.6706 83.6331 100.582 80.5862C101.52 77.5133 102.835 75.0002 104.527 73.0471C106.246 71.094 108.277 69.6617 110.621 68.7502C112.965 67.8127 115.569 67.344 118.434 67.344C120.725 67.344 122.848 67.6435 124.801 68.2424C126.78 68.8153 128.564 69.7138 130.152 70.9377C131.741 72.1617 133.095 73.7372 134.215 75.6643C135.335 77.5653 136.194 79.844 136.793 82.5002C137.392 85.1305 137.691 88.1513 137.691 91.5627ZM126.402 102.891V90.0393C126.402 87.982 126.285 86.1851 126.051 84.6487C125.842 83.1122 125.517 81.8101 125.074 80.7424C124.632 79.6487 124.085 78.7633 123.434 78.0862C122.783 77.4091 122.04 76.9143 121.207 76.6018C120.374 76.2893 119.449 76.1331 118.434 76.1331C117.158 76.1331 116.025 76.3805 115.035 76.8752C114.072 77.37 113.251 78.1643 112.574 79.2581C111.897 80.3258 111.376 81.7581 111.012 83.5549C110.673 85.3258 110.504 87.4872 110.504 90.0393V102.891C110.504 104.948 110.608 106.758 110.816 108.321C111.051 109.883 111.389 111.224 111.832 112.344C112.301 113.438 112.848 114.336 113.473 115.039C114.124 115.716 114.866 116.211 115.699 116.524C116.559 116.836 117.496 116.992 118.512 116.992C119.762 116.992 120.868 116.745 121.832 116.25C122.822 115.729 123.655 114.922 124.332 113.828C125.035 112.709 125.556 111.25 125.895 109.453C126.233 107.656 126.402 105.469 126.402 102.891Z" fill="#F24822"/>
<path d="M126.863 228.899V399.875H93.1133V267.805L52.5664 280.696V254.094L123.23 228.899H126.863Z" fill="#F24822"/>
<path d="M297.254 299.563V329.094C297.254 341.907 295.887 352.961 293.152 362.258C290.418 371.477 286.473 379.055 281.316 384.993C276.238 390.852 270.184 395.188 263.152 398C256.121 400.813 248.309 402.219 239.715 402.219C232.84 402.219 226.434 401.36 220.496 399.641C214.559 397.844 209.207 395.071 204.441 391.321C199.754 387.571 195.691 382.844 192.254 377.141C188.895 371.36 186.316 364.485 184.52 356.516C182.723 348.547 181.824 339.407 181.824 329.094V299.563C181.824 286.75 183.191 275.774 185.926 266.633C188.738 257.415 192.684 249.875 197.762 244.016C202.918 238.157 209.012 233.86 216.043 231.125C223.074 228.313 230.887 226.907 239.48 226.907C246.355 226.907 252.723 227.805 258.582 229.602C264.52 231.321 269.871 234.016 274.637 237.688C279.402 241.36 283.465 246.086 286.824 251.868C290.184 257.571 292.762 264.407 294.559 272.375C296.355 280.266 297.254 289.329 297.254 299.563ZM263.387 333.547V294.993C263.387 288.821 263.035 283.43 262.332 278.821C261.707 274.211 260.73 270.305 259.402 267.102C258.074 263.821 256.434 261.165 254.48 259.133C252.527 257.102 250.301 255.618 247.801 254.68C245.301 253.743 242.527 253.274 239.48 253.274C235.652 253.274 232.254 254.016 229.285 255.5C226.395 256.985 223.934 259.368 221.902 262.649C219.871 265.852 218.309 270.149 217.215 275.54C216.199 280.852 215.691 287.336 215.691 294.993V333.547C215.691 339.719 216.004 345.149 216.629 349.836C217.332 354.524 218.348 358.547 219.676 361.907C221.082 365.188 222.723 367.883 224.598 369.993C226.551 372.024 228.777 373.508 231.277 374.446C233.855 375.383 236.668 375.852 239.715 375.852C243.465 375.852 246.785 375.11 249.676 373.625C252.645 372.063 255.145 369.641 257.176 366.36C259.285 363 260.848 358.625 261.863 353.235C262.879 347.844 263.387 341.282 263.387 333.547Z" fill="#F24822"/>
<path fill-rule="evenodd" clip-rule="evenodd" d="M67.2305 185.628L96.5042 215.831L125.778 185.628L96.5042 155.425L67.2305 185.628Z" fill="#F24822"/>
<defs>
<filter id="filter0_d_26_756" x="0" y="0" width="348" height="462" filterUnits="userSpaceOnUse" color-interpolation-filters="sRGB">
<feFlood flood-opacity="0" result="BackgroundImageFix"/>
<feColorMatrix in="SourceAlpha" type="matrix" values="0 0 0 0 0 0 0 0 0 0 0 0 0 0 0 0 0 0 127 0" result="hardAlpha"/>
<feOffset dy="5"/>
<feGaussianBlur stdDeviation="17"/>
<feColorMatrix type="matrix" values="0 0 0 0 0 0 0 0 0 0 0 0 0 0 0 0 0 0 0.1 0"/>
<feBlend mode="normal" in2="BackgroundImageFix" result="effect1_dropShadow_26_756"/>
<feBlend mode="normal" in="SourceGraphic" in2="effect1_dropShadow_26_756" result="shape"/>
</filter>
</defs>
</svg>
