<svg width="351" height="464" viewBox="0 0 351 464" fill="none" xmlns="http://www.w3.org/2000/svg">
<g filter="url(#filter0_d_26_574)">
<rect x="36.125" y="29" width="280" height="394" rx="20" transform="rotate(0.308765 36.125 29)" fill="#F2F2F2"/>
<rect x="36.6223" y="29.5027" width="279" height="393" rx="19.5" transform="rotate(0.308765 36.6223 29.5027)" stroke="#D2D2D2"/>
</g>
<path d="M82.8036 68.26L82.4965 125.251L71.2467 125.191L71.4839 81.1679L57.9453 85.3919L57.9931 76.5248L81.5927 68.2535L82.8036 68.26Z" fill="#F24822"/>
<path d="M139.473 92.1204L139.42 101.964C139.397 106.235 138.921 109.917 137.993 113.011C137.065 116.079 135.736 118.598 134.007 120.568C132.304 122.512 130.278 123.946 127.929 124.871C125.58 125.796 122.973 126.251 120.109 126.235C117.817 126.223 115.683 125.925 113.707 125.341C111.731 124.732 109.953 123.798 108.371 122.539C106.815 121.281 105.469 119.698 104.334 117.791C103.225 115.858 102.377 113.561 101.793 110.902C101.208 108.243 100.925 105.194 100.944 101.757L100.997 91.9131C101.02 87.6423 101.495 83.9859 102.423 80.944C103.377 77.8762 104.706 75.3703 106.409 73.4263C108.138 71.4825 110.177 70.0612 112.526 69.1624C114.875 68.2375 117.481 67.7828 120.346 67.7982C122.637 67.8106 124.758 68.1215 126.708 68.731C128.684 69.3145 130.463 70.2226 132.045 71.4551C133.627 72.6876 134.973 74.2704 136.082 76.2035C137.191 78.1105 138.039 80.3938 138.623 83.0532C139.208 85.6866 139.491 88.709 139.473 92.1204ZM128.123 103.388L128.192 90.5362C128.203 88.4789 128.096 86.6814 127.87 85.1437C127.669 83.6062 127.351 82.3023 126.914 81.2323C126.477 80.1361 125.935 79.2478 125.288 78.5672C124.64 77.8866 123.901 77.3878 123.069 77.0709C122.238 76.7539 121.314 76.5926 120.298 76.5872C119.022 76.5803 117.888 76.8216 116.896 77.311C115.93 77.8006 115.105 78.5905 114.422 79.6805C113.739 80.7446 113.211 82.1741 112.837 83.9689C112.489 85.7379 112.308 87.8984 112.294 90.4505L112.225 103.302C112.213 105.359 112.308 107.17 112.508 108.733C112.734 110.297 113.065 111.64 113.502 112.762C113.965 113.858 114.507 114.76 115.128 115.466C115.775 116.147 116.515 116.645 117.346 116.962C118.204 117.28 119.141 117.441 120.156 117.446C121.406 117.453 122.514 117.212 123.481 116.722C124.473 116.207 125.311 115.404 125.994 114.314C126.703 113.198 127.231 111.742 127.58 109.947C127.928 108.152 128.109 105.966 128.123 103.388Z" fill="#F24822"/>
<path d="M128.993 228.746L128.072 399.72L94.322 399.538L95.0337 267.47L54.418 280.142L54.5613 253.541L125.36 228.727L128.993 228.746Z" fill="#F24822"/>
<path d="M299 300.328L298.841 329.858C298.772 342.671 297.345 353.718 294.561 363C291.777 372.204 287.791 379.76 282.603 385.67C277.493 391.502 271.415 395.805 264.369 398.58C257.322 401.354 249.502 402.719 240.909 402.672C234.034 402.635 227.632 401.741 221.704 399.991C215.777 398.162 210.44 395.359 205.695 391.584C201.027 387.809 196.99 383.06 193.584 377.339C190.256 371.539 187.715 364.651 185.961 356.672C184.207 348.694 183.358 339.549 183.413 329.236L183.572 299.705C183.641 286.893 185.068 275.924 187.851 266.798C190.713 257.595 194.699 250.077 199.809 244.245C204.997 238.414 211.113 234.15 218.159 231.453C225.206 228.679 233.026 227.315 241.619 227.361C248.494 227.398 254.856 228.331 260.706 230.159C266.634 231.91 271.971 234.634 276.717 238.332C281.463 242.029 285.5 246.777 288.828 252.577C292.156 258.298 294.698 265.148 296.451 273.126C298.206 281.026 299.055 290.093 299 300.328ZM264.95 334.129L265.158 295.575C265.191 289.403 264.869 284.011 264.191 279.397C263.591 274.785 262.635 270.873 261.324 267.663C260.014 264.375 258.387 261.71 256.445 259.668C254.503 257.626 252.285 256.13 249.79 255.179C247.295 254.228 244.524 253.744 241.477 253.728C237.649 253.707 234.247 254.431 231.27 255.899C228.371 257.368 225.898 259.738 223.849 263.008C221.8 266.2 220.215 270.488 219.092 275.873C218.048 281.18 217.505 287.662 217.464 295.318L217.256 333.872C217.223 340.044 217.506 345.475 218.106 350.166C218.783 354.857 219.777 358.886 221.087 362.252C222.476 365.541 224.102 368.245 225.966 370.365C227.908 372.406 230.126 373.903 232.621 374.854C235.194 375.805 238.004 376.289 241.051 376.305C244.801 376.326 248.125 375.601 251.024 374.133C254.001 372.586 256.514 370.178 258.563 366.907C260.69 363.56 262.276 359.193 263.321 353.808C264.366 348.423 264.909 341.863 264.95 334.129Z" fill="#F24822"/>
<path fill-rule="evenodd" clip-rule="evenodd" d="M109.758 160.401C99.0673 160.507 96.8766 172.666 96.8766 172.666C96.8766 172.666 94.4754 160.483 83.7867 160.261C73.0977 160.039 66.4688 169.377 70.0338 179.264C73.5986 189.151 77.1916 191.391 82.8335 198.575C88.4752 205.76 96.6725 218.18 96.6156 221.099C96.5904 218.179 104.579 205.847 110.298 198.723C116.017 191.6 119.634 189.399 123.305 179.551C126.976 169.703 120.449 160.294 109.758 160.401Z" fill="#F24822"/>
<defs>
<filter id="filter0_d_26_574" x="0.109375" y="0.107422" width="349.902" height="463.288" filterUnits="userSpaceOnUse" color-interpolation-filters="sRGB">
<feFlood flood-opacity="0" result="BackgroundImageFix"/>
<feColorMatrix in="SourceAlpha" type="matrix" values="0 0 0 0 0 0 0 0 0 0 0 0 0 0 0 0 0 0 127 0" result="hardAlpha"/>
<feOffset dy="5"/>
<feGaussianBlur stdDeviation="17"/>
<feColorMatrix type="matrix" values="0 0 0 0 0 0 0 0 0 0 0 0 0 0 0 0 0 0 0.1 0"/>
<feBlend mode="normal" in2="BackgroundImageFix" result="effect1_dropShadow_26_574"/>
<feBlend mode="normal" in="SourceGraphic" in2="effect1_dropShadow_26_574" result="shape"/>
</filter>
</defs>
</svg>
