<svg width="348" height="462" viewBox="0 0 348 462" fill="none" xmlns="http://www.w3.org/2000/svg">
<g filter="url(#filter0_d_26_567)">
<rect x="34" y="29" width="280" height="394" rx="20" fill="#F2F2F2"/>
<rect x="34.5" y="29.5" width="279" height="393" rx="19.5" stroke="#D2D2D2"/>
</g>
<path d="M80.8906 68.0078V125H69.6406V80.9766L56.125 85.2734V76.4062L79.6797 68.0078H80.8906Z" fill="black"/>
<path d="M137.688 91.5625V101.406C137.688 105.677 137.232 109.362 136.32 112.461C135.409 115.534 134.094 118.06 132.375 120.039C130.682 121.992 128.664 123.438 126.32 124.375C123.977 125.312 121.372 125.781 118.508 125.781C116.216 125.781 114.081 125.495 112.102 124.922C110.122 124.323 108.339 123.398 106.75 122.148C105.188 120.898 103.833 119.323 102.688 117.422C101.568 115.495 100.708 113.203 100.109 110.547C99.5104 107.891 99.2109 104.844 99.2109 101.406V91.5625C99.2109 87.2917 99.6667 83.6328 100.578 80.5859C101.516 77.513 102.831 75 104.523 73.0469C106.242 71.0938 108.273 69.6615 110.617 68.75C112.961 67.8125 115.565 67.3438 118.43 67.3438C120.721 67.3438 122.844 67.6432 124.797 68.2422C126.776 68.8151 128.56 69.7135 130.148 70.9375C131.737 72.1615 133.091 73.737 134.211 75.6641C135.331 77.5651 136.19 79.8438 136.789 82.5C137.388 85.1302 137.688 88.151 137.688 91.5625ZM126.398 102.891V90.0391C126.398 87.9818 126.281 86.1849 126.047 84.6484C125.839 83.112 125.513 81.8099 125.07 80.7422C124.628 79.6484 124.081 78.763 123.43 78.0859C122.779 77.4089 122.036 76.9141 121.203 76.6016C120.37 76.2891 119.445 76.1328 118.43 76.1328C117.154 76.1328 116.021 76.3802 115.031 76.875C114.068 77.3698 113.247 78.1641 112.57 79.2578C111.893 80.3255 111.372 81.7578 111.008 83.5547C110.669 85.3255 110.5 87.487 110.5 90.0391V102.891C110.5 104.948 110.604 106.758 110.812 108.32C111.047 109.883 111.385 111.224 111.828 112.344C112.297 113.438 112.844 114.336 113.469 115.039C114.12 115.716 114.862 116.211 115.695 116.523C116.555 116.836 117.492 116.992 118.508 116.992C119.758 116.992 120.865 116.745 121.828 116.25C122.818 115.729 123.651 114.922 124.328 113.828C125.031 112.708 125.552 111.25 125.891 109.453C126.229 107.656 126.398 105.469 126.398 102.891Z" fill="black"/>
<path d="M126.859 228.898V399.875H93.1094V267.805L52.5625 280.695V254.094L123.227 228.898H126.859Z" fill="black"/>
<path d="M297.25 299.562V329.094C297.25 341.906 295.883 352.961 293.148 362.258C290.414 371.477 286.469 379.055 281.312 384.992C276.234 390.852 270.18 395.188 263.148 398C256.117 400.812 248.305 402.219 239.711 402.219C232.836 402.219 226.43 401.359 220.492 399.641C214.555 397.844 209.203 395.07 204.438 391.32C199.75 387.57 195.688 382.844 192.25 377.141C188.891 371.359 186.312 364.484 184.516 356.516C182.719 348.547 181.82 339.406 181.82 329.094V299.562C181.82 286.75 183.188 275.773 185.922 266.633C188.734 257.414 192.68 249.875 197.758 244.016C202.914 238.156 209.008 233.859 216.039 231.125C223.07 228.312 230.883 226.906 239.477 226.906C246.352 226.906 252.719 227.805 258.578 229.602C264.516 231.32 269.867 234.016 274.633 237.688C279.398 241.359 283.461 246.086 286.82 251.867C290.18 257.57 292.758 264.406 294.555 272.375C296.352 280.266 297.25 289.328 297.25 299.562ZM263.383 333.547V294.992C263.383 288.82 263.031 283.43 262.328 278.82C261.703 274.211 260.727 270.305 259.398 267.102C258.07 263.82 256.43 261.164 254.477 259.133C252.523 257.102 250.297 255.617 247.797 254.68C245.297 253.742 242.523 253.273 239.477 253.273C235.648 253.273 232.25 254.016 229.281 255.5C226.391 256.984 223.93 259.367 221.898 262.648C219.867 265.852 218.305 270.148 217.211 275.539C216.195 280.852 215.688 287.336 215.688 294.992V333.547C215.688 339.719 216 345.148 216.625 349.836C217.328 354.523 218.344 358.547 219.672 361.906C221.078 365.188 222.719 367.883 224.594 369.992C226.547 372.023 228.773 373.508 231.273 374.445C233.852 375.383 236.664 375.852 239.711 375.852C243.461 375.852 246.781 375.109 249.672 373.625C252.641 372.063 255.141 369.641 257.172 366.359C259.281 363 260.844 358.625 261.859 353.234C262.875 347.844 263.383 341.281 263.383 333.547Z" fill="black"/>
<path fill-rule="evenodd" clip-rule="evenodd" d="M109.244 200.984C119.533 201.117 125.862 193.546 122.381 185.577C118.899 177.608 115.428 175.815 109.963 170.037C104.495 164.259 96.5448 154.265 96.5823 151.907C96.6226 154.265 88.9994 164.259 83.5316 170.037C78.0665 175.815 74.5984 177.608 71.1143 185.577C67.6328 193.546 73.9649 201.117 84.2509 200.984C91.3132 200.893 94.4913 196.233 95.7878 193.32L95.7878 197.133C95.7878 197.133 93.533 210.886 77.6209 212.392L75.0843 212.392L75.0843 214.535L118.413 214.535L118.413 212.392L115.874 212.392C99.9645 210.886 97.707 197.133 97.707 197.133L97.707 193.821C99.2344 196.737 102.574 200.898 109.244 200.984Z" fill="#1A1919"/>
<defs>
<filter id="filter0_d_26_567" x="0" y="0" width="348" height="462" filterUnits="userSpaceOnUse" color-interpolation-filters="sRGB">
<feFlood flood-opacity="0" result="BackgroundImageFix"/>
<feColorMatrix in="SourceAlpha" type="matrix" values="0 0 0 0 0 0 0 0 0 0 0 0 0 0 0 0 0 0 127 0" result="hardAlpha"/>
<feOffset dy="5"/>
<feGaussianBlur stdDeviation="17"/>
<feColorMatrix type="matrix" values="0 0 0 0 0 0 0 0 0 0 0 0 0 0 0 0 0 0 0.1 0"/>
<feBlend mode="normal" in2="BackgroundImageFix" result="effect1_dropShadow_26_567"/>
<feBlend mode="normal" in="SourceGraphic" in2="effect1_dropShadow_26_567" result="shape"/>
</filter>
</defs>
</svg>
