<svg width="348" height="462" viewBox="0 0 348 462" fill="none" xmlns="http://www.w3.org/2000/svg">
<g filter="url(#filter0_d_26_735)">
<rect x="34" y="29" width="280" height="394" rx="20" fill="#F2F2F2"/>
<rect x="34.5" y="29.5" width="279" height="393" rx="19.5" stroke="#D2D2D2"/>
</g>
<path d="M101.246 107.539V68.1252H112.926V107.539C112.926 111.341 112.092 114.61 110.426 117.344C108.759 120.052 106.48 122.136 103.59 123.594C100.725 125.052 97.4961 125.781 93.9023 125.781C90.1784 125.781 86.8841 125.156 84.0195 123.906C81.1549 122.656 78.9023 120.742 77.2617 118.164C75.6211 115.56 74.8008 112.266 74.8008 108.281H86.5586C86.5586 110.365 86.8451 112.018 87.418 113.242C88.0169 114.466 88.8633 115.339 89.957 115.86C91.0508 116.38 92.3659 116.641 93.9023 116.641C95.3867 116.641 96.6758 116.289 97.7695 115.586C98.8633 114.883 99.7096 113.854 100.309 112.5C100.934 111.146 101.246 109.492 101.246 107.539Z" fill="#F24822"/>
<path d="M236.012 346.711V228.469H271.051V346.711C271.051 358.118 268.551 367.922 263.551 376.125C258.551 384.25 251.715 390.5 243.043 394.875C234.449 399.25 224.762 401.438 213.98 401.438C202.809 401.438 192.926 399.563 184.332 395.813C175.738 392.063 168.98 386.321 164.059 378.586C159.137 370.774 156.676 360.891 156.676 348.938H191.949C191.949 355.188 192.809 360.149 194.527 363.821C196.324 367.493 198.863 370.11 202.145 371.672C205.426 373.235 209.371 374.016 213.98 374.016C218.434 374.016 222.301 372.961 225.582 370.852C228.863 368.743 231.402 365.657 233.199 361.594C235.074 357.532 236.012 352.571 236.012 346.711Z" fill="#F24822"/>
<path fill-rule="evenodd" clip-rule="evenodd" d="M67.2305 185.628L96.5042 215.831L125.778 185.628L96.5042 155.425L67.2305 185.628Z" fill="#F24822"/>
<defs>
<filter id="filter0_d_26_735" x="0" y="0" width="348" height="462" filterUnits="userSpaceOnUse" color-interpolation-filters="sRGB">
<feFlood flood-opacity="0" result="BackgroundImageFix"/>
<feColorMatrix in="SourceAlpha" type="matrix" values="0 0 0 0 0 0 0 0 0 0 0 0 0 0 0 0 0 0 127 0" result="hardAlpha"/>
<feOffset dy="5"/>
<feGaussianBlur stdDeviation="17"/>
<feColorMatrix type="matrix" values="0 0 0 0 0 0 0 0 0 0 0 0 0 0 0 0 0 0 0.1 0"/>
<feBlend mode="normal" in2="BackgroundImageFix" result="effect1_dropShadow_26_735"/>
<feBlend mode="normal" in="SourceGraphic" in2="effect1_dropShadow_26_735" result="shape"/>
</filter>
</defs>
</svg>
