<svg width="351" height="464" viewBox="0 0 351 464" fill="none" xmlns="http://www.w3.org/2000/svg">
<g filter="url(#filter0_d_26_553)">
<rect x="36.125" y="29" width="280" height="394" rx="20" transform="rotate(0.308765 36.125 29)" fill="#F2F2F2"/>
<rect x="36.6223" y="29.5027" width="279" height="393" rx="19.5" transform="rotate(0.308765 36.6223 29.5027)" stroke="#D2D2D2"/>
</g>
<path d="M102.945 107.9L103.158 68.4868L114.837 68.5498L114.625 107.963C114.604 111.765 113.754 115.029 112.072 117.754C110.391 120.454 108.101 122.525 105.203 123.967C102.33 125.41 99.0972 126.122 95.5035 126.103C91.7796 126.083 88.4887 125.44 85.6309 124.174C82.7731 122.909 80.5309 120.983 78.9042 118.396C77.2776 115.783 76.475 112.484 76.4965 108.5L88.2542 108.563C88.2429 110.647 88.5205 112.302 89.0868 113.529C89.6791 114.756 90.5208 115.633 91.6117 116.16C92.7026 116.686 94.0163 116.954 95.5528 116.962C97.0371 116.97 98.328 116.626 99.4256 115.928C100.523 115.231 101.375 114.207 101.981 112.856C102.614 111.505 102.935 109.853 102.945 107.9Z" fill="#F24822"/>
<path d="M237.504 347.111L238.141 228.871L273.18 229.059L272.543 347.3C272.481 358.706 269.929 368.497 264.884 376.673C259.841 384.771 252.971 390.984 244.276 395.312C235.659 399.641 225.96 401.776 215.178 401.718C204.007 401.658 194.134 399.73 185.561 395.933C176.987 392.137 170.261 386.359 165.38 378.598C160.501 370.759 158.093 360.863 158.158 348.91L193.43 349.1C193.397 355.35 194.229 360.316 195.928 363.997C197.705 367.678 200.23 370.309 203.503 371.889C206.776 373.469 210.717 374.272 215.326 374.297C219.779 374.321 223.652 373.287 226.945 371.195C230.237 369.103 232.793 366.031 234.612 361.979C236.509 357.926 237.473 352.97 237.504 347.111Z" fill="#F24822"/>
<path fill-rule="evenodd" clip-rule="evenodd" d="M109.758 160.401C99.0673 160.507 96.8766 172.666 96.8766 172.666C96.8766 172.666 94.4754 160.483 83.7867 160.261C73.0977 160.039 66.4688 169.377 70.0338 179.264C73.5986 189.151 77.1916 191.391 82.8335 198.575C88.4752 205.76 96.6725 218.18 96.6156 221.099C96.5904 218.179 104.579 205.847 110.298 198.723C116.017 191.6 119.634 189.399 123.305 179.551C126.976 169.703 120.449 160.294 109.758 160.401Z" fill="#F24822"/>
<defs>
<filter id="filter0_d_26_553" x="0.109375" y="0.107422" width="349.902" height="463.288" filterUnits="userSpaceOnUse" color-interpolation-filters="sRGB">
<feFlood flood-opacity="0" result="BackgroundImageFix"/>
<feColorMatrix in="SourceAlpha" type="matrix" values="0 0 0 0 0 0 0 0 0 0 0 0 0 0 0 0 0 0 127 0" result="hardAlpha"/>
<feOffset dy="5"/>
<feGaussianBlur stdDeviation="17"/>
<feColorMatrix type="matrix" values="0 0 0 0 0 0 0 0 0 0 0 0 0 0 0 0 0 0 0.1 0"/>
<feBlend mode="normal" in2="BackgroundImageFix" result="effect1_dropShadow_26_553"/>
<feBlend mode="normal" in="SourceGraphic" in2="effect1_dropShadow_26_553" result="shape"/>
</filter>
</defs>
</svg>
