<svg width="348" height="462" viewBox="0 0 348 462" fill="none" xmlns="http://www.w3.org/2000/svg">
<g filter="url(#filter0_d_26_539)">
<rect x="34" y="29" width="280" height="394" rx="20" fill="#F2F2F2"/>
<rect x="34.5" y="29.5" width="279" height="393" rx="19.5" stroke="#D2D2D2"/>
</g>
<path d="M103.902 116.562L119.293 128.75L111.91 135.156L96.7539 122.969L103.902 116.562ZM119.684 95.2344V97.9297C119.684 102.253 119.098 106.133 117.926 109.57C116.78 113.008 115.126 115.937 112.965 118.359C110.803 120.755 108.251 122.591 105.309 123.867C102.366 125.143 99.0977 125.781 95.5039 125.781C91.9362 125.781 88.668 125.143 85.6992 123.867C82.7305 122.591 80.1654 120.755 78.0039 118.359C75.8424 115.937 74.1628 113.008 72.9648 109.57C71.793 106.133 71.207 102.253 71.207 97.9297V95.2344C71.207 90.8854 71.793 87.0052 72.9648 83.5937C74.1628 80.1562 75.8294 77.2266 77.9648 74.8047C80.1003 72.3828 82.6523 70.5339 85.6211 69.2578C88.5898 67.9818 91.8581 67.3438 95.4258 67.3438C99.0195 67.3438 102.288 67.9818 105.23 69.2578C108.199 70.5339 110.764 72.3828 112.926 74.8047C115.087 77.2266 116.754 80.1562 117.926 83.5937C119.098 87.0052 119.684 90.8854 119.684 95.2344ZM107.848 97.9297V95.1562C107.848 92.1354 107.561 89.4792 106.988 87.1875C106.441 84.8958 105.634 82.9687 104.566 81.4062C103.525 79.8437 102.236 78.6719 100.699 77.8906C99.1628 77.0833 97.4049 76.6797 95.4258 76.6797C93.4466 76.6797 91.6888 77.0833 90.1523 77.8906C88.6159 78.6719 87.3268 79.8437 86.2852 81.4062C85.2435 82.9687 84.4492 84.8958 83.9023 87.1875C83.3555 89.4792 83.082 92.1354 83.082 95.1562V97.9297C83.082 100.924 83.3555 103.581 83.9023 105.898C84.4492 108.19 85.2435 110.13 86.2852 111.719C87.3529 113.281 88.6549 114.466 90.1914 115.273C91.7539 116.081 93.5247 116.484 95.5039 116.484C97.4831 116.484 99.2279 116.081 100.738 115.273C102.275 114.466 103.564 113.281 104.605 111.719C105.673 110.13 106.48 108.19 107.027 105.898C107.574 103.581 107.848 100.924 107.848 97.9297Z" fill="#050505"/>
<path fill-rule="evenodd" clip-rule="evenodd" d="M110.755 176.289C109.056 176.289 107.437 176.659 105.961 177.329C107.347 175.139 108.161 172.487 108.161 169.627C108.161 162.122 102.571 156.038 95.6757 156.038C88.7806 156.038 83.191 162.122 83.191 169.627C83.191 172.35 83.9297 174.884 85.1967 177.01C83.937 176.545 82.5881 176.289 81.1839 176.289C74.2886 176.289 68.6992 182.373 68.6992 189.878C68.6992 197.383 74.2886 203.467 81.1839 203.467C82.7411 203.467 84.2306 203.154 85.6053 202.587C85.6051 202.59 91.4156 200.883 95.2351 193.315V197.872C95.2351 197.872 93.2768 212.234 79.4703 213.806H77.2669V216.044H114.868V213.806H112.665C98.8582 212.234 96.8996 197.872 96.8996 197.872V193.622C97.611 195.327 101.544 203.665 110.384 203.458C110.508 203.461 110.631 203.467 110.755 203.467C117.65 203.467 123.24 197.383 123.24 189.878C123.24 182.373 117.65 176.289 110.755 176.289Z" fill="#1A1919"/>
<path d="M239.812 362.656L282.5 395.734L260.352 414.953L218.367 381.875L239.812 362.656ZM287.156 298.671V306.757C287.156 319.726 285.398 331.367 281.883 341.679C278.445 351.992 273.484 360.781 267 368.046C260.516 375.234 252.859 380.742 244.031 384.57C235.203 388.398 225.398 390.312 214.617 390.312C203.914 390.312 194.109 388.398 185.203 384.57C176.297 380.742 168.602 375.234 162.117 368.046C155.633 360.781 150.594 351.992 147 341.679C143.484 331.367 141.727 319.726 141.727 306.757V298.671C141.727 285.625 143.484 273.984 147 263.75C150.594 253.437 155.594 244.648 162 237.382C168.406 230.117 176.062 224.57 184.969 220.742C193.875 216.914 203.68 215 214.383 215C225.164 215 234.969 216.914 243.797 220.742C252.703 224.57 260.398 230.117 266.883 237.382C273.367 244.648 278.367 253.437 281.883 263.75C285.398 273.984 287.156 285.625 287.156 298.671ZM251.648 306.757V298.437C251.648 289.375 250.789 281.406 249.07 274.531C247.43 267.656 245.008 261.875 241.805 257.187C238.68 252.5 234.812 248.984 230.203 246.64C225.594 244.218 220.32 243.007 214.383 243.007C208.445 243.007 203.172 244.218 198.562 246.64C193.953 248.984 190.086 252.5 186.961 257.187C183.836 261.875 181.453 267.656 179.812 274.531C178.172 281.406 177.352 289.375 177.352 298.437V306.757C177.352 315.742 178.172 323.71 179.812 330.664C181.453 337.539 183.836 343.359 186.961 348.125C190.164 352.812 194.07 356.367 198.68 358.789C203.367 361.21 208.68 362.421 214.617 362.421C220.555 362.421 225.789 361.21 230.32 358.789C234.93 356.367 238.797 352.812 241.922 348.125C245.125 343.359 247.547 337.539 249.188 330.664C250.828 323.71 251.648 315.742 251.648 306.757Z" fill="black"/>
<defs>
<filter id="filter0_d_26_539" x="0" y="0" width="348" height="462" filterUnits="userSpaceOnUse" color-interpolation-filters="sRGB">
<feFlood flood-opacity="0" result="BackgroundImageFix"/>
<feColorMatrix in="SourceAlpha" type="matrix" values="0 0 0 0 0 0 0 0 0 0 0 0 0 0 0 0 0 0 127 0" result="hardAlpha"/>
<feOffset dy="5"/>
<feGaussianBlur stdDeviation="17"/>
<feColorMatrix type="matrix" values="0 0 0 0 0 0 0 0 0 0 0 0 0 0 0 0 0 0 0.1 0"/>
<feBlend mode="normal" in2="BackgroundImageFix" result="effect1_dropShadow_26_539"/>
<feBlend mode="normal" in="SourceGraphic" in2="effect1_dropShadow_26_539" result="shape"/>
</filter>
</defs>
</svg>
