<svg width="351" height="464" viewBox="0 0 351 464" fill="none" xmlns="http://www.w3.org/2000/svg">
<g filter="url(#filter0_d_26_532)">
<rect x="36.125" y="29" width="280" height="394" rx="20" transform="rotate(0.308765 36.125 29)" fill="#F2F2F2"/>
<rect x="36.6223" y="29.5027" width="279" height="393" rx="19.5" transform="rotate(0.308765 36.6223 29.5027)" stroke="#D2D2D2"/>
</g>
<path d="M105.552 116.938L120.877 129.208L113.46 135.575L98.3693 123.306L105.552 116.938ZM121.448 95.6952L121.434 98.3905C121.41 102.713 120.803 106.59 119.613 110.021C118.449 113.453 116.779 116.373 114.605 118.784C112.43 121.168 109.869 122.99 106.919 124.25C103.969 125.51 100.698 126.131 97.1042 126.111C93.5365 126.092 90.2718 125.436 87.3099 124.144C84.3481 122.852 81.7929 121.003 79.6444 118.595C77.496 116.162 75.8322 113.223 74.6528 109.779C73.4994 106.335 72.9344 102.452 72.9577 98.1292L72.9722 95.434C72.9957 91.0851 73.6025 87.2081 74.7928 83.803C76.0092 80.372 77.6916 77.4513 79.8401 75.041C81.9885 72.6307 84.5505 70.7955 87.5261 69.5355C90.5017 68.2754 93.7733 67.655 97.3409 67.6743C100.935 67.6936 104.199 68.3493 107.135 69.6411C110.097 70.9332 112.652 72.7959 114.8 75.2294C116.949 77.6629 118.6 80.6015 119.753 84.0453C120.907 87.463 121.472 91.3463 121.448 95.6952ZM109.598 98.3267L109.613 95.5533C109.629 92.5325 109.357 89.8748 108.796 87.58C108.262 85.2855 107.465 83.354 106.406 81.7858C105.372 80.2177 104.09 79.0389 102.557 78.2494C101.025 77.4338 99.2698 77.0207 97.2906 77.0101C95.3115 76.9994 93.5515 77.3936 92.0107 78.1926C90.4701 78.9655 89.1747 80.1304 88.1247 81.6873C87.0746 83.2442 86.27 85.1669 85.7107 87.4556C85.1515 89.7443 84.8638 92.3991 84.8475 95.4198L84.8326 98.1932C84.8164 101.188 85.0755 103.846 85.6099 106.166C86.1444 108.461 86.9282 110.405 87.9613 111.999C89.0206 113.568 90.3163 114.759 91.8484 115.575C93.4065 116.391 95.1751 116.804 97.1543 116.815C99.1334 116.825 100.88 116.431 102.395 115.632C103.936 114.833 105.231 113.655 106.281 112.098C107.358 110.515 108.175 108.58 108.735 106.291C109.294 103.976 109.582 101.321 109.598 98.3267Z" fill="#F24822"/>
<path fill-rule="evenodd" clip-rule="evenodd" d="M109.758 160.401C99.0673 160.507 96.8766 172.666 96.8766 172.666C96.8766 172.666 94.4754 160.483 83.7867 160.261C73.0977 160.039 66.4688 169.377 70.0338 179.264C73.5986 189.151 77.1916 191.391 82.8335 198.575C88.4752 205.76 96.6725 218.18 96.6156 221.099C96.5904 218.179 104.579 205.847 110.298 198.723C116.017 191.6 119.634 189.399 123.305 179.551C126.976 169.703 120.449 160.294 109.758 160.401Z" fill="#F24822"/>
<path d="M238.816 364.656L282 398.23L259.852 417.449L217.371 383.875L238.816 364.656ZM286.16 300.672L286.16 308.758C286.16 321.727 284.402 333.367 280.887 343.68C277.449 353.992 272.488 362.781 266.004 370.047C259.52 377.234 251.863 382.742 243.035 386.57C234.207 390.398 224.402 392.312 213.621 392.312C202.918 392.312 193.113 390.398 184.207 386.57C175.301 382.742 167.605 377.234 161.121 370.047C154.637 362.781 149.598 353.992 146.004 343.68C142.488 333.367 140.73 321.727 140.73 308.758L140.73 300.672C140.73 287.625 142.488 275.984 146.004 265.75C149.598 255.437 154.598 246.648 161.004 239.383C167.41 232.117 175.066 226.57 183.973 222.742C192.879 218.914 202.684 217 213.387 217C224.168 217 233.973 218.914 242.801 222.742C251.707 226.57 259.402 232.117 265.887 239.383C272.371 246.648 277.371 255.437 280.887 265.75C284.402 275.984 286.16 287.625 286.16 300.672ZM250.652 308.758L250.652 300.437C250.652 291.375 249.793 283.406 248.074 276.531C246.434 269.656 244.012 263.875 240.809 259.187C237.684 254.5 233.816 250.984 229.207 248.641C224.598 246.219 219.324 245.008 213.387 245.008C207.449 245.008 202.176 246.219 197.566 248.641C192.957 250.984 189.09 254.5 185.965 259.187C182.84 263.875 180.457 269.656 178.816 276.531C177.176 283.406 176.355 291.375 176.355 300.437L176.355 308.758C176.355 317.742 177.176 325.711 178.816 332.664C180.457 339.539 182.84 345.359 185.965 350.125C189.168 354.812 193.074 358.367 197.684 360.789C202.371 363.211 207.684 364.422 213.621 364.422C219.559 364.422 224.793 363.211 229.324 360.789C233.934 358.367 237.801 354.812 240.926 350.125C244.129 345.359 246.551 339.539 248.191 332.664C249.832 325.711 250.652 317.742 250.652 308.758Z" fill="#F24822"/>
<defs>
<filter id="filter0_d_26_532" x="0.109375" y="0.107422" width="349.902" height="463.288" filterUnits="userSpaceOnUse" color-interpolation-filters="sRGB">
<feFlood flood-opacity="0" result="BackgroundImageFix"/>
<feColorMatrix in="SourceAlpha" type="matrix" values="0 0 0 0 0 0 0 0 0 0 0 0 0 0 0 0 0 0 127 0" result="hardAlpha"/>
<feOffset dy="5"/>
<feGaussianBlur stdDeviation="17"/>
<feColorMatrix type="matrix" values="0 0 0 0 0 0 0 0 0 0 0 0 0 0 0 0 0 0 0.1 0"/>
<feBlend mode="normal" in2="BackgroundImageFix" result="effect1_dropShadow_26_532"/>
<feBlend mode="normal" in="SourceGraphic" in2="effect1_dropShadow_26_532" result="shape"/>
</filter>
</defs>
</svg>
