<svg width="348" height="462" viewBox="0 0 348 462" fill="none" xmlns="http://www.w3.org/2000/svg">
<g filter="url(#filter0_d_26_525)">
<rect x="34" y="29" width="280" height="394" rx="20" fill="#F2F2F2"/>
<rect x="34.5" y="29.5" width="279" height="393" rx="19.5" stroke="#D2D2D2"/>
</g>
<path d="M103.898 116.562L119.289 128.75L111.906 135.156L96.75 122.969L103.898 116.562ZM119.68 95.2344V97.9297C119.68 102.253 119.094 106.133 117.922 109.57C116.776 113.008 115.122 115.938 112.961 118.359C110.799 120.755 108.247 122.591 105.305 123.867C102.362 125.143 99.0938 125.781 95.5 125.781C91.9323 125.781 88.6641 125.143 85.6953 123.867C82.7266 122.591 80.1615 120.755 78 118.359C75.8385 115.938 74.1589 113.008 72.9609 109.57C71.7891 106.133 71.2031 102.253 71.2031 97.9297V95.2344C71.2031 90.8854 71.7891 87.0052 72.9609 83.5938C74.1589 80.1562 75.8255 77.2266 77.9609 74.8047C80.0964 72.3828 82.6484 70.5339 85.6172 69.2578C88.5859 67.9818 91.8542 67.3438 95.4219 67.3438C99.0156 67.3438 102.284 67.9818 105.227 69.2578C108.195 70.5339 110.76 72.3828 112.922 74.8047C115.083 77.2266 116.75 80.1562 117.922 83.5938C119.094 87.0052 119.68 90.8854 119.68 95.2344ZM107.844 97.9297V95.1562C107.844 92.1354 107.557 89.4792 106.984 87.1875C106.438 84.8958 105.63 82.9688 104.562 81.4062C103.521 79.8438 102.232 78.6719 100.695 77.8906C99.1589 77.0833 97.401 76.6797 95.4219 76.6797C93.4427 76.6797 91.6849 77.0833 90.1484 77.8906C88.612 78.6719 87.3229 79.8438 86.2812 81.4062C85.2396 82.9688 84.4453 84.8958 83.8984 87.1875C83.3516 89.4792 83.0781 92.1354 83.0781 95.1562V97.9297C83.0781 100.924 83.3516 103.581 83.8984 105.898C84.4453 108.19 85.2396 110.13 86.2812 111.719C87.349 113.281 88.651 114.466 90.1875 115.273C91.75 116.081 93.5208 116.484 95.5 116.484C97.4792 116.484 99.224 116.081 100.734 115.273C102.271 114.466 103.56 113.281 104.602 111.719C105.669 110.13 106.477 108.19 107.023 105.898C107.57 103.581 107.844 100.924 107.844 97.9297Z" fill="black"/>
<path d="M240.812 365.188L283.5 398.266L261.352 417.484L219.367 384.406L240.812 365.188ZM288.156 301.203V309.289C288.156 322.258 286.398 333.898 282.883 344.211C279.445 354.523 274.484 363.312 268 370.578C261.516 377.766 253.859 383.273 245.031 387.102C236.203 390.93 226.398 392.844 215.617 392.844C204.914 392.844 195.109 390.93 186.203 387.102C177.297 383.273 169.602 377.766 163.117 370.578C156.633 363.312 151.594 354.523 148 344.211C144.484 333.898 142.727 322.258 142.727 309.289V301.203C142.727 288.156 144.484 276.516 148 266.281C151.594 255.969 156.594 247.18 163 239.914C169.406 232.648 177.062 227.102 185.969 223.273C194.875 219.445 204.68 217.531 215.383 217.531C226.164 217.531 235.969 219.445 244.797 223.273C253.703 227.102 261.398 232.648 267.883 239.914C274.367 247.18 279.367 255.969 282.883 266.281C286.398 276.516 288.156 288.156 288.156 301.203ZM252.648 309.289V300.969C252.648 291.906 251.789 283.938 250.07 277.062C248.43 270.188 246.008 264.406 242.805 259.719C239.68 255.031 235.812 251.516 231.203 249.172C226.594 246.75 221.32 245.539 215.383 245.539C209.445 245.539 204.172 246.75 199.562 249.172C194.953 251.516 191.086 255.031 187.961 259.719C184.836 264.406 182.453 270.188 180.812 277.062C179.172 283.938 178.352 291.906 178.352 300.969V309.289C178.352 318.273 179.172 326.242 180.812 333.195C182.453 340.07 184.836 345.891 187.961 350.656C191.164 355.344 195.07 358.898 199.68 361.32C204.367 363.742 209.68 364.953 215.617 364.953C221.555 364.953 226.789 363.742 231.32 361.32C235.93 358.898 239.797 355.344 242.922 350.656C246.125 345.891 248.547 340.07 250.188 333.195C251.828 326.242 252.648 318.273 252.648 309.289Z" fill="black"/>
<path fill-rule="evenodd" clip-rule="evenodd" d="M109.244 200.984C119.533 201.117 125.862 193.546 122.381 185.577C118.899 177.608 115.428 175.815 109.963 170.037C104.495 164.259 96.5448 154.265 96.5823 151.907C96.6226 154.265 88.9994 164.259 83.5316 170.037C78.0665 175.815 74.5984 177.608 71.1143 185.577C67.6328 193.546 73.9649 201.117 84.2509 200.984C91.3132 200.893 94.4913 196.233 95.7878 193.32L95.7878 197.133C95.7878 197.133 93.533 210.886 77.6209 212.392L75.0843 212.392L75.0843 214.535L118.413 214.535L118.413 212.392L115.874 212.392C99.9645 210.886 97.707 197.133 97.707 197.133L97.707 193.821C99.2344 196.737 102.574 200.898 109.244 200.984Z" fill="#1A1919"/>
<defs>
<filter id="filter0_d_26_525" x="0" y="0" width="348" height="462" filterUnits="userSpaceOnUse" color-interpolation-filters="sRGB">
<feFlood flood-opacity="0" result="BackgroundImageFix"/>
<feColorMatrix in="SourceAlpha" type="matrix" values="0 0 0 0 0 0 0 0 0 0 0 0 0 0 0 0 0 0 127 0" result="hardAlpha"/>
<feOffset dy="5"/>
<feGaussianBlur stdDeviation="17"/>
<feColorMatrix type="matrix" values="0 0 0 0 0 0 0 0 0 0 0 0 0 0 0 0 0 0 0.1 0"/>
<feBlend mode="normal" in2="BackgroundImageFix" result="effect1_dropShadow_26_525"/>
<feBlend mode="normal" in="SourceGraphic" in2="effect1_dropShadow_26_525" result="shape"/>
</filter>
</defs>
</svg>
