<svg width="348" height="462" viewBox="0 0 348 462" fill="none" xmlns="http://www.w3.org/2000/svg">
<g filter="url(#filter0_d_26_700)">
<rect x="34" y="29" width="280" height="394" rx="20" fill="#F2F2F2"/>
<rect x="34.5" y="29.5" width="279" height="393" rx="19.5" stroke="#D2D2D2"/>
</g>
<path d="M86.8711 68.1252V125H75.1523V68.1252H86.8711ZM120.934 68.1252L98.3945 96.2112L85.3867 110.196L83.2773 99.1018L92.0664 87.0706L106.559 68.1252H120.934ZM107.613 125L90.8555 98.7112L99.5273 91.4456L121.48 125H107.613Z" fill="#F24822"/>
<path d="M183.98 229.25V399.875H148.824V229.25H183.98ZM286.168 229.25L218.551 313.508L179.527 355.461L173.199 322.18L199.566 286.086L243.043 229.25H286.168ZM246.207 399.875L195.934 321.008L221.949 299.211L287.809 399.875H246.207Z" fill="#F24822"/>
<path fill-rule="evenodd" clip-rule="evenodd" d="M67.2305 185.628L96.5042 215.831L125.778 185.628L96.5042 155.425L67.2305 185.628Z" fill="#F24822"/>
<defs>
<filter id="filter0_d_26_700" x="0" y="0" width="348" height="462" filterUnits="userSpaceOnUse" color-interpolation-filters="sRGB">
<feFlood flood-opacity="0" result="BackgroundImageFix"/>
<feColorMatrix in="SourceAlpha" type="matrix" values="0 0 0 0 0 0 0 0 0 0 0 0 0 0 0 0 0 0 127 0" result="hardAlpha"/>
<feOffset dy="5"/>
<feGaussianBlur stdDeviation="17"/>
<feColorMatrix type="matrix" values="0 0 0 0 0 0 0 0 0 0 0 0 0 0 0 0 0 0 0.1 0"/>
<feBlend mode="normal" in2="BackgroundImageFix" result="effect1_dropShadow_26_700"/>
<feBlend mode="normal" in="SourceGraphic" in2="effect1_dropShadow_26_700" result="shape"/>
</filter>
</defs>
</svg>
