<svg width="351" height="464" viewBox="0 0 351 464" fill="none" xmlns="http://www.w3.org/2000/svg">
<g filter="url(#filter0_d_26_511)">
<rect x="36.125" y="29" width="280" height="394" rx="20" transform="rotate(0.308765 36.125 29)" fill="#F2F2F2"/>
<rect x="36.6223" y="29.5027" width="279" height="393" rx="19.5" transform="rotate(0.308765 36.6223 29.5027)" stroke="#D2D2D2"/>
</g>
<path d="M88.779 68.4098L88.4725 125.284L76.7539 125.221L77.0604 68.3467L88.779 68.4098ZM122.841 68.5934L100.151 96.5575L87.0679 110.472L85.0184 99.3666L93.8721 87.3829L108.466 68.5159L122.841 68.5934ZM109.214 125.396L92.5985 99.0168L101.309 91.798L123.081 125.471L109.214 125.396Z" fill="#F24822"/>
<path d="M186.501 229.412L185.582 400.035L150.426 399.845L151.345 229.223L186.501 229.412ZM288.687 229.963L220.617 313.855L181.368 355.597L175.219 322.282L201.78 286.331L245.563 229.73L288.687 229.963ZM247.807 400.37L197.959 321.233L224.092 299.577L289.408 400.594L247.807 400.37Z" fill="#F24822"/>
<path fill-rule="evenodd" clip-rule="evenodd" d="M109.758 160.401C99.0673 160.507 96.8766 172.666 96.8766 172.666C96.8766 172.666 94.4754 160.483 83.7867 160.261C73.0977 160.039 66.4688 169.377 70.0338 179.264C73.5986 189.151 77.1916 191.391 82.8335 198.575C88.4752 205.76 96.6725 218.18 96.6156 221.099C96.5904 218.179 104.579 205.847 110.298 198.723C116.017 191.6 119.634 189.399 123.305 179.551C126.976 169.703 120.449 160.294 109.758 160.401Z" fill="#F24822"/>
<defs>
<filter id="filter0_d_26_511" x="0.109375" y="0.107422" width="349.902" height="463.288" filterUnits="userSpaceOnUse" color-interpolation-filters="sRGB">
<feFlood flood-opacity="0" result="BackgroundImageFix"/>
<feColorMatrix in="SourceAlpha" type="matrix" values="0 0 0 0 0 0 0 0 0 0 0 0 0 0 0 0 0 0 127 0" result="hardAlpha"/>
<feOffset dy="5"/>
<feGaussianBlur stdDeviation="17"/>
<feColorMatrix type="matrix" values="0 0 0 0 0 0 0 0 0 0 0 0 0 0 0 0 0 0 0.1 0"/>
<feBlend mode="normal" in2="BackgroundImageFix" result="effect1_dropShadow_26_511"/>
<feBlend mode="normal" in="SourceGraphic" in2="effect1_dropShadow_26_511" result="shape"/>
</filter>
</defs>
</svg>
