<svg width="348" height="462" viewBox="0 0 348 462" fill="none" xmlns="http://www.w3.org/2000/svg">
<g filter="url(#filter0_d_26_504)">
<rect x="34" y="29" width="280" height="394" rx="20" fill="#F2F2F2"/>
<rect x="34.5" y="29.5" width="279" height="393" rx="19.5" stroke="#D2D2D2"/>
</g>
<path d="M86.8672 68.125V125H75.1484V68.125H86.8672ZM120.93 68.125L98.3906 96.2109L85.3828 110.195L83.2734 99.1016L92.0625 87.0703L106.555 68.125H120.93ZM107.609 125L90.8516 98.7109L99.5234 91.4453L121.477 125H107.609Z" fill="black"/>
<path d="M183.977 229.25V399.875H148.82V229.25H183.977ZM286.164 229.25L218.547 313.508L179.523 355.461L173.195 322.18L199.562 286.086L243.039 229.25H286.164ZM246.203 399.875L195.93 321.008L221.945 299.211L287.805 399.875H246.203Z" fill="black"/>
<path fill-rule="evenodd" clip-rule="evenodd" d="M109.244 200.984C119.533 201.117 125.862 193.546 122.381 185.577C118.899 177.608 115.428 175.815 109.963 170.037C104.495 164.259 96.5448 154.265 96.5823 151.907C96.6226 154.265 88.9994 164.259 83.5316 170.037C78.0665 175.815 74.5984 177.608 71.1143 185.577C67.6328 193.546 73.9649 201.117 84.2509 200.984C91.3132 200.893 94.4913 196.233 95.7878 193.32L95.7878 197.133C95.7878 197.133 93.533 210.886 77.6209 212.392L75.0843 212.392L75.0843 214.535L118.413 214.535L118.413 212.392L115.874 212.392C99.9645 210.886 97.707 197.133 97.707 197.133L97.707 193.821C99.2344 196.737 102.574 200.898 109.244 200.984Z" fill="#1A1919"/>
<defs>
<filter id="filter0_d_26_504" x="0" y="0" width="348" height="462" filterUnits="userSpaceOnUse" color-interpolation-filters="sRGB">
<feFlood flood-opacity="0" result="BackgroundImageFix"/>
<feColorMatrix in="SourceAlpha" type="matrix" values="0 0 0 0 0 0 0 0 0 0 0 0 0 0 0 0 0 0 127 0" result="hardAlpha"/>
<feOffset dy="5"/>
<feGaussianBlur stdDeviation="17"/>
<feColorMatrix type="matrix" values="0 0 0 0 0 0 0 0 0 0 0 0 0 0 0 0 0 0 0.1 0"/>
<feBlend mode="normal" in2="BackgroundImageFix" result="effect1_dropShadow_26_504"/>
<feBlend mode="normal" in="SourceGraphic" in2="effect1_dropShadow_26_504" result="shape"/>
</filter>
</defs>
</svg>
