<svg width="348" height="462" viewBox="0 0 348 462" fill="none" xmlns="http://www.w3.org/2000/svg">
<g filter="url(#filter0_d_26_483)">
<rect x="34" y="29" width="280" height="394" rx="20" fill="#F2F2F2"/>
<rect x="34.5" y="29.5" width="279" height="393" rx="19.5" stroke="#D2D2D2"/>
</g>
<path d="M115.348 116.211V125H76.4414V117.5L94.8398 97.7737C96.6888 95.7164 98.1471 93.9065 99.2148 92.344C100.283 90.7555 101.051 89.3362 101.52 88.0862C102.014 86.8101 102.262 85.5992 102.262 84.4534C102.262 82.7346 101.975 81.2633 101.402 80.0393C100.829 78.7893 99.9831 77.8258 98.8633 77.1487C97.7695 76.4716 96.4154 76.1331 94.8008 76.1331C93.082 76.1331 91.5977 76.5497 90.3477 77.3831C89.1237 78.2164 88.1862 79.3752 87.5352 80.8596C86.9102 82.344 86.5977 84.0237 86.5977 85.8987H75.3086C75.3086 82.5133 76.1159 79.4143 77.7305 76.6018C79.3451 73.7633 81.6237 71.5107 84.5664 69.844C87.5091 68.1513 90.9987 67.3049 95.0352 67.3049C99.0195 67.3049 102.379 67.956 105.113 69.2581C107.874 70.5341 109.957 72.3831 111.363 74.8049C112.796 77.2008 113.512 80.0653 113.512 83.3987C113.512 85.2737 113.212 87.1096 112.613 88.9065C112.014 90.6773 111.155 92.4482 110.035 94.219C108.941 95.9638 107.613 97.7346 106.051 99.5315C104.488 101.328 102.757 103.19 100.855 105.117L90.9727 116.211H115.348Z" fill="#F24822"/>
<path d="M275.387 374.329V400.696H158.668V378.196L213.863 319.016C219.41 312.844 223.785 307.415 226.988 302.727C230.191 297.961 232.496 293.704 233.902 289.954C235.387 286.125 236.129 282.493 236.129 279.055C236.129 273.899 235.27 269.485 233.551 265.813C231.832 262.063 229.293 259.172 225.934 257.141C222.652 255.11 218.59 254.094 213.746 254.094C208.59 254.094 204.137 255.344 200.387 257.844C196.715 260.344 193.902 263.821 191.949 268.274C190.074 272.727 189.137 277.766 189.137 283.391H155.27C155.27 273.235 157.691 263.938 162.535 255.5C167.379 246.985 174.215 240.227 183.043 235.227C191.871 230.149 202.34 227.61 214.449 227.61C226.402 227.61 236.48 229.563 244.684 233.469C252.965 237.297 259.215 242.844 263.434 250.11C267.73 257.297 269.879 265.891 269.879 275.891C269.879 281.516 268.98 287.024 267.184 292.415C265.387 297.727 262.809 303.04 259.449 308.352C256.168 313.586 252.184 318.899 247.496 324.29C242.809 329.68 237.613 335.266 231.91 341.047L202.262 374.329H275.387Z" fill="#F24822"/>
<path fill-rule="evenodd" clip-rule="evenodd" d="M67.2305 185.628L96.5042 215.831L125.778 185.628L96.5042 155.425L67.2305 185.628Z" fill="#F24822"/>
<defs>
<filter id="filter0_d_26_483" x="0" y="0" width="348" height="462" filterUnits="userSpaceOnUse" color-interpolation-filters="sRGB">
<feFlood flood-opacity="0" result="BackgroundImageFix"/>
<feColorMatrix in="SourceAlpha" type="matrix" values="0 0 0 0 0 0 0 0 0 0 0 0 0 0 0 0 0 0 127 0" result="hardAlpha"/>
<feOffset dy="5"/>
<feGaussianBlur stdDeviation="17"/>
<feColorMatrix type="matrix" values="0 0 0 0 0 0 0 0 0 0 0 0 0 0 0 0 0 0 0.1 0"/>
<feBlend mode="normal" in2="BackgroundImageFix" result="effect1_dropShadow_26_483"/>
<feBlend mode="normal" in="SourceGraphic" in2="effect1_dropShadow_26_483" result="shape"/>
</filter>
</defs>
</svg>
