<svg width="351" height="464" viewBox="0 0 351 464" fill="none" xmlns="http://www.w3.org/2000/svg">
<g filter="url(#filter0_d_26_784)">
<rect x="37" y="29" width="280" height="394" rx="20" transform="rotate(0.308765 37 29)" fill="#F2F2F2"/>
<rect x="37.4973" y="29.5027" width="279" height="393" rx="19.5" transform="rotate(0.308765 37.4973 29.5027)" stroke="#D2D2D2"/>
</g>
<path d="M117.875 116.648L117.828 125.437L78.9221 125.227L78.9625 117.727L97.467 98.1C99.327 96.0527 100.795 94.2507 101.871 92.694C102.947 91.1112 103.723 89.6961 104.199 88.4486C104.7 87.1753 104.954 85.9657 104.961 84.8199C104.97 83.1011 104.691 81.6283 104.125 80.4012C103.559 79.1482 102.718 78.1801 101.601 77.497C100.511 76.814 99.1591 76.4682 97.5445 76.4595C95.8258 76.4502 94.3392 76.8589 93.0847 77.6855C91.8563 78.5122 90.9126 79.666 90.2535 81.1468C89.6206 82.6278 89.299 84.3058 89.2889 86.1808L78 86.1199C78.0182 82.7345 78.8422 79.64 80.4719 76.8362C82.1018 74.0064 84.3925 71.7661 87.3442 70.1154C90.296 68.4385 93.7901 67.611 97.8265 67.6327C101.811 67.6542 105.167 68.3233 107.894 69.6401C110.647 70.931 112.721 72.7912 114.114 75.2206C115.533 77.6241 116.234 80.4925 116.216 83.8258C116.206 85.7008 115.897 87.5351 115.288 89.3287C114.679 91.0963 113.811 92.8625 112.681 94.6272C111.578 96.3661 110.24 98.1298 108.668 99.9182C107.096 101.707 105.354 103.559 103.443 105.476L93.5005 116.516L117.875 116.648Z" fill="#F24822"/>
<path d="M277.75 374.874L277.608 401.241L160.891 400.612L161.012 378.113L216.526 319.231C222.106 313.089 226.51 307.683 229.739 303.013C232.967 298.265 235.295 294.019 236.721 290.277C238.226 286.457 238.988 282.828 239.007 279.391C239.034 274.235 238.199 269.816 236.5 266.135C234.801 262.376 232.278 259.471 228.929 257.422C225.659 255.373 221.602 254.336 216.759 254.31C211.602 254.282 207.143 255.508 203.379 257.988C199.694 260.468 196.863 263.929 194.886 268.372C192.987 272.815 192.022 277.848 191.992 283.473L158.125 283.291C158.18 273.135 160.652 263.851 165.541 255.44C170.43 246.95 177.303 240.23 186.158 235.277C195.013 230.247 205.495 227.764 217.604 227.829C229.557 227.894 239.625 229.901 247.807 233.852C256.067 237.724 262.287 243.305 266.467 250.593C270.725 257.804 272.827 266.409 272.773 276.409C272.743 282.034 271.815 287.536 269.989 292.917C268.163 298.22 265.557 303.519 262.169 308.813C258.859 314.03 254.846 319.32 250.13 324.686C245.413 330.051 240.188 335.609 234.454 341.359L204.626 374.48L277.75 374.874Z" fill="#F24822"/>
<path fill-rule="evenodd" clip-rule="evenodd" d="M110.633 160.401C99.9423 160.507 97.7516 172.666 97.7516 172.666C97.7516 172.666 95.3504 160.483 84.6617 160.261C73.9727 160.039 67.3438 169.377 70.9088 179.264C74.4736 189.151 78.0666 191.391 83.7085 198.575C89.3502 205.76 97.5475 218.18 97.4906 221.099C97.4654 218.179 105.454 205.847 111.173 198.723C116.892 191.6 120.509 189.399 124.18 179.551C127.851 169.703 121.324 160.294 110.633 160.401Z" fill="#F24822"/>
<defs>
<filter id="filter0_d_26_784" x="0.984375" y="0.107422" width="349.902" height="463.288" filterUnits="userSpaceOnUse" color-interpolation-filters="sRGB">
<feFlood flood-opacity="0" result="BackgroundImageFix"/>
<feColorMatrix in="SourceAlpha" type="matrix" values="0 0 0 0 0 0 0 0 0 0 0 0 0 0 0 0 0 0 127 0" result="hardAlpha"/>
<feOffset dy="5"/>
<feGaussianBlur stdDeviation="17"/>
<feColorMatrix type="matrix" values="0 0 0 0 0 0 0 0 0 0 0 0 0 0 0 0 0 0 0.1 0"/>
<feBlend mode="normal" in2="BackgroundImageFix" result="effect1_dropShadow_26_784"/>
<feBlend mode="normal" in="SourceGraphic" in2="effect1_dropShadow_26_784" result="shape"/>
</filter>
</defs>
</svg>
