<svg width="348" height="462" viewBox="0 0 348 462" fill="none" xmlns="http://www.w3.org/2000/svg">
<g filter="url(#filter0_d_26_714)">
<rect x="34" y="29" width="280" height="394" rx="20" fill="#F2F2F2"/>
<rect x="34.5" y="29.5" width="279" height="393" rx="19.5" stroke="#D2D2D2"/>
</g>
<path d="M87.9609 91.6797H93.9766C95.9036 91.6797 97.4922 91.3542 98.7422 90.7031C99.9922 90.026 100.917 89.0885 101.516 87.8906C102.141 86.6667 102.453 85.2474 102.453 83.6328C102.453 82.1745 102.167 80.8854 101.594 79.7656C101.047 78.6198 100.201 77.7344 99.0547 77.1094C97.9089 76.4583 96.4635 76.1328 94.7188 76.1328C93.3385 76.1328 92.0625 76.4062 90.8906 76.9531C89.7188 77.5 88.7812 78.2682 88.0781 79.2578C87.375 80.2474 87.0234 81.4453 87.0234 82.8516H75.7344C75.7344 79.7266 76.5677 77.0052 78.2344 74.6875C79.9271 72.3698 82.1927 70.5599 85.0312 69.2578C87.8698 67.9557 90.9948 67.3047 94.4062 67.3047C98.2604 67.3047 101.633 67.9297 104.523 69.1797C107.414 70.4036 109.667 72.2135 111.281 74.6094C112.896 77.0052 113.703 79.974 113.703 83.5156C113.703 85.3125 113.286 87.0573 112.453 88.75C111.62 90.4167 110.422 91.9271 108.859 93.2812C107.323 94.6094 105.448 95.6771 103.234 96.4844C101.021 97.2656 98.5339 97.6562 95.7734 97.6562H87.9609V91.6797ZM87.9609 100.234V94.4141H95.7734C98.8724 94.4141 101.594 94.7656 103.938 95.4688C106.281 96.1719 108.247 97.1875 109.836 98.5156C111.424 99.8177 112.622 101.367 113.43 103.164C114.237 104.935 114.641 106.901 114.641 109.062C114.641 111.719 114.133 114.089 113.117 116.172C112.102 118.229 110.669 119.974 108.82 121.406C106.997 122.839 104.862 123.932 102.414 124.688C99.9661 125.417 97.2969 125.781 94.4062 125.781C92.0104 125.781 89.6536 125.456 87.3359 124.805C85.0443 124.128 82.9609 123.125 81.0859 121.797C79.237 120.443 77.7526 118.75 76.6328 116.719C75.5391 114.661 74.9922 112.227 74.9922 109.414H86.2812C86.2812 110.872 86.6458 112.174 87.375 113.32C88.1042 114.466 89.1068 115.365 90.3828 116.016C91.6849 116.667 93.1302 116.992 94.7188 116.992C96.5156 116.992 98.0521 116.667 99.3281 116.016C100.63 115.339 101.62 114.401 102.297 113.203C103 111.979 103.352 110.56 103.352 108.945C103.352 106.862 102.974 105.195 102.219 103.945C101.464 102.669 100.383 101.732 98.9766 101.133C97.5703 100.534 95.9036 100.234 93.9766 100.234H87.9609Z" fill="black"/>
<path d="M194.25 299.953H212.297C218.078 299.953 222.844 298.977 226.594 297.023C230.344 294.992 233.117 292.18 234.914 288.586C236.789 284.914 237.727 280.656 237.727 275.812C237.727 271.437 236.867 267.57 235.148 264.211C233.508 260.773 230.969 258.117 227.531 256.242C224.094 254.289 219.758 253.312 214.523 253.312C210.383 253.312 206.555 254.133 203.039 255.773C199.523 257.414 196.711 259.719 194.602 262.688C192.492 265.656 191.438 269.25 191.438 273.469H157.57C157.57 264.094 160.07 255.93 165.07 248.977C170.148 242.023 176.945 236.594 185.461 232.688C193.977 228.781 203.352 226.828 213.586 226.828C225.148 226.828 235.266 228.703 243.938 232.453C252.609 236.125 259.367 241.555 264.211 248.742C269.055 255.93 271.477 264.836 271.477 275.461C271.477 280.852 270.227 286.086 267.727 291.164C265.227 296.164 261.633 300.695 256.945 304.758C252.336 308.742 246.711 311.945 240.07 314.367C233.43 316.711 225.969 317.883 217.688 317.883H194.25V299.953ZM194.25 325.617V308.156H217.688C226.984 308.156 235.148 309.211 242.18 311.32C249.211 313.43 255.109 316.477 259.875 320.461C264.641 324.367 268.234 329.016 270.656 334.406C273.078 339.719 274.289 345.617 274.289 352.102C274.289 360.07 272.766 367.18 269.719 373.43C266.672 379.602 262.375 384.836 256.828 389.133C251.359 393.43 244.953 396.711 237.609 398.977C230.266 401.164 222.258 402.258 213.586 402.258C206.398 402.258 199.328 401.281 192.375 399.328C185.5 397.297 179.25 394.289 173.625 390.305C168.078 386.242 163.625 381.164 160.266 375.07C156.984 368.898 155.344 361.594 155.344 353.156H189.211C189.211 357.531 190.305 361.437 192.492 364.875C194.68 368.313 197.688 371.008 201.516 372.961C205.422 374.914 209.758 375.891 214.523 375.891C219.914 375.891 224.523 374.914 228.352 372.961C232.258 370.93 235.227 368.117 237.258 364.523C239.367 360.852 240.422 356.594 240.422 351.75C240.422 345.5 239.289 340.5 237.023 336.75C234.758 332.922 231.516 330.109 227.297 328.312C223.078 326.516 218.078 325.617 212.297 325.617H194.25Z" fill="black"/>
<path fill-rule="evenodd" clip-rule="evenodd" d="M109.244 200.984C119.533 201.117 125.862 193.546 122.381 185.577C118.899 177.608 115.428 175.815 109.963 170.037C104.495 164.259 96.5448 154.265 96.5823 151.907C96.6226 154.265 88.9994 164.259 83.5316 170.037C78.0665 175.815 74.5984 177.608 71.1143 185.577C67.6328 193.546 73.9649 201.117 84.2509 200.984C91.3132 200.893 94.4913 196.233 95.7878 193.32L95.7878 197.133C95.7878 197.133 93.533 210.886 77.6209 212.392L75.0843 212.392L75.0843 214.535L118.413 214.535L118.413 212.392L115.874 212.392C99.9645 210.886 97.707 197.133 97.707 197.133L97.707 193.821C99.2344 196.737 102.574 200.898 109.244 200.984Z" fill="#1A1919"/>
<defs>
<filter id="filter0_d_26_714" x="0" y="0" width="348" height="462" filterUnits="userSpaceOnUse" color-interpolation-filters="sRGB">
<feFlood flood-opacity="0" result="BackgroundImageFix"/>
<feColorMatrix in="SourceAlpha" type="matrix" values="0 0 0 0 0 0 0 0 0 0 0 0 0 0 0 0 0 0 127 0" result="hardAlpha"/>
<feOffset dy="5"/>
<feGaussianBlur stdDeviation="17"/>
<feColorMatrix type="matrix" values="0 0 0 0 0 0 0 0 0 0 0 0 0 0 0 0 0 0 0.1 0"/>
<feBlend mode="normal" in2="BackgroundImageFix" result="effect1_dropShadow_26_714"/>
<feBlend mode="normal" in="SourceGraphic" in2="effect1_dropShadow_26_714" result="shape"/>
</filter>
</defs>
</svg>
