<svg width="351" height="464" viewBox="0 0 351 464" fill="none" xmlns="http://www.w3.org/2000/svg">
<g filter="url(#filter0_d_26_637)">
<rect x="36.125" y="29" width="280" height="394" rx="20" transform="rotate(0.308765 36.125 29)" fill="#F2F2F2"/>
<rect x="36.6223" y="29.5027" width="279" height="393" rx="19.5" transform="rotate(0.308765 36.6223 29.5027)" stroke="#D2D2D2"/>
</g>
<path d="M88.7731 99.3865L79.8005 97.1896L83.1979 68.3794L115.151 68.5516L115.102 77.653L92.4066 77.5307L90.9324 90.1401C91.6899 89.7015 92.8383 89.2389 94.3774 88.7524C95.9166 88.2399 97.6368 87.9887 99.5378 87.999C102.298 88.0139 104.744 88.4567 106.874 89.3276C109.005 90.1985 110.808 91.4582 112.284 93.1068C113.785 94.7556 114.92 96.7669 115.689 99.1409C116.457 101.515 116.834 104.199 116.817 107.194C116.804 109.72 116.4 112.127 115.607 114.414C114.813 116.675 113.617 118.7 112.019 120.489C110.421 122.251 108.421 123.633 106.02 124.636C103.619 125.639 100.778 126.131 97.4964 126.114C95.0485 126.1 92.6807 125.723 90.393 124.981C88.1314 124.24 86.0929 123.148 84.2778 121.706C82.4886 120.264 81.0527 118.525 79.9699 116.488C78.9133 114.425 78.366 112.078 78.3281 109.447L89.4998 109.508C89.6474 111.123 90.0565 112.519 90.7273 113.694C91.4242 114.844 92.3439 115.734 93.4864 116.365C94.6288 116.996 95.9683 117.316 97.5047 117.324C98.937 117.332 100.162 117.065 101.181 116.524C102.2 115.982 103.024 115.232 103.654 114.272C104.284 113.285 104.746 112.142 105.04 110.841C105.359 109.515 105.523 108.084 105.532 106.547C105.54 105.011 105.365 103.617 105.007 102.365C104.649 101.113 104.095 100.029 103.345 99.1134C102.595 98.1979 101.635 97.4896 100.466 96.9885C99.3228 96.4875 97.983 96.2329 96.4465 96.2246C94.3632 96.2134 92.7469 96.5302 91.5976 97.1751C90.4743 97.8201 89.5328 98.5572 88.7731 99.3865Z" fill="#F24822"/>
<path d="M191.175 321.666L164.257 315.076L174.449 228.645L270.307 229.162L270.16 256.466L202.075 256.099L197.653 293.927C199.925 292.611 203.37 291.224 207.988 289.764C212.605 288.227 217.766 287.473 223.469 287.504C231.75 287.548 239.087 288.877 245.479 291.49C251.871 294.102 257.281 297.881 261.707 302.827C266.212 307.773 269.617 313.808 271.922 320.929C274.228 328.051 275.356 336.104 275.308 345.089C275.267 352.667 274.056 359.887 271.675 366.749C269.295 373.533 265.707 379.608 260.913 384.973C256.119 390.259 250.12 394.407 242.916 397.415C235.712 400.423 227.188 401.9 217.345 401.847C210.001 401.808 202.898 400.676 196.035 398.451C189.25 396.227 183.134 392.952 177.689 388.626C172.321 384.3 168.014 379.081 164.765 372.97C161.595 366.781 159.954 359.741 159.84 351.849L193.355 352.03C193.798 356.876 195.025 361.063 197.037 364.589C199.128 368.038 201.887 370.709 205.315 372.603C208.742 374.496 212.76 375.455 217.37 375.48C221.666 375.503 225.343 374.703 228.398 373.078C231.454 371.454 233.927 369.202 235.818 366.321C237.709 363.363 239.094 359.933 239.975 356.031C240.934 352.052 241.426 347.758 241.45 343.148C241.475 338.539 240.951 334.356 239.877 330.601C238.804 326.845 237.142 323.594 234.891 320.847C232.64 318.101 229.761 315.976 226.253 314.472C222.824 312.969 218.804 312.206 214.195 312.181C207.945 312.147 203.096 313.098 199.648 315.032C196.278 316.967 193.454 319.178 191.175 321.666Z" fill="#F24822"/>
<path fill-rule="evenodd" clip-rule="evenodd" d="M109.758 160.401C99.0673 160.507 96.8766 172.666 96.8766 172.666C96.8766 172.666 94.4754 160.483 83.7867 160.261C73.0977 160.039 66.4688 169.377 70.0338 179.264C73.5986 189.151 77.1916 191.391 82.8335 198.575C88.4752 205.76 96.6725 218.18 96.6156 221.099C96.5904 218.179 104.579 205.847 110.298 198.723C116.017 191.6 119.634 189.399 123.305 179.551C126.976 169.703 120.449 160.294 109.758 160.401Z" fill="#F24822"/>
<defs>
<filter id="filter0_d_26_637" x="0.109375" y="0.107422" width="349.902" height="463.288" filterUnits="userSpaceOnUse" color-interpolation-filters="sRGB">
<feFlood flood-opacity="0" result="BackgroundImageFix"/>
<feColorMatrix in="SourceAlpha" type="matrix" values="0 0 0 0 0 0 0 0 0 0 0 0 0 0 0 0 0 0 127 0" result="hardAlpha"/>
<feOffset dy="5"/>
<feGaussianBlur stdDeviation="17"/>
<feColorMatrix type="matrix" values="0 0 0 0 0 0 0 0 0 0 0 0 0 0 0 0 0 0 0.1 0"/>
<feBlend mode="normal" in2="BackgroundImageFix" result="effect1_dropShadow_26_637"/>
<feBlend mode="normal" in="SourceGraphic" in2="effect1_dropShadow_26_637" result="shape"/>
</filter>
</defs>
</svg>
