<svg width="348" height="462" viewBox="0 0 348 462" fill="none" xmlns="http://www.w3.org/2000/svg">
<g filter="url(#filter0_d_26_742)">
<rect x="34" y="29" width="280" height="394" rx="20" fill="#F2F2F2"/>
<rect x="34.5" y="29.5" width="279" height="393" rx="19.5" stroke="#D2D2D2"/>
</g>
<path d="M105.465 67.5391H107.105V76.5234H106.441C103.473 76.5234 100.829 76.9661 98.5117 77.8516C96.194 78.737 94.2279 80 92.6133 81.6406C91.0247 83.2552 89.8008 85.2083 88.9414 87.5C88.1081 89.7917 87.6914 92.3568 87.6914 95.1953V104.648C87.6914 106.68 87.8867 108.477 88.2773 110.039C88.694 111.576 89.2799 112.865 90.0352 113.906C90.8164 114.922 91.7279 115.69 92.7695 116.211C93.8112 116.706 94.9831 116.953 96.2852 116.953C97.5091 116.953 98.6159 116.693 99.6055 116.172C100.621 115.651 101.48 114.922 102.184 113.984C102.913 113.021 103.46 111.901 103.824 110.625C104.215 109.323 104.41 107.904 104.41 106.367C104.41 104.831 104.215 103.411 103.824 102.109C103.46 100.807 102.913 99.6875 102.184 98.75C101.454 97.7865 100.569 97.0443 99.5273 96.5234C98.4857 96.0026 97.3138 95.7422 96.0117 95.7422C94.2409 95.7422 92.6784 96.1589 91.3242 96.9922C89.9961 97.7995 88.9544 98.8411 88.1992 100.117C87.444 101.393 87.0404 102.734 86.9883 104.141L83.5898 101.953C83.668 99.9479 84.0846 98.0469 84.8398 96.25C85.6211 94.4531 86.6888 92.8646 88.043 91.4844C89.4232 90.0781 91.0768 88.9844 93.0039 88.2031C94.931 87.3958 97.1055 86.9922 99.5273 86.9922C102.184 86.9922 104.514 87.5 106.52 88.5156C108.551 89.5312 110.243 90.9245 111.598 92.6953C112.952 94.4661 113.967 96.5104 114.645 98.8281C115.322 101.146 115.66 103.62 115.66 106.25C115.66 109.01 115.204 111.576 114.293 113.945C113.408 116.315 112.118 118.385 110.426 120.156C108.759 121.927 106.754 123.307 104.41 124.297C102.066 125.286 99.4362 125.781 96.5195 125.781C93.4987 125.781 90.7513 125.234 88.2773 124.141C85.8294 123.021 83.7201 121.458 81.9492 119.453C80.1784 117.448 78.8112 115.065 77.8477 112.305C76.9102 109.544 76.4414 106.523 76.4414 103.242V98.8672C76.4414 94.2839 77.1055 90.0911 78.4336 86.2891C79.7878 82.4609 81.7279 79.1536 84.2539 76.3672C86.7799 73.5547 89.8268 71.3802 93.3945 69.8437C96.9622 68.3073 100.986 67.5391 105.465 67.5391Z" fill="#050505"/>
<path d="M244.293 227.297H249.215V254.25H247.223C238.316 254.25 230.387 255.578 223.434 258.234C216.48 260.891 210.582 264.68 205.738 269.602C200.973 274.445 197.301 280.305 194.723 287.18C192.223 294.055 190.973 301.75 190.973 310.266V338.625C190.973 344.719 191.559 350.109 192.73 354.797C193.98 359.406 195.738 363.273 198.004 366.398C200.348 369.445 203.082 371.75 206.207 373.312C209.332 374.797 212.848 375.539 216.754 375.539C220.426 375.539 223.746 374.758 226.715 373.195C229.762 371.633 232.34 369.445 234.449 366.633C236.637 363.742 238.277 360.383 239.371 356.555C240.543 352.648 241.129 348.391 241.129 343.781C241.129 339.172 240.543 334.914 239.371 331.008C238.277 327.102 236.637 323.742 234.449 320.93C232.262 318.039 229.605 315.812 226.48 314.25C223.355 312.687 219.84 311.906 215.934 311.906C210.621 311.906 205.934 313.156 201.871 315.656C197.887 318.078 194.762 321.203 192.496 325.031C190.23 328.859 189.02 332.883 188.863 337.102L178.668 330.539C178.902 324.523 180.152 318.82 182.418 313.43C184.762 308.039 187.965 303.273 192.027 299.133C196.168 294.914 201.129 291.633 206.91 289.289C212.691 286.867 219.215 285.656 226.48 285.656C234.449 285.656 241.441 287.18 247.457 290.227C253.551 293.273 258.629 297.453 262.691 302.766C266.754 308.078 269.801 314.211 271.832 321.164C273.863 328.117 274.879 335.539 274.879 343.43C274.879 351.711 273.512 359.406 270.777 366.516C268.121 373.625 264.254 379.836 259.176 385.148C254.176 390.461 248.16 394.602 241.129 397.57C234.098 400.539 226.207 402.023 217.457 402.023C208.395 402.023 200.152 400.383 192.73 397.102C185.387 393.742 179.059 389.055 173.746 383.039C168.434 377.023 164.332 369.875 161.441 361.594C158.629 353.312 157.223 344.25 157.223 334.406V321.281C157.223 307.531 159.215 294.953 163.199 283.547C167.262 272.062 173.082 262.141 180.66 253.781C188.238 245.344 197.379 238.82 208.082 234.211C218.785 229.602 230.855 227.297 244.293 227.297Z" fill="#050505"/>
<path fill-rule="evenodd" clip-rule="evenodd" d="M110.755 176.289C109.056 176.289 107.437 176.659 105.961 177.329C107.347 175.139 108.161 172.487 108.161 169.627C108.161 162.122 102.571 156.038 95.6757 156.038C88.7806 156.038 83.191 162.122 83.191 169.627C83.191 172.35 83.9297 174.884 85.1967 177.01C83.937 176.545 82.5881 176.289 81.1839 176.289C74.2886 176.289 68.6992 182.373 68.6992 189.878C68.6992 197.383 74.2886 203.467 81.1839 203.467C82.7411 203.467 84.2306 203.154 85.6053 202.587C85.6051 202.59 91.4156 200.883 95.2351 193.315V197.872C95.2351 197.872 93.2768 212.234 79.4703 213.806H77.2669V216.044H114.868V213.806H112.665C98.8582 212.234 96.8996 197.872 96.8996 197.872V193.622C97.611 195.327 101.544 203.665 110.384 203.458C110.508 203.461 110.631 203.467 110.755 203.467C117.65 203.467 123.24 197.383 123.24 189.878C123.24 182.373 117.65 176.289 110.755 176.289Z" fill="#1A1919"/>
<defs>
<filter id="filter0_d_26_742" x="0" y="0" width="348" height="462" filterUnits="userSpaceOnUse" color-interpolation-filters="sRGB">
<feFlood flood-opacity="0" result="BackgroundImageFix"/>
<feColorMatrix in="SourceAlpha" type="matrix" values="0 0 0 0 0 0 0 0 0 0 0 0 0 0 0 0 0 0 127 0" result="hardAlpha"/>
<feOffset dy="5"/>
<feGaussianBlur stdDeviation="17"/>
<feColorMatrix type="matrix" values="0 0 0 0 0 0 0 0 0 0 0 0 0 0 0 0 0 0 0.1 0"/>
<feBlend mode="normal" in2="BackgroundImageFix" result="effect1_dropShadow_26_742"/>
<feBlend mode="normal" in="SourceGraphic" in2="effect1_dropShadow_26_742" result="shape"/>
</filter>
</defs>
</svg>
