<svg width="348" height="462" viewBox="0 0 348 462" fill="none" xmlns="http://www.w3.org/2000/svg">
<g filter="url(#filter0_d_26_630)">
<rect x="34" y="29" width="280" height="394" rx="20" fill="#F2F2F2"/>
<rect x="34.5" y="29.5" width="279" height="393" rx="19.5" stroke="#D2D2D2"/>
</g>
<path d="M105.465 67.5393H107.105V76.5237H106.441C103.473 76.5237 100.829 76.9664 98.5117 77.8518C96.194 78.7372 94.2279 80.0002 92.6133 81.6409C91.0247 83.2555 89.8008 85.2086 88.9414 87.5002C88.1081 89.7919 87.6914 92.357 87.6914 95.1956V104.649C87.6914 106.68 87.8867 108.477 88.2773 110.039C88.694 111.576 89.2799 112.865 90.0352 113.906C90.8164 114.922 91.7279 115.69 92.7695 116.211C93.8112 116.706 94.9831 116.953 96.2852 116.953C97.5091 116.953 98.6159 116.693 99.6055 116.172C100.621 115.651 101.48 114.922 102.184 113.985C102.913 113.021 103.46 111.901 103.824 110.625C104.215 109.323 104.41 107.904 104.41 106.367C104.41 104.831 104.215 103.412 103.824 102.11C103.46 100.808 102.913 99.6877 102.184 98.7502C101.454 97.7867 100.569 97.0445 99.5273 96.5237C98.4857 96.0028 97.3138 95.7424 96.0117 95.7424C94.2409 95.7424 92.6784 96.1591 91.3242 96.9924C89.9961 97.7997 88.9544 98.8414 88.1992 100.117C87.444 101.393 87.0404 102.735 86.9883 104.141L83.5898 101.953C83.668 99.9482 84.0846 98.0471 84.8398 96.2502C85.6211 94.4534 86.6888 92.8648 88.043 91.4846C89.4232 90.0784 91.0768 88.9846 93.0039 88.2034C94.931 87.3961 97.1055 86.9924 99.5273 86.9924C102.184 86.9924 104.514 87.5002 106.52 88.5159C108.551 89.5315 110.243 90.9247 111.598 92.6956C112.952 94.4664 113.967 96.5107 114.645 98.8284C115.322 101.146 115.66 103.62 115.66 106.25C115.66 109.011 115.204 111.576 114.293 113.946C113.408 116.315 112.118 118.386 110.426 120.156C108.759 121.927 106.754 123.308 104.41 124.297C102.066 125.287 99.4362 125.781 96.5195 125.781C93.4987 125.781 90.7513 125.235 88.2773 124.141C85.8294 123.021 83.7201 121.459 81.9492 119.453C80.1784 117.448 78.8112 115.065 77.8477 112.305C76.9102 109.545 76.4414 106.524 76.4414 103.242V98.8674C76.4414 94.2841 77.1055 90.0914 78.4336 86.2893C79.7878 82.4612 81.7279 79.1539 84.2539 76.3674C86.7799 73.5549 89.8268 71.3805 93.3945 69.844C96.9622 68.3075 100.986 67.5393 105.465 67.5393Z" fill="#F24822"/>
<path d="M244.293 227.297H249.215V254.25H247.223C238.316 254.25 230.387 255.579 223.434 258.235C216.48 260.891 210.582 264.68 205.738 269.602C200.973 274.446 197.301 280.305 194.723 287.18C192.223 294.055 190.973 301.75 190.973 310.266V338.625C190.973 344.719 191.559 350.11 192.73 354.797C193.98 359.407 195.738 363.274 198.004 366.399C200.348 369.446 203.082 371.75 206.207 373.313C209.332 374.797 212.848 375.54 216.754 375.54C220.426 375.54 223.746 374.758 226.715 373.196C229.762 371.633 232.34 369.446 234.449 366.633C236.637 363.743 238.277 360.383 239.371 356.555C240.543 352.649 241.129 348.391 241.129 343.782C241.129 339.172 240.543 334.915 239.371 331.008C238.277 327.102 236.637 323.743 234.449 320.93C232.262 318.04 229.605 315.813 226.48 314.25C223.355 312.688 219.84 311.907 215.934 311.907C210.621 311.907 205.934 313.157 201.871 315.657C197.887 318.079 194.762 321.204 192.496 325.032C190.23 328.86 189.02 332.883 188.863 337.102L178.668 330.54C178.902 324.524 180.152 318.821 182.418 313.43C184.762 308.04 187.965 303.274 192.027 299.133C196.168 294.915 201.129 291.633 206.91 289.29C212.691 286.868 219.215 285.657 226.48 285.657C234.449 285.657 241.441 287.18 247.457 290.227C253.551 293.274 258.629 297.454 262.691 302.766C266.754 308.079 269.801 314.211 271.832 321.165C273.863 328.118 274.879 335.54 274.879 343.43C274.879 351.711 273.512 359.407 270.777 366.516C268.121 373.625 264.254 379.836 259.176 385.149C254.176 390.461 248.16 394.602 241.129 397.571C234.098 400.54 226.207 402.024 217.457 402.024C208.395 402.024 200.152 400.383 192.73 397.102C185.387 393.743 179.059 389.055 173.746 383.04C168.434 377.024 164.332 369.875 161.441 361.594C158.629 353.313 157.223 344.25 157.223 334.407V321.282C157.223 307.532 159.215 294.954 163.199 283.547C167.262 272.063 173.082 262.141 180.66 253.782C188.238 245.344 197.379 238.821 208.082 234.211C218.785 229.602 230.855 227.297 244.293 227.297Z" fill="#F24822"/>
<path fill-rule="evenodd" clip-rule="evenodd" d="M67.2305 185.628L96.5042 215.831L125.778 185.628L96.5042 155.425L67.2305 185.628Z" fill="#F24822"/>
<defs>
<filter id="filter0_d_26_630" x="0" y="0" width="348" height="462" filterUnits="userSpaceOnUse" color-interpolation-filters="sRGB">
<feFlood flood-opacity="0" result="BackgroundImageFix"/>
<feColorMatrix in="SourceAlpha" type="matrix" values="0 0 0 0 0 0 0 0 0 0 0 0 0 0 0 0 0 0 127 0" result="hardAlpha"/>
<feOffset dy="5"/>
<feGaussianBlur stdDeviation="17"/>
<feColorMatrix type="matrix" values="0 0 0 0 0 0 0 0 0 0 0 0 0 0 0 0 0 0 0.1 0"/>
<feBlend mode="normal" in2="BackgroundImageFix" result="effect1_dropShadow_26_630"/>
<feBlend mode="normal" in="SourceGraphic" in2="effect1_dropShadow_26_630" result="shape"/>
</filter>
</defs>
</svg>
