<svg width="348" height="462" viewBox="0 0 348 462" fill="none" xmlns="http://www.w3.org/2000/svg">
<g filter="url(#filter0_d_26_777)">
<rect x="34" y="29" width="280" height="394" rx="20" fill="#F2F2F2"/>
<rect x="34.5" y="29.5" width="279" height="393" rx="19.5" stroke="#D2D2D2"/>
</g>
<path d="M114.762 109.414C114.762 112.982 113.928 115.99 112.262 118.437C110.595 120.859 108.303 122.695 105.387 123.945C102.496 125.169 99.2148 125.781 95.543 125.781C91.8711 125.781 88.5768 125.169 85.6602 123.945C82.7435 122.695 80.4388 120.859 78.7461 118.437C77.0534 115.99 76.207 112.982 76.207 109.414C76.207 107.018 76.6888 104.857 77.6523 102.93C78.6159 100.977 79.957 99.3099 81.6758 97.9297C83.4206 96.5234 85.4648 95.4557 87.8086 94.7266C90.1523 93.9714 92.7044 93.5937 95.4648 93.5937C99.1628 93.5937 102.47 94.2448 105.387 95.5469C108.303 96.849 110.595 98.6849 112.262 101.055C113.928 103.424 114.762 106.211 114.762 109.414ZM103.434 108.672C103.434 106.927 103.095 105.43 102.418 104.18C101.767 102.904 100.842 101.927 99.6445 101.25C98.4466 100.573 97.0534 100.234 95.4648 100.234C93.8763 100.234 92.4831 100.573 91.2852 101.25C90.0872 101.927 89.1497 102.904 88.4727 104.18C87.8216 105.43 87.4961 106.927 87.4961 108.672C87.4961 110.391 87.8216 111.875 88.4727 113.125C89.1497 114.375 90.0872 115.339 91.2852 116.016C92.5091 116.667 93.9284 116.992 95.543 116.992C97.1576 116.992 98.5508 116.667 99.7227 116.016C100.921 115.339 101.832 114.375 102.457 113.125C103.108 111.875 103.434 110.391 103.434 108.672ZM113.551 83.2031C113.551 86.0937 112.783 88.6589 111.246 90.8984C109.71 93.112 107.574 94.8437 104.84 96.0937C102.132 97.3437 99.0325 97.9687 95.543 97.9687C92.0273 97.9687 88.9023 97.3437 86.168 96.0937C83.4336 94.8437 81.2982 93.112 79.7617 90.8984C78.2253 88.6589 77.457 86.0937 77.457 83.2031C77.457 79.7656 78.2253 76.875 79.7617 74.5312C81.3242 72.1615 83.4596 70.3646 86.168 69.1406C88.9023 67.9167 92.0013 67.3047 95.4648 67.3047C98.9805 67.3047 102.092 67.9167 104.801 69.1406C107.535 70.3646 109.671 72.1615 111.207 74.5312C112.77 76.875 113.551 79.7656 113.551 83.2031ZM102.301 83.7109C102.301 82.1745 102.027 80.8464 101.48 79.7266C100.934 78.5807 100.152 77.6953 99.1367 77.0703C98.1471 76.4453 96.9232 76.1328 95.4648 76.1328C94.0586 76.1328 92.8477 76.4323 91.832 77.0312C90.8424 77.6302 90.0742 78.5026 89.5273 79.6484C89.0065 80.7682 88.7461 82.1224 88.7461 83.7109C88.7461 85.2474 89.0065 86.6016 89.5273 87.7734C90.0742 88.9193 90.8555 89.8177 91.8711 90.4687C92.8867 91.1198 94.1107 91.4453 95.543 91.4453C96.9753 91.4453 98.1862 91.1198 99.1758 90.4687C100.191 89.8177 100.96 88.9193 101.48 87.7734C102.027 86.6016 102.301 85.2474 102.301 83.7109Z" fill="#050505"/>
<path d="M273.316 353.156C273.316 363.859 270.816 372.883 265.816 380.227C260.816 387.492 253.941 393 245.191 396.75C236.52 400.422 226.676 402.258 215.66 402.258C204.645 402.258 194.762 400.422 186.012 396.75C177.262 393 170.348 387.492 165.27 380.227C160.191 372.883 157.652 363.859 157.652 353.156C157.652 345.969 159.098 339.484 161.988 333.703C164.879 327.844 168.902 322.844 174.059 318.703C179.293 314.484 185.426 311.281 192.457 309.094C199.488 306.828 207.145 305.695 215.426 305.695C226.52 305.695 236.441 307.648 245.191 311.555C253.941 315.461 260.816 320.969 265.816 328.078C270.816 335.187 273.316 343.547 273.316 353.156ZM239.332 350.93C239.332 345.695 238.316 341.203 236.285 337.453C234.332 333.625 231.559 330.695 227.965 328.664C224.371 326.633 220.191 325.617 215.426 325.617C210.66 325.617 206.48 326.633 202.887 328.664C199.293 330.695 196.48 333.625 194.449 337.453C192.496 341.203 191.52 345.695 191.52 350.93C191.52 356.086 192.496 360.539 194.449 364.289C196.48 368.039 199.293 370.93 202.887 372.961C206.559 374.914 210.816 375.891 215.66 375.891C220.504 375.891 224.684 374.914 228.199 372.961C231.793 370.93 234.527 368.039 236.402 364.289C238.355 360.539 239.332 356.086 239.332 350.93ZM269.684 274.523C269.684 283.195 267.379 290.891 262.77 297.609C258.16 304.25 251.754 309.445 243.551 313.195C235.426 316.945 226.129 318.82 215.66 318.82C205.113 318.82 195.738 316.945 187.535 313.195C179.332 309.445 172.926 304.25 168.316 297.609C163.707 290.891 161.402 283.195 161.402 274.523C161.402 264.211 163.707 255.539 168.316 248.508C173.004 241.398 179.41 236.008 187.535 232.336C195.738 228.664 205.035 226.828 215.426 226.828C225.973 226.828 235.309 228.664 243.434 232.336C251.637 236.008 258.043 241.398 262.652 248.508C267.34 255.539 269.684 264.211 269.684 274.523ZM235.934 276.047C235.934 271.437 235.113 267.453 233.473 264.094C231.832 260.656 229.488 258 226.441 256.125C223.473 254.25 219.801 253.312 215.426 253.312C211.207 253.312 207.574 254.211 204.527 256.008C201.559 257.805 199.254 260.422 197.613 263.859C196.051 267.219 195.27 271.281 195.27 276.047C195.27 280.656 196.051 284.719 197.613 288.234C199.254 291.672 201.598 294.367 204.645 296.32C207.691 298.273 211.363 299.25 215.66 299.25C219.957 299.25 223.59 298.273 226.559 296.32C229.605 294.367 231.91 291.672 233.473 288.234C235.113 284.719 235.934 280.656 235.934 276.047Z" fill="#050505"/>
<path fill-rule="evenodd" clip-rule="evenodd" d="M110.755 176.289C109.056 176.289 107.437 176.659 105.961 177.329C107.347 175.139 108.161 172.487 108.161 169.627C108.161 162.122 102.571 156.038 95.6757 156.038C88.7806 156.038 83.191 162.122 83.191 169.627C83.191 172.35 83.9297 174.884 85.1967 177.01C83.937 176.545 82.5881 176.289 81.1839 176.289C74.2886 176.289 68.6992 182.373 68.6992 189.878C68.6992 197.383 74.2886 203.467 81.1839 203.467C82.7411 203.467 84.2306 203.154 85.6053 202.587C85.6051 202.59 91.4156 200.883 95.2351 193.315V197.872C95.2351 197.872 93.2768 212.234 79.4703 213.806H77.2669V216.044H114.868V213.806H112.665C98.8582 212.234 96.8996 197.872 96.8996 197.872V193.622C97.611 195.327 101.544 203.665 110.384 203.458C110.508 203.461 110.631 203.467 110.755 203.467C117.65 203.467 123.24 197.383 123.24 189.878C123.24 182.373 117.65 176.289 110.755 176.289Z" fill="#1A1919"/>
<defs>
<filter id="filter0_d_26_777" x="0" y="0" width="348" height="462" filterUnits="userSpaceOnUse" color-interpolation-filters="sRGB">
<feFlood flood-opacity="0" result="BackgroundImageFix"/>
<feColorMatrix in="SourceAlpha" type="matrix" values="0 0 0 0 0 0 0 0 0 0 0 0 0 0 0 0 0 0 127 0" result="hardAlpha"/>
<feOffset dy="5"/>
<feGaussianBlur stdDeviation="17"/>
<feColorMatrix type="matrix" values="0 0 0 0 0 0 0 0 0 0 0 0 0 0 0 0 0 0 0.1 0"/>
<feBlend mode="normal" in2="BackgroundImageFix" result="effect1_dropShadow_26_777"/>
<feBlend mode="normal" in="SourceGraphic" in2="effect1_dropShadow_26_777" result="shape"/>
</filter>
</defs>
</svg>
