<svg width="351" height="464" viewBox="0 0 351 464" fill="none" xmlns="http://www.w3.org/2000/svg">
<g filter="url(#filter0_d_26_595)">
<rect x="36.125" y="29" width="280" height="394" rx="20" transform="rotate(0.308765 36.125 29)" fill="#F2F2F2"/>
<rect x="36.6223" y="29.5027" width="279" height="393" rx="19.5" transform="rotate(0.308765 36.6223 29.5027)" stroke="#D2D2D2"/>
</g>
<path d="M116.449 109.848C116.43 113.416 115.58 116.419 113.9 118.858C112.221 121.271 109.919 123.095 106.996 124.329C104.099 125.537 100.814 126.132 97.1423 126.112C93.4705 126.092 90.1796 125.462 87.2695 124.223C84.3596 122.957 82.0649 121.109 80.3853 118.678C78.7058 116.221 77.8756 113.208 77.8949 109.641C77.9078 107.245 78.4012 105.086 79.3751 103.164C80.3491 101.216 81.6993 99.5569 83.4254 98.1859C85.1778 96.7891 87.2278 95.7324 89.5754 95.0159C91.9232 94.2733 94.4773 93.9095 97.2376 93.9244C100.936 93.9443 104.239 94.6131 107.149 95.9309C110.058 97.2487 112.34 99.097 113.994 101.476C115.648 103.854 116.466 106.645 116.449 109.848ZM105.125 109.045C105.134 107.3 104.804 105.801 104.134 104.548C103.489 103.268 102.57 102.287 101.376 101.603C100.182 100.919 98.7904 100.573 97.2019 100.565C95.6133 100.556 94.2183 100.887 93.0168 101.558C91.8152 102.229 90.8725 103.2 90.1885 104.472C89.5307 105.719 89.1972 107.215 89.1878 108.959C89.1785 110.678 89.496 112.164 90.1403 113.418C90.8106 114.671 91.7429 115.64 92.9372 116.323C94.1576 116.981 95.5751 117.314 97.1897 117.323C98.8042 117.332 100.199 117.014 101.375 116.369C102.576 115.698 103.493 114.74 104.124 113.493C104.782 112.247 105.116 110.764 105.125 109.045ZM115.379 83.6314C115.364 86.5219 114.582 89.0829 113.033 91.3141C111.485 93.5194 109.34 95.2396 106.599 96.4748C103.884 97.7102 100.782 98.3185 97.2922 98.2997C93.7766 98.2808 90.655 97.6389 87.9274 96.3742C85.1998 95.1095 83.0738 93.3663 81.5493 91.1445C80.0249 88.8966 79.2705 86.3274 79.2861 83.4368C79.3046 79.9994 80.0884 77.113 81.6375 74.7775C83.2127 72.4162 85.3578 70.6308 88.0727 69.4215C90.8136 68.2123 93.9158 67.617 97.3793 67.6357C100.895 67.6546 104.004 68.2834 106.705 69.5219C109.433 70.7606 111.559 72.5689 113.082 74.947C114.632 77.2991 115.398 80.1939 115.379 83.6314ZM104.127 84.0785C104.135 82.5421 103.869 81.2125 103.328 80.0898C102.787 78.941 102.011 78.0514 100.999 77.421C100.012 76.7906 98.7901 76.4715 97.3317 76.4637C95.9255 76.4561 94.713 76.749 93.6941 77.3425C92.7013 77.9361 91.9284 78.8044 91.3754 79.9473C90.8485 81.0642 90.5808 82.417 90.5723 84.0055C90.564 85.5419 90.8171 86.8975 91.3316 88.0721C91.8723 89.2209 92.6487 90.1235 93.6608 90.78C94.6729 91.4365 95.8951 91.7687 97.3273 91.7764C98.7596 91.7841 99.9723 91.4651 100.965 90.8194C101.984 90.1738 102.758 89.2796 103.285 88.1366C103.838 86.9676 104.118 85.615 104.127 84.0785Z" fill="#F24822"/>
<path d="M275.003 353.798C274.946 364.501 272.397 373.511 267.357 380.827C262.318 388.066 255.414 393.537 246.644 397.239C237.952 400.864 228.099 402.647 217.083 402.588C206.068 402.529 196.195 400.639 187.465 396.92C178.735 393.123 171.851 387.578 166.812 380.285C161.774 372.914 159.283 363.877 159.341 353.174C159.38 345.987 160.86 339.511 163.782 333.745C166.704 327.901 170.754 322.923 175.933 318.81C181.19 314.62 187.34 311.45 194.382 309.3C201.426 307.072 209.088 305.981 217.369 306.026C228.463 306.085 238.374 308.092 247.103 312.045C255.832 315.999 262.677 321.543 267.638 328.68C272.6 335.816 275.055 344.189 275.003 353.798ZM241.031 351.388C241.06 346.154 240.068 341.656 238.057 337.895C236.125 334.057 233.367 331.112 229.784 329.062C226.202 327.011 222.027 325.973 217.262 325.947C212.496 325.921 208.311 326.915 204.707 328.926C201.102 330.938 198.274 333.853 196.222 337.67C194.248 341.409 193.248 345.896 193.22 351.13C193.192 356.287 194.144 360.745 196.077 364.505C198.088 368.266 200.885 371.172 204.468 373.223C208.129 375.195 212.382 376.195 217.225 376.221C222.069 376.247 226.254 375.293 229.78 373.359C233.385 371.347 236.135 368.471 238.03 364.731C240.003 360.992 241.004 356.544 241.031 351.388ZM271.794 275.146C271.747 283.818 269.401 291.501 264.756 298.195C260.111 304.811 253.677 309.971 245.453 313.677C237.308 317.383 228.001 319.208 217.533 319.152C206.986 319.095 197.621 317.169 189.439 313.375C181.256 309.581 174.878 304.351 170.304 297.686C165.731 290.942 163.468 283.235 163.515 274.563C163.57 264.251 165.921 255.591 170.569 248.585C175.294 241.501 181.73 236.145 189.874 232.517C198.097 228.889 207.404 227.103 217.794 227.159C228.341 227.216 237.667 229.103 245.772 232.818C253.955 236.534 260.332 241.959 264.903 249.093C269.553 256.15 271.85 264.834 271.794 275.146ZM238.036 276.488C238.061 271.879 237.262 267.89 235.64 264.522C234.018 261.076 231.689 258.407 228.652 256.515C225.693 254.624 222.026 253.667 217.651 253.643C213.433 253.621 209.795 254.5 206.739 256.28C203.76 258.061 201.442 260.666 199.782 264.094C198.202 267.445 197.399 271.503 197.373 276.269C197.348 280.878 198.108 284.945 199.651 288.469C201.273 291.915 203.602 294.623 206.639 296.593C209.675 298.562 213.341 299.558 217.638 299.582C221.935 299.605 225.573 298.648 228.552 296.711C231.61 294.774 233.929 292.091 235.51 288.662C237.169 285.155 238.012 281.097 238.036 276.488Z" fill="#F24822"/>
<path fill-rule="evenodd" clip-rule="evenodd" d="M109.758 160.401C99.0673 160.507 96.8766 172.666 96.8766 172.666C96.8766 172.666 94.4754 160.483 83.7867 160.261C73.0977 160.039 66.4688 169.377 70.0338 179.264C73.5986 189.151 77.1916 191.391 82.8335 198.575C88.4752 205.76 96.6725 218.18 96.6156 221.099C96.5904 218.179 104.579 205.847 110.298 198.723C116.017 191.6 119.634 189.399 123.305 179.551C126.976 169.703 120.449 160.294 109.758 160.401Z" fill="#F24822"/>
<defs>
<filter id="filter0_d_26_595" x="0.109375" y="0.107422" width="349.902" height="463.288" filterUnits="userSpaceOnUse" color-interpolation-filters="sRGB">
<feFlood flood-opacity="0" result="BackgroundImageFix"/>
<feColorMatrix in="SourceAlpha" type="matrix" values="0 0 0 0 0 0 0 0 0 0 0 0 0 0 0 0 0 0 127 0" result="hardAlpha"/>
<feOffset dy="5"/>
<feGaussianBlur stdDeviation="17"/>
<feColorMatrix type="matrix" values="0 0 0 0 0 0 0 0 0 0 0 0 0 0 0 0 0 0 0.1 0"/>
<feBlend mode="normal" in2="BackgroundImageFix" result="effect1_dropShadow_26_595"/>
<feBlend mode="normal" in="SourceGraphic" in2="effect1_dropShadow_26_595" result="shape"/>
</filter>
</defs>
</svg>
