<svg width="348" height="462" viewBox="0 0 348 462" fill="none" xmlns="http://www.w3.org/2000/svg">
<g filter="url(#filter0_d_26_819)">
<rect x="34" y="29" width="280" height="394" rx="20" fill="#F2F2F2"/>
<rect x="34.5" y="29.5" width="279" height="393" rx="19.5" stroke="#D2D2D2"/>
</g>
<path d="M114.758 109.414C114.758 112.982 113.924 115.99 112.258 118.438C110.591 120.859 108.299 122.695 105.383 123.945C102.492 125.169 99.2109 125.781 95.5391 125.781C91.8672 125.781 88.5729 125.169 85.6562 123.945C82.7396 122.695 80.4349 120.859 78.7422 118.438C77.0495 115.99 76.2031 112.982 76.2031 109.414C76.2031 107.018 76.6849 104.857 77.6484 102.93C78.612 100.977 79.9531 99.3099 81.6719 97.9297C83.4167 96.5234 85.4609 95.4557 87.8047 94.7266C90.1484 93.9714 92.7005 93.5938 95.4609 93.5938C99.1589 93.5938 102.466 94.2448 105.383 95.5469C108.299 96.849 110.591 98.6849 112.258 101.055C113.924 103.424 114.758 106.211 114.758 109.414ZM103.43 108.672C103.43 106.927 103.091 105.43 102.414 104.18C101.763 102.904 100.839 101.927 99.6406 101.25C98.4427 100.573 97.0495 100.234 95.4609 100.234C93.8724 100.234 92.4792 100.573 91.2812 101.25C90.0833 101.927 89.1458 102.904 88.4688 104.18C87.8177 105.43 87.4922 106.927 87.4922 108.672C87.4922 110.391 87.8177 111.875 88.4688 113.125C89.1458 114.375 90.0833 115.339 91.2812 116.016C92.5052 116.667 93.9245 116.992 95.5391 116.992C97.1536 116.992 98.5469 116.667 99.7188 116.016C100.917 115.339 101.828 114.375 102.453 113.125C103.104 111.875 103.43 110.391 103.43 108.672ZM113.547 83.2031C113.547 86.0938 112.779 88.6589 111.242 90.8984C109.706 93.112 107.57 94.8438 104.836 96.0938C102.128 97.3438 99.0286 97.9688 95.5391 97.9688C92.0234 97.9688 88.8984 97.3438 86.1641 96.0938C83.4297 94.8438 81.2943 93.112 79.7578 90.8984C78.2214 88.6589 77.4531 86.0938 77.4531 83.2031C77.4531 79.7656 78.2214 76.875 79.7578 74.5312C81.3203 72.1615 83.4557 70.3646 86.1641 69.1406C88.8984 67.9167 91.9974 67.3047 95.4609 67.3047C98.9766 67.3047 102.089 67.9167 104.797 69.1406C107.531 70.3646 109.667 72.1615 111.203 74.5312C112.766 76.875 113.547 79.7656 113.547 83.2031ZM102.297 83.7109C102.297 82.1745 102.023 80.8464 101.477 79.7266C100.93 78.5807 100.148 77.6953 99.1328 77.0703C98.1432 76.4453 96.9193 76.1328 95.4609 76.1328C94.0547 76.1328 92.8438 76.4323 91.8281 77.0312C90.8385 77.6302 90.0703 78.5026 89.5234 79.6484C89.0026 80.7682 88.7422 82.1224 88.7422 83.7109C88.7422 85.2474 89.0026 86.6016 89.5234 87.7734C90.0703 88.9193 90.8516 89.8177 91.8672 90.4688C92.8828 91.1198 94.1068 91.4453 95.5391 91.4453C96.9714 91.4453 98.1823 91.1198 99.1719 90.4688C100.188 89.8177 100.956 88.9193 101.477 87.7734C102.023 86.6016 102.297 85.2474 102.297 83.7109Z" fill="black"/>
<path d="M273.312 353.156C273.312 363.859 270.812 372.883 265.812 380.227C260.813 387.492 253.938 393 245.188 396.75C236.516 400.422 226.672 402.258 215.656 402.258C204.641 402.258 194.758 400.422 186.008 396.75C177.258 393 170.344 387.492 165.266 380.227C160.187 372.883 157.648 363.859 157.648 353.156C157.648 345.969 159.094 339.484 161.984 333.703C164.875 327.844 168.898 322.844 174.055 318.703C179.289 314.484 185.422 311.281 192.453 309.094C199.484 306.828 207.141 305.695 215.422 305.695C226.516 305.695 236.437 307.648 245.188 311.555C253.938 315.461 260.813 320.969 265.812 328.078C270.812 335.188 273.312 343.547 273.312 353.156ZM239.328 350.93C239.328 345.695 238.312 341.203 236.281 337.453C234.328 333.625 231.555 330.695 227.961 328.664C224.367 326.633 220.187 325.617 215.422 325.617C210.656 325.617 206.477 326.633 202.883 328.664C199.289 330.695 196.477 333.625 194.445 337.453C192.492 341.203 191.516 345.695 191.516 350.93C191.516 356.086 192.492 360.539 194.445 364.289C196.477 368.039 199.289 370.93 202.883 372.961C206.555 374.914 210.812 375.891 215.656 375.891C220.5 375.891 224.68 374.914 228.195 372.961C231.789 370.93 234.523 368.039 236.398 364.289C238.352 360.539 239.328 356.086 239.328 350.93ZM269.68 274.523C269.68 283.195 267.375 290.891 262.766 297.609C258.156 304.25 251.75 309.445 243.547 313.195C235.422 316.945 226.125 318.82 215.656 318.82C205.109 318.82 195.734 316.945 187.531 313.195C179.328 309.445 172.922 304.25 168.312 297.609C163.703 290.891 161.398 283.195 161.398 274.523C161.398 264.211 163.703 255.539 168.312 248.508C173 241.398 179.406 236.008 187.531 232.336C195.734 228.664 205.031 226.828 215.422 226.828C225.969 226.828 235.305 228.664 243.43 232.336C251.633 236.008 258.039 241.398 262.648 248.508C267.336 255.539 269.68 264.211 269.68 274.523ZM235.93 276.047C235.93 271.437 235.109 267.453 233.469 264.094C231.828 260.656 229.484 258 226.438 256.125C223.469 254.25 219.797 253.312 215.422 253.312C211.203 253.312 207.57 254.211 204.523 256.008C201.555 257.805 199.25 260.422 197.609 263.859C196.047 267.219 195.266 271.281 195.266 276.047C195.266 280.656 196.047 284.719 197.609 288.234C199.25 291.672 201.594 294.367 204.641 296.32C207.688 298.273 211.359 299.25 215.656 299.25C219.953 299.25 223.586 298.273 226.555 296.32C229.602 294.367 231.906 291.672 233.469 288.234C235.109 284.719 235.93 280.656 235.93 276.047Z" fill="black"/>
<path fill-rule="evenodd" clip-rule="evenodd" d="M109.244 200.984C119.533 201.117 125.862 193.546 122.381 185.577C118.899 177.608 115.428 175.815 109.963 170.037C104.495 164.259 96.5448 154.265 96.5823 151.907C96.6226 154.265 88.9994 164.259 83.5316 170.037C78.0665 175.815 74.5984 177.608 71.1143 185.577C67.6328 193.546 73.9649 201.117 84.2509 200.984C91.3132 200.893 94.4913 196.233 95.7878 193.32L95.7878 197.133C95.7878 197.133 93.533 210.886 77.6209 212.392L75.0843 212.392L75.0843 214.535L118.413 214.535L118.413 212.392L115.874 212.392C99.9645 210.886 97.707 197.133 97.707 197.133L97.707 193.821C99.2344 196.737 102.574 200.898 109.244 200.984Z" fill="#1A1919"/>
<defs>
<filter id="filter0_d_26_819" x="0" y="0" width="348" height="462" filterUnits="userSpaceOnUse" color-interpolation-filters="sRGB">
<feFlood flood-opacity="0" result="BackgroundImageFix"/>
<feColorMatrix in="SourceAlpha" type="matrix" values="0 0 0 0 0 0 0 0 0 0 0 0 0 0 0 0 0 0 127 0" result="hardAlpha"/>
<feOffset dy="5"/>
<feGaussianBlur stdDeviation="17"/>
<feColorMatrix type="matrix" values="0 0 0 0 0 0 0 0 0 0 0 0 0 0 0 0 0 0 0.1 0"/>
<feBlend mode="normal" in2="BackgroundImageFix" result="effect1_dropShadow_26_819"/>
<feBlend mode="normal" in="SourceGraphic" in2="effect1_dropShadow_26_819" result="shape"/>
</filter>
</defs>
</svg>
