<svg width="348" height="462" viewBox="0 0 348 462" fill="none" xmlns="http://www.w3.org/2000/svg">
<g filter="url(#filter0_d_26_770)">
<rect x="34" y="29" width="280" height="394" rx="20" fill="#F2F2F2"/>
<rect x="34.5" y="29.5" width="279" height="393" rx="19.5" stroke="#D2D2D2"/>
</g>
<path d="M84.4102 116.446H85.1523C88.2773 116.446 90.9596 116.068 93.1992 115.313C95.4648 114.531 97.3268 113.412 98.7852 111.953C100.243 110.495 101.324 108.711 102.027 106.602C102.73 104.466 103.082 102.045 103.082 99.3362V88.5549C103.082 86.4976 102.874 84.6877 102.457 83.1252C102.066 81.5627 101.493 80.2737 100.738 79.2581C100.009 78.2164 99.1497 77.4351 98.1602 76.9143C97.1966 76.3935 96.1289 76.1331 94.957 76.1331C93.707 76.1331 92.6003 76.4456 91.6367 77.0706C90.6732 77.6695 89.8529 78.4898 89.1758 79.5315C88.5247 80.5732 88.0169 81.7711 87.6523 83.1252C87.3138 84.4534 87.1445 85.8466 87.1445 87.3049C87.1445 88.7633 87.3138 90.1565 87.6523 91.4846C87.9909 92.7867 88.4987 93.9456 89.1758 94.9612C89.8529 95.9508 90.6992 96.745 91.7148 97.344C92.7305 97.9169 93.9284 98.2034 95.3086 98.2034C96.6367 98.2034 97.8216 97.956 98.8633 97.4612C99.931 96.9403 100.829 96.2633 101.559 95.4299C102.314 94.5966 102.887 93.6721 103.277 92.6565C103.694 91.6409 103.902 90.6122 103.902 89.5706L107.613 91.6018C107.613 93.4247 107.223 95.2216 106.441 96.9924C105.66 98.7633 104.566 100.378 103.16 101.836C101.78 103.268 100.178 104.414 98.3555 105.274C96.5326 106.133 94.5794 106.563 92.4961 106.563C89.8398 106.563 87.4831 106.081 85.4258 105.117C83.3685 104.128 81.6237 102.774 80.1914 101.055C78.7852 99.3101 77.7174 97.2789 76.9883 94.9612C76.2591 92.6435 75.8945 90.1305 75.8945 87.4221C75.8945 84.6617 76.3372 82.0706 77.2227 79.6487C78.1341 77.2268 79.4232 75.0914 81.0898 73.2424C82.7826 71.3935 84.8008 69.9482 87.1445 68.9065C89.5143 67.8388 92.1445 67.3049 95.0352 67.3049C97.9258 67.3049 100.556 67.8648 102.926 68.9846C105.296 70.1044 107.327 71.693 109.02 73.7502C110.712 75.7815 112.014 78.2164 112.926 81.0549C113.863 83.8935 114.332 87.0445 114.332 90.5081V94.4143C114.332 98.1122 113.928 101.55 113.121 104.727C112.34 107.904 111.155 110.781 109.566 113.36C108.004 115.912 106.051 118.099 103.707 119.922C101.389 121.745 98.694 123.138 95.6211 124.102C92.5482 125.065 89.1107 125.547 85.3086 125.547H84.4102V116.446Z" fill="#F24822"/>
<path d="M183.004 374.485H185.23C194.605 374.485 202.652 373.352 209.371 371.086C216.168 368.743 221.754 365.383 226.129 361.008C230.504 356.633 233.746 351.282 235.855 344.954C237.965 338.547 239.02 331.282 239.02 323.157V290.813C239.02 284.641 238.395 279.211 237.145 274.524C235.973 269.836 234.254 265.969 231.988 262.922C229.801 259.797 227.223 257.454 224.254 255.891C221.363 254.329 218.16 253.547 214.645 253.547C210.895 253.547 207.574 254.485 204.684 256.36C201.793 258.157 199.332 260.618 197.301 263.743C195.348 266.868 193.824 270.461 192.73 274.524C191.715 278.508 191.207 282.688 191.207 287.063C191.207 291.438 191.715 295.618 192.73 299.602C193.746 303.508 195.27 306.985 197.301 310.032C199.332 313 201.871 315.383 204.918 317.18C207.965 318.899 211.559 319.758 215.699 319.758C219.684 319.758 223.238 319.016 226.363 317.532C229.566 315.969 232.262 313.938 234.449 311.438C236.715 308.938 238.434 306.165 239.605 303.118C240.855 300.071 241.48 296.985 241.48 293.86L252.613 299.954C252.613 305.422 251.441 310.813 249.098 316.125C246.754 321.438 243.473 326.282 239.254 330.657C235.113 334.954 230.309 338.391 224.84 340.969C219.371 343.547 213.512 344.836 207.262 344.836C199.293 344.836 192.223 343.391 186.051 340.5C179.879 337.532 174.645 333.469 170.348 328.313C166.129 323.079 162.926 316.985 160.738 310.032C158.551 303.079 157.457 295.54 157.457 287.415C157.457 279.133 158.785 271.36 161.441 264.094C164.176 256.829 168.043 250.422 173.043 244.875C178.121 239.329 184.176 234.993 191.207 231.868C198.316 228.665 206.207 227.063 214.879 227.063C223.551 227.063 231.441 228.743 238.551 232.102C245.66 235.461 251.754 240.227 256.832 246.399C261.91 252.493 265.816 259.797 268.551 268.313C271.363 276.829 272.77 286.282 272.77 296.672V308.391C272.77 319.485 271.559 329.797 269.137 339.329C266.793 348.86 263.238 357.493 258.473 365.227C253.785 372.883 247.926 379.446 240.895 384.915C233.941 390.383 225.855 394.563 216.637 397.454C207.418 400.344 197.105 401.79 185.699 401.79H183.004V374.485Z" fill="#F24822"/>
<path fill-rule="evenodd" clip-rule="evenodd" d="M67.2305 185.628L96.5042 215.831L125.778 185.628L96.5042 155.425L67.2305 185.628Z" fill="#F24822"/>
<defs>
<filter id="filter0_d_26_770" x="0" y="0" width="348" height="462" filterUnits="userSpaceOnUse" color-interpolation-filters="sRGB">
<feFlood flood-opacity="0" result="BackgroundImageFix"/>
<feColorMatrix in="SourceAlpha" type="matrix" values="0 0 0 0 0 0 0 0 0 0 0 0 0 0 0 0 0 0 127 0" result="hardAlpha"/>
<feOffset dy="5"/>
<feGaussianBlur stdDeviation="17"/>
<feColorMatrix type="matrix" values="0 0 0 0 0 0 0 0 0 0 0 0 0 0 0 0 0 0 0.1 0"/>
<feBlend mode="normal" in2="BackgroundImageFix" result="effect1_dropShadow_26_770"/>
<feBlend mode="normal" in="SourceGraphic" in2="effect1_dropShadow_26_770" result="shape"/>
</filter>
</defs>
</svg>
