<svg width="351" height="464" viewBox="0 0 351 464" fill="none" xmlns="http://www.w3.org/2000/svg">
<g filter="url(#filter0_d_26_707)">
<rect x="36.125" y="29" width="280" height="394" rx="20" transform="rotate(0.308765 36.125 29)" fill="#F2F2F2"/>
<rect x="36.6223" y="29.5027" width="279" height="393" rx="19.5" transform="rotate(0.308765 36.6223 29.5027)" stroke="#D2D2D2"/>
</g>
<path d="M86.0588 116.716L86.8009 116.72C89.9259 116.737 92.6102 116.374 94.8538 115.63C97.1236 114.861 98.9916 113.752 100.458 112.301C101.924 110.851 103.014 109.073 103.729 106.967C104.443 104.836 104.808 102.416 104.823 99.7073L104.881 88.9262C104.892 86.8689 104.693 85.058 104.285 83.4932C103.903 81.9286 103.337 80.6365 102.587 79.6168C101.863 78.5713 101.008 77.7854 100.022 77.2592C99.0609 76.7332 97.9946 76.467 96.8227 76.4607C95.5727 76.454 94.4643 76.7605 93.4974 77.3803C92.5306 77.9741 91.7059 78.79 91.0232 79.828C90.3666 80.8661 89.8523 82.0613 89.4805 83.4135C89.1348 84.7397 88.958 86.132 88.9501 87.5903C88.9423 89.0487 89.104 90.4428 89.4354 91.7727C89.7669 93.0766 90.2685 94.2382 90.9401 95.2574C91.6118 96.2506 92.4539 97.0495 93.4663 97.6539C94.4788 98.2323 95.6751 98.5252 97.0553 98.5326C98.3834 98.5398 99.5697 98.2988 100.614 97.8096C101.684 97.2945 102.587 96.6223 103.32 95.7929C104.08 94.9636 104.658 94.0423 105.054 93.0288C105.476 92.0154 105.69 90.9879 105.695 89.9462L109.395 91.9975C109.386 93.8203 108.985 95.6151 108.195 97.3817C107.404 99.1483 106.301 100.757 104.887 102.208C103.499 103.633 101.892 104.77 100.064 105.619C98.2365 106.469 96.2811 106.888 94.1978 106.877C91.5416 106.862 89.1875 106.368 87.1354 105.393C85.0835 104.393 83.346 103.029 81.923 101.303C80.5262 99.5503 79.4694 97.5134 78.7528 95.1917C78.0361 92.8701 77.6851 90.3552 77.6997 87.6469C77.7145 84.8865 78.1712 82.2978 79.0697 79.8807C79.9941 77.4638 81.2947 75.3354 82.9713 73.4954C84.674 71.6556 86.6999 70.2212 89.0493 69.1922C91.4248 68.1372 94.0578 67.6176 96.9484 67.6332C99.839 67.6487 102.466 68.2228 104.83 69.3553C107.194 70.4879 109.216 72.0873 110.898 74.1537C112.58 76.1941 113.869 78.636 114.765 81.4794C115.687 84.3229 116.139 87.4764 116.12 90.9399L116.099 94.8461C116.079 98.544 115.657 101.979 114.832 105.152C114.034 108.325 112.834 111.196 111.231 113.765C109.655 116.309 107.69 118.486 105.337 120.296C103.009 122.107 100.306 123.485 97.2283 124.432C94.1502 125.379 90.7102 125.843 86.9081 125.822L86.0097 125.817L86.0588 116.716Z" fill="#F24822"/>
<path d="M184.356 374.692L186.582 374.704C195.957 374.754 204.01 373.665 210.741 371.436C217.55 369.128 223.154 365.799 227.553 361.448C231.951 357.097 235.222 351.763 237.366 345.446C239.51 339.051 240.604 331.791 240.647 323.666L240.822 291.323C240.855 285.151 240.259 279.718 239.034 275.024C237.888 270.33 236.19 266.454 233.941 263.395C231.77 260.258 229.205 257.901 226.244 256.322C223.362 254.744 220.163 253.946 216.648 253.927C212.898 253.906 209.573 254.826 206.672 256.685C203.772 258.467 201.297 260.914 199.249 264.028C197.279 267.143 195.737 270.728 194.621 274.785C193.584 278.764 193.054 282.941 193.03 287.315C193.006 291.69 193.492 295.873 194.486 299.863C195.48 303.774 196.985 307.259 199 310.317C201.015 313.296 203.541 315.693 206.578 317.506C209.616 319.241 213.205 320.12 217.346 320.142C221.33 320.164 224.889 319.441 228.022 317.973C231.233 316.428 233.939 314.411 236.14 311.923C238.419 309.435 240.153 306.671 241.341 303.631C242.608 300.591 243.249 297.508 243.266 294.383L254.366 300.537C254.336 306.005 253.136 311.39 250.763 316.689C248.391 321.989 245.084 326.815 240.841 331.167C236.678 335.442 231.854 338.854 226.372 341.402C220.889 343.951 215.023 345.208 208.773 345.175C200.805 345.132 193.742 343.648 187.586 340.724C181.43 337.722 176.218 333.632 171.949 328.452C167.758 323.195 164.588 317.084 162.438 310.12C160.288 303.155 159.235 295.61 159.279 287.485C159.323 279.204 160.693 271.438 163.389 264.187C166.162 256.936 170.064 250.551 175.094 245.031C180.202 239.511 186.28 235.208 193.328 232.121C200.454 228.956 208.353 227.397 217.025 227.444C225.697 227.491 233.578 229.213 240.669 232.61C247.76 236.008 253.828 240.806 258.873 247.006C263.918 253.127 267.785 260.452 270.474 268.983C273.24 277.513 274.596 286.974 274.54 297.364L274.476 309.083C274.417 320.176 273.15 330.482 270.677 340C268.282 349.519 264.681 358.132 259.873 365.841C255.145 373.472 249.25 380.003 242.19 385.433C235.207 390.865 227.099 395.001 217.864 397.842C208.63 400.682 198.31 402.072 186.904 402.011L184.209 401.996L184.356 374.692Z" fill="#F24822"/>
<path fill-rule="evenodd" clip-rule="evenodd" d="M109.758 160.401C99.0673 160.507 96.8766 172.666 96.8766 172.666C96.8766 172.666 94.4754 160.483 83.7867 160.261C73.0977 160.039 66.4688 169.377 70.0338 179.264C73.5986 189.151 77.1916 191.391 82.8335 198.575C88.4752 205.76 96.6725 218.18 96.6156 221.099C96.5904 218.179 104.579 205.847 110.298 198.723C116.017 191.6 119.634 189.399 123.305 179.551C126.976 169.703 120.449 160.294 109.758 160.401Z" fill="#F24822"/>
<defs>
<filter id="filter0_d_26_707" x="0.109375" y="0.107422" width="349.902" height="463.288" filterUnits="userSpaceOnUse" color-interpolation-filters="sRGB">
<feFlood flood-opacity="0" result="BackgroundImageFix"/>
<feColorMatrix in="SourceAlpha" type="matrix" values="0 0 0 0 0 0 0 0 0 0 0 0 0 0 0 0 0 0 127 0" result="hardAlpha"/>
<feOffset dy="5"/>
<feGaussianBlur stdDeviation="17"/>
<feColorMatrix type="matrix" values="0 0 0 0 0 0 0 0 0 0 0 0 0 0 0 0 0 0 0.1 0"/>
<feBlend mode="normal" in2="BackgroundImageFix" result="effect1_dropShadow_26_707"/>
<feBlend mode="normal" in="SourceGraphic" in2="effect1_dropShadow_26_707" result="shape"/>
</filter>
</defs>
</svg>
